<?xml version="1.0" encoding="utf-8"?>
<svg width="23px" height="23px" viewBox="0 0 23 23" version="1.1" xmlns:xlink="http://www.w3.org/1999/xlink" xmlns="http://www.w3.org/2000/svg">
  <defs>
    <path d="M23 0L23 0L23 23L0 23L0 0L23 0Z" id="path_1" />
    <clipPath id="clip_1">
      <use xlink:href="#path_1" clip-rule="evenodd" fill-rule="evenodd" />
    </clipPath>
  </defs>
  <g id="counter" clip-path="url(#clip_1)">
    <path d="M23 0L23 0L23 23L0 23L0 0L23 0Z" id="counter" fill="none" stroke="none" />
    <path d="M6.75425 3.75239C6.51336 3.80823 6.28911 3.88316 6.08149 3.97717C5.50233 3.97536 4.91927 3.96787 4.33231 3.95469C4.13596 3.92419 3.94161 3.88673 3.74925 3.8423C3.47818 3.74386 3.22403 3.60899 2.98679 3.4377C2.68222 3.17425 2.59252 2.84457 2.71768 2.44865C2.9514 2.44819 3.19061 2.4407 3.4353 2.42617C3.7941 2.26133 4.15291 2.09649 4.51172 1.93165C5.49031 1.82645 6.23035 2.1936 6.73183 3.03309C6.80857 3.23752 6.83848 3.44732 6.82153 3.66248C6.80906 3.70365 6.78664 3.73362 6.75425 3.75239L6.75425 3.75239Z" id="Group" fill="#222333" fill-opacity="0.984" fill-rule="evenodd" stroke="none" />
    <path d="M21.4879 7.07911C21.0971 7.13953 20.7084 7.21447 20.3218 7.30389C20.1383 7.25439 20.0635 7.13454 20.0975 6.94424C20.0697 6.33373 20.0996 5.73432 20.1872 5.14598C20.4398 5.05431 20.522 4.87449 20.4339 4.6065C20.3688 4.51821 20.2866 4.45826 20.1872 4.42668C20.1554 4.38603 20.1106 4.37105 20.0527 4.38172C19.8645 4.29912 19.7075 4.17924 19.5817 4.02207C19.3015 4.0847 19.0175 4.11467 18.7296 4.11198C18.3335 4.07222 17.9373 4.02727 17.541 3.97711C17.5227 4.48946 17.5451 4.99897 17.6083 5.50563C17.8056 5.95075 18.142 6.22048 18.6174 6.31485C18.6174 6.52466 18.6174 6.73443 18.6174 6.94424C18.1944 6.92644 17.7758 6.95642 17.3616 7.03415C17.1813 6.90567 17.0393 6.74081 16.9355 6.53963C16.9039 5.6494 17.0459 4.78777 17.3616 3.95463C17.0413 3.86062 16.9441 3.65832 17.0701 3.34772C17.4597 2.59066 18.0726 2.1411 18.909 1.99902C19.1812 2.02013 19.4354 2.09506 19.6714 2.22381C20.3654 2.0945 20.784 2.37922 20.9273 3.07798C20.9721 3.39267 21.017 3.70737 21.0618 4.02207C21.3221 4.70001 21.5912 5.37436 21.8691 6.04511C21.9866 6.35117 22.0688 6.66587 22.1158 6.9892C21.9056 7.01334 21.6963 7.04332 21.4879 7.07911L21.4879 7.07911Z" id="Group" fill="#0F0F16" fill-opacity="0.983" fill-rule="evenodd" stroke="none" />
    <path d="M2.98724 3.43652C3.22448 3.60782 3.47863 3.74269 3.7497 3.84113C3.68021 4.22913 3.6204 4.61874 3.5703 5.01C3.50402 5.02178 3.44422 5.00681 3.3909 4.96504C3.36346 4.83319 3.30366 4.7283 3.21149 4.65035C3.12495 4.35254 3.04273 4.05283 2.96481 3.75122C2.93327 3.64201 2.94075 3.53711 2.98724 3.43652L2.98724 3.43652Z" id="Group" fill="#0F1016" fill-opacity="0.967" fill-rule="evenodd" stroke="none" />
    <path d="M6.75968 3.75098C6.69406 4.0382 6.61929 4.32293 6.53542 4.60515C6.4568 4.7241 6.41195 4.85897 6.40087 5.00976C6.34108 5.00976 6.28125 5.00976 6.22147 5.00976C6.1815 4.66445 6.13665 4.31978 6.08691 3.97576C6.29453 3.88175 6.51878 3.80682 6.75968 3.75098L6.75968 3.75098Z" id="Group" fill="#0F0F16" fill-opacity="0.97" fill-rule="evenodd" stroke="none" />
    <path d="M14.2131 6.17863C14.1078 6.03567 14.0405 5.87081 14.0112 5.68411C13.9402 5.62292 13.8579 5.59293 13.7646 5.59419C13.8391 5.49924 13.8241 5.44683 13.7197 5.43685C13.6023 5.53152 13.5126 5.64391 13.4506 5.77402C13.5245 5.86195 13.5544 5.96684 13.5403 6.08871C13.2415 6.38071 12.935 6.66546 12.6209 6.94289C12.5992 6.98551 12.5918 7.03046 12.5984 7.07776C12.6456 7.08446 12.6905 7.07699 12.733 7.05528C12.9962 6.78392 13.2653 6.52164 13.5403 6.26854C13.5916 6.42481 13.5991 6.58962 13.5627 6.76306C13.3368 6.98196 13.1201 7.20674 12.9124 7.43741C12.8229 7.51981 12.7182 7.54229 12.5984 7.50484C12.1737 7.0341 11.7327 6.57708 11.2753 6.13367C11.2454 6.05873 11.2454 5.98383 11.2753 5.90889C11.9991 5.22834 12.7093 4.53151 13.4058 3.81841C13.5104 3.7285 13.6151 3.7285 13.7197 3.81841C14.1295 4.27414 14.5556 4.71619 14.998 5.14463C15.0296 5.25572 15.0147 5.36064 14.9531 5.45932C14.6839 5.67678 14.4372 5.91653 14.2131 6.17863L14.2131 6.17863Z" id="Group" fill="#F8C51F" fill-opacity="0.974" fill-rule="evenodd" stroke="none" />
    <path d="M3.74993 3.84082C3.94229 3.88524 4.13664 3.9227 4.33299 3.95321C4.91995 3.96638 5.50301 3.97388 6.08217 3.97569C6.13191 4.31971 6.17676 4.66438 6.21672 5.00969C6.27651 5.00969 6.33634 5.00969 6.39612 5.00969C6.4072 4.85891 6.45205 4.72404 6.53067 4.60508C6.70088 4.76018 6.75318 4.95502 6.68765 5.18952C6.63424 5.32591 6.53704 5.40086 6.39612 5.4143C6.35876 5.91534 6.13451 6.30498 5.72336 6.58317C5.16833 6.87853 4.61514 6.87853 4.06388 6.58317C3.66702 6.29828 3.42782 5.90864 3.34627 5.4143C3.05357 5.20597 3.00872 4.9512 3.21172 4.65004C3.30388 4.72799 3.36368 4.83288 3.39112 4.96473C3.44444 5.0065 3.50424 5.02147 3.57052 5.00969C3.62063 4.61843 3.68043 4.22882 3.74993 3.84082L3.74993 3.84082Z" id="Group" fill="#FAB9AB" fill-opacity="0.992" fill-rule="evenodd" stroke="none" />
    <path d="M20.0536 4.38019C20.0536 4.73985 20.0536 5.0995 20.0536 5.45915C19.8466 5.95826 19.4728 6.25047 18.9324 6.3358C19.2987 6.43619 19.6724 6.47364 20.0536 6.44819C20.0536 6.61305 20.0536 6.77786 20.0536 6.94271C19.6349 7.30205 19.2014 7.64673 18.753 7.97671C18.7186 7.62412 18.6738 7.27948 18.6184 6.94271C18.6184 6.7329 18.6184 6.52314 18.6184 6.31332C18.143 6.21896 17.8066 5.94922 17.6093 5.50411C17.5461 4.99745 17.5237 4.48793 17.542 3.97559C17.9383 4.02574 18.3345 4.0707 18.7305 4.11046C19.0184 4.11315 19.3025 4.08318 19.5827 4.02054C19.7085 4.17772 19.8655 4.2976 20.0536 4.38019L20.0536 4.38019Z" id="Group" fill="#FBBAAC" fill-rule="evenodd" stroke="none" />
    <path d="M13.5426 4.15527C13.7032 4.24103 13.8377 4.36092 13.9463 4.51493C13.6853 4.79901 13.4162 5.07625 13.1389 5.34662C12.9424 5.30094 12.793 5.18105 12.6904 4.98697C12.9698 4.69938 13.2538 4.42216 13.5426 4.15527L13.5426 4.15527Z" id="Group" fill="#FEFCF6" fill-rule="evenodd" stroke="none" />
    <path d="M20.1922 4.4248C20.2916 4.45639 20.3738 4.51634 20.4389 4.60463C20.527 4.87262 20.4448 5.05244 20.1922 5.14411C20.1334 5.04327 20.1035 4.92337 20.1025 4.78446C20.1035 4.64554 20.1334 4.52564 20.1922 4.4248L20.1922 4.4248Z" id="Group" fill="#F7B7A9" fill-rule="evenodd" stroke="none" />
    <path d="M17.9462 4.4248C18.1244 4.45068 18.1693 4.54808 18.0808 4.71702C18.0232 4.74777 17.9708 4.74026 17.9238 4.69454C17.8934 4.60022 17.9009 4.51031 17.9462 4.4248L17.9462 4.4248Z" id="Group" fill="#1D1A1E" fill-rule="evenodd" stroke="none" />
    <path d="M18.7997 4.4248C18.9779 4.45068 19.0228 4.54808 18.9343 4.71702C18.8767 4.74777 18.8244 4.74026 18.7773 4.69454C18.7553 4.60261 18.7628 4.51269 18.7997 4.4248L18.7997 4.4248Z" id="Group" fill="#1A181D" fill-rule="evenodd" stroke="none" />
    <path d="M13.4085 4.46973C13.477 4.4705 13.4994 4.50048 13.4758 4.55964C13.3256 4.71771 13.1686 4.86755 13.0048 5.0092C12.959 4.98664 12.9515 4.9567 12.9824 4.91929C13.1336 4.7753 13.2756 4.62546 13.4085 4.46973L13.4085 4.46973Z" id="Group" fill="#CAD2FF" fill-rule="evenodd" stroke="none" />
    <path d="M4.24505 4.73926C4.42326 4.76511 4.46811 4.86253 4.3796 5.03148C4.32202 5.06222 4.26969 5.05472 4.22262 5.009C4.19223 4.91468 4.19971 4.82477 4.24505 4.73926L4.24505 4.73926Z" id="Group" fill="#353434" fill-rule="evenodd" stroke="none" />
    <path d="M5.41303 4.73926C5.59122 4.76511 5.63607 4.86253 5.54758 5.03148C5.48999 5.06222 5.43765 5.05472 5.3906 5.009C5.36019 4.91468 5.36768 4.82477 5.41303 4.73926L5.41303 4.73926Z" id="Group" fill="#353434" fill-rule="evenodd" stroke="none" />
    <path d="M13.3638 4.73926C13.4324 4.74002 13.4548 4.77001 13.4311 4.82917C13.3407 4.92736 13.2435 5.01727 13.1396 5.09891C13.0938 5.07634 13.0863 5.0464 13.1172 5.009C13.2087 4.92493 13.2909 4.83502 13.3638 4.73926L13.3638 4.73926Z" id="Group" fill="#C9D2FF" fill-rule="evenodd" stroke="none" />
    <path d="M18.0361 5.32324C18.3202 5.32324 18.6043 5.32324 18.8883 5.32324C18.824 5.69256 18.6147 5.81992 18.2604 5.70537C18.1215 5.61416 18.0468 5.48679 18.0361 5.32324L18.0361 5.32324Z" id="Group" fill="#FFFCFB" fill-rule="evenodd" stroke="none" />
    <path d="M20.0576 4.37988C20.1155 4.36922 20.1604 4.3842 20.1922 4.42484C20.1333 4.52568 20.1035 4.64558 20.1025 4.78449C20.1035 4.92341 20.1333 5.04331 20.1922 5.14414C20.1046 5.73249 20.0747 6.33189 20.1025 6.9424C20.0875 6.9424 20.0726 6.9424 20.0576 6.9424C20.0576 6.77755 20.0576 6.61274 20.0576 6.44788C20.0576 6.11822 20.0576 5.78851 20.0576 5.45884C20.0576 5.09919 20.0576 4.73954 20.0576 4.37988L20.0576 4.37988Z" id="Group" fill="#956C66" fill-rule="evenodd" stroke="none" />
    <path d="M20.0558 5.45801C20.0558 5.78767 20.0558 6.11739 20.0558 6.44705C19.6746 6.4725 19.3009 6.43505 18.9346 6.33466C19.475 6.24933 19.8488 5.95711 20.0558 5.45801L20.0558 5.45801Z" id="Group" fill="#ECA191" fill-rule="evenodd" stroke="none" />
    <path d="M13.7672 5.59277C13.8606 5.59151 13.9428 5.6215 14.0139 5.68268C14.0432 5.86939 14.1104 6.03425 14.2157 6.17721C14.2518 6.31563 14.2966 6.4505 14.3503 6.58181C13.9607 6.92748 13.572 7.27217 13.1841 7.61581C13.0944 7.55589 13.0047 7.49592 12.915 7.43599C13.1227 7.20532 13.3395 6.98053 13.5654 6.76164C13.6017 6.5882 13.5942 6.42339 13.5429 6.26712C13.5429 6.20719 13.5429 6.14722 13.5429 6.08729C13.5571 5.96542 13.5272 5.86053 13.4532 5.7726C13.5265 5.74081 13.5864 5.68839 13.6327 5.61525C13.6752 5.59354 13.72 5.58607 13.7672 5.59277L13.7672 5.59277Z" id="Group" fill="#FCBBAC" fill-opacity="0.993" fill-rule="evenodd" stroke="none" />
    <path d="M13.7681 5.59289C13.7209 5.5862 13.676 5.59366 13.6335 5.61537C13.5872 5.68852 13.5274 5.74094 13.4541 5.77272C13.5161 5.64262 13.6058 5.53023 13.7232 5.43555C13.8276 5.44553 13.8426 5.49795 13.7681 5.59289L13.7681 5.59289Z" id="Group" fill="#FFFBF7" fill-rule="evenodd" stroke="none" />
    <path d="M4.37988 5.68262C4.72375 5.68262 5.06758 5.68262 5.41145 5.68262C5.35238 6.14666 5.09821 6.31902 4.64899 6.19962C4.46158 6.07801 4.37188 5.90569 4.37988 5.68262L4.37988 5.68262Z" id="Group" fill="#FFFAF9" fill-rule="evenodd" stroke="none" />
    <path d="M12.1058 6.26712C12.0478 6.18638 11.9805 6.11144 11.904 6.04234C11.8812 6.10959 11.9037 6.16206 11.9713 6.19969C11.9446 6.22055 11.9147 6.22805 11.8816 6.22216C11.8242 6.1492 11.7644 6.07426 11.7021 5.99738C11.8218 5.84754 11.9563 5.71267 12.1058 5.59277C12.5154 5.86768 12.5154 6.09247 12.1058 6.26712L12.1058 6.26712Z" id="Group" fill="#FFFAED" fill-rule="evenodd" stroke="none" />
    <path d="M13.1393 5.95215C13.1841 5.95215 13.229 5.95215 13.2738 5.95215C13.229 6.14694 13.1094 6.26684 12.915 6.3118C12.9084 6.26451 12.9158 6.21955 12.9375 6.17693C13.014 6.10783 13.0813 6.03289 13.1393 5.95215L13.1393 5.95215Z" id="Group" fill="#FFF8E6" fill-rule="evenodd" stroke="none" />
    <path d="M13.5425 6.08691C13.5425 6.14684 13.5425 6.20681 13.5425 6.26674C13.2675 6.51985 12.9984 6.78212 12.7351 7.05348C12.6926 7.07519 12.6478 7.08266 12.6006 7.07596C12.5939 7.02866 12.6013 6.98371 12.623 6.94109C12.9371 6.66366 13.2436 6.37891 13.5425 6.08691L13.5425 6.08691Z" id="Group" fill="#FFFCF5" fill-rule="evenodd" stroke="none" />
    <path d="M12.1061 6.26677C12.024 6.38051 11.9493 6.36554 11.8818 6.22182C11.915 6.22771 11.9449 6.2202 11.9715 6.19934C11.9039 6.16171 11.8815 6.10925 11.9043 6.04199C11.9808 6.11109 12.0481 6.18603 12.1061 6.26677L12.1061 6.26677Z" id="Group" fill="#FDEDB9" fill-rule="evenodd" stroke="none" />
    <path d="M12.6002 6.49122C12.6529 6.48138 12.6978 6.49635 12.7348 6.53618C12.6451 6.65608 12.5404 6.76096 12.4208 6.85087C12.3722 6.81199 12.3648 6.76703 12.3984 6.716C12.475 6.6469 12.5422 6.57196 12.6002 6.49122L12.6002 6.49122Z" id="Group" fill="#FEFDF7" fill-rule="evenodd" stroke="none" />
    <path d="M4.06543 6.58105C4.61669 6.87642 5.16988 6.87642 5.72491 6.58105C5.72491 6.74591 5.72491 6.91072 5.72491 7.07558C5.13575 7.11896 4.58256 6.9991 4.06543 6.71592C4.06543 6.67097 4.06543 6.62601 4.06543 6.58105L4.06543 6.58105Z" id="Group" fill="#ECA191" fill-rule="evenodd" stroke="none" />
    <path d="M14.3507 6.58105C14.873 7.0896 15.3963 7.59909 15.9205 8.10958C16.2261 7.85571 16.5251 7.59348 16.8175 7.32284C16.9778 7.19003 17.1572 7.09261 17.3557 7.03062C17.7698 6.95289 18.1885 6.9229 18.6115 6.94071C18.6669 7.27748 18.7117 7.62211 18.7461 7.97471C19.1945 7.64473 19.628 7.30004 20.0467 6.94071C20.0617 6.94071 20.0767 6.94071 20.0916 6.94071C20.0576 7.13101 20.1324 7.25086 20.3158 7.30036C20.7025 7.21094 21.0912 7.136 21.482 7.07558C21.8726 7.31807 22.1342 7.66275 22.2669 8.10958C22.2893 8.7088 22.2968 9.30825 22.2893 9.90783C22.2444 9.90783 22.1996 9.90783 22.1547 9.90783C22.1092 10.3264 22.0718 10.746 22.0426 11.1666C21.9904 11.4061 21.9007 11.6309 21.7735 11.841C20.9449 12.6865 20.1002 13.5182 19.2394 14.3361C19.6584 14.2497 20.0471 14.3246 20.4055 14.5608C20.9151 14.9287 21.3785 15.3483 21.7959 15.8196C20.1289 15.8271 18.4694 15.8496 16.8175 15.8871C16.8025 15.8871 16.7876 15.8871 16.7726 15.8871C16.7353 14.0964 16.7128 12.2981 16.7054 10.4923C16.22 10.7499 15.7491 10.7274 15.2926 10.4248C14.5731 9.49896 13.8705 8.56238 13.1846 7.61505C13.5724 7.27141 13.9611 6.92672 14.3507 6.58105L14.3507 6.58105Z" id="Group" fill="#1BA974" fill-opacity="0.996" fill-rule="evenodd" stroke="none" />
    <path d="M4.06543 6.71582C4.58256 6.999 5.13575 7.11885 5.72491 7.07547C5.4558 7.33024 5.1867 7.58496 4.91759 7.83973C4.90266 7.83973 4.88768 7.83973 4.87274 7.83973C4.60364 7.58496 4.33453 7.33024 4.06543 7.07547C4.06543 6.95557 4.06543 6.83572 4.06543 6.71582L4.06543 6.71582Z" id="Group" fill="#FCBBAD" fill-opacity="0.997" fill-rule="evenodd" stroke="none" />
    <path d="M4.06465 7.07519C4.33375 7.32996 4.60286 7.58469 4.87196 7.83946C4.72754 7.934 4.59299 8.03888 4.4683 8.15415C4.37949 8.20882 4.28979 8.24627 4.1992 8.26654C3.98397 7.97698 3.77467 7.68476 3.57129 7.38989C3.74333 7.2962 3.90779 7.19132 4.06465 7.07519L4.06465 7.07519Z" id="Group" fill="#E2E7FB" fill-opacity="0.987" fill-rule="evenodd" stroke="none" />
    <path d="M5.72626 7.07519C5.8831 7.19132 6.04757 7.2962 6.21962 7.38989C6.01622 7.68476 5.80695 7.97698 5.59171 8.26654C5.50111 8.24627 5.41141 8.20882 5.3226 8.15415C5.20195 8.03344 5.0674 7.92856 4.91895 7.83946C5.18805 7.58469 5.45715 7.32996 5.72626 7.07519L5.72626 7.07519Z" id="Group" fill="#E2E7FB" fill-opacity="0.989" fill-rule="evenodd" stroke="none" />
    <path d="M3.56681 7.38965C3.77019 7.68452 3.9795 7.97674 4.19472 8.2663C4.28531 8.24603 4.37501 8.20858 4.46383 8.15391C4.6182 8.24086 4.67803 8.37573 4.64323 8.55852C4.48249 10.1248 4.31803 11.6908 4.14987 13.2565C4.15735 13.3239 4.16482 13.3913 4.1723 13.4588C4.27869 13.5578 4.37587 13.6627 4.46383 13.7735C3.67146 13.7735 2.8791 13.7735 2.08673 13.7735C2.05681 8.01972 1.99701 8.01972 1.90733 13.7735C1.53358 13.7735 1.15982 13.7735 0.786062 13.7735C0.771113 13.7735 0.75616 13.7735 0.741211 13.7735C0.748181 12.02 0.770606 10.2667 0.808487 8.51357C0.873184 7.9713 1.16471 7.61916 1.68308 7.45709C2.30897 7.39469 2.93688 7.37221 3.56681 7.38965L3.56681 7.38965Z" id="Group" fill="#F63730" fill-opacity="0.996" fill-rule="evenodd" stroke="none" />
    <path d="M6.21997 7.38966C6.89291 7.38215 7.56568 7.38966 8.23826 7.41214C8.62846 7.45853 8.86016 7.67585 8.93344 8.064C9.0706 8.68418 9.22758 9.2986 9.40438 9.90722C9.8401 9.50045 10.2587 9.08088 10.6602 8.64844C11.0325 8.96156 11.3913 9.29123 11.7366 9.63748C11.2021 10.4961 10.6565 11.3503 10.0996 12.2C9.53449 12.8301 8.86922 12.9575 8.10371 12.5821C8.02562 12.5093 7.94337 12.4419 7.85703 12.3798C7.8346 12.8441 7.82716 13.3087 7.8346 13.7735C6.99737 13.7735 6.16019 13.7735 5.32296 13.7735C5.46428 13.6692 5.5839 13.5418 5.68176 13.3913C5.49025 11.7071 5.31085 10.0212 5.14355 8.33374C5.21832 8.28879 5.27811 8.22886 5.32296 8.15392C5.41176 8.20858 5.50146 8.24603 5.59206 8.26631C5.8073 7.97674 6.01657 7.68453 6.21997 7.38966L6.21997 7.38966Z" id="Group" fill="#F63731" fill-opacity="0.995" fill-rule="evenodd" stroke="none" />
    <path d="M11.7454 9.63729C11.4 9.29103 11.0412 8.96137 10.6689 8.64825C10.7016 8.5323 10.724 8.41241 10.7362 8.2886C10.7961 8.12657 10.9082 8.07411 11.0726 8.13125C11.1401 8.19828 11.1774 8.28068 11.1847 8.37851C11.3866 8.14622 11.5884 7.91397 11.7902 7.68168C12.1124 7.56237 12.2545 7.67476 12.2163 8.01886C12.0444 8.22116 11.8724 8.42346 11.7005 8.62577C11.9178 8.75327 12.0673 8.93309 12.149 9.16525C12.0868 9.3849 11.9523 9.54225 11.7454 9.63729L11.7454 9.63729Z" id="Group" fill="#FDBAAC" fill-opacity="0.963" fill-rule="evenodd" stroke="none" />
    <path d="M4.87289 7.83887C4.88782 7.83887 4.9028 7.83887 4.91774 7.83887C5.06619 7.92797 5.20075 8.03285 5.32139 8.15356C5.27654 8.22851 5.21676 8.28843 5.14199 8.33339C5.01349 8.42568 4.95371 8.55309 4.96259 8.71552C5.12683 10.1451 5.27632 11.5763 5.4111 13.0089C5.41253 13.2935 5.32283 13.5482 5.14199 13.7731C4.93267 13.7731 4.7234 13.7731 4.51408 13.7731C4.49914 13.7731 4.48418 13.7731 4.46923 13.7731C4.38127 13.6624 4.28409 13.5575 4.1777 13.4584C4.17022 13.391 4.16275 13.3236 4.15527 13.2561C4.32344 11.6904 4.48789 10.1244 4.64863 8.55817C4.68344 8.37538 4.62361 8.24051 4.46923 8.15356C4.59391 8.03829 4.72847 7.93341 4.87289 7.83887L4.87289 7.83887Z" id="Group" fill="#F7C31A" fill-rule="evenodd" stroke="none" />
    <path d="M5.14327 8.33301C5.31056 10.0205 5.48996 11.7063 5.68147 13.3906C5.58361 13.5411 5.46399 13.6685 5.32267 13.7727C5.30773 13.7727 5.29275 13.7727 5.27782 13.7727C5.23297 13.7727 5.18812 13.7727 5.14327 13.7727C5.3241 13.5478 5.41381 13.2931 5.41237 13.0085C5.27759 11.5759 5.12811 10.1448 4.96386 8.71514C4.95498 8.55271 5.01477 8.4253 5.14327 8.33301L5.14327 8.33301Z" id="Group" fill="#EF9915" fill-rule="evenodd" stroke="none" />
    <path d="M16.6435 8.55762C16.7032 8.84075 16.7331 9.14048 16.7332 9.45675C16.7183 9.75647 16.7033 10.0562 16.6884 10.3559C16.6436 9.75719 16.6286 9.15779 16.6435 8.55762L16.6435 8.55762Z" id="Group" fill="#0F8759" fill-rule="evenodd" stroke="none" />
    <path d="M6.58076 9.2765C6.58076 9.36641 6.58076 9.45633 6.58076 9.54624C6.53402 9.60428 6.48173 9.60428 6.42378 9.54624C6.40158 9.45754 6.39409 9.36763 6.40135 9.2765C6.38642 9.14163 6.4462 9.0817 6.58076 9.09667C6.58076 9.1566 6.58076 9.21657 6.58076 9.2765L6.58076 9.2765Z" id="Group" fill="#282737" fill-rule="evenodd" stroke="none" />
    <path d="M18.3952 13.3675C18.3354 13.3675 18.2756 13.3675 18.2158 13.3675C18.8261 12.5978 19.4315 11.8185 20.0323 11.0298C20.1576 10.4053 20.2623 9.77588 20.3462 9.14164C20.3648 9.12109 20.3872 9.10608 20.4135 9.09668C20.4284 9.14914 20.4434 9.20156 20.4584 9.25403C20.374 9.8488 20.2768 10.4407 20.1668 11.0298C19.5652 11.8046 18.9747 12.5838 18.3952 13.3675L18.3952 13.3675Z" id="Group" fill="#128A5D" fill-rule="evenodd" stroke="none" />
    <path d="M6.58105 9.27637C6.78432 9.26208 6.9787 9.27705 7.16411 9.32133C6.98471 9.32133 6.80531 9.32133 6.62591 9.32133C6.63864 9.40742 6.62371 9.48232 6.58105 9.54611C6.58105 9.4562 6.58105 9.36628 6.58105 9.27637L6.58105 9.27637Z" id="Group" fill="#CFADBB" fill-rule="evenodd" stroke="none" />
    <path d="M6.40037 9.27637C6.39311 9.3675 6.4006 9.45741 6.4228 9.54611C6.48075 9.60415 6.53304 9.60415 6.57978 9.54611C6.62243 9.48232 6.63736 9.40742 6.62463 9.32133C6.80403 9.32133 6.98343 9.32133 7.16284 9.32133C7.19051 9.32632 7.21293 9.34129 7.23011 9.36629C7.26003 9.71097 7.26003 10.0556 7.23011 10.4003C7.20769 10.4228 7.18526 10.4452 7.16284 10.4677C6.71433 10.4977 6.26582 10.4977 5.81731 10.4677C5.76578 10.0891 5.75829 9.70701 5.79489 9.32133C5.99228 9.27786 6.1941 9.26289 6.40037 9.27637L6.40037 9.27637Z" id="Group" fill="#E3E5F9" fill-rule="evenodd" stroke="none" />
    <path d="M22.295 9.90527C22.3247 11.9139 22.2948 13.907 22.2053 15.8845C20.9944 15.8845 19.7834 15.8845 18.5724 15.8845C17.9894 15.8845 17.4063 15.8845 16.8232 15.8845C18.4751 15.847 20.1346 15.8246 21.8017 15.8171C21.3843 15.3457 20.9208 14.9262 20.4113 14.5583C20.0529 14.3221 19.6642 14.2471 19.2452 14.3335C20.106 13.5156 20.9506 12.6839 21.7793 11.8384C21.9065 11.6284 21.9962 11.4036 22.0484 11.1641C22.0776 10.7434 22.1149 10.3238 22.1605 9.90527C22.2053 9.90527 22.2502 9.90527 22.295 9.90527L22.295 9.90527Z" id="Group" fill="#0F885B" fill-rule="evenodd" stroke="none" />
    <path d="M7.83884 10.3096C7.89854 10.6304 7.92841 10.9676 7.92855 11.3211C7.92106 11.6583 7.91361 11.9954 7.90612 12.3326C7.83961 11.6653 7.81718 10.9909 7.83884 10.3096L7.83884 10.3096Z" id="Group" fill="#C61F17" fill-rule="evenodd" stroke="none" />
    <path d="M2.08858 13.7719C2.02878 13.7719 1.96898 13.7719 1.90918 13.7719C1.99886 8.01813 2.05866 8.01813 2.08858 13.7719L2.08858 13.7719Z" id="Group" fill="#CE231B" fill-rule="evenodd" stroke="none" />
    <path d="M18.2146 13.3643C18.2744 13.3643 18.3342 13.3643 18.394 13.3643C18.6145 13.7353 18.8537 14.095 19.1116 14.4432C18.8594 14.6901 18.6052 14.9373 18.3492 15.185C17.9437 15.4058 17.6522 15.3084 17.4746 14.8928C17.4454 14.7537 17.4603 14.6188 17.5194 14.4882C17.6764 14.2934 17.8334 14.0985 17.9904 13.9037C17.8735 13.867 17.7538 13.8445 17.6316 13.8363C17.5163 13.7187 17.5163 13.5988 17.6316 13.4766C17.8246 13.4294 18.0189 13.392 18.2146 13.3643L18.2146 13.3643Z" id="Group" fill="#FABAAC" fill-rule="evenodd" stroke="none" />
    <path d="M0.741052 13.7686C0.756001 13.7686 0.770954 13.7686 0.785903 13.7686C0.785903 14.2331 0.785903 14.6977 0.785903 15.1622C0.785903 15.2371 0.785903 15.312 0.785903 15.387C0.741052 15.387 0.696201 15.387 0.651351 15.387C0.622386 14.8304 0.652288 14.2909 0.741052 13.7686L0.741052 13.7686Z" id="Group" fill="#8299DC" fill-opacity="0.6" fill-rule="evenodd" stroke="none" />
    <path d="M0.786133 13.7686C1.15989 13.7686 1.53365 13.7686 1.9074 13.7686C1.9672 13.7686 2.02701 13.7686 2.08681 13.7686C2.87917 13.7686 3.67153 13.7686 4.4639 13.7686C4.47885 13.7686 4.49381 13.7686 4.50875 13.7686C4.62666 13.9093 4.75372 14.0442 4.88998 14.1732C5.02624 14.0442 5.1533 13.9093 5.27121 13.7686C5.28615 13.7686 5.30113 13.7686 5.31606 13.7686C6.15329 13.7686 6.99048 13.7686 7.8277 13.7686C7.8277 14.0083 7.8277 14.2481 7.8277 14.4879C5.91406 14.4879 4.00044 14.4879 2.08681 14.4879C2.08681 14.7126 2.08681 14.9374 2.08681 15.1622C1.65325 15.1622 1.21969 15.1622 0.786133 15.1622C0.786133 14.6977 0.786133 14.2331 0.786133 13.7686L0.786133 13.7686Z" id="Group" fill="#AE7299" fill-rule="evenodd" stroke="none" />
    <path d="M4.51465 13.7686C4.72397 13.7686 4.93324 13.7686 5.14256 13.7686C5.18741 13.7686 5.23226 13.7686 5.27711 13.7686C5.1592 13.9093 5.03214 14.0442 4.89588 14.1732C4.75962 14.0442 4.63256 13.9093 4.51465 13.7686L4.51465 13.7686Z" id="Group" fill="#B2A98A" fill-rule="evenodd" stroke="none" />
    <path d="M7.83887 13.7686C10.1113 13.7686 12.3837 13.7686 14.6562 13.7686C14.6562 14.308 14.6562 14.8475 14.6562 15.387C12.3837 15.387 10.1113 15.387 7.83887 15.387C7.83887 15.0873 7.83887 14.7876 7.83887 14.4879C7.83887 14.2481 7.83887 14.0083 7.83887 13.7686L7.83887 13.7686Z" id="Group" fill="#7C9CE2" fill-opacity="0.597" fill-rule="evenodd" stroke="none" />
    <path d="M7.82977 14.4873C7.82977 14.787 7.82977 15.0867 7.82977 15.3864C5.91612 15.3864 4.0025 15.3864 2.08887 15.3864C2.08887 15.3115 2.08887 15.2366 2.08887 15.1617C2.08887 14.9369 2.08887 14.7121 2.08887 14.4873C4.0025 14.4873 5.91612 14.4873 7.82977 14.4873L7.82977 14.4873Z" id="Group" fill="#596C9C" fill-rule="evenodd" stroke="none" />
    <path d="M0.786133 15.1611C1.21969 15.1611 1.65325 15.1611 2.08681 15.1611C2.08681 15.2361 2.08681 15.311 2.08681 15.3859C1.65325 15.3859 1.21969 15.3859 0.786133 15.3859C0.786133 15.311 0.786133 15.2361 0.786133 15.1611L0.786133 15.1611Z" id="Group" fill="#AFA8CC" fill-rule="evenodd" stroke="none" />
    <path d="M0.651367 15.3857C0.696218 15.3857 0.741069 15.3857 0.78592 15.3857C1.21948 15.3857 1.65303 15.3857 2.08659 15.3857C4.00023 15.3857 5.91384 15.3857 7.82749 15.3857C10.0999 15.3857 12.3724 15.3857 14.6448 15.3857C14.6448 17.2589 14.6448 19.1321 14.6448 21.0053C9.98033 21.0053 5.31585 21.0053 0.651367 21.0053C0.651367 19.1321 0.651367 17.2589 0.651367 15.3857L0.651367 15.3857Z" id="Group" fill="#E6E9F1" fill-opacity="0.994" fill-rule="evenodd" stroke="none" />
    <path d="M16.7783 15.8799C16.7933 15.8799 16.8082 15.8799 16.8232 15.8799C17.4062 15.8799 17.9893 15.8799 18.5724 15.8799C18.8772 17.4492 19.1612 19.0227 19.4245 20.6003C19.376 20.7409 19.3462 20.8907 19.3348 21.0499C18.4827 21.0499 17.6305 21.0499 16.7783 21.0499C16.7783 19.3266 16.7783 17.6032 16.7783 15.8799L16.7783 15.8799Z" id="Group" fill="#0E0F16" fill-opacity="0.988" fill-rule="evenodd" stroke="none" />
    <path d="M18.5752 15.8799C19.7862 15.8799 20.9971 15.8799 22.2081 15.8799C22.2081 17.6032 22.2081 19.3266 22.2081 21.0499C21.3106 21.0649 20.4136 21.0499 19.5171 21.0049C19.4757 20.8724 19.4458 20.7376 19.4274 20.6003C19.1641 19.0227 18.88 17.4492 18.5752 15.8799L18.5752 15.8799Z" id="Group" fill="#212232" fill-opacity="0.997" fill-rule="evenodd" stroke="none" />
    <path d="M2.40169 16.1494C5.88511 16.1494 9.36849 16.1494 12.8519 16.1494C12.9344 16.7567 13.2783 17.0864 13.8835 17.1385C13.8835 17.8428 13.8835 18.5471 13.8835 19.2514C13.4734 19.251 13.1669 19.4308 12.964 19.7909C12.8852 19.9306 12.8478 20.0805 12.8519 20.2405C9.36849 20.2405 5.88511 20.2405 2.40169 20.2405C2.35052 19.6047 2.00666 19.2751 1.37012 19.2514C1.37012 18.5471 1.37012 17.8428 1.37012 17.1385C2.00543 17.1161 2.34928 16.7864 2.40169 16.1494L2.40169 16.1494Z" id="Group" fill="#CCD2E0" fill-rule="evenodd" stroke="none" />
  </g>
</svg>