<?xml version="1.0" encoding="utf-8"?>
<svg width="23px" height="23px" viewBox="0 0 23 23" version="1.1" xmlns:xlink="http://www.w3.org/1999/xlink" xmlns="http://www.w3.org/2000/svg">
  <defs>
    <path d="M23 0L23 0L23 23L0 23L0 0L23 0Z" id="path_1" />
    <clipPath id="clip_1">
      <use xlink:href="#path_1" clip-rule="evenodd" fill-rule="evenodd" />
    </clipPath>
  </defs>
  <g id="dashboard" clip-path="url(#clip_1)">
    <path d="M23 0L23 0L23 23L0 23L0 0L23 0Z" id="dashboard" fill="none" stroke="none" />
    <path d="M22.5624 4.19834C15.1689 4.19834 7.77538 4.19834 0.381834 4.19834C0.374353 3.30021 0.381837 2.40221 0.404284 1.50434C0.561434 0.928121 0.928119 0.561436 1.50433 0.404286C8.14953 0.374353 14.7947 0.374353 21.4399 0.404286C22.0161 0.561436 22.3828 0.928121 22.54 1.50434C22.5624 2.40221 22.5699 3.30021 22.5624 4.19834L22.5624 4.19834Z" id="Group" fill="#004960" fill-rule="evenodd" stroke="none" />
    <path d="M2.6727 1.81934C3.23492 1.80771 3.422 2.06215 3.23395 2.58263C3.06587 2.75143 2.86382 2.80382 2.6278 2.73979C2.33886 2.52933 2.28648 2.26741 2.47065 1.95404C2.54481 1.91365 2.61216 1.86875 2.6727 1.81934L2.6727 1.81934Z" id="Group" fill="#F7675B" fill-rule="evenodd" stroke="none" />
    <path d="M4.69418 1.81933C5.21251 1.76133 5.42951 1.98583 5.34523 2.49283C5.18126 2.77335 4.94926 2.85567 4.64928 2.73978C4.28222 2.41297 4.29719 2.10615 4.69418 1.81933L4.69418 1.81933Z" id="Group" fill="#F7D52F" fill-rule="evenodd" stroke="none" />
    <path d="M6.71569 1.81933C7.26271 1.7747 7.47971 2.01417 7.36674 2.53773C7.12554 2.80134 6.85614 2.83127 6.55854 2.62753C6.37041 2.30352 6.42276 2.03412 6.71569 1.81933L6.71569 1.81933Z" id="Group" fill="#6FD261" fill-rule="evenodd" stroke="none" />
    <path d="M13.7235 1.9541C15.9985 1.94662 18.2734 1.9541 20.5483 1.97655C20.7393 2.13013 20.7767 2.31721 20.6606 2.5378C20.5969 2.58091 20.5295 2.61833 20.4585 2.65005C18.2285 2.67999 15.9985 2.67999 13.7684 2.65005C13.5563 2.54071 13.489 2.36859 13.5664 2.1337C13.5974 2.05063 13.6497 1.99076 13.7235 1.9541L13.7235 1.9541Z" id="Group" fill="#E9F0F3" fill-rule="evenodd" stroke="none" />
    <path d="M0.381835 4.2002C7.77538 4.2002 15.1689 4.2002 22.5624 4.2002C22.5699 9.9474 22.5624 15.6946 22.54 21.4418C22.3828 22.018 22.0161 22.3847 21.4399 22.5418C14.7947 22.5718 8.14953 22.5718 1.50433 22.5418C0.92812 22.3847 0.561435 22.018 0.404285 21.4418C0.381835 15.6946 0.374351 9.9474 0.381835 4.2002L0.381835 4.2002Z" id="Group" fill="#64B5F5" fill-rule="evenodd" stroke="none" />
    <path d="M11.1137 13.0014C8.0605 13.0014 5.0073 13.0014 1.9541 13.0014C1.9541 10.6516 1.9541 8.30181 1.9541 5.95206C1.98957 5.89396 2.03447 5.84156 2.0888 5.79491C5.09706 5.77246 8.10536 5.76496 11.1137 5.77246C11.1137 8.18211 11.1137 10.5917 11.1137 13.0014L11.1137 13.0014Z" id="Group" fill="#E5F7FE" fill-rule="evenodd" stroke="none" />
    <path d="M20.9965 5.95206C20.9965 8.30181 20.9965 10.6516 20.9965 13.0014C17.9433 13.0014 14.8901 13.0014 11.8369 13.0014C11.8369 10.5917 11.8369 8.18211 11.8369 5.77246C14.8453 5.76496 17.8536 5.77246 20.8618 5.79491C20.9317 5.82724 20.9766 5.87963 20.9965 5.95206L20.9965 5.95206Z" id="Group" fill="#E5F7FE" fill-rule="evenodd" stroke="none" />
    <path d="M6.71582 6.71582C8.11032 6.80091 9.03077 7.50435 9.47717 8.82612C9.66036 9.48027 9.60796 10.1089 9.32002 10.7119C8.83151 10.4901 8.33761 10.2806 7.83832 10.0833C8.06704 9.10212 7.69289 8.53337 6.71582 8.37712C6.71582 7.82337 6.71582 7.26957 6.71582 6.71582L6.71582 6.71582Z" id="Group" fill="#FEDA2F" fill-rule="evenodd" stroke="none" />
    <path d="M6.71442 6.71583C6.71442 7.26958 6.71442 7.82337 6.71442 8.37712C5.87474 8.46104 5.47814 8.925 5.52457 9.76903C5.55155 9.90988 5.59645 10.0446 5.65927 10.1731C5.76748 10.3032 5.86477 10.4379 5.95112 10.5772C5.61832 10.9995 5.30402 11.4336 5.00822 11.8793C4.22568 11.287 3.83655 10.4938 3.84082 9.49962C3.94392 8.17867 4.61741 7.28812 5.86132 6.82808C6.13956 6.74339 6.42391 6.70595 6.71442 6.71583L6.71442 6.71583Z" id="Group" fill="#73D561" fill-rule="evenodd" stroke="none" />
    <path d="M16.2383 6.71582C16.2383 7.17977 16.2383 7.64377 16.2383 8.10772C15.8258 8.1004 15.4367 8.1902 15.0709 8.37712C15.0316 8.38301 15.0017 8.36805 14.9811 8.33222C14.7711 7.97177 14.5615 7.61257 14.3525 7.25462C14.9233 6.8947 15.5519 6.7151 16.2383 6.71582L16.2383 6.71582Z" id="Group" fill="#3FBE53" fill-rule="evenodd" stroke="none" />
    <path d="M16.2393 6.71582C16.3835 6.7019 16.5182 6.71685 16.6434 6.76072C16.5236 6.76072 16.4039 6.76072 16.2842 6.76072C16.2842 7.19477 16.2842 7.62877 16.2842 8.06282C16.3991 8.04926 16.5039 8.06425 16.5985 8.10772C16.4787 8.10772 16.359 8.10772 16.2393 8.10772C16.2393 7.64377 16.2393 7.17977 16.2393 6.71582L16.2393 6.71582Z" id="Group" fill="#69BBC9" fill-rule="evenodd" stroke="none" />
    <path d="M16.6434 6.76074C17.1763 6.82253 17.6702 6.98717 18.1251 7.25464C17.8962 7.63324 17.6867 8.02234 17.4965 8.42204C17.2241 8.24644 16.9248 8.14164 16.5985 8.10774C16.5039 8.06428 16.3991 8.04928 16.2842 8.06284C16.2842 7.62879 16.2842 7.19479 16.2842 6.76074C16.4039 6.76074 16.5236 6.76074 16.6434 6.76074L16.6434 6.76074Z" id="Group" fill="#63B4F5" fill-rule="evenodd" stroke="none" />
    <path d="M18.1257 7.25488C18.5493 7.47566 18.916 7.77496 19.2257 8.15288C19.3467 8.30518 19.4439 8.46983 19.5176 8.64678C19.1494 8.86823 18.7753 9.07778 18.3951 9.27538C18.1548 8.93042 17.8555 8.64606 17.4971 8.42228C17.6873 8.02258 17.8968 7.63348 18.1257 7.25488L18.1257 7.25488Z" id="Group" fill="#44A5F4" fill-rule="evenodd" stroke="none" />
    <path d="M14.3519 7.25488C14.5609 7.61283 14.7704 7.97203 14.9805 8.33248C15.001 8.36831 15.0309 8.38326 15.0703 8.37738C14.698 8.6149 14.3837 8.91421 14.1274 9.27538C13.7382 9.06583 13.3491 8.85633 12.96 8.64678C13.2892 8.04813 13.7532 7.58413 14.3519 7.25488L14.3519 7.25488Z" id="Group" fill="#75D460" fill-rule="evenodd" stroke="none" />
    <path d="M6.71524 8.37793C7.69231 8.53418 8.06646 9.10293 7.83774 10.0841C7.35947 10.7906 6.73087 10.9553 5.95194 10.578C5.8656 10.4387 5.7683 10.304 5.66009 10.1739C5.59728 10.0454 5.55238 9.91068 5.52539 9.76983C5.47897 8.9258 5.87557 8.46185 6.71524 8.37793L6.71524 8.37793Z" id="Group" fill="#EEF3F5" fill-rule="evenodd" stroke="none" />
    <path d="M12.9597 8.64746C13.3489 8.85701 13.738 9.06651 14.1271 9.27606C13.924 9.66925 13.8193 10.0883 13.8128 10.5333C13.3638 10.5333 12.9148 10.5333 12.4658 10.5333C12.4348 9.84903 12.5994 9.22043 12.9597 8.64746L12.9597 8.64746Z" id="Group" fill="#FEC706" fill-rule="evenodd" stroke="none" />
    <path d="M19.518 8.64746C19.8724 9.21998 20.052 9.84858 20.0568 10.5333C19.6078 10.5333 19.1588 10.5333 18.7098 10.5333C18.6962 10.0888 18.5914 9.6697 18.3955 9.27606C18.7757 9.07846 19.1499 8.86891 19.518 8.64746L19.518 8.64746Z" id="Group" fill="#FA695C" fill-rule="evenodd" stroke="none" />
    <path d="M16.9129 10.5336C16.9097 10.2578 16.79 10.0483 16.5537 9.90501C16.88 9.7568 17.1943 9.5847 17.4966 9.38867C17.8856 9.34377 18.0428 9.51591 17.9681 9.90501C17.6324 10.1438 17.2807 10.3534 16.9129 10.5336L16.9129 10.5336Z" id="Group" fill="#8E9DA9" fill-rule="evenodd" stroke="none" />
    <path d="M16.5532 9.90525C16.7895 10.0485 16.9092 10.2581 16.9124 10.5338C16.8457 11.0316 16.5613 11.2486 16.0593 11.1849C15.5665 10.9337 15.4543 10.567 15.7226 10.0848C15.9605 9.86106 16.2374 9.80117 16.5532 9.90525L16.5532 9.90525Z" id="Group" fill="#66B5F5" fill-rule="evenodd" stroke="none" />
    <path d="M7.83749 10.085C8.33678 10.2823 8.83068 10.4918 9.31919 10.7136C8.66764 12.0274 7.60504 12.5886 6.13129 12.3973C5.7214 12.297 5.34725 12.1249 5.00879 11.881C5.30459 11.4352 5.61889 11.0011 5.95169 10.5789C6.73061 10.9561 7.35921 10.7915 7.83749 10.085L7.83749 10.085Z" id="Group" fill="#FB695B" fill-rule="evenodd" stroke="none" />
    <path d="M12.4658 10.5342C12.9148 10.5342 13.3638 10.5342 13.8128 10.5342C13.8122 10.9659 13.917 11.37 14.1271 11.7465C13.7418 11.9653 13.3601 12.1898 12.9822 12.42C12.6322 11.8413 12.4601 11.2127 12.4658 10.5342L12.4658 10.5342Z" id="Group" fill="#FEDA30" fill-rule="evenodd" stroke="none" />
    <path d="M18.7098 10.5342C19.1588 10.5342 19.6078 10.5342 20.0568 10.5342C20.0578 11.2193 19.8782 11.8479 19.518 12.42C19.155 12.2048 18.7883 11.9952 18.418 11.7914C18.5581 11.3808 18.6553 10.9618 18.7098 10.5342L18.7098 10.5342Z" id="Group" fill="#F35445" fill-rule="evenodd" stroke="none" />
    <path d="M1.95408 5.95215C1.95408 8.3019 1.95408 10.6517 1.95408 13.0014C5.00728 13.0014 8.06048 13.0014 11.1137 13.0014C8.05307 13.0463 4.98492 13.0613 1.90918 13.0463C1.89426 10.674 1.90923 8.30926 1.95408 5.95215L1.95408 5.95215Z" id="Group" fill="#AFDBFB" fill-rule="evenodd" stroke="none" />
    <path d="M20.9965 5.95215C21.0414 8.30926 21.0563 10.674 21.0414 13.0463C17.9657 13.0613 14.8975 13.0463 11.8369 13.0014C14.8901 13.0014 17.9433 13.0014 20.9965 13.0014C20.9965 10.6517 20.9965 8.3019 20.9965 5.95215L20.9965 5.95215Z" id="Group" fill="#AFDBFB" fill-rule="evenodd" stroke="none" />
    <path d="M1.9541 13.7686C5.0073 13.7686 8.0605 13.7686 11.1137 13.7686C11.1137 16.1782 11.1137 18.5878 11.1137 20.9975C8.0904 21.005 5.06715 20.9975 2.0439 20.975C2.02145 20.9526 1.999 20.9301 1.97655 20.9077C1.9541 18.528 1.94662 16.1483 1.9541 13.7686L1.9541 13.7686Z" id="Group" fill="#E5F7FE" fill-rule="evenodd" stroke="none" />
    <path d="M11.8369 13.7686C14.8901 13.7686 17.9433 13.7686 20.9965 13.7686C21.004 16.1483 20.9965 18.528 20.9741 20.9077C20.9516 20.9301 20.9292 20.9526 20.9067 20.975C17.8835 20.9975 14.8602 21.005 11.8369 20.9975C11.8369 18.5878 11.8369 16.1782 11.8369 13.7686L11.8369 13.7686Z" id="Group" fill="#E5F7FE" fill-rule="evenodd" stroke="none" />
    <path d="M17.3603 13.9482C17.7876 13.9933 18.2067 14.0756 18.6175 14.1952C18.7341 14.2992 18.7715 14.4264 18.7298 14.5768C18.6161 14.8728 18.5114 15.1721 18.4155 15.4748C18.2619 15.6658 18.0748 15.7032 17.8542 15.5871C17.8 15.4861 17.7401 15.3888 17.6746 15.2952C16.44 15.9948 15.2128 16.7057 13.9928 17.428C13.5097 17.6697 13.2927 17.5276 13.3418 17.0014C14.6702 16.1987 16.0097 15.413 17.3603 14.6442C17.0615 14.4043 17.0615 14.1723 17.3603 13.9482L17.3603 13.9482Z" id="Group" fill="#8E9DA9" fill-rule="evenodd" stroke="none" />
    <path d="M4.87367 14.7116C4.88108 14.8769 4.87363 15.0415 4.85122 15.2055C4.66031 15.4817 4.45078 15.4967 4.22262 15.2504C4.16184 15.0769 4.13939 14.8973 4.15527 14.7116C4.13939 14.5258 4.16184 14.3462 4.22262 14.1728C4.45442 13.923 4.66394 13.938 4.85122 14.2177C4.87363 14.3817 4.88108 14.5463 4.87367 14.7116L4.87367 14.7116Z" id="Group" fill="#DFE1E1" fill-rule="evenodd" stroke="none" />
    <path d="M5.95182 14.7116C5.95928 14.8918 5.95178 15.0714 5.92937 15.2504C5.71982 15.4898 5.51032 15.4898 5.30077 15.2504C5.27837 15.0714 5.27087 14.8918 5.27832 14.7116C5.27091 14.5463 5.27837 14.3816 5.30077 14.2177C5.51032 13.9183 5.71982 13.9183 5.92937 14.2177C5.95178 14.3816 5.95923 14.5463 5.95182 14.7116L5.95182 14.7116Z" id="Group" fill="#E0E2E2" fill-rule="evenodd" stroke="none" />
    <path d="M7.07484 14.7116C7.09073 14.8973 7.06828 15.0769 7.00749 15.2504C6.77567 15.5001 6.56616 15.4852 6.37889 15.2055C6.35648 15.0415 6.34903 14.8769 6.35644 14.7116C6.34903 14.5463 6.35648 14.3817 6.37889 14.2177C6.56616 13.938 6.77567 13.923 7.00749 14.1728C7.06828 14.3462 7.09073 14.5258 7.07484 14.7116L7.07484 14.7116Z" id="Group" fill="#DFE1E1" fill-rule="evenodd" stroke="none" />
    <path d="M8.15295 14.7116C8.16597 14.9107 8.14352 15.1053 8.0856 15.2953C7.81629 15.5079 7.60674 15.463 7.457 15.1606C7.43464 15.0116 7.42715 14.862 7.43455 14.7116C7.33667 14.3518 7.45642 14.1124 7.79375 13.9932C7.94071 14.0179 8.05296 14.0927 8.1305 14.2177C8.15291 14.3816 8.16036 14.5462 8.15295 14.7116L8.15295 14.7116Z" id="Group" fill="#E0E1E2" fill-rule="evenodd" stroke="none" />
    <path d="M9.23109 14.7116C9.2385 14.8769 9.23105 15.0415 9.20864 15.2055C9.01773 15.4817 8.80818 15.4967 8.58004 15.2504C8.51925 15.0769 8.4968 14.8973 8.51269 14.7116C8.4968 14.5258 8.51925 14.3462 8.58004 14.1728C8.81186 13.923 9.02137 13.938 9.20864 14.2177C9.23105 14.3817 9.2385 14.5463 9.23109 14.7116L9.23109 14.7116Z" id="Group" fill="#DEE1E1" fill-rule="evenodd" stroke="none" />
    <path d="M4.15495 14.7119C4.13907 14.8977 4.16152 15.0773 4.2223 15.2507C4.45045 15.497 4.65998 15.4821 4.8509 15.2058C4.8733 15.0418 4.88076 14.8772 4.87335 14.7119C5.00805 14.7119 5.14275 14.7119 5.27745 14.7119C5.26999 14.8922 5.27749 15.0718 5.2999 15.2507C5.50945 15.4902 5.71895 15.4902 5.9285 15.2507C5.9509 15.0718 5.9584 14.8922 5.95095 14.7119C6.08565 14.7119 6.22035 14.7119 6.35505 14.7119C6.34764 14.8772 6.35509 15.0418 6.3775 15.2058C6.56477 15.4855 6.77428 15.5005 7.0061 15.2507C7.06689 15.0773 7.08934 14.8977 7.07345 14.7119C7.1932 14.7119 7.3129 14.7119 7.43265 14.7119C7.42524 14.8623 7.43274 15.012 7.4551 15.1609C7.60484 15.4633 7.81439 15.5082 8.0837 15.2956C8.14162 15.1057 8.16407 14.9111 8.15105 14.7119C8.2708 14.7119 8.3905 14.7119 8.51025 14.7119C8.49435 14.8977 8.5168 15.0773 8.5776 15.2507C8.80573 15.497 9.01528 15.4821 9.2062 15.2058C9.2286 15.0418 9.23605 14.8772 9.22865 14.7119C9.42378 14.7045 9.61833 14.712 9.81235 14.7344C9.8348 14.7568 9.85725 14.7793 9.8797 14.8017C9.90215 15.2655 9.9096 15.7294 9.90215 16.1936C7.7619 16.1936 5.6217 16.1936 3.48145 16.1936C3.47397 15.7444 3.48146 15.2954 3.5039 14.8466C3.54131 14.8092 3.57873 14.7718 3.61615 14.7344C3.79513 14.712 3.97473 14.7045 4.15495 14.7119L4.15495 14.7119Z" id="Group" fill="#034A61" fill-rule="evenodd" stroke="none" />
    <path d="M18.8896 16.1045C19.1594 16.097 19.4288 16.1045 19.6978 16.127C19.7203 16.1494 19.7427 16.1719 19.7652 16.1943C19.8023 17.4921 19.7949 18.7868 19.7427 20.0782C19.4584 20.1081 19.174 20.1081 18.8896 20.0782C18.8672 20.0557 18.8447 20.0333 18.8223 20.0108C18.7923 18.7386 18.7923 17.4665 18.8223 16.1943C18.8545 16.1699 18.8769 16.1399 18.8896 16.1045L18.8896 16.1045Z" id="Group" fill="#65B5F6" fill-rule="evenodd" stroke="none" />
    <path d="M3.48144 16.1943C5.62169 16.1943 7.76189 16.1943 9.90214 16.1943C9.90964 17.4965 9.90214 18.7986 9.87969 20.1006C9.85724 20.1231 9.83479 20.1455 9.81234 20.168C7.74694 20.1979 5.68154 20.1979 3.61614 20.168C3.57986 20.1542 3.54993 20.1317 3.52634 20.1006C3.48181 18.8005 3.46684 17.4984 3.48144 16.1943L3.48144 16.1943Z" id="Group" fill="#E0E1E2" fill-rule="evenodd" stroke="none" />
    <path d="M4.33488 16.7783C4.56513 16.7609 4.78963 16.7833 5.00838 16.8457C5.13832 16.9763 5.17572 17.1334 5.12063 17.3171C5.06612 17.3867 4.99877 17.439 4.91858 17.4743C4.70364 17.5137 4.49414 17.4987 4.28998 17.4294C4.10258 17.1996 4.11754 16.9826 4.33488 16.7783L4.33488 16.7783Z" id="Group" fill="#66B5F5" fill-rule="evenodd" stroke="none" />
    <path d="M5.72743 16.7783C5.95637 16.7637 6.18087 16.7862 6.40093 16.8457C6.64164 17.2839 6.50694 17.5009 5.99683 17.4967C5.69735 17.5418 5.53274 17.4145 5.50293 17.1151C5.51779 16.9588 5.59264 16.8466 5.72743 16.7783L5.72743 16.7783Z" id="Group" fill="#68B6F5" fill-rule="evenodd" stroke="none" />
    <path d="M7.07511 16.7783C7.30536 16.7609 7.52986 16.7833 7.74861 16.8457C7.87855 16.9763 7.91595 17.1334 7.86086 17.3171C7.80635 17.3867 7.739 17.439 7.65881 17.4743C7.44387 17.5137 7.23437 17.4987 7.03021 17.4294C6.8428 17.1996 6.85779 16.9826 7.07511 16.7783L7.07511 16.7783Z" id="Group" fill="#66B5F5" fill-rule="evenodd" stroke="none" />
    <path d="M8.46766 16.7783C8.69661 16.7637 8.92111 16.7862 9.14116 16.8457C9.30981 17.0266 9.31726 17.2137 9.16361 17.4069C8.90508 17.5151 8.64313 17.5226 8.37786 17.4294C8.18156 17.1783 8.21146 16.9613 8.46766 16.7783L8.46766 16.7783Z" id="Group" fill="#68B6F5" fill-rule="evenodd" stroke="none" />
    <path d="M17.0029 17.0478C17.2988 17.0339 17.5906 17.0488 17.8784 17.0927C17.9154 18.0825 17.9079 19.0703 17.856 20.0561C17.5728 20.1084 17.2884 20.1159 17.0029 20.0786C16.9804 20.0561 16.958 20.0337 16.9355 20.0112C16.9056 19.0534 16.9056 18.0955 16.9355 17.1376C16.9677 17.1132 16.9902 17.0833 17.0029 17.0478L17.0029 17.0478Z" id="Group" fill="#72D561" fill-rule="evenodd" stroke="none" />
    <path d="M4.37977 17.8115C4.59516 17.7945 4.80471 17.817 5.00837 17.8789C5.19763 18.1015 5.18263 18.311 4.96347 18.5075C4.75392 18.5374 4.54442 18.5374 4.33487 18.5075C4.08516 18.2539 4.10013 18.0219 4.37977 17.8115L4.37977 17.8115Z" id="Group" fill="#67B5F5" fill-rule="evenodd" stroke="none" />
    <path d="M5.72743 17.8115C5.96087 17.7897 6.18537 17.8197 6.40093 17.9013C6.59741 18.1367 6.56751 18.3388 6.31113 18.5075C6.08133 18.5473 5.85683 18.5324 5.63763 18.4626C5.44092 18.2136 5.47087 17.9965 5.72743 17.8115L5.72743 17.8115Z" id="Group" fill="#68B6F5" fill-rule="evenodd" stroke="none" />
    <path d="M7.12 17.8115C7.33539 17.7945 7.54494 17.817 7.7486 17.8789C7.87854 18.0095 7.91595 18.1666 7.86085 18.3503C7.80634 18.4199 7.739 18.4722 7.6588 18.5075C7.46425 18.5374 7.26966 18.5374 7.0751 18.5075C6.82541 18.2539 6.84037 18.0219 7.12 17.8115L7.12 17.8115Z" id="Group" fill="#FB6A5D" fill-rule="evenodd" stroke="none" />
    <path d="M8.46767 17.8115C8.68305 17.7945 8.8926 17.817 9.09626 17.8789C9.34259 18.107 9.32763 18.3166 9.05136 18.5075C8.82157 18.5474 8.59707 18.5324 8.37786 18.4626C8.2569 18.3435 8.2195 18.2013 8.26562 18.036C8.34226 17.967 8.40961 17.8922 8.46767 17.8115L8.46767 17.8115Z" id="Group" fill="#FB6B5E" fill-rule="evenodd" stroke="none" />
    <path d="M15.1162 17.9463C15.386 17.9388 15.6554 17.9463 15.9244 17.9687C15.9468 17.9912 15.9693 18.0136 15.9917 18.0361C16.0217 18.6946 16.0217 19.3532 15.9917 20.0117C15.9693 20.0341 15.9468 20.0566 15.9244 20.0791C15.655 20.109 15.3856 20.109 15.1162 20.0791C15.0937 20.0566 15.0713 20.0341 15.0488 20.0117C15.0189 19.3532 15.0189 18.6946 15.0488 18.0361C15.081 18.0117 15.1035 17.9817 15.1162 17.9463L15.1162 17.9463Z" id="Group" fill="#FEDA2D" fill-rule="evenodd" stroke="none" />
    <path d="M4.37977 18.8447C4.59516 18.8277 4.80471 18.8502 5.00837 18.9121C5.16112 19.0791 5.18357 19.2662 5.07572 19.4733C5.04205 19.5014 5.0046 19.5239 4.96347 19.5407C4.75392 19.5706 4.54442 19.5706 4.33487 19.5407C4.08947 19.2908 4.10444 19.0588 4.37977 18.8447L4.37977 18.8447Z" id="Group" fill="#68B6F5" fill-rule="evenodd" stroke="none" />
    <path d="M5.77233 18.8447C6.0649 18.788 6.31185 18.8629 6.51318 19.0692C6.57429 19.2836 6.50694 19.4407 6.31113 19.5407C6.08134 19.5805 5.85684 19.5656 5.63763 19.4958C5.43778 19.2304 5.48268 19.0134 5.77233 18.8447L5.77233 18.8447Z" id="Group" fill="#FB6B5E" fill-rule="evenodd" stroke="none" />
    <path d="M7.12 18.8447C7.35694 18.8192 7.58144 18.8566 7.7935 18.957C7.93489 19.1798 7.90495 19.3743 7.7037 19.5407C7.49416 19.5706 7.28465 19.5706 7.0751 19.5407C6.82968 19.2908 6.84468 19.0588 7.12 18.8447L7.12 18.8447Z" id="Group" fill="#FB6A5D" fill-rule="evenodd" stroke="none" />
    <path d="M8.51257 18.8447C8.80514 18.788 9.05209 18.8629 9.25342 19.0692C9.31453 19.2836 9.24718 19.4407 9.05137 19.5407C8.82157 19.5805 8.59707 19.5656 8.37787 19.4958C8.16967 19.2257 8.21457 19.0087 8.51257 18.8447L8.51257 18.8447Z" id="Group" fill="#FB6C5F" fill-rule="evenodd" stroke="none" />
    <path d="M13.2295 18.8447C13.4843 18.8373 13.7388 18.8448 13.9928 18.8672C14.029 18.881 14.059 18.9035 14.0826 18.9345C14.1335 19.2915 14.141 19.6507 14.105 20.0121C14.0826 20.0346 14.0601 20.057 14.0377 20.0795C13.751 20.1151 13.4666 20.1076 13.1846 20.057C13.1322 19.6838 13.1247 19.3096 13.1621 18.9345C13.1943 18.9101 13.2167 18.8802 13.2295 18.8447L13.2295 18.8447Z" id="Group" fill="#FB6A5D" fill-rule="evenodd" stroke="none" />
  </g>
</svg>