<?xml version="1.0" encoding="utf-8"?>
<svg width="23px" height="23px" viewBox="0 0 23 23" version="1.1" xmlns:xlink="http://www.w3.org/1999/xlink" xmlns="http://www.w3.org/2000/svg">
  <defs>
    <path d="M23 0L23 0L23 23L0 23L0 0L23 0Z" id="path_1" />
    <clipPath id="clip_1">
      <use xlink:href="#path_1" clip-rule="evenodd" fill-rule="evenodd" />
    </clipPath>
  </defs>
  <g id="department" clip-path="url(#clip_1)">
    <path d="M23 0L23 0L23 23L0 23L0 0L23 0Z" id="department" fill="none" stroke="none" />
    <path d="M11.8332 7.70178C11.5938 7.64193 11.3543 7.64193 11.1148 7.70178C9.09427 7.70928 7.07377 7.70178 5.05332 7.67933C4.65182 7.60722 4.38992 7.37523 4.26757 6.98338C4.23763 5.86088 4.23763 4.73838 4.26757 3.61588C4.36183 3.29717 4.56386 3.08015 4.87372 2.96483C9.27392 2.9349 13.6741 2.9349 18.0743 2.96483C18.3842 3.08015 18.5862 3.29717 18.6805 3.61588C18.7104 4.73838 18.7104 5.86088 18.6805 6.98338C18.5581 7.37523 18.2962 7.60722 17.8947 7.67933C15.8743 7.70178 13.8538 7.70928 11.8332 7.70178L11.8332 7.70178Z" id="Group" fill="#FC8193" fill-opacity="0.997" fill-rule="evenodd" stroke="none" />
    <path d="M6.31141 4.4248C6.91024 4.41732 7.50894 4.42481 8.10741 4.44725C8.31588 4.54028 8.38323 4.69743 8.30946 4.9187C8.28701 5.001 8.23462 5.0534 8.15231 5.07585C7.52371 5.1058 6.89511 5.1058 6.26651 5.07585C6.0197 4.83712 6.03465 4.62012 6.31141 4.4248L6.31141 4.4248Z" id="Group" fill="#FFFEFE" fill-rule="evenodd" stroke="none" />
    <path d="M11.8326 7.70408C11.8326 9.38033 11.8326 11.0566 11.8326 12.7329C14.2444 12.7112 16.654 12.7336 19.0615 12.8002C19.5272 13.0202 19.7891 13.3869 19.8473 13.9003C19.8697 14.2891 19.8772 14.6783 19.8697 15.0677C19.6153 15.0677 19.3609 15.0677 19.1064 15.0677C19.1254 14.6151 19.103 14.1661 19.0391 13.7207C18.951 13.6024 18.8388 13.52 18.7023 13.4737C16.4125 13.4513 14.1226 13.4438 11.8326 13.4513C11.8326 14.0499 11.8326 14.6486 11.8326 15.2473C11.5932 15.3071 11.3537 15.3071 11.1142 15.2473C11.1142 14.6486 11.1142 14.0499 11.1142 13.4513C8.8243 13.4438 6.5344 13.4513 4.24455 13.4737C4.05746 13.5411 3.93025 13.6683 3.8629 13.8554C3.84046 14.2592 3.83298 14.6633 3.84045 15.0677C3.58601 15.0677 3.33158 15.0677 3.07715 15.0677C3.06968 14.6783 3.07716 14.2891 3.0996 13.9003C3.15782 13.3869 3.41974 13.0202 3.88535 12.8002C6.29293 12.7336 8.70253 12.7112 11.1142 12.7329C11.1142 11.0566 11.1142 9.38033 11.1142 7.70408C11.3537 7.64423 11.5932 7.64423 11.8326 7.70408L11.8326 7.70408Z" id="Group" fill="#6D7386" fill-opacity="0.961" fill-rule="evenodd" stroke="none" />
    <path d="M1.77404 15.251C2.86671 15.2435 3.95927 15.251 5.05174 15.2734C5.49324 15.3557 5.75519 15.6177 5.83749 16.0592C5.86744 17.1218 5.86744 18.1844 5.83749 19.2471C5.78298 19.6158 5.58093 19.8628 5.23134 19.9879C4.03401 20.0179 2.83668 20.0179 1.63934 19.9879C1.33253 19.8906 1.13048 19.6886 1.03319 19.3818C1.00326 18.2293 1.00326 17.0769 1.03319 15.9245C1.15628 15.5604 1.40323 15.3359 1.77404 15.251L1.77404 15.251Z" id="Group" fill="#5FCDA3" fill-opacity="0.99" fill-rule="evenodd" stroke="none" />
    <path d="M11.1172 15.251C11.3566 15.3108 11.5961 15.3108 11.8356 15.251C12.3319 15.234 12.8258 15.2564 13.3173 15.3183C13.601 15.4524 13.7881 15.6694 13.8785 15.9694C13.9085 17.0919 13.9085 18.2144 13.8785 19.3369C13.7843 19.6556 13.5822 19.8726 13.2724 19.9879C12.075 20.0179 10.8777 20.0179 9.68036 19.9879C9.37051 19.8726 9.16846 19.6556 9.07421 19.3369C9.03057 18.1667 9.04552 16.9993 9.11911 15.8347C9.23136 15.6027 9.40346 15.4306 9.63546 15.3183C10.1269 15.2564 10.6208 15.234 11.1172 15.251L11.1172 15.251Z" id="Group" fill="#FF971C" fill-opacity="0.986" fill-rule="evenodd" stroke="none" />
    <path d="M17.901 15.251C18.9937 15.2435 20.0862 15.251 21.1787 15.2734C21.5602 15.3402 21.8072 15.5573 21.9195 15.9245C21.9495 17.0769 21.9495 18.2293 21.9195 19.3818C21.8222 19.6886 21.6202 19.8906 21.3134 19.9879C20.116 20.0179 18.9187 20.0179 17.7214 19.9879C17.3705 19.8616 17.1684 19.6147 17.1152 19.2471C17.0853 18.1844 17.0853 17.1218 17.1152 16.0592C17.2057 15.6171 17.4676 15.3477 17.901 15.251L17.901 15.251Z" id="Group" fill="#49BCFF" fill-opacity="0.991" fill-rule="evenodd" stroke="none" />
  </g>
</svg>