<?xml version="1.0" encoding="utf-8"?>
<svg width="23px" height="23px" viewBox="0 0 23 23" version="1.1" xmlns:xlink="http://www.w3.org/1999/xlink" xmlns="http://www.w3.org/2000/svg">
  <defs>
    <path d="M23 0L23 0L23 23L0 23L0 0L23 0Z" id="path_1" />
    <clipPath id="clip_1">
      <use xlink:href="#path_1" clip-rule="evenodd" fill-rule="evenodd" />
    </clipPath>
  </defs>
  <g id="display" clip-path="url(#clip_1)">
    <path d="M23 0L23 0L23 23L0 23L0 0L23 0Z" id="display" fill="none" stroke="none" />
    <path d="M21.5302 16.4123C20.7238 15.9047 19.9306 15.3808 19.1505 14.8408C19.5927 14.8555 20.0267 14.8406 20.4526 14.7959C20.7443 14.7513 20.9314 14.5867 21.0139 14.302C21.0438 10.9645 21.0438 7.62689 21.0139 4.28934C20.9092 4.03501 20.7221 3.87786 20.4526 3.81789C14.4435 3.7805 8.44184 3.78799 2.44774 3.84034C2.43277 3.84034 2.4178 3.84034 2.40284 3.84034C2.08914 3.60852 1.75987 3.39899 1.41504 3.21174C1.56554 3.03145 1.76011 2.9192 1.99874 2.87499C8.31469 2.84506 14.6306 2.84506 20.9465 2.87499C21.4964 3.05069 21.8481 3.41738 22.0017 3.97504C22.0316 7.85139 22.0316 11.7278 22.0017 15.6041C21.9271 15.9248 21.77 16.1942 21.5302 16.4123L21.5302 16.4123Z" id="Group" fill="#2C4A60" fill-opacity="0.993" fill-rule="evenodd" stroke="none" />
    <path d="M1.4148 3.21191C1.75963 3.39916 2.08889 3.6087 2.4026 3.84051C2.12818 3.94291 1.95606 4.13748 1.88625 4.42421C1.85631 7.68696 1.85631 10.9497 1.88625 14.2124C1.9642 14.5149 2.15128 14.717 2.4475 14.8186C8.0151 14.841 13.5827 14.8485 19.1503 14.841C19.9303 15.381 20.7236 15.9048 21.53 16.4125C21.3116 16.5963 21.0572 16.7086 20.7667 16.7493C18.3122 16.7717 15.8577 16.7792 13.4031 16.7717C13.4031 17.4003 13.4031 18.0289 13.4031 18.6575C12.116 18.6575 10.8288 18.6575 9.5417 18.6575C9.5417 18.0289 9.5417 17.4003 9.5417 16.7717C7.08711 16.7792 4.6326 16.7717 2.1781 16.7493C1.50618 16.646 1.0946 16.2643 0.943348 15.6043C0.913413 11.728 0.913413 7.85157 0.943348 3.97521C1.01028 3.66109 1.16743 3.40666 1.4148 3.21191L1.4148 3.21191Z" id="Group" fill="#263F52" fill-opacity="0.993" fill-rule="evenodd" stroke="none" />
    <path d="M2.44824 3.8408C8.44235 3.78844 14.444 3.78096 20.4531 3.81835C20.7226 3.87832 20.9097 4.03547 21.0144 4.2898C21.0443 7.62735 21.0443 10.9649 21.0144 14.3025C20.9319 14.5871 20.7448 14.7518 20.4531 14.7964C19.9546 14.8168 19.4607 14.7943 18.9714 14.729C13.4568 11.1073 7.94912 7.47788 2.44824 3.8408L2.44824 3.8408Z" id="Group" fill="#00A9E4" fill-rule="evenodd" stroke="none" />
    <path d="M2.40306 3.84082C2.41802 3.84082 2.43299 3.84082 2.44796 3.84082C7.94884 7.4779 13.4565 11.1073 18.9712 14.7291C19.4604 14.7944 19.9543 14.8168 20.4529 14.7964C20.0269 14.8411 19.5929 14.856 19.1508 14.8413C13.5832 14.8488 8.01556 14.8413 2.44796 14.8189C2.15174 14.7173 1.96466 14.5152 1.88671 14.2127C1.85677 10.95 1.85677 7.68727 1.88671 4.42452C1.95652 4.13778 2.12864 3.94321 2.40306 3.84082L2.40306 3.84082Z" id="Group" fill="#0099DF" fill-rule="evenodd" stroke="none" />
    <path d="M11.3426 15.2959C11.6284 15.2751 11.8305 15.3948 11.9488 15.6551C11.9921 15.9416 11.8798 16.1436 11.612 16.2612C11.3256 16.3046 11.1235 16.1923 11.0059 15.9245C10.9723 15.6364 11.0845 15.4269 11.3426 15.2959L11.3426 15.2959Z" id="Group" fill="#E1E7E8" fill-rule="evenodd" stroke="none" />
    <path d="M9.54266 18.665C10.8298 18.665 12.1169 18.665 13.4041 18.665C15.3498 18.6575 17.2954 18.665 19.2411 18.6875C19.9231 18.9296 20.1775 19.3936 20.0044 20.0794C14.317 20.1093 8.6297 20.1093 2.94236 20.0794C2.7692 19.3936 3.02364 18.9296 3.70566 18.6875C5.65126 18.665 7.59691 18.6575 9.54266 18.665L9.54266 18.665Z" id="Group" fill="#2D4A5F" fill-opacity="0.998" fill-rule="evenodd" stroke="none" />
  </g>
</svg>