<?xml version="1.0" encoding="utf-8"?>
<svg width="23px" height="23px" viewBox="0 0 23 23" version="1.1" xmlns:xlink="http://www.w3.org/1999/xlink" xmlns="http://www.w3.org/2000/svg">
  <defs>
    <path d="M23 0L23 0L23 23L0 23L0 0L23 0Z" id="path_1" />
    <clipPath id="clip_1">
      <use xlink:href="#path_1" clip-rule="evenodd" fill-rule="evenodd" />
    </clipPath>
  </defs>
  <g id="doctor (1)" clip-path="url(#clip_1)">
    <path d="M23 0L23 0L23 23L0 23L0 0L23 0Z" id="doctor-(1)" fill="none" stroke="none" />
    <path d="M0.0449219 8.75977C0.0449219 5.83984 0.0449219 2.94238 0.0449219 0.0449219C7.71159 0.0449219 15.3783 0.0449219 23.0449 0.0449219C23.0449 7.71159 23.0449 15.3783 23.0449 23.0449C15.3783 23.0449 7.71159 23.0449 0.0449219 23.0449C0.0449219 18.2907 0.0449219 13.5365 0.0449219 8.75977M5.25731 6.4196C5.23297 7.09359 5.42467 7.72719 5.60432 8.38797C5.2506 8.52344 5.02527 8.77548 4.93672 9.14256C4.82988 9.58545 4.86731 10.0261 5.08499 10.4207C5.42749 11.0417 5.81006 11.308 6.52529 11.1768C6.53609 11.1952 6.55115 11.2124 6.55708 11.2323C6.91488 12.4321 7.61722 13.3822 8.5984 14.1052C8.54745 14.113 8.49521 14.116 8.44574 14.1293C7.69256 14.3316 6.98609 15.1352 7.01615 16.0378C6.99705 16.0468 6.97874 16.0583 6.95874 16.0644C6.04502 16.3398 5.12382 16.5931 4.2207 16.8997C3.82719 17.0333 3.47075 17.2761 3.06934 17.4811C2.47345 18.0823 2.02475 18.7914 1.62465 19.5273C1.14438 20.4106 0.75441 21.3361 0.484306 22.3081C0.451085 22.4277 0.423986 22.5489 0.391979 22.6777C1.9044 22.6777 3.37819 22.6777 4.89354 22.6846C6.84101 22.6826 8.78848 22.6807 10.7655 22.6857C10.7854 22.6832 10.8054 22.6808 10.8671 22.6848C11.3329 22.6827 11.7987 22.6805 12.2941 22.6853C12.314 22.6831 12.3339 22.6809 12.3955 22.685C13.1641 22.6852 13.9328 22.6864 14.7014 22.6853C15.8802 22.6836 17.059 22.6803 18.2795 22.685C19.7433 22.685 21.2071 22.685 22.7013 22.685C22.6685 22.5484 22.6459 22.4305 22.6119 22.3159C22.2575 21.1197 21.7781 19.9747 21.1068 18.9234C20.7794 18.4107 20.3667 17.9525 19.9805 17.4406C19.6967 17.2873 19.4265 17.0956 19.1262 16.9882C18.3857 16.7234 17.6315 16.4974 16.8671 16.2281C16.6623 15.4936 16.288 14.8741 15.6023 14.5019C15.269 14.321 14.9014 14.2034 14.5624 14.0291C14.7418 13.8801 14.9443 13.7512 15.0961 13.5778C15.4169 13.2114 15.7537 12.8474 16.0039 12.434C16.2348 12.0525 16.3612 11.6077 16.5742 11.1858C16.8148 11.185 17.0561 11.2071 17.2713 11.0527C17.8091 10.667 18.0087 10.1363 18.0218 9.48883C18.0319 8.99228 17.7058 8.48594 17.2058 8.31426C17.293 7.71383 17.3803 7.1134 17.4722 6.47121C17.4706 6.17078 17.469 5.87036 17.4724 5.53119C17.4445 5.34912 17.4166 5.16705 17.3856 4.9487C17.3566 4.82606 17.3275 4.70343 17.2955 4.54702C17.2629 4.45386 17.2303 4.3607 17.2012 4.23425C17.1564 4.11058 17.1117 3.98692 17.0629 3.83267C17.0073 3.73741 16.9517 3.64215 16.8905 3.51691C16.843 3.44832 16.7955 3.37972 16.7452 3.27724C16.6457 3.1277 16.5462 2.97816 16.4326 2.80139C16.3142 2.66116 16.1958 2.52093 16.0733 2.35068C15.8754 2.16737 15.6905 1.96684 15.4763 1.80525C15.2282 1.61806 14.9542 1.46509 14.6771 1.26992C14.457 1.15373 14.2409 1.02901 14.016 0.923003C13.4251 0.644457 12.7986 0.451567 12.1522 0.41456C11.1223 0.355596 10.0881 0.380806 9.08641 0.679309C8.55226 0.838486 8.02493 1.02436 7.55887 1.40342C7.20556 1.67006 6.89654 1.97559 6.68548 2.40948C6.6307 2.56465 6.57591 2.71981 6.50378 2.90119C6.3556 3.02677 6.20743 3.15234 6.03283 3.29083C5.97094 3.37679 5.90905 3.46275 5.83193 3.57638C5.77311 3.68644 5.71428 3.79649 5.62948 3.92548C5.59303 4.03909 5.55657 4.15269 5.49383 4.2862C5.47682 4.38477 5.45981 4.48333 5.42644 4.61216C5.39785 4.73631 5.36925 4.86047 5.31316 5.00813C5.29644 5.18043 5.27972 5.35272 5.25745 5.56684C5.25919 5.83733 5.26093 6.10781 5.25731 6.4196L5.25731 6.4196Z" id="Shape" fill="#000000" fill-opacity="0" fill-rule="evenodd" stroke="none" />
    <path d="M8.63603 14.1033C7.61722 13.3822 6.91488 12.4321 6.55708 11.2323C6.55115 11.2124 6.53609 11.1952 6.51913 11.1418C6.50481 11.0261 6.49754 10.9455 6.48834 10.865C6.43731 10.4185 6.38581 9.97206 6.33506 9.5044C6.34273 8.45711 6.41331 7.43709 6.63579 6.41662C6.72369 6.12635 6.80436 5.85042 6.89611 5.56333C6.95031 5.45323 6.99342 5.35429 7.0356 5.25748C7.29371 5.31398 7.5292 5.37355 7.76773 5.41607C8.26829 5.50528 8.77044 5.58553 9.28647 5.68154C9.5349 5.73168 9.76782 5.77765 10.0029 5.8064C10.9735 5.92515 11.9421 6.08645 12.9166 6.14141C14.0063 6.20287 15.105 6.23545 16.1973 5.97591C16.2469 6.16286 16.2939 6.33994 16.3412 6.5358C16.3632 6.70178 16.3861 6.84884 16.4068 6.99621C16.5246 7.83602 16.6418 8.67592 16.758 9.53701C16.7463 9.73423 16.7488 9.91216 16.7229 10.0858C16.6676 10.4553 16.5976 10.8226 16.5336 11.1907C16.3612 11.6077 16.2348 12.0525 16.0039 12.434C15.7537 12.8474 15.4169 13.2114 15.0961 13.5778C14.9443 13.7512 14.7418 13.8801 14.5395 14.0447C14.3345 14.1651 14.1523 14.27 13.9545 14.3783C13.8614 14.4253 13.7838 14.4688 13.6891 14.5131C13.6018 14.538 13.5304 14.5593 13.4615 14.5867C12.429 14.9975 11.372 15.0711 10.2954 14.8014C9.98671 14.724 9.68727 14.6096 9.36933 14.5062C9.29318 14.4721 9.23129 14.4439 9.16319 14.4016C8.98333 14.2927 8.80968 14.198 8.63603 14.1033M8.54516 7.70802C8.4056 7.7785 8.26363 7.84466 8.12723 7.9208C8.01375 7.98415 7.89071 8.06313 7.98246 8.21692C8.07313 8.36888 8.18963 8.29636 8.30994 8.23325C8.48039 8.14383 8.65487 8.05157 8.83872 8.00027C9.30119 7.8712 9.72196 8.01542 10.1215 8.24337C10.233 8.30695 10.3487 8.35969 10.4328 8.2211C10.5264 8.06703 10.4086 7.99091 10.2934 7.92482C9.75286 7.61477 9.18787 7.48418 8.54516 7.70802M13.1926 7.73171C13.0333 7.81293 12.8654 7.88163 12.7194 7.98207C12.6673 8.01787 12.6682 8.13064 12.6449 8.20827C12.7278 8.23298 12.8095 8.26985 12.8939 8.27734C12.9373 8.2812 12.9857 8.23317 13.0313 8.20778C13.6214 7.87952 14.2074 7.85245 14.7862 8.23415C14.903 8.31113 15.0228 8.36397 15.111 8.2118C15.1936 8.0694 15.0821 7.99384 14.9781 7.92707C14.4277 7.57361 13.8458 7.48775 13.1926 7.73171M12.0886 13.2446C11.5536 13.4446 11.0651 13.3236 10.5907 13.0451C10.5273 13.0078 10.4131 13.0568 10.3224 13.0659C10.3483 13.1539 10.3456 13.2782 10.4044 13.3245C11.0364 13.822 12.0402 13.8233 12.6813 13.3275C12.7415 13.281 12.7422 13.1577 12.7705 13.07C12.6801 13.0585 12.5807 13.0177 12.5015 13.0422C12.368 13.0835 12.2473 13.1662 12.0886 13.2446M13.8984 9.2099C13.639 9.21716 13.4579 9.3374 13.3719 9.58508C13.2978 9.79863 13.3562 9.98671 13.5151 10.1367C13.6821 10.2943 13.8816 10.3307 14.0963 10.2396C14.3056 10.1507 14.4391 9.92127 14.417 9.69723C14.3926 9.45044 14.2316 9.28846 13.8984 9.2099M9.733 9.87299C9.77512 9.42906 9.44591 9.11526 9.06115 9.23259C8.81825 9.30665 8.66008 9.52539 8.67131 9.77169C8.68236 10.0143 8.86598 10.2275 9.10689 10.2775C9.36783 10.3316 9.58912 10.1975 9.733 9.87299M11.5977 12.0823C11.7386 12.0066 11.8899 11.9443 12.0147 11.8478C12.0572 11.8149 12.0331 11.6959 12.0394 11.6163C11.9546 11.6101 11.8378 11.5654 11.7908 11.6045C11.6142 11.7514 11.4692 11.7484 11.296 11.6008C11.2514 11.5628 11.1422 11.6006 11.0627 11.6035C11.066 11.6885 11.037 11.8224 11.0784 11.8497C11.2263 11.9473 11.3981 12.0087 11.5977 12.0823L11.5977 12.0823Z" id="Shape" fill="#F6CFBE" fill-rule="evenodd" stroke="none" />
    <path d="M3.09747 17.4694C3.47075 17.2761 3.82719 17.0333 4.22071 16.8997C5.12382 16.5931 6.04502 16.3398 6.95874 16.0644C6.97874 16.0583 6.99705 16.0468 7.03424 16.06C7.05233 16.3646 7.05233 16.647 7.05233 16.9243C5.87899 17.2137 5.24728 17.9185 5.25877 18.9284C5.25685 19.5333 5.25452 20.1168 5.25669 20.7003C5.25787 21.0169 5.40601 21.2633 5.6992 21.3628C5.89656 21.4298 6.12459 21.4063 6.35873 21.4254C6.47566 21.4276 6.58181 21.4522 6.66722 21.4207C6.74685 21.3912 6.80443 21.3021 6.87171 21.2393C6.80607 21.1823 6.74829 21.0954 6.6729 21.0756C6.56851 21.0482 6.45087 21.0713 6.31815 21.0713C6.25258 21.0693 6.20776 21.0685 6.16294 21.0684C5.70019 21.0672 5.61587 20.9825 5.61514 20.5209C5.61428 19.983 5.61248 19.4452 5.61369 18.8889C5.70317 17.8043 6.58665 17.1231 7.58893 17.3628C7.41465 17.6981 7.24259 18.0181 7.05688 18.3634C7.29074 18.3997 7.4944 18.4307 7.69786 18.4629C7.89764 18.4946 8.09723 18.5275 8.3082 18.5616C8.19815 18.9991 8.09638 19.3951 8.00068 19.7926C7.98441 19.8601 7.96275 19.9671 7.99699 19.9996C8.27073 20.2592 8.55732 20.5053 8.8401 20.7713C8.78354 20.991 8.64278 21.0722 8.43879 21.0691C8.27467 21.0666 8.11044 21.0713 7.92643 21.0707C7.80203 21.0686 7.6895 21.0448 7.59548 21.0763C7.52275 21.1007 7.44095 21.1874 7.42563 21.2597C7.41663 21.3021 7.52201 21.4038 7.58973 21.4196C7.70275 21.4459 7.82683 21.4246 7.9675 21.4248C8.39334 21.4307 8.81546 21.4965 9.1219 21.1139C9.49826 21.4487 9.86647 21.7702 10.22 22.1071C10.4053 22.2837 10.5648 22.4873 10.736 22.6787C8.78848 22.6807 6.84101 22.6826 4.87261 22.6635C4.82796 22.5489 4.81074 22.4532 4.77954 22.3622C4.21985 20.7309 3.65848 19.1002 3.09747 17.4694L3.09747 17.4694Z" id="Shape" fill="#EFF0F0" stroke="none" />
    <path d="M16.8827 16.2558C17.6315 16.4974 18.3857 16.7234 19.1262 16.9882C19.4265 17.0956 19.6966 17.2873 19.9798 17.4706C19.8031 18.0085 19.627 18.5165 19.4512 19.0245C19.1679 19.8431 18.8801 20.6602 18.6037 21.4812C18.4706 21.8763 18.3591 22.2786 18.2379 22.6777C17.059 22.6803 15.8802 22.6836 14.7014 22.6853C13.9328 22.6864 13.1641 22.6852 12.3766 22.6669C12.4089 22.5859 12.4541 22.5165 12.5124 22.4611C13.3347 21.681 14.1559 20.8999 14.9853 20.1275C15.1085 20.0127 15.1255 19.9051 15.0858 19.7568C14.9823 19.3692 14.887 18.9794 14.7802 18.5584C15.2002 18.4923 15.6037 18.4288 16.0284 18.362C15.7338 17.8107 15.4538 17.2933 15.1805 16.7724C14.9974 16.4234 14.8239 16.0694 14.6649 15.7199C14.8106 15.7479 14.938 15.7712 15.0643 15.7995C15.4923 15.8954 15.9198 15.993 16.3482 16.0874C16.3488 16.0849 16.3437 16.0846 16.3489 16.0951C16.3671 16.1104 16.3801 16.1153 16.409 16.1272C16.4753 16.4103 16.5586 16.685 16.5692 16.9626C16.5919 17.5517 16.5768 18.1423 16.5625 18.7394C16.3468 18.8681 16.115 18.958 15.9511 19.1177C15.5948 19.4649 15.5869 20.0566 15.8935 20.4519C16.2284 20.8837 16.7681 21.0083 17.2578 20.767C17.6901 20.554 17.9301 19.996 17.7931 19.5302C17.6646 19.0932 17.3576 18.851 16.935 18.7112C16.9179 17.8787 16.9003 17.0673 16.8827 16.2558L16.8827 16.2558Z" id="Shape" fill="#EFF0F0" stroke="none" />
    <path d="M18.2587 22.6814C18.3591 22.2786 18.4706 21.8763 18.6037 21.4812C18.8801 20.6602 19.1679 19.8431 19.4512 19.0245C19.627 18.5165 19.8031 18.0085 19.9859 17.4851C20.3667 17.9525 20.7794 18.4107 21.1068 18.9234C21.7781 19.9747 22.2575 21.1197 22.6119 22.3159C22.6459 22.4305 22.6685 22.5484 22.7013 22.685C21.2071 22.685 19.7433 22.685 18.2587 22.6814L18.2587 22.6814Z" id="Shape" fill="#E4E5E6" stroke="none" />
    <path d="M3.0834 17.4752C3.65848 19.1002 4.21985 20.7309 4.77954 22.3622C4.81074 22.4532 4.82796 22.5489 4.85183 22.6601C3.37819 22.6777 1.9044 22.6777 0.391979 22.6777C0.423986 22.5489 0.451085 22.4277 0.484306 22.3081C0.75441 21.3361 1.14438 20.4106 1.62465 19.5273C2.02475 18.7914 2.47345 18.0823 3.0834 17.4752L3.0834 17.4752Z" id="Shape" fill="#E4E5E6" stroke="none" />
    <path d="M12.2645 22.6783C11.7987 22.6805 11.3329 22.6827 10.8458 22.6638C10.8107 22.5849 10.7947 22.5274 10.7836 22.4691C10.5449 21.2193 10.304 19.97 10.0697 18.7194C9.96984 18.186 9.884 17.65 9.80898 17.1152C9.85521 17.1215 9.88652 17.1226 9.91295 17.1346C10.7079 17.4939 11.5343 17.5667 12.3811 17.3841C12.6918 17.3171 12.993 17.2064 13.2992 17.135C13.1868 17.7835 13.078 18.4135 12.9596 19.0416C12.7308 20.2544 12.4965 21.4661 12.2645 22.6783L12.2645 22.6783Z" id="Shape" fill="#FFCF97" stroke="none" />
    <path d="M12.2793 22.6818C12.4965 21.4661 12.7308 20.2544 12.9596 19.0416C13.078 18.4135 13.1868 17.7835 13.3072 17.1198C13.3825 16.7371 13.4506 16.389 13.5208 16.0256C13.5234 15.9897 13.5239 15.9691 13.5313 15.9328C13.5753 15.7471 13.6125 15.577 13.6521 15.3898C13.6711 15.2938 13.6878 15.215 13.7234 15.1373C14.1688 15.136 14.4348 15.3841 14.6461 15.7176C14.8239 16.0694 14.9974 16.4234 15.1805 16.7724C15.4538 17.2933 15.7338 17.8107 16.0284 18.362C15.6037 18.4288 15.2002 18.4923 14.7802 18.5584C14.887 18.9794 14.9823 19.3692 15.0858 19.7568C15.1254 19.9051 15.1085 20.0127 14.9853 20.1275C14.1559 20.8999 13.3347 21.681 12.5124 22.4611C12.4541 22.5165 12.4089 22.5859 12.3558 22.6637C12.3339 22.6809 12.314 22.6831 12.2793 22.6818L12.2793 22.6818Z" id="Shape" fill="#E4E5E6" stroke="none" />
    <path d="M14.6914 1.29727C14.9542 1.46509 15.2282 1.61806 15.4763 1.80525C15.6905 1.96684 15.8754 2.16737 16.0561 2.36579C15.5775 2.39586 15.116 2.42281 14.6545 2.42373C12.405 2.42823 10.1554 2.42796 7.9059 2.42374C7.50421 2.42298 7.10257 2.3957 6.7009 2.38066C6.89654 1.97559 7.20556 1.67006 7.59405 1.39764C8.29503 1.39211 8.96083 1.39253 9.62663 1.39257C11.235 1.39268 12.8435 1.39397 14.4518 1.38855C14.5318 1.38828 14.6116 1.32905 14.6914 1.29727L14.6914 1.29727Z" id="Shape" fill="#756667" stroke="none" />
    <path d="M9.79177 17.1152C9.884 17.65 9.96984 18.186 10.0697 18.7194C10.304 19.97 10.5449 21.2193 10.7836 22.4691C10.7947 22.5274 10.8107 22.5849 10.8249 22.6606C10.8054 22.6808 10.7854 22.6832 10.7507 22.6822C10.5648 22.4873 10.4053 22.2837 10.22 22.1071C9.86647 21.7702 9.49826 21.4487 9.12726 21.0974C9.14856 20.9529 9.20323 20.832 9.2048 20.7104C9.21256 20.1094 9.20628 19.5081 9.20652 18.8877C9.15514 17.9377 8.66662 17.335 7.81127 16.9925C7.85859 16.8804 7.90155 16.7855 7.94845 16.6927C8.11278 16.3673 8.27847 16.0426 8.44921 15.7033C8.6813 15.3638 8.95475 15.1177 9.38719 15.1536C9.41532 15.2701 9.44168 15.3693 9.47027 15.4859C9.50341 15.6517 9.53432 15.8002 9.56513 15.9638C9.56678 15.9993 9.56851 16.0195 9.5701 16.0581C9.64389 16.4228 9.71783 16.769 9.79177 17.1152L9.79177 17.1152Z" id="Shape" fill="#E4E5E6" stroke="none" />
    <path d="M9.27194 5.66946C8.77044 5.58553 8.26829 5.50528 7.76773 5.41607C7.5292 5.37355 7.29371 5.31398 7.0356 5.25748C6.99342 5.35429 6.95031 5.45323 6.87664 5.56007C6.75112 5.55379 6.65627 5.52833 6.56116 5.52734C6.12848 5.5228 5.69573 5.52515 5.26301 5.52502C5.27972 5.35272 5.29644 5.18043 5.34836 4.9969C9.38529 4.98544 13.387 4.98521 17.3887 4.98498C17.4166 5.16705 17.4445 5.34912 17.4494 5.55069C14.8588 5.57023 12.2911 5.5686 9.72352 5.57455C9.57292 5.5749 9.42247 5.63641 9.27194 5.66946L9.27194 5.66946Z" id="Shape" fill="#615658" stroke="none" />
    <path d="M14.6842 1.2836C14.6116 1.32905 14.5318 1.38828 14.4518 1.38855C12.8435 1.39397 11.235 1.39268 9.62663 1.39257C8.96083 1.39253 8.29503 1.39211 7.60777 1.3913C8.02493 1.02436 8.55226 0.838486 9.08641 0.679309C10.0881 0.380806 11.1223 0.355596 12.1522 0.41456C12.7986 0.451567 13.4251 0.644457 14.016 0.923003C14.2409 1.02901 14.457 1.15373 14.6842 1.2836L14.6842 1.2836Z" id="Shape" fill="#7B6A6B" stroke="none" />
    <path d="M17.3872 4.96684C13.387 4.98521 9.38529 4.98544 5.36211 4.98515C5.36925 4.86047 5.39785 4.73631 5.45511 4.59707C9.42203 4.58159 13.3603 4.58119 17.2985 4.5808C17.3275 4.70343 17.3566 4.82606 17.3872 4.96684L17.3872 4.96684Z" id="Shape" fill="#64585A" stroke="none" />
    <path d="M6.69319 2.39507C7.10257 2.3957 7.50421 2.42298 7.9059 2.42374C10.1554 2.42796 12.405 2.42823 14.6545 2.42373C15.116 2.42281 15.5775 2.39586 16.0582 2.3808C16.1958 2.52093 16.3142 2.66116 16.4206 2.81781C16.2984 2.84782 16.1882 2.87321 16.0779 2.87328C12.8923 2.8754 9.70674 2.87498 6.52113 2.87497C6.57591 2.71981 6.6307 2.56465 6.69319 2.39507L6.69319 2.39507Z" id="Shape" fill="#716264" stroke="none" />
    <path d="M9.28647 5.68154C9.42247 5.63641 9.57292 5.5749 9.72352 5.57455C12.2912 5.5686 14.8588 5.57023 17.4469 5.57006C17.469 5.87036 17.4706 6.17078 17.4494 6.49232C17.0647 6.51463 16.7029 6.51583 16.341 6.51702C16.2939 6.33994 16.2469 6.16286 16.1973 5.97591C15.105 6.23545 14.0063 6.20287 12.9166 6.14141C11.9421 6.08645 10.9735 5.92515 10.0029 5.8064C9.76782 5.77765 9.5349 5.73168 9.28647 5.68154L9.28647 5.68154Z" id="Shape" fill="#5D5354" stroke="none" />
    <path d="M6.51245 2.88808C9.70674 2.87498 12.8923 2.8754 16.0779 2.87328C16.1882 2.87321 16.2984 2.84782 16.4276 2.83142C16.5462 2.97816 16.6457 3.1277 16.7245 3.29712C16.4589 3.30444 16.2139 3.28113 15.969 3.28092C12.6657 3.27804 9.3625 3.27837 6.05926 3.27791C6.20743 3.15234 6.3556 3.02677 6.51245 2.88808L6.51245 2.88808Z" id="Shape" fill="#6F6162" stroke="none" />
    <path d="M17.0669 3.86326C17.1117 3.98692 17.1564 4.11058 17.1789 4.2509C13.2778 4.26714 9.39898 4.26672 5.52012 4.2663C5.55657 4.15269 5.59303 4.03909 5.66388 3.91652C9.3777 3.90778 13.0571 3.90838 16.7366 3.90631C16.8467 3.90625 16.9568 3.87824 17.0669 3.86326L17.0669 3.86326Z" id="Shape" fill="#685B5D" stroke="none" />
    <path d="M17.0649 3.84796C16.9568 3.87824 16.8467 3.90625 16.7366 3.90631C13.0571 3.90838 9.3777 3.90778 5.67686 3.90706C5.71428 3.79649 5.77311 3.68644 5.86005 3.56258C9.55746 3.54816 13.2268 3.54753 16.8961 3.5469C16.9517 3.64215 17.0073 3.73741 17.0649 3.84796L17.0649 3.84796Z" id="Shape" fill="#6A5D5F" stroke="none" />
    <path d="M5.50697 4.27625C9.39898 4.26672 13.2778 4.26714 17.1772 4.26755C17.2303 4.3607 17.2629 4.45386 17.297 4.56391C13.3603 4.58119 9.42203 4.58159 5.4633 4.58194C5.45981 4.48333 5.47682 4.38477 5.50697 4.27625L5.50697 4.27625Z" id="Shape" fill="#665A5B" stroke="none" />
    <path d="M7.80871 17.0107C8.66662 17.335 9.15514 17.9377 9.18711 18.8899C9.06194 18.9099 8.95776 18.9085 8.85109 18.8886C8.78106 18.0756 8.31852 17.5155 7.59116 17.3475C6.58665 17.1231 5.70317 17.8043 5.5943 18.891C5.46828 18.91 5.36426 18.9085 5.26024 18.9071C5.24728 17.9185 5.87899 17.2137 7.05233 16.9243C7.05233 16.647 7.05233 16.3646 7.05226 16.0614C6.98608 15.1352 7.69256 14.3316 8.44574 14.1293C8.49521 14.116 8.54745 14.113 8.61721 14.1042C8.80968 14.198 8.98333 14.2927 9.14414 14.4032C9.04467 14.434 8.95844 14.4591 8.87134 14.4626C8.14868 14.4917 7.4337 15.2245 7.44269 15.9519C7.42607 16.2859 7.42607 16.6089 7.42607 16.9324C7.56191 16.9602 7.68531 16.9854 7.80871 17.0107L7.80871 17.0107Z" id="Shape" fill="#444345" stroke="none" />
    <path d="M6.33447 9.52559C6.38581 9.97206 6.43731 10.4185 6.48834 10.865C6.49754 10.9455 6.50481 11.0261 6.51214 11.1264C5.81006 11.308 5.42749 11.0417 5.08499 10.4207C4.86731 10.0261 4.82988 9.58545 4.93672 9.14256C5.02527 8.77548 5.2506 8.52344 5.62685 8.37878C5.71086 8.49626 5.76268 8.62884 5.83578 8.74841C5.9963 9.01096 6.16758 9.26693 6.33447 9.52559L6.33447 9.52559Z" id="Shape" fill="#F0B9A6" stroke="none" />
    <path d="M16.8933 3.53191C13.2268 3.54753 9.55746 3.54816 5.86766 3.54875C5.90905 3.46275 5.97094 3.37679 6.04604 3.28437C9.3625 3.27837 12.6657 3.27804 15.969 3.28092C16.2139 3.28113 16.4589 3.30444 16.7259 3.31407C16.7955 3.37972 16.843 3.44832 16.8933 3.53191L16.8933 3.53191Z" id="Shape" fill="#6C5F60" stroke="none" />
    <path d="M16.5539 11.1883C16.5976 10.8226 16.6676 10.4553 16.7229 10.0858C16.7488 9.91216 16.7463 9.73423 16.7713 9.5296C16.8372 9.37116 16.8916 9.24247 16.9392 9.11129C17.0309 8.8582 17.1188 8.6037 17.2084 8.34978C17.7058 8.48594 18.0319 8.99228 18.0218 9.48883C18.0087 10.1363 17.8091 10.667 17.2713 11.0527C17.0561 11.2071 16.8148 11.185 16.5539 11.1883L16.5539 11.1883Z" id="Shape" fill="#F0B9A6" stroke="none" />
    <path d="M6.33506 9.5044C6.16758 9.26693 5.9963 9.01096 5.83578 8.74841C5.76268 8.62884 5.71086 8.49626 5.63473 8.36484C5.42467 7.72719 5.23297 7.09359 5.28049 6.39917C5.51851 6.37881 5.73363 6.37216 5.94813 6.3808C6.17524 6.38994 6.40176 6.41362 6.62854 6.43096C6.41331 7.43709 6.34273 8.45711 6.33506 9.5044L6.33506 9.5044Z" id="Shape" fill="#554D4E" stroke="none" />
    <path d="M16.8749 16.242C16.9003 17.0673 16.9179 17.8787 16.9152 18.7131C16.789 18.7348 16.6831 18.7335 16.5772 18.7323C16.5768 18.1423 16.5919 17.5517 16.5692 16.9626C16.5586 16.685 16.4753 16.4103 16.4049 16.1167C16.3712 16.0943 16.3574 16.0895 16.3437 16.0846C16.3437 16.0846 16.3488 16.0849 16.3531 16.0697C16.3508 16.0103 16.3544 15.9614 16.3361 15.9228C15.9555 15.1184 15.2082 14.521 14.2537 14.4615C14.1578 14.4555 14.0646 14.4048 13.9701 14.3748C14.1523 14.27 14.3345 14.1651 14.533 14.0588C14.9014 14.2034 15.269 14.321 15.6023 14.5019C16.288 14.8741 16.6623 15.4936 16.8749 16.242L16.8749 16.242Z" id="Shape" fill="#424143" stroke="none" />
    <path d="M17.2071 8.33202C17.1188 8.6037 17.0309 8.8582 16.9392 9.11129C16.8916 9.24246 16.8372 9.37116 16.7726 9.50838C16.6418 8.67592 16.5246 7.83602 16.4068 6.9962C16.3861 6.84883 16.3632 6.70178 16.3412 6.5358C16.7029 6.51583 17.0647 6.51463 17.4471 6.51321C17.3803 7.1134 17.293 7.71383 17.2071 8.33202L17.2071 8.33202Z" id="Shape" fill="#554D4E" stroke="none" />
    <path d="M6.63579 6.41662C6.40176 6.41362 6.17524 6.38994 5.94813 6.3808C5.73363 6.37216 5.51851 6.37881 5.28317 6.37851C5.26093 6.10781 5.25919 5.83733 5.26023 5.54593C5.69573 5.52515 6.12848 5.5228 6.56116 5.52734C6.65627 5.52833 6.75112 5.55379 6.86555 5.57124C6.80436 5.85042 6.72369 6.12635 6.63579 6.41662L6.63579 6.41662Z" id="Shape" fill="#5D5354" stroke="none" />
    <path d="M9.46803 15.4685C9.44168 15.3693 9.41532 15.2701 9.38871 15.1329C9.38682 14.9006 9.3852 14.7063 9.38357 14.5121C9.68727 14.6096 9.98671 14.724 10.2954 14.8014C11.372 15.0711 12.429 14.9975 13.4615 14.5867C13.5304 14.5593 13.6018 14.538 13.6868 14.5337C13.7025 14.7477 13.7035 14.942 13.7044 15.1362C13.6878 15.215 13.6711 15.2938 13.6317 15.3902C12.3189 15.4079 11.0288 15.4069 9.73873 15.4108C9.64844 15.4111 9.55826 15.4484 9.46803 15.4685L9.46803 15.4685Z" id="Shape" fill="#EEB09C" stroke="none" />
    <path d="M13.7234 15.1373C13.7035 14.942 13.7025 14.7477 13.7038 14.5329C13.7838 14.4688 13.8614 14.4253 13.9545 14.3783C14.0646 14.4048 14.1578 14.4555 14.2537 14.4615C15.2082 14.521 15.9555 15.1184 16.3361 15.9228C16.3544 15.9614 16.3508 16.0103 16.3525 16.0722C15.9198 15.993 15.4923 15.8954 15.0643 15.7995C14.938 15.7712 14.8106 15.7479 14.6649 15.7199C14.4348 15.3841 14.1688 15.136 13.7234 15.1373L13.7234 15.1373Z" id="Shape" fill="#000000" stroke="none" />
    <path d="M9.36933 14.5062C9.3852 14.7063 9.38682 14.9006 9.38693 15.1155C8.95475 15.1177 8.6813 15.3638 8.43041 15.7056C8.09047 15.7952 7.77489 15.8681 7.45932 15.9411C7.4337 15.2245 8.14868 14.4917 8.87134 14.4626C8.95844 14.4591 9.04467 14.434 9.15035 14.4174C9.23129 14.4439 9.29318 14.4721 9.36933 14.5062L9.36933 14.5062Z" id="Shape" fill="#000000" stroke="none" />
    <path d="M8.56117 7.70055C9.18787 7.48418 9.75286 7.61477 10.2934 7.92482C10.4086 7.99091 10.5264 8.06703 10.4328 8.2211C10.3487 8.35969 10.233 8.30695 10.1215 8.24337C9.72196 8.01542 9.30119 7.8712 8.83872 8.00027C8.65487 8.05157 8.48039 8.14383 8.30994 8.23325C8.18963 8.29636 8.07313 8.36888 7.98246 8.21692C7.89071 8.06313 8.01375 7.98415 8.12723 7.9208C8.26363 7.84466 8.4056 7.7785 8.56117 7.70055L8.56117 7.70055Z" id="Shape" fill="#444345" stroke="none" />
    <path d="M13.2096 7.72713C13.8458 7.48775 14.4277 7.57361 14.9781 7.92707C15.0821 7.99384 15.1936 8.0694 15.111 8.2118C15.0228 8.36397 14.903 8.31113 14.7862 8.23415C14.2074 7.85245 13.6214 7.87952 13.0313 8.20778C12.9857 8.23317 12.9373 8.2812 12.8939 8.27734C12.8095 8.26985 12.7278 8.23298 12.6449 8.20827C12.6682 8.13064 12.6673 8.01787 12.7194 7.98207C12.8654 7.88163 13.0333 7.81293 13.2096 7.72713L13.2096 7.72713Z" id="Shape" fill="#444345" stroke="none" />
    <path d="M12.1049 13.238C12.2473 13.1662 12.368 13.0835 12.5015 13.0422C12.5807 13.0177 12.6801 13.0585 12.7705 13.07C12.7422 13.1577 12.7415 13.281 12.6813 13.3275C12.0402 13.8233 11.0364 13.822 10.4044 13.3245C10.3456 13.2782 10.3483 13.1539 10.3224 13.0659C10.4131 13.0568 10.5273 13.0078 10.5907 13.0451C11.0651 13.3236 11.5536 13.4446 12.1049 13.238L12.1049 13.238Z" id="Shape" fill="#EEB09C" stroke="none" />
    <path d="M13.9165 9.21092C14.2316 9.28846 14.3926 9.45044 14.417 9.69723C14.4391 9.92127 14.3056 10.1507 14.0963 10.2396C13.8816 10.3307 13.6821 10.2943 13.5151 10.1367C13.3562 9.98671 13.2978 9.79863 13.3719 9.58508C13.4579 9.3374 13.639 9.21716 13.9165 9.21092L13.9165 9.21092Z" id="Shape" fill="#444345" stroke="none" />
    <path d="M9.72631 9.88957C9.58912 10.1975 9.36783 10.3316 9.10689 10.2775C8.86598 10.2275 8.68236 10.0143 8.67131 9.77169C8.66008 9.52539 8.81825 9.30665 9.06115 9.23259C9.44591 9.11526 9.77512 9.42906 9.72631 9.88957L9.72631 9.88957Z" id="Shape" fill="#444345" stroke="none" />
    <path d="M11.5793 12.083C11.3981 12.0087 11.2263 11.9473 11.0784 11.8497C11.037 11.8224 11.066 11.6885 11.0627 11.6035C11.1422 11.6006 11.2514 11.5628 11.296 11.6008C11.4692 11.7484 11.6142 11.7514 11.7908 11.6045C11.8378 11.5654 11.9546 11.6101 12.0394 11.6163C12.0331 11.6959 12.0572 11.8149 12.0147 11.8478C11.8899 11.9443 11.7386 12.0066 11.5793 12.083L11.5793 12.083Z" id="Shape" fill="#EEB09C" stroke="none" />
    <path d="M7.58893 17.3628C8.31852 17.5155 8.78106 18.0756 8.84979 18.91C8.8473 19.5517 8.84364 20.1536 8.83997 20.7555C8.55732 20.5053 8.27073 20.2592 7.99699 19.9996C7.96275 19.9671 7.98441 19.8601 8.00068 19.7926C8.09638 19.3951 8.19815 18.9991 8.3082 18.5616C8.09723 18.5275 7.89764 18.4946 7.69786 18.4629C7.4944 18.4307 7.29074 18.3997 7.05688 18.3634C7.24259 18.0181 7.41465 17.6981 7.58893 17.3628L7.58893 17.3628Z" id="Shape" fill="#E4E5E6" stroke="none" />
    <path d="M8.8401 20.7713C8.84364 20.1536 8.8473 19.5517 8.85227 18.9284C8.95776 18.9085 9.06194 18.9099 9.18554 18.9091C9.20628 19.5081 9.21256 20.1094 9.2048 20.7104C9.20323 20.832 9.14856 20.9529 9.11302 21.0905C8.81546 21.4965 8.39334 21.4307 7.96962 21.4054C7.94909 21.2806 7.94767 21.1767 7.94626 21.0728C8.11044 21.0713 8.27467 21.0666 8.43879 21.0691C8.64278 21.0722 8.78354 20.991 8.8401 20.7713L8.8401 20.7713Z" id="Shape" fill="#AAAEB1" stroke="none" />
    <path d="M5.25877 18.9284C5.36426 18.9085 5.46828 18.91 5.59169 18.9094C5.61247 19.4452 5.61428 19.983 5.61514 20.5209C5.61587 20.9825 5.70019 21.0672 6.16294 21.0684C6.20776 21.0685 6.25258 21.0693 6.31603 21.0907C6.33607 21.2154 6.33748 21.3194 6.3389 21.4233C6.12459 21.4063 5.89656 21.4298 5.6992 21.3628C5.40601 21.2633 5.25787 21.0169 5.25669 20.7003C5.25452 20.1168 5.25685 19.5333 5.25877 18.9284L5.25877 18.9284Z" id="Shape" fill="#AAAEB1" stroke="none" />
    <path d="M6.35873 21.4254C6.33748 21.3194 6.33607 21.2154 6.33678 21.0921C6.45087 21.0713 6.56851 21.0482 6.6729 21.0756C6.74829 21.0954 6.80607 21.1823 6.87171 21.2393C6.80443 21.3021 6.74685 21.3912 6.66722 21.4207C6.58181 21.4522 6.47566 21.4276 6.35873 21.4254L6.35873 21.4254Z" id="Shape" fill="#444345" stroke="none" />
    <path d="M7.92643 21.0707C7.94767 21.1767 7.94909 21.2806 7.94838 21.404C7.82683 21.4246 7.70275 21.4459 7.58973 21.4196C7.52201 21.4038 7.41663 21.3021 7.42563 21.2597C7.44095 21.1874 7.52275 21.1007 7.59548 21.0763C7.6895 21.0448 7.80203 21.0686 7.92643 21.0707L7.92643 21.0707Z" id="Shape" fill="#444345" stroke="none" />
    <path d="M16.5625 18.7394C16.6831 18.7335 16.789 18.7348 16.9147 18.7341C17.3576 18.851 17.6646 19.0932 17.7931 19.5302C17.9301 19.996 17.6901 20.554 17.2578 20.767C16.7681 21.0083 16.2284 20.8837 15.8935 20.4519C15.5869 20.0566 15.5948 19.4649 15.9511 19.1177C16.1149 18.958 16.3468 18.8681 16.5625 18.7394M16.1715 19.3909C15.994 19.662 15.9795 19.9417 16.1616 20.2103C16.3311 20.4604 16.5814 20.5742 16.8814 20.5179C17.1779 20.4622 17.373 20.276 17.4535 19.9814C17.5369 19.6764 17.3852 19.335 17.1017 19.1794C16.7944 19.0108 16.4783 19.0751 16.1715 19.3909L16.1715 19.3909Z" id="Shape" fill="#AAAEB1" fill-rule="evenodd" stroke="none" />
    <path d="M16.3489 16.0951C16.3574 16.0895 16.3712 16.0943 16.389 16.1096C16.3801 16.1153 16.3671 16.1104 16.3489 16.0951L16.3489 16.0951Z" id="Shape" fill="#000000" stroke="none" />
    <path d="M9.80898 17.1152C9.71783 16.769 9.6439 16.4228 9.58367 16.0642C10.2941 16.6107 11.0785 16.8337 11.9718 16.7227C12.5633 16.6492 13.055 16.3858 13.5187 16.041C13.4506 16.389 13.3825 16.7371 13.3065 17.1004C12.993 17.2064 12.6918 17.3171 12.3811 17.3841C11.5343 17.5667 10.7079 17.4939 9.91295 17.1346C9.88652 17.1226 9.85521 17.1215 9.80898 17.1152L9.80898 17.1152Z" id="Shape" fill="#FFAD6B" stroke="none" />
    <path d="M13.5208 16.0256C13.055 16.3858 12.5633 16.6492 11.9718 16.7227C11.0785 16.8337 10.2941 16.6107 9.58381 16.0458C9.56851 16.0195 9.56678 15.9993 9.58653 15.9634C10.9135 15.948 12.219 15.9483 13.5245 15.9485C13.5239 15.9691 13.5234 15.9897 13.5208 16.0256L13.5208 16.0256Z" id="Shape" fill="#F4C6B4" stroke="none" />
    <path d="M13.5313 15.9328C12.219 15.9483 10.9135 15.948 9.58662 15.9482C9.53432 15.8002 9.50341 15.6517 9.47027 15.4859C9.55826 15.4484 9.64844 15.4111 9.73873 15.4108C11.0288 15.4069 12.3189 15.4079 13.6294 15.4074C13.6125 15.577 13.5753 15.7471 13.5313 15.9328L13.5313 15.9328Z" id="Shape" fill="#F0B9A6" stroke="none" />
    <path d="M7.44269 15.9519C7.77489 15.8681 8.09047 15.7952 8.42484 15.72C8.27847 16.0426 8.11278 16.3673 7.94845 16.6927C7.90155 16.7855 7.85859 16.8804 7.81127 16.9925C7.68531 16.9854 7.56191 16.9602 7.42607 16.9324C7.42607 16.6089 7.42607 16.2859 7.44269 15.9519L7.44269 15.9519Z" id="Shape" fill="#EFF0F0" stroke="none" />
    <path d="M16.1818 19.3777C16.4783 19.0751 16.7944 19.0108 17.1017 19.1794C17.3852 19.335 17.5369 19.6764 17.4535 19.9814C17.373 20.276 17.1779 20.4622 16.8814 20.5179C16.5814 20.5742 16.3311 20.4604 16.1616 20.2103C15.9795 19.9417 15.994 19.662 16.1818 19.3777L16.1818 19.3777Z" id="Shape" fill="#585A5D" stroke="none" />
  </g>
</svg>