<?xml version="1.0" encoding="utf-8"?>
<svg width="23px" height="23px" viewBox="0 0 23 23" version="1.1" xmlns:xlink="http://www.w3.org/1999/xlink" xmlns="http://www.w3.org/2000/svg">
  <defs>
    <path d="M23 0L23 0L23 23L0 23L0 0L23 0Z" id="path_1" />
    <clipPath id="clip_1">
      <use xlink:href="#path_1" clip-rule="evenodd" fill-rule="evenodd" />
    </clipPath>
  </defs>
  <g id="doctor" clip-path="url(#clip_1)">
    <path d="M23 0L23 0L23 23L0 23L0 0L23 0Z" id="doctor" fill="none" stroke="none" />
    <g id="Doctor" transform="translate(1.9166666 0.47916695)">
      <path d="M14.375 5.75L4.79167 5.75L5.49604 1.86396C5.64654 1.04065 6.31385 0.410197 7.14437 0.306667C10.0721 -0.0622918 8.95083 -0.0814585 12.0223 0.306667C12.8528 0.410197 13.5201 1.04065 13.6706 1.86396C14.2983 5.30917 14.145 4.47062 14.375 5.75L14.375 5.75Z" id="Shape" fill="#DAD7E5" stroke="none" />
      <path d="M14.2025 4.79167L9.69833 4.79167C8.72079 4.79179 7.7936 4.35806 7.16715 3.60762C6.5407 2.85718 6.27961 1.86742 6.45437 0.905625C6.56937 0.25875 6.35375 0.426458 9.58333 0L12.0223 0.306667C12.8528 0.410197 13.5201 1.04065 13.6706 1.86396L14.2025 4.79167Z" id="Shape" fill="#EDEBF2" stroke="none" />
      <path d="M13.8958 5.75L13.8958 9.10417C13.8937 10.5422 13.1749 11.8846 11.9792 12.6835C11.9792 9.13288 12.4105 9.5833 8.14589 9.5833C7.61662 9.5833 7.18756 10.0124 7.18756 10.5416L7.18756 12.6835C5.99182 11.8846 5.27299 10.5422 5.27083 9.10417L5.27083 5.75L13.8958 5.75Z" id="Shape" fill="#F6CCAF" stroke="none" />
      <path d="M13.8958 5.75C13.8958 8.90292 14.2169 10.5656 12.6404 12.1421C11.3111 12.6807 9.80095 12.5232 8.61138 11.7219C7.42182 10.9205 6.70852 9.58015 6.70833 8.14583L6.70833 5.75L13.8958 5.75Z" id="Shape" fill="#FFDEC7" stroke="none" />
      <path d="M13.8958 5.75L13.8958 6.99104L11.9792 11.591C11.6533 12.3625 10.8292 11.8402 11.0592 11.3179L13.3783 5.75L13.8958 5.75Z" id="Shape" fill="#82BCF4" stroke="none" />
      <path d="M11.0592 11.3179L13.3783 5.75L12.8992 5.75C10.8531 10.6567 11.3994 9.34854 10.58 11.3179C10.5039 11.5086 10.5578 11.7265 10.7138 11.8598C10.8699 11.9931 11.0936 12.0122 11.27 11.9073C11.0634 11.7902 10.9737 11.5395 11.0592 11.3179L11.0592 11.3179Z" id="Shape" fill="#F6CCAF" stroke="none" />
      <path d="M7.66667 11.9792C7.24979 11.9792 7.38396 12.0702 5.27083 6.99104L5.27083 5.75L5.78833 5.75C7.705 10.35 7.00542 8.66812 8.1075 11.3179C8.16806 11.4653 8.15137 11.6332 8.06297 11.7658C7.97457 11.8984 7.82603 11.9784 7.66667 11.9792L7.66667 11.9792Z" id="Shape" fill="#6FABE6" stroke="none" />
      <path d="M7.1875 12.5494C4.96896 7.24021 5.27083 8.28 5.27083 6.99104C7.5325 12.4248 7.1875 11.3371 7.1875 12.5494L7.1875 12.5494Z" id="Shape" fill="#EDB996" stroke="none" />
      <path d="M7.90146 11.9121C7.71938 11.8019 7.75292 11.8067 6.94312 9.89479C6.25312 8.19375 5.75 7.26896 5.75 5.75C5.8075 5.75 5.61583 5.31875 8.1075 11.3179C8.19658 11.5396 8.10868 11.7931 7.90146 11.9121L7.90146 11.9121Z" id="Shape" fill="#82BCF4" stroke="none" />
      <path d="M11.9792 10.5417L11.9792 12.6883C10.5289 13.6573 8.63776 13.6573 7.1875 12.6883L7.1875 10.5417C7.1875 10.0124 7.61656 9.58333 8.14583 9.58333L11.0208 9.58333C11.5501 9.58333 11.9792 10.0124 11.9792 10.5417L11.9792 10.5417Z" id="Shape" fill="#DAD7E5" stroke="none" />
      <path d="M7.1875 12.6835L6.70833 12.3098C6.70833 10.8723 6.70833 10.5033 6.70833 10.4554C7.28333 11.821 7.1875 11.3083 7.1875 12.6835L7.1875 12.6835Z" id="Shape" fill="#EDB996" stroke="none" />
      <path d="M8.14583 9.58333C7.96556 9.58146 7.78878 9.63316 7.63792 9.73187C7.44146 9.85646 7.52292 9.91396 7.40313 9.62167C7.64751 9.57285 7.89772 9.55994 8.14583 9.58333L8.14583 9.58333Z" id="Shape" fill="#EDB996" stroke="none" />
      <path d="M7.1875 11.591L6.70833 10.4554C6.72771 10.2463 6.81526 10.0493 6.9575 9.89479C7.25458 10.5992 7.1875 10.1919 7.1875 11.591L7.1875 11.591Z" id="Shape" fill="#5B9AD8" stroke="none" />
      <path d="M7.49417 9.84208C6.98625 10.3212 7.37437 10.8963 6.96229 9.89479C7.08134 9.76497 7.23387 9.67046 7.40312 9.62167L7.49417 9.84208Z" id="Shape" fill="#6FABE6" stroke="none" />
      <path d="M11.9792 10.5417L11.9792 12.4823C10.5977 13.1761 8.94958 13.0717 7.66667 12.2092C7.66667 9.91875 7.63792 9.91396 7.75292 9.66958C8.00688 9.54979 7.97812 9.58333 11.0208 9.58333C11.5501 9.58333 11.9792 10.0124 11.9792 10.5417L11.9792 10.5417Z" id="Shape" fill="#EDEBF2" stroke="none" />
      <path d="M5.27083 5.75L5.27083 8.625L4.79167 8.625C3.99776 8.625 3.35417 7.98141 3.35417 7.1875C3.35417 6.39359 3.99776 5.75 4.79167 5.75L5.27083 5.75Z" id="Shape" fill="#F6CCAF" stroke="none" />
      <path d="M15.8125 7.1875C15.8125 7.98141 15.1689 8.625 14.375 8.625L13.8958 8.625L13.8958 5.75L14.375 5.75C15.1689 5.75 15.8125 6.39359 15.8125 7.1875L15.8125 7.1875Z" id="Shape" fill="#F6CCAF" stroke="none" />
      <path d="M15.8125 6.94792C15.6944 7.64712 15.084 8.15574 14.375 8.14583L13.8958 8.14583L13.8958 5.75L14.375 5.75C15.084 5.74009 15.6944 6.24871 15.8125 6.94792L15.8125 6.94792Z" id="Shape" fill="#FFDEC7" stroke="none" />
      <path d="M9.58333 22.0417L0 22.0417L0.479167 19.4206C0.779649 17.7794 1.91227 16.4126 3.46917 15.8125L7.1875 14.375C9.58333 22.0944 9.17125 20.7144 9.58333 22.0417L9.58333 22.0417Z" id="Shape" fill="#DAD7E5" stroke="none" />
      <path d="M9.28625 21.0833L4.10167 21.0833C3.44283 21.0826 2.81825 20.7897 2.39638 20.2837C1.97452 19.7776 1.79881 19.1105 1.91667 18.4623C2.08557 17.5257 2.53118 16.6612 3.19604 15.9802C3.57458 15.7358 3.00437 15.9802 7.1875 14.375L9.28625 21.0833Z" id="Shape" fill="#EDEBF2" stroke="none" />
      <path d="M19.1667 22.0417L9.58333 22.0417C9.98583 20.7575 9.58333 22.1135 11.9792 14.375L15.6975 15.8125C17.2544 16.4126 18.387 17.7794 18.6875 19.4206C19.0517 21.4235 18.9415 20.8342 19.1667 22.0417L19.1667 22.0417Z" id="Shape" fill="#DAD7E5" stroke="none" />
      <path d="M18.9894 21.0833L9.88521 21.0833L11.9792 14.375L15.6975 15.8125C17.2544 16.4126 18.387 17.7794 18.6875 19.4206L18.9894 21.0833Z" id="Shape" fill="#EDEBF2" stroke="none" />
      <path d="M11.6581 14.375C11.5822 15.4961 10.6295 16.3541 9.50659 16.3127C8.38371 16.2712 7.49682 15.3453 7.50375 14.2217C7.52992 13.7984 7.58434 13.3774 7.66667 12.9615C8.8728 13.5666 10.2939 13.5666 11.5 12.9615C11.6006 13.426 11.6536 13.8997 11.6581 14.375L11.6581 14.375Z" id="Shape" fill="#F6CCAF" stroke="none" />
      <path d="M11.1502 15.5873C10.5596 16.2557 9.60911 16.4742 8.7859 16.1308C7.96268 15.7874 7.44918 14.9583 7.50854 14.0683C8.35743 14.4072 9.29205 14.4676 10.1775 14.2408C10.3932 14.1823 10.6236 14.2184 10.8111 14.34C10.9985 14.4616 11.1254 14.6573 11.1598 14.8781C11.1951 15.1135 11.1918 15.353 11.1502 15.5873L11.1502 15.5873Z" id="Shape" fill="#FFDEC7" stroke="none" />
      <path d="M10.5417 2.39583L10.0625 2.39583L10.0625 1.91667C10.0625 1.65203 9.84797 1.4375 9.58333 1.4375C9.3187 1.4375 9.10417 1.65203 9.10417 1.91667L9.10417 2.39583L8.625 2.39583C8.36036 2.39583 8.14583 2.61036 8.14583 2.875C8.14583 3.13964 8.36036 3.35417 8.625 3.35417L9.10417 3.35417L9.10417 3.83333C9.10417 4.09797 9.3187 4.3125 9.58333 4.3125C9.84797 4.3125 10.0625 4.09797 10.0625 3.83333L10.0625 3.35417L10.5417 3.35417C10.8063 3.35417 11.0208 3.13964 11.0208 2.875C11.0208 2.61036 10.8063 2.39583 10.5417 2.39583L10.5417 2.39583Z" id="Shape" fill="#DB5669" stroke="none" />
      <path d="M10.0625 11.9792L9.10417 11.9792C8.83953 11.9792 8.625 11.7646 8.625 11.5C8.625 11.2354 8.83953 11.0208 9.10417 11.0208L10.0625 11.0208C10.3271 11.0208 10.5417 11.2354 10.5417 11.5C10.5417 11.7646 10.3271 11.9792 10.0625 11.9792L10.0625 11.9792Z" id="Shape" fill="#DAD7E5" stroke="none" />
      <path d="M8.625 8.14583C8.24646 8.14583 8.26083 7.77208 7.99729 8.01167C7.80808 8.19691 7.50452 8.19369 7.31927 8.00448C7.13403 7.81526 7.13724 7.5117 7.32646 7.32646C8.21292 6.44 9.54979 7.4175 8.96521 8.00687C8.87478 8.09657 8.75236 8.14657 8.625 8.14583L8.625 8.14583Z" id="Shape" fill="#374F68" stroke="none" />
      <path d="M11.5 8.14583C11.1215 8.14583 11.1358 7.77208 10.8723 8.01167C10.6831 8.19691 10.3795 8.19369 10.1943 8.00448C10.009 7.81526 10.0122 7.5117 10.2015 7.32646C11.0879 6.44 12.4248 7.4175 11.8402 8.00687C11.7498 8.09657 11.6274 8.14657 11.5 8.14583L11.5 8.14583Z" id="Shape" fill="#374F68" stroke="none" />
      <path d="M12.9375 20.125L15.8125 20.125L15.8125 22.0417L12.9375 22.0417L12.9375 20.125Z" id="Rectangle" fill="#C6C3D8" fill-rule="evenodd" stroke="none" />
      <path d="M15.8125 20.125L15.8125 21.5625L14.8542 21.5625C14.0603 21.5625 13.4167 20.9189 13.4167 20.125L15.8125 20.125Z" id="Shape" fill="#DAD7E5" stroke="none" />
      <path d="M14.8542 19.1667L14.8542 20.125L13.8958 20.125L13.8958 19.1667C13.8958 18.902 14.1104 18.6875 14.375 18.6875C14.6396 18.6875 14.8542 18.902 14.8542 19.1667L14.8542 19.1667Z" id="Shape" fill="#374F68" stroke="none" />
      <path d="M11.9792 14.375L9.58333 22.0417C9.24792 20.9779 9.70313 22.4346 7.1875 14.375L7.50854 14.375C7.58275 15.4662 8.48957 16.3135 9.58333 16.3135C10.6771 16.3135 11.5839 15.4662 11.6581 14.375L11.9792 14.375Z" id="Shape" fill="#6FABE6" stroke="none" />
      <path d="M11.9792 14.375C9.93312 20.9204 10.1008 20.379 9.89479 21.0546C9.545 19.9429 9.84208 20.8821 8.25604 15.8125C8.74807 16.2211 9.40072 16.3805 10.0257 16.2449C10.6507 16.1092 11.1785 15.6935 11.4569 15.1177C11.8833 14.2648 11.3658 14.375 11.9792 14.375L11.9792 14.375Z" id="Shape" fill="#82BCF4" stroke="none" />
      <path d="M9.89479 21.0546L9.58333 22.0417L9.34375 21.2798C9.42521 21.0306 9.34375 21.2462 9.64562 20.2592L9.89479 21.0546Z" id="Shape" fill="#5B9AD8" stroke="none" />
      <path d="M11.9792 14.375C9.93312 20.9204 10.1008 20.379 9.89479 21.0546L9.64562 20.2592C11.3179 14.5092 10.7908 16.1287 11.1981 15.5202C11.4734 15.1978 11.641 14.7974 11.6773 14.375L11.9792 14.375Z" id="Shape" fill="#6FABE6" stroke="none" />
    </g>
  </g>
</svg>