<?xml version="1.0" encoding="utf-8"?>
<svg width="23px" height="23px" viewBox="0 0 23 23" version="1.1" xmlns:xlink="http://www.w3.org/1999/xlink" xmlns="http://www.w3.org/2000/svg">
  <defs>
    <path d="M23 0L23 0L23 23L0 23L0 0L23 0Z" id="path_1" />
    <clipPath id="clip_1">
      <use xlink:href="#path_1" clip-rule="evenodd" fill-rule="evenodd" />
    </clipPath>
  </defs>
  <g id="lock" clip-path="url(#clip_1)">
    <path d="M23 0L23 0L23 23L0 23L0 0L23 0Z" id="lock" fill="none" stroke="none" />
    <g id="Layer_x0020_1">
      <g id="_360262720" transform="translate(4.3012695 2.706543)">
        <g id="Group">
          <g id="Group" transform="translate(1.4487305 0)">
            <path d="M0 6.14307L0 6.13184L0 5.75C0 4.22266 0.606445 2.77393 1.68457 1.68457C2.7627 0.606445 4.22266 0 5.75 0C7.27734 0 8.72607 0.606445 9.81543 1.68457C10.8936 2.7627 11.5 4.22266 11.5 5.75L11.5 6.14307L11.5 6.14307L10.1523 6.14307L10.1523 6.14307L10.1523 5.75C10.1523 4.58203 9.68066 3.47021 8.86084 2.65039C8.02979 1.81934 6.9292 1.35889 5.76123 1.35889C4.59326 1.35889 3.48145 1.83057 2.66162 2.65039C1.83057 3.48145 1.37012 4.58203 1.37012 5.75L1.37012 6.13184L1.37012 6.14307L0.0224609 6.14307L0 6.14307Z" id="Shape" fill="#BDBDBD" fill-rule="evenodd" stroke="none" />
            <path d="M10.6689 6.14307L10.1411 6.14307L10.1411 6.14307L10.1411 5.75C10.1411 4.58203 9.66943 3.47021 8.84961 2.65039C8.01855 1.81934 6.91797 1.35889 5.75 1.35889C4.58203 1.35889 3.47021 1.83057 2.65039 2.65039C1.81934 3.48145 1.35889 4.58203 1.35889 5.75L1.35889 6.13184L1.35889 6.14307L0.831055 6.14307L0.831055 5.94092C0.831055 4.60449 1.34766 3.33545 2.27979 2.39209C3.20068 1.44873 4.44727 0.909668 5.76123 0.909668C7.0752 0.909668 8.31055 1.4375 9.24268 2.39209C10.1636 3.33545 10.6914 4.60449 10.6914 5.94092L10.6914 6.14307L10.6689 6.14307Z" id="Shape" fill="#B6B6B6" fill-rule="evenodd" stroke="none" />
          </g>
          <g id="Group" transform="translate(0 5.9072266)">
            <path d="M0.932129 0.0112305L1.44873 0.0112305L1.44873 0L2.79639 0L2.79639 0.0112305L11.5898 0.0112305L11.5898 0L12.9375 0L12.9375 0.0112305L13.4541 0.0112305C13.7124 0.0112305 13.937 0.112305 14.1055 0.280762C14.2739 0.449219 14.375 0.673828 14.375 0.932129L14.375 10.5903C14.375 10.8486 14.2739 11.0732 14.1055 11.2417C13.937 11.4102 13.7124 11.5112 13.4541 11.5112L0.920898 11.5112C0.662598 11.5112 0.437988 11.4102 0.269531 11.2417C0.101074 11.0732 0 10.8486 0 10.5903L0 0.932129C0 0.673828 0.101074 0.449219 0.269531 0.280762C0.437988 0.112305 0.662598 0.0112305 0.920898 0.0112305L0.932129 0.0112305Z" id="Shape" fill="#DAC27C" fill-rule="evenodd" stroke="none" />
            <path d="M7.19873 2.93115C7.55811 2.93115 7.88379 3.07715 8.11963 3.31299C8.35547 3.54883 8.50146 3.87451 8.50146 4.23389C8.50146 4.4248 8.45654 4.60449 8.38916 4.76172C8.33301 4.88525 8.26563 4.99756 8.17578 5.0874L8.17578 7.32227L8.17578 7.64795L8.16455 7.64795C8.15332 8.17578 7.72656 8.59131 7.19873 8.59131C6.6709 8.59131 6.24414 8.17578 6.23291 7.64795L6.23291 7.64795L6.23291 7.62549L6.23291 7.3335L6.23291 5.09863C6.14307 4.99756 6.07568 4.88525 6.01953 4.77295C5.94092 4.60449 5.90723 4.4248 5.90723 4.24512C5.90723 3.88574 6.05322 3.56006 6.28906 3.32422C6.5249 3.08838 6.85059 2.94238 7.20996 2.94238L7.19873 2.93115Z" id="Shape" fill="#414141" fill-rule="evenodd" stroke="none" />
          </g>
          <path d="M0.932129 5.91846L0.943359 5.91846L0.943359 17.4185L0.932129 17.4185C0.673828 17.4185 0.449219 17.3174 0.280762 17.1489C0.112305 16.9805 0.0112305 16.7559 0.0112305 16.4976L0.0112305 6.83936C0.0112305 6.58105 0.112305 6.35645 0.280762 6.18799C0.449219 6.01953 0.673828 5.91846 0.932129 5.91846L0.932129 5.91846ZM13.4541 5.91846L13.4653 5.91846C13.7236 5.91846 13.9482 6.01953 14.1167 6.18799C14.2852 6.35645 14.3862 6.58105 14.3862 6.83936L14.3862 16.4976C14.3862 16.7559 14.2852 16.9805 14.1167 17.1489C13.9482 17.3174 13.7236 17.4185 13.4653 17.4185L13.4541 17.4185L13.4541 5.91846L13.4541 5.91846Z" id="Group" fill="#CFB76E" fill-rule="evenodd" stroke="none" />
        </g>
        <g id="Group" transform="translate(0.011230469 5.918457)">
          <g id="Group" transform="translate(1.4375 0)">
            <path d="M0 0.224609L0 0.213379L0 0L1.34766 0L1.34766 0.213379L1.34766 0.224609L0 0.224609Z" id="Polygon" fill="#C7AD95" fill-rule="evenodd" stroke="none" />
            <path d="M1.34766 0L1.34766 0.213379L1.34766 0.224609L0.819824 0.224609L0.819824 0.0224609C0.819824 0.0112305 0.819824 0.0112305 0.819824 0L1.34766 0L1.34766 0Z" id="Shape" fill="#C2A88F" fill-rule="evenodd" stroke="none" />
          </g>
          <g id="Group">
            <path d="M7.1875 11.5L0.920898 11.5C0.662598 11.5 0.437988 11.3989 0.269531 11.2305C0.101074 11.062 0 10.8374 0 10.5791L0 0.920898C0 0.662598 0.101074 0.437988 0.269531 0.269531C0.437988 0.101074 0.662598 0 0.909668 0L7.1875 0L7.1875 11.5L7.1875 11.5Z" id="Shape" fill="#DCB165" fill-rule="evenodd" stroke="none" />
            <path d="M7.1875 2.91992L7.1875 2.91992L7.1875 8.58008L7.17627 8.58008C6.64844 8.58008 6.22168 8.16455 6.21045 7.63672L6.21045 7.63672L6.21045 7.61426L6.21045 7.32227L6.21045 5.0874C6.12061 4.98633 6.05322 4.87402 5.99707 4.76172C5.91846 4.59326 5.88477 4.41357 5.88477 4.23389C5.88477 3.87451 6.03076 3.54883 6.2666 3.31299C6.50244 3.07715 6.82813 2.93115 7.1875 2.93115L7.1875 2.91992Z" id="Shape" fill="#212121" fill-rule="evenodd" stroke="none" />
          </g>
          <path d="M0.932129 0L0.932129 11.5L0.920898 11.5C0.662598 11.5 0.437988 11.3989 0.269531 11.2305C0.101074 11.062 0 10.8374 0 10.5791L0 0.920898C0 0.662598 0.101074 0.437988 0.269531 0.269531C0.437988 0.101074 0.662598 0 0.909668 0L0.943359 0L0.932129 0Z" id="Shape" fill="#D4A95B" fill-rule="evenodd" stroke="none" />
        </g>
      </g>
      <path d="M0 0L23 0L23 23L0 23L0 0Z" id="Rectangle" fill="none" fill-rule="evenodd" stroke="none" />
    </g>
  </g>
</svg>