<?xml version="1.0" encoding="utf-8"?>
<svg width="23px" height="23px" viewBox="0 0 23 23" version="1.1" xmlns:xlink="http://www.w3.org/1999/xlink" xmlns="http://www.w3.org/2000/svg">
  <defs>
    <path d="M23 0L23 0L23 23L0 23L0 0L23 0Z" id="path_1" />
    <clipPath id="clip_1">
      <use xlink:href="#path_1" clip-rule="evenodd" fill-rule="evenodd" />
    </clipPath>
  </defs>
  <g id="message" clip-path="url(#clip_1)">
    <path d="M23 0L23 0L23 23L0 23L0 0L23 0Z" id="message" fill="none" stroke="none" />
    <path d="M14.7117 2.31348C15.3436 2.35421 15.5906 2.68348 15.4525 3.30128C15.1899 3.67171 14.8532 3.75403 14.4423 3.54823C14.1483 3.26892 14.0959 2.94713 14.2851 2.58288C14.4133 2.46044 14.5555 2.37064 14.7117 2.31348L14.7117 2.31348ZM14.8015 2.80738C15.0172 2.85674 15.0621 2.96899 14.9362 3.14413C14.7341 3.18154 14.6518 3.09923 14.6892 2.89718C14.7339 2.87177 14.7713 2.84183 14.8015 2.80738L14.8015 2.80738Z" id="Group" fill="#00ECA2" fill-opacity="0.948" fill-rule="evenodd" stroke="none" />
    <path d="M12.6452 3.34668C12.7511 3.33935 12.8558 3.34683 12.9595 3.36913C13.1167 3.52628 13.2738 3.68343 13.431 3.84058C13.5235 4.1521 13.4112 4.27931 13.0942 4.22223C12.997 4.12494 12.8997 4.02766 12.8024 3.93038C12.7034 4.04443 12.5911 4.14171 12.4656 4.22223C12.1682 4.24846 12.0709 4.12124 12.1738 3.84058C12.3401 3.68182 12.4973 3.51719 12.6452 3.34668L12.6452 3.34668Z" id="Group" fill="#FF7DB7" fill-opacity="0.916" fill-rule="evenodd" stroke="none" />
    <path d="M20.7674 4.60391C21.6227 5.65125 21.8323 6.81865 21.396 8.10611C21.1314 8.69493 20.7573 9.20382 20.2735 9.63271C19.0304 10.4355 17.7432 10.5178 16.4121 9.87966C15.6984 10.4572 14.9725 11.0185 14.2345 11.5634C14.3513 11.7616 14.5234 11.9113 14.7508 12.0124C16.4938 13.3852 18.2449 14.7472 20.0041 16.0983C20.0068 16.1227 20.0218 16.1376 20.049 16.1432C20.0939 14.2876 20.1089 12.4317 20.0939 10.5756C20.1185 10.4596 20.1934 10.4147 20.3184 10.4409C20.3886 10.4514 20.4484 10.4813 20.498 10.5307C20.498 10.5607 20.498 10.5906 20.498 10.6205C20.4831 12.3792 20.4981 14.1303 20.5429 15.8738C20.5504 16.1586 20.5429 16.4429 20.5205 16.7269C20.4905 16.9213 20.4232 17.1009 20.3184 17.2657C20.112 17.4829 19.8726 17.6251 19.6 17.6923C14.1821 17.708 8.76412 17.7005 3.34622 17.6698C3.04792 17.6104 2.80845 17.4607 2.62782 17.2208C2.57138 17.1042 2.519 16.9845 2.47067 16.8616C2.46316 14.4444 2.44071 12.0348 2.40332 9.63271C2.39584 8.58492 2.40332 7.53727 2.42577 6.48971C2.50097 6.06163 2.73295 5.75483 3.12172 5.56926C6.74164 5.5024 10.3636 5.47995 13.9875 5.50191C14.0175 5.57676 14.0474 5.65156 14.0773 5.72641C14.0864 5.81127 14.0565 5.87862 13.9875 5.92846C10.4554 5.94341 6.92327 5.95841 3.39112 5.97336C3.12098 6.07546 2.96383 6.26256 2.91967 6.53461C5.71375 8.71361 8.52 10.8763 11.3384 13.0227C11.4902 13.0648 11.6249 13.0348 11.7425 12.9329C13.1868 11.825 14.6236 10.71 16.0529 9.58781C14.871 8.54267 14.4968 7.25552 14.9304 5.72641C15.4017 4.5635 16.2398 3.81515 17.4448 3.48141C18.7671 3.24863 19.8746 3.6228 20.7674 4.60391L20.7674 4.60391Z" id="Group" fill="#2827BC" fill-opacity="0.992" fill-rule="evenodd" stroke="none" />
    <path d="M17.4505 3.48144C16.2455 3.81518 15.4073 4.56353 14.9361 5.72644C14.6517 5.72644 14.3673 5.72644 14.083 5.72644C14.053 5.65159 14.0231 5.57679 13.9932 5.50194C14.7207 4.1271 15.8732 3.4536 17.4505 3.48144L17.4505 3.48144Z" id="Group" fill="#FBD7EC" fill-opacity="0.973" fill-rule="evenodd" stroke="none" />
    <path d="M17.8102 3.88574C19.655 3.85334 20.77 4.73637 21.1553 6.53484C21.2062 8.20494 20.4354 9.29004 18.8429 9.79009C17.5194 10.0148 16.4643 9.58822 15.6775 8.51044C14.8123 6.82763 15.1341 5.42823 16.6428 4.31229C17.0131 4.10172 17.4023 3.95953 17.8102 3.88574L17.8102 3.88574Z" id="Group" fill="#FE5BA8" fill-rule="evenodd" stroke="none" />
    <path d="M16.913 7.65811C17.3962 7.46899 17.8751 7.26694 18.3498 7.05196C18.4257 6.89369 18.3958 6.75899 18.26 6.64786C17.8118 6.45614 17.3628 6.26904 16.913 6.08661C16.8212 5.93332 16.7838 5.76867 16.8008 5.59271C16.8692 5.47655 16.9665 5.43915 17.0926 5.48046C18.0192 5.8838 18.9471 6.2879 19.8764 6.69276C19.9962 6.81251 19.9962 6.93221 19.8764 7.05196C18.9485 7.45606 18.0206 7.86016 17.0926 8.26426C16.8384 8.29421 16.7411 8.18196 16.8008 7.92751C16.8429 7.83825 16.8803 7.74845 16.913 7.65811L16.913 7.65811Z" id="Group" fill="#FFFDFE" fill-rule="evenodd" stroke="none" />
    <path d="M14.0776 5.72754C14.3619 5.72754 14.6463 5.72754 14.9307 5.72754C14.497 7.25665 14.8712 8.5438 16.0532 9.58894C14.6239 10.7112 13.1871 11.8262 11.7428 12.934C11.6251 13.036 11.4904 13.0659 11.3387 13.0238C8.52025 10.8774 5.714 8.71474 2.91992 6.53574C2.96408 6.26369 3.12123 6.07659 3.39137 5.97449C6.92352 5.95954 10.4556 5.94454 13.9878 5.92959C14.0568 5.87975 14.0867 5.8124 14.0776 5.72754L14.0776 5.72754Z" id="Group" fill="#B6C4FE" fill-rule="evenodd" stroke="none" />
    <path d="M16.9131 6.08691C17.3628 6.26934 17.8118 6.45644 18.2601 6.64816C18.3959 6.75929 18.4258 6.89399 18.3499 7.05226C17.8752 7.26725 17.3963 7.4693 16.9131 7.65841C17.0132 7.39579 17.1179 7.13385 17.2274 6.87266C17.1158 6.61233 17.0111 6.35039 16.9131 6.08691L16.9131 6.08691Z" id="Group" fill="#FFDAEC" fill-rule="evenodd" stroke="none" />
    <path d="M20.7761 4.60449C21.8027 5.3409 22.4687 6.3287 22.7742 7.56789C22.8473 7.93244 22.9146 8.29164 22.9762 8.64549C22.9762 8.66044 22.9762 8.67544 22.9762 8.69039C22.1658 9.32133 21.3426 9.93493 20.5067 10.5313C20.4571 10.4819 20.3973 10.452 20.3271 10.4415C20.3271 10.4265 20.3271 10.4115 20.3271 10.3966C20.9865 9.78101 21.3457 9.01771 21.4047 8.10669C21.841 6.81923 21.6314 5.65183 20.7761 4.60449L20.7761 4.60449Z" id="Group" fill="#E5D4F3" fill-opacity="0.994" fill-rule="evenodd" stroke="none" />
    <path d="M2.89746 7.12012C4.83373 8.58462 6.76443 10.0589 8.68956 11.5428C8.73226 11.575 8.73972 11.6124 8.71201 11.655C8.5426 11.7955 8.3705 11.9302 8.19566 12.0591C6.45628 10.6642 4.69023 9.30221 2.89746 7.97322C2.89746 7.68887 2.89746 7.40447 2.89746 7.12012L2.89746 7.12012Z" id="Group" fill="#8298FD" fill-rule="evenodd" stroke="none" />
    <path d="M2.89744 7.12012C2.89744 7.40447 2.89744 7.68887 2.89744 7.97322C2.88251 10.6898 2.89748 13.3988 2.94234 16.1001C2.93964 16.1245 2.92468 16.1395 2.89744 16.145C2.83764 13.1293 2.83764 10.121 2.89744 7.12012L2.89744 7.12012Z" id="Group" fill="#3C3FC8" fill-rule="evenodd" stroke="none" />
    <path d="M2.89746 7.97363C4.69023 9.30263 6.45628 10.6646 8.19566 12.0595C6.44348 13.4079 4.69238 14.7549 2.94236 16.1005C2.8975 13.3992 2.88253 10.6902 2.89746 7.97363L2.89746 7.97363Z" id="Group" fill="#9EAFFD" fill-rule="evenodd" stroke="none" />
    <path d="M21.4047 8.1084C21.3457 9.01942 20.9865 9.78272 20.3271 10.3983C20.2827 10.1525 20.2678 9.89802 20.2822 9.635C20.766 9.20611 21.1401 8.69722 21.4047 8.1084L21.4047 8.1084Z" id="Group" fill="#CFC1EE" fill-rule="evenodd" stroke="none" />
    <path d="M22.9763 8.69238C22.9763 9.29103 22.9763 9.88973 22.9763 10.4884C22.9161 10.9683 22.8263 11.4473 22.7069 11.9252C21.9914 12.4382 21.2804 12.962 20.5742 13.4967C20.5666 12.5312 20.5442 11.5733 20.5068 10.6231C20.5068 10.5931 20.5068 10.5632 20.5068 10.5333C21.3427 9.93692 22.1658 9.32332 22.9763 8.69238L22.9763 8.69238Z" id="Group" fill="#DED4F6" fill-opacity="0.995" fill-rule="evenodd" stroke="none" />
    <path d="M20.2793 9.63574C20.2648 9.89877 20.2798 10.1532 20.3242 10.399C20.3242 10.414 20.3242 10.429 20.3242 10.4439C20.1991 10.4177 20.1243 10.4626 20.0997 10.5786C20.0697 10.5786 20.0548 10.5936 20.0548 10.6235C19.2477 11.164 18.3647 11.3361 17.4057 11.1399C17.0687 11.0462 16.7544 10.904 16.4628 10.7133C15.8932 11.1485 15.3245 11.5825 14.7566 12.0154C14.5292 11.9144 14.3571 11.7647 14.2402 11.5664C14.9783 11.0215 15.7042 10.4602 16.4179 9.88269C17.749 10.5208 19.0361 10.4385 20.2793 9.63574L20.2793 9.63574Z" id="Group" fill="#8298FD" fill-rule="evenodd" stroke="none" />
    <path d="M2.40214 9.68066C2.40962 11.5516 2.40214 13.4224 2.37969 15.2932C1.69447 15.8338 0.998516 16.3576 0.291839 16.8647C0.157536 16.402 0.0527686 15.9381 -0.0224609 15.4728C-0.0224609 14.904 -0.0224609 14.3353 -0.0224609 13.7666C0.166509 12.2587 0.82504 10.994 1.95314 9.97251C2.08625 9.84634 2.23591 9.74909 2.40214 9.68066L2.40214 9.68066Z" id="Group" fill="#FED8EC" fill-opacity="0.991" fill-rule="evenodd" stroke="none" />
    <path d="M20.1025 10.5791C20.1174 12.4352 20.1025 14.2911 20.0576 16.1467C20.0303 16.1411 20.0154 16.1262 20.0127 16.1018C20.0576 14.2835 20.0725 12.4576 20.0576 10.624C20.0576 10.5941 20.0725 10.5791 20.1025 10.5791L20.1025 10.5791Z" id="Group" fill="#3C3FC9" fill-rule="evenodd" stroke="none" />
    <path d="M20.055 10.624C20.0699 12.4576 20.055 14.2835 20.0101 16.1018C18.2509 14.7507 16.4998 13.3887 14.7568 12.0159C15.3247 11.583 15.8935 11.1489 16.463 10.7138C16.7546 10.9045 17.0689 11.0467 17.4059 11.1404C18.365 11.3365 19.248 11.1644 20.055 10.624L20.055 10.624Z" id="Group" fill="#9EAFFD" fill-rule="evenodd" stroke="none" />
    <path d="M14.3497 12.3309C13.6236 12.8996 12.8902 13.4609 12.1496 14.0146C11.7006 14.2242 11.2516 14.2242 10.8026 14.0146C10.0621 13.4609 9.32866 12.8996 8.60254 12.3309C8.74362 12.1975 8.89327 12.0703 9.05154 11.9492C9.09644 11.9193 9.14134 11.9193 9.18624 11.9492C9.81484 12.4282 10.4434 12.9071 11.072 13.386C11.4052 13.5547 11.7195 13.5248 12.0149 13.2962C12.5858 12.83 13.1695 12.381 13.766 11.9492C13.8109 11.9193 13.8558 11.9193 13.9007 11.9492C14.059 12.0703 14.2087 12.1975 14.3497 12.3309L14.3497 12.3309Z" id="Group" fill="#6482FD" fill-rule="evenodd" stroke="none" />
    <path d="M20.5068 10.624C20.5442 11.5742 20.5666 12.5321 20.5742 13.4976C21.2804 12.9629 21.9914 12.4391 22.7069 11.9261C22.3861 13.4707 21.6677 14.7877 20.5517 15.8773C20.5069 14.1339 20.4919 12.3828 20.5068 10.624L20.5068 10.624Z" id="Group" fill="#D6D1F8" fill-opacity="0.989" fill-rule="evenodd" stroke="none" />
    <path d="M8.59976 12.3311C9.32588 12.8998 10.0593 13.4611 10.7999 14.0148C11.2489 14.2244 11.6979 14.2244 12.1469 14.0148C12.8874 13.4611 13.6208 12.8998 14.347 12.3311C16.2661 13.7634 18.1668 15.2227 20.0493 16.7088C19.9771 16.9726 19.8125 17.1522 19.5554 17.2476C14.1674 17.2776 8.77936 17.2776 3.39136 17.2476C3.13425 17.1522 2.96961 16.9726 2.89746 16.7088C4.7834 15.2274 6.68415 13.7682 8.59976 12.3311L8.59976 12.3311Z" id="Group" fill="#8298FD" fill-rule="evenodd" stroke="none" />
    <path d="M15.0713 14.8467C15.6423 14.8326 16.211 14.8475 16.7775 14.8916C16.8085 14.9152 16.831 14.9451 16.8448 14.9814C16.8809 15.3876 16.8735 15.7917 16.8224 16.1937C16.7988 16.2248 16.7688 16.2472 16.7326 16.261C16.1788 16.291 15.625 16.291 15.0713 16.261C15.0488 16.2386 15.0264 16.2161 15.0039 16.1937C14.974 15.7746 14.974 15.3555 15.0039 14.9365C15.0361 14.9121 15.0585 14.8821 15.0713 14.8467L15.0713 14.8467Z" id="Group" fill="#03FEB3" fill-rule="evenodd" stroke="none" />
    <path d="M12.6005 14.9365C13.0947 14.929 13.5886 14.9365 14.0822 14.959C14.261 15.0915 14.261 15.2262 14.0822 15.3631C13.6033 15.393 13.1244 15.393 12.6454 15.3631C12.4863 15.2341 12.4714 15.0919 12.6005 14.9365L12.6005 14.9365Z" id="Group" fill="#FAFBFF" fill-rule="evenodd" stroke="none" />
    <path d="M2.40229 9.63574C2.43968 12.0378 2.46214 14.4475 2.46964 16.8646C2.51797 16.9875 2.57035 17.1073 2.62679 17.2238C2.62679 17.2687 2.62679 17.3136 2.62679 17.3585C2.6511 17.5001 2.6062 17.6123 2.49209 17.6953C2.0659 17.9945 1.64684 18.3013 1.23489 18.6157C0.816577 18.0937 0.502277 17.51 0.291992 16.8646C0.998669 16.3576 1.69462 15.8337 2.37984 15.2931C2.40229 13.4224 2.40978 11.5515 2.40229 9.68064C2.40229 9.66569 2.40229 9.65069 2.40229 9.63574L2.40229 9.63574Z" id="Group" fill="#F4D5ED" fill-opacity="0.993" fill-rule="evenodd" stroke="none" />
    <path d="M9.50091 15.835C11.0276 15.8275 12.5542 15.835 14.0807 15.8574C14.2595 15.9943 14.2595 16.129 14.0807 16.2615C12.5541 16.2915 11.0275 16.2915 9.50091 16.2615C9.3241 16.1217 9.3241 15.9795 9.50091 15.835L9.50091 15.835Z" id="Group" fill="#FDFDFF" fill-rule="evenodd" stroke="none" />
    <path d="M20.3189 17.2725C20.4306 17.8947 20.2061 18.3362 19.6454 18.597C16.0384 18.6195 12.4315 18.627 8.82448 18.6195C9.24007 18.3064 9.67412 18.0146 10.1266 17.7439C7.85904 17.7364 5.59909 17.714 3.34668 17.6766C8.76458 17.7073 14.1825 17.7148 19.6005 17.699C19.873 17.6318 20.1125 17.4897 20.3189 17.2725L20.3189 17.2725Z" id="Group" fill="#2B2AB9" fill-opacity="0.099" fill-rule="evenodd" stroke="none" />
    <path d="M2.62792 17.2275C2.80856 17.4674 3.04803 17.6171 3.34632 17.6765C5.59873 17.7139 7.85868 17.7364 10.1262 17.7439C9.67377 18.0145 9.23972 18.3064 8.82412 18.6194C8.80917 18.6194 8.79418 18.6194 8.77922 18.6194C6.96818 18.6269 5.15723 18.6194 3.34632 18.597C2.80046 18.3661 2.561 17.9545 2.62792 17.3622C2.62792 17.3173 2.62792 17.2724 2.62792 17.2275L2.62792 17.2275Z" id="Group" fill="#D7C4EC" fill-rule="evenodd" stroke="none" />
    <path d="M2.62725 17.3623C2.56032 17.9546 2.79979 18.3661 3.34565 18.5971C5.15656 18.6195 6.96751 18.627 8.77855 18.6195C8.49164 18.8465 8.19229 19.0561 7.88055 19.2481C7.78842 19.1938 7.69116 19.1489 7.5887 19.1134C7.27687 19.2531 7.04487 19.4776 6.89275 19.7869C5.30011 20.5011 3.74359 20.4337 2.22315 19.5849C1.84053 19.3145 1.51127 18.9927 1.23535 18.6195C1.6473 18.3051 2.06636 17.9983 2.49255 17.6991C2.60666 17.6161 2.65156 17.5038 2.62725 17.3623L2.62725 17.3623Z" id="Group" fill="#EAD5F2" fill-opacity="0.994" fill-rule="evenodd" stroke="none" />
    <path d="M19.2487 18.8447C19.3299 18.8443 19.4047 18.8668 19.4732 18.9121C19.6304 19.0692 19.7875 19.2264 19.9447 19.3835C20.0223 19.6569 19.925 19.7841 19.6528 19.7652C19.5273 19.6847 19.4151 19.5874 19.3161 19.4733C19.2171 19.5874 19.1048 19.6847 18.9793 19.7652C18.7174 19.8026 18.6052 19.6903 18.6426 19.4284C18.8399 19.2235 19.042 19.0289 19.2487 18.8447L19.2487 18.8447Z" id="Group" fill="#FF7DB7" fill-opacity="0.928" fill-rule="evenodd" stroke="none" />
    <path d="M7.88331 19.249C7.98635 19.3745 8.0986 19.4943 8.22006 19.6082C8.27138 19.9313 8.14413 20.0435 7.83841 19.9449C7.75534 19.8543 7.66554 19.772 7.56901 19.698C7.44715 19.8199 7.31245 19.9247 7.16491 20.0123C7.02033 19.9997 6.93053 19.9248 6.89551 19.7878C7.04763 19.4784 7.27963 19.2539 7.59146 19.1143C7.69392 19.1497 7.79117 19.1946 7.88331 19.249L7.88331 19.249Z" id="Group" fill="#6784FD" fill-opacity="0.958" fill-rule="evenodd" stroke="none" />
    <path d="M9.5906 19.2939C10.0942 19.2382 10.3935 19.4552 10.4886 19.945C10.3612 20.5625 10.002 20.7571 9.411 20.5287C9.08939 20.1939 9.05948 19.8347 9.32121 19.4511C9.40795 19.3856 9.49775 19.3332 9.5906 19.2939L9.5906 19.2939ZM9.7253 19.7878C9.90962 19.7877 9.97697 19.8775 9.92735 20.0573C9.78493 20.1869 9.68763 20.157 9.6355 19.9675C9.64682 19.8968 9.67672 19.837 9.7253 19.7878L9.7253 19.7878Z" id="Group" fill="#01ECA2" fill-opacity="0.953" fill-rule="evenodd" stroke="none" />
  </g>
</svg>