<?xml version="1.0" encoding="utf-8"?>
<svg width="23px" height="23px" viewBox="0 0 23 23" version="1.1" xmlns:xlink="http://www.w3.org/1999/xlink" xmlns="http://www.w3.org/2000/svg">
  <defs>
    <path d="M23 0L23 0L23 23L0 23L0 0L23 0Z" id="path_1" />
    <clipPath id="clip_1">
      <use xlink:href="#path_1" clip-rule="evenodd" fill-rule="evenodd" />
    </clipPath>
  </defs>
  <g id="registration" clip-path="url(#clip_1)">
    <path d="M23 0L23 0L23 23L0 23L0 0L23 0Z" id="registration" fill="#D3D3D3" stroke="none" />
    <path d="M14.3301 23.0449C9.98669 23.0449 5.64331 23.0449 1.29253 23.0325C0.908818 22.7769 0.79897 22.4366 0.800026 21.9889C0.813095 16.4464 0.808559 10.9039 0.80856 5.36137C0.80856 4.38152 0.807621 3.40167 0.809076 2.42182C0.809579 2.08309 1.00001 1.78017 1.33045 1.71096C1.67171 1.63948 2.0284 1.64172 2.39533 1.62061C2.50731 1.63979 2.60231 1.65904 2.69732 1.65908C6.43263 1.6606 10.1679 1.66031 13.9033 1.66054C14.0902 1.66055 14.2772 1.66302 14.4669 1.67914C14.8433 1.96829 14.9232 2.33937 14.9224 2.7911C14.9103 9.25334 14.9133 15.7156 14.9166 22.1779C14.9168 22.4789 14.8108 22.7149 14.5769 22.8949C14.501 22.9533 14.4127 22.9954 14.3301 23.0449M2.67584 18.9368C2.447 19.1666 2.44628 19.225 2.66195 19.665C2.66082 20.0155 2.6562 20.366 2.65959 20.7165C2.66271 21.0391 2.81877 21.1924 3.14611 21.1941C3.71288 21.1972 4.27969 21.1971 4.84646 21.1942C5.18316 21.1924 5.33496 21.0379 5.33657 20.6972C5.33867 20.2497 5.33562 19.8023 5.35048 19.3289C5.70797 18.9473 6.06734 18.5674 6.42217 18.1833C6.60236 17.9882 6.59972 17.7755 6.42574 17.6359C6.27105 17.5119 6.08099 17.5403 5.91032 17.7157C5.63482 17.9987 5.36044 18.2828 5.04919 18.5518C4.36401 18.5467 3.67864 18.5313 2.99375 18.5432C2.79374 18.5466 2.67162 18.6888 2.67584 18.9368M2.65381 8.01856C2.65382 8.6621 2.65181 9.30566 2.65449 9.94919C2.6565 10.4305 2.82761 10.6 3.30177 10.6001C5.25486 10.6002 7.20794 10.6006 9.16102 10.5998C9.57542 10.5996 9.74799 10.4264 9.74803 10.0155C9.74826 8.03999 9.74826 6.06446 9.74803 4.08893C9.74799 3.67912 9.57475 3.50584 9.16003 3.50569C7.1845 3.50495 5.20896 3.50499 3.23343 3.50675C3.15275 3.50682 3.06827 3.51521 2.99207 3.53985C2.68839 3.63804 2.65645 3.89666 2.65564 4.15727C2.65164 5.42938 2.65383 6.70151 2.65381 8.01856M4.69433 14.9463C7.80004 14.9463 10.9058 14.9463 14.0115 14.9461C14.0937 14.946 14.177 14.9506 14.258 14.9395C14.4543 14.9126 14.5697 14.7961 14.5822 14.598C14.5936 14.416 14.4445 14.2663 14.2449 14.2457C14.1856 14.2396 14.1253 14.2429 14.0655 14.2429C10.3236 14.2429 6.58182 14.2428 2.84 14.2432C2.76529 14.2432 2.68795 14.236 2.61638 14.2523C2.44656 14.2908 2.33621 14.3938 2.33083 14.5778C2.32523 14.7694 2.42221 14.8896 2.60802 14.93C2.68007 14.9457 2.75646 14.9455 2.83089 14.9456C3.43706 14.9467 4.04324 14.9463 4.69433 14.9463M5.36817 12.2733C4.5225 12.2733 3.67683 12.273 2.83116 12.2738C2.75668 12.2739 2.67982 12.2714 2.60819 12.288C2.4247 12.3304 2.32496 12.4491 2.33062 12.6413C2.33604 12.8254 2.44583 12.9286 2.61576 12.9673C2.68733 12.9837 2.76458 12.9774 2.83925 12.9775C6.58114 12.9778 10.323 12.9778 14.0649 12.9776C14.1322 12.9776 14.2005 12.9817 14.2666 12.9721C14.4534 12.9449 14.5929 12.7947 14.5824 12.6222C14.5711 12.4353 14.4657 12.3172 14.2804 12.284C14.2004 12.2696 14.1165 12.2736 14.0344 12.2736C11.1606 12.2732 8.28686 12.2733 5.36817 12.2733M4.60449 16.2153C3.96862 16.2154 3.33274 16.2126 2.6969 16.2172C2.47208 16.2188 2.33303 16.356 2.33006 16.5559C2.32704 16.7593 2.46001 16.8895 2.68673 16.9032C2.73892 16.9064 2.79143 16.9044 2.8438 16.9044C6.58419 16.9045 10.3246 16.9045 14.065 16.9042C14.1397 16.9042 14.2154 16.9067 14.2889 16.8963C14.4713 16.8705 14.5701 16.7508 14.5782 16.577C14.5869 16.3903 14.4827 16.2647 14.2988 16.2241C14.22 16.2067 14.135 16.2155 14.0528 16.2155C10.9183 16.2152 7.78387 16.2153 4.60449 16.2153M6.69649 20.1601C6.80634 20.176 6.91615 20.2056 7.02604 20.2059C8.27605 20.2092 9.52606 20.208 10.7761 20.208C11.8764 20.208 12.9767 20.2082 14.077 20.2079C14.4062 20.2078 14.5793 20.0891 14.5842 19.862C14.5892 19.6284 14.4096 19.5036 14.0671 19.503C13.9473 19.5027 13.8275 19.5029 13.7078 19.5029C11.4622 19.5029 9.2167 19.5033 6.97117 19.5024C6.78833 19.5023 6.62479 19.5347 6.54528 19.7244C6.4745 19.8933 6.52889 20.03 6.69649 20.1601M13.9 5.56073C14.0197 5.5591 14.1408 5.56828 14.2588 5.55338C14.4544 5.5287 14.5703 5.40937 14.5823 5.21103C14.5932 5.02951 14.445 4.88237 14.2435 4.85902C14.2065 4.85473 14.1688 4.85629 14.1314 4.85629C13.1806 4.85617 12.2298 4.8554 11.2791 4.85769C11.1983 4.85789 11.0887 4.85006 11.043 4.8961C10.9517 4.98806 10.8415 5.1145 10.8409 5.22731C10.8402 5.32813 10.9617 5.44843 11.0577 5.52418C11.1171 5.57108 11.2295 5.55918 11.3181 5.55941C12.1641 5.56159 13.01 5.56072 13.9 5.56073M11.1826 8.93217C10.9327 8.97041 10.8095 9.09848 10.826 9.30283C10.8416 9.49648 10.9839 9.61642 11.2168 9.6176C11.8078 9.62059 12.3988 9.61888 12.9898 9.61877C13.4012 9.61869 13.8128 9.62424 14.2241 9.61563C14.4957 9.60995 14.6545 9.3688 14.551 9.1364C14.4764 8.96877 14.3339 8.92992 14.1636 8.93039C13.1836 8.93306 12.2035 8.93175 11.1826 8.93217M14.5257 7.3606C14.6465 7.03515 14.5111 6.83005 14.1652 6.82907C13.1921 6.82632 12.2189 6.82722 11.2457 6.8287C10.9838 6.8291 10.8326 6.95273 10.8254 7.16253C10.8178 7.38375 10.9692 7.5179 11.2441 7.51857C12.2173 7.52097 13.1905 7.52387 14.1636 7.51391C14.2781 7.51274 14.3919 7.43305 14.5257 7.3606L14.5257 7.3606Z" id="Shape" fill="#C8EFFE" fill-rule="evenodd" stroke="none" />
    <path d="M17.5195 0.044922C19.3603 0.0449219 21.2011 0.0449219 23.0434 0.0449219C23.0434 7.70634 23.0434 15.3678 23.0434 23.0449C20.6931 23.0449 18.3412 23.0449 15.9548 23.0324C16.2793 22.7784 16.439 22.446 16.3998 22.0112C16.3839 21.834 16.4004 21.6538 16.4228 21.474C16.6679 21.4728 16.8925 21.4749 17.117 21.4721C17.645 21.4655 17.9762 21.0719 17.9755 20.6137C17.9655 14.0279 17.9676 7.4421 17.972 0.856312C17.9722 0.545105 17.8399 0.328389 17.6041 0.15151C17.569 0.125177 17.5474 0.0808985 17.5195 0.044922M20.2138 18.6342C20.3506 18.9141 20.4755 19.2009 20.6307 19.4702C20.6833 19.5615 20.8146 19.6644 20.9058 19.6607C20.9993 19.657 21.1211 19.5474 21.1727 19.4526C21.4018 19.0321 21.6137 18.602 21.8246 18.1719C21.9801 17.8547 22.1244 17.5321 22.2797 17.1694C22.2803 15.0833 22.2814 12.9973 22.281 10.9112C22.2809 10.3132 22.2764 9.71523 22.2803 9.07575C22.2808 8.49981 22.2828 7.92386 22.2812 7.34793C22.2805 7.09145 22.109 6.9187 21.8528 6.91828C21.4566 6.91763 21.0604 6.9229 20.6224 6.91952C20.3919 6.91902 20.1613 6.91407 19.9309 6.91938C19.7376 6.92384 19.5427 7.09551 19.5424 7.26476C19.5414 7.88178 19.5461 8.49881 19.5425 9.15791C19.542 11.304 19.541 13.4502 19.5414 15.5963C19.5415 16.1345 19.546 16.6728 19.543 17.2445C19.7652 17.6967 19.9874 18.1489 20.2138 18.6342L20.2138 18.6342Z" id="Shape" fill="#000000" fill-rule="evenodd" stroke="none" />
    <path d="M2.65381 7.9961C2.65382 6.70151 2.65164 5.42938 2.65563 4.15727C2.65645 3.89666 2.68838 3.63804 2.99206 3.53985C3.06826 3.51521 3.15274 3.50682 3.23343 3.50675C5.20896 3.50499 7.18449 3.50495 9.16003 3.50569C9.57474 3.50584 9.74798 3.67912 9.74803 4.08893C9.74825 6.06446 9.74825 8.04 9.74803 10.0155C9.74798 10.4264 9.57542 10.5996 9.16102 10.5998C7.20794 10.6006 5.25485 10.6002 3.30177 10.6001C2.82761 10.6 2.6565 10.4305 2.65449 9.94919C2.6518 9.30566 2.65381 8.6621 2.65381 7.9961M6.52152 7.24047C6.56456 7.21462 6.60521 7.18308 6.65101 7.16378C7.22317 6.9227 7.4923 6.37929 7.45181 5.9331C7.39636 5.32213 7.0168 4.91512 6.40894 4.77936C5.98147 4.68388 5.32551 4.91721 5.07234 5.52483C4.86963 6.01133 5.01561 6.66402 5.43063 6.95809C5.58963 7.07074 5.76189 7.16468 5.89576 7.27672C4.89692 7.58611 4.75743 8.38689 4.89103 9.32396C5.77575 9.32396 6.65962 9.32396 7.54146 9.32396C7.65509 8.10393 7.38382 7.56712 6.52152 7.24047L6.52152 7.24047Z" id="Shape" fill="#FEE2CA" fill-rule="evenodd" stroke="none" />
    <path d="M4.67187 14.9463C4.04324 14.9463 3.43706 14.9467 2.83089 14.9456C2.75646 14.9455 2.68007 14.9457 2.60802 14.93C2.42221 14.8896 2.32523 14.7694 2.33083 14.5778C2.33621 14.3938 2.44656 14.2908 2.61638 14.2523C2.68795 14.236 2.76529 14.2432 2.84 14.2432C6.58182 14.2428 10.3236 14.2429 14.0655 14.2429C14.1253 14.2429 14.1856 14.2396 14.2449 14.2457C14.4445 14.2663 14.5936 14.416 14.5822 14.598C14.5697 14.7961 14.4543 14.9126 14.258 14.9395C14.177 14.9506 14.0937 14.946 14.0115 14.946C10.9058 14.9463 7.80004 14.9463 4.67187 14.9463L4.67187 14.9463Z" id="Shape" fill="#435E5E" stroke="none" />
    <path d="M5.39063 12.2733C8.28686 12.2733 11.1606 12.2732 14.0344 12.2736C14.1165 12.2736 14.2004 12.2696 14.2805 12.284C14.4657 12.3172 14.5711 12.4353 14.5824 12.6222C14.5929 12.7947 14.4534 12.9449 14.2666 12.9721C14.2005 12.9817 14.1322 12.9776 14.0649 12.9776C10.323 12.9778 6.58114 12.9778 2.83925 12.9775C2.76458 12.9774 2.68733 12.9837 2.61576 12.9673C2.44583 12.9286 2.33604 12.8254 2.33062 12.6413C2.32496 12.4491 2.4247 12.3304 2.60819 12.288C2.67982 12.2714 2.75668 12.2739 2.83116 12.2738C3.67683 12.273 4.5225 12.2733 5.39063 12.2733L5.39063 12.2733Z" id="Shape" fill="#435E5F" stroke="none" />
    <path d="M4.62695 16.2152C7.78387 16.2152 10.9183 16.2152 14.0528 16.2155C14.135 16.2155 14.22 16.2067 14.2988 16.2241C14.4827 16.2647 14.5869 16.3903 14.5782 16.577C14.5701 16.7508 14.4713 16.8705 14.2889 16.8963C14.2154 16.9067 14.1397 16.9042 14.065 16.9042C10.3246 16.9045 6.58419 16.9045 2.8438 16.9044C2.79143 16.9044 2.73892 16.9064 2.68673 16.9032C2.46001 16.8895 2.32704 16.7593 2.33006 16.5559C2.33303 16.356 2.47208 16.2188 2.6969 16.2172C3.33273 16.2126 3.96862 16.2154 4.62695 16.2152L4.62695 16.2152Z" id="Shape" fill="#3E5959" stroke="none" />
    <path d="M6.68165 20.1501C6.52889 20.03 6.4745 19.8933 6.54528 19.7244C6.62479 19.5347 6.78833 19.5023 6.97117 19.5024C9.2167 19.5033 11.4622 19.5029 13.7078 19.5029C13.8275 19.5029 13.9473 19.5027 14.0671 19.503C14.4096 19.5036 14.5892 19.6284 14.5842 19.862C14.5793 20.0891 14.4062 20.2078 14.077 20.2079C12.9767 20.2082 11.8764 20.208 10.7761 20.208C9.52606 20.208 8.27604 20.2092 7.02604 20.2059C6.91615 20.2056 6.80634 20.176 6.68165 20.1501L6.68165 20.1501Z" id="Shape" fill="#435E5F" stroke="none" />
    <path d="M2.66741 19.622C2.44628 19.225 2.447 19.1666 2.70436 18.9249C2.95733 18.8708 3.09619 18.9788 3.20987 19.1618C3.38122 19.4377 3.5675 19.7043 3.7674 20.0049C4.22131 19.5096 4.65345 19.0381 5.08558 18.5665C5.36044 18.2828 5.63481 17.9987 5.91032 17.7157C6.08099 17.5403 6.27105 17.5119 6.42574 17.6359C6.59972 17.7755 6.60236 17.9882 6.42217 18.1833C6.06734 18.5674 5.70797 18.9473 5.3298 19.3491C4.89168 19.8164 4.47442 20.2638 4.05674 20.7108C3.79788 20.9878 3.57442 20.9729 3.36422 20.662C3.13051 20.3163 2.89956 19.9687 2.66741 19.622L2.66741 19.622Z" id="Shape" fill="#3F5B5B" stroke="none" />
    <path d="M13.878 5.56073C13.01 5.56072 12.1641 5.56159 11.3181 5.5594C11.2295 5.55918 11.1171 5.57108 11.0577 5.52418C10.9617 5.44843 10.8402 5.32813 10.8409 5.22731C10.8415 5.1145 10.9517 4.98806 11.043 4.8961C11.0887 4.85006 11.1983 4.85789 11.2791 4.85769C12.2298 4.85539 13.1806 4.85617 14.1314 4.85628C14.1688 4.85629 14.2065 4.85473 14.2435 4.85902C14.445 4.88237 14.5932 5.02951 14.5823 5.21103C14.5703 5.40937 14.4544 5.52869 14.2588 5.55338C14.1408 5.56828 14.0197 5.55909 13.878 5.56073L13.878 5.56073Z" id="Shape" fill="#435E5F" stroke="none" />
    <path d="M2.66468 19.6435C2.89956 19.9687 3.13051 20.3163 3.36422 20.662C3.57442 20.9729 3.79788 20.9878 4.05674 20.7108C4.47442 20.2638 4.89168 19.8164 5.32195 19.362C5.33562 19.8023 5.33867 20.2497 5.33657 20.6972C5.33496 21.0378 5.18316 21.1924 4.84646 21.1942C4.27969 21.1971 3.71288 21.1972 3.14611 21.1941C2.81877 21.1924 2.66271 21.0391 2.65959 20.7165C2.6562 20.366 2.66082 20.0155 2.66468 19.6435L2.66468 19.6435Z" id="Shape" fill="#7FA4B3" stroke="none" />
    <path d="M11.2031 8.93198C12.2035 8.93175 13.1836 8.93306 14.1636 8.93038C14.3339 8.92992 14.4764 8.96877 14.551 9.1364C14.6545 9.3688 14.4957 9.60995 14.2241 9.61563C13.8128 9.62423 13.4012 9.61869 12.9898 9.61877C12.3988 9.61888 11.8078 9.62059 11.2168 9.6176C10.9839 9.61642 10.8416 9.49648 10.826 9.30283C10.8095 9.09848 10.9327 8.9704 11.2031 8.93198L11.2031 8.93198Z" id="Shape" fill="#3F5A5A" stroke="none" />
    <path d="M14.5159 7.37518C14.3919 7.43305 14.2781 7.51274 14.1636 7.51391C13.1905 7.52387 12.2173 7.52096 11.2441 7.51857C10.9692 7.5179 10.8178 7.38375 10.8254 7.16253C10.8326 6.95273 10.9838 6.82909 11.2457 6.8287C12.2189 6.82721 13.1921 6.82632 14.1652 6.82907C14.5111 6.83005 14.6465 7.03514 14.5159 7.37518L14.5159 7.37518Z" id="Shape" fill="#3F5A5A" stroke="none" />
    <path d="M5.06739 18.5591C4.65345 19.038 4.22131 19.5096 3.7674 20.0049C3.5675 19.7043 3.38122 19.4377 3.20987 19.1618C3.09619 18.9788 2.95733 18.8708 2.71374 18.9123C2.67162 18.6888 2.79374 18.5466 2.99375 18.5432C3.67864 18.5313 4.36401 18.5467 5.06739 18.5591L5.06739 18.5591Z" id="Shape" fill="#7DA2B2" stroke="none" />
    <path d="M19.5486 17.211C19.546 16.6728 19.5415 16.1345 19.5414 15.5963C19.541 13.4502 19.542 11.304 19.5661 9.1373C20.0381 9.11828 20.4865 9.11986 20.9345 9.14234C20.9333 11.8416 20.9325 14.5199 20.9322 17.2031C20.9328 17.208 20.9361 17.2172 20.9151 17.2139C20.4456 17.2107 19.9971 17.2108 19.5486 17.211L19.5486 17.211Z" id="Shape" fill="#D83131" stroke="none" />
    <path d="M20.9317 17.1982C20.9325 14.5199 20.9333 11.8416 20.9329 9.1403C20.9316 9.11735 20.9298 9.11243 20.9511 9.11469C21.4062 9.11704 21.8401 9.11713 22.274 9.11722C22.2764 9.71523 22.2809 10.3132 22.281 10.9112C22.2814 12.9973 22.2803 15.0833 22.2561 17.1894C21.7989 17.2057 21.3653 17.2019 20.9317 17.1982L20.9317 17.1982Z" id="Shape" fill="#CA2C2C" stroke="none" />
    <path d="M20.9332 9.11939C20.4865 9.11986 20.0381 9.11828 19.5692 9.11627C19.5461 8.49881 19.5414 7.88178 19.5424 7.26476C19.5427 7.09551 19.7376 6.92384 19.9309 6.91938C20.1613 6.91407 20.3919 6.91902 20.6517 6.93503C20.8319 7.04731 20.9398 7.16211 20.9368 7.36341C20.9281 7.94632 20.9313 8.52941 20.9298 9.11243C20.9298 9.11243 20.9316 9.11735 20.9332 9.11939L20.9332 9.11939Z" id="Shape" fill="#F47C7C" stroke="none" />
    <path d="M20.9511 9.11469C20.9313 8.52941 20.9281 7.94632 20.9368 7.36341C20.9398 7.16211 20.8319 7.04731 20.6725 6.9381C21.0604 6.9229 21.4566 6.91763 21.8528 6.91828C22.109 6.9187 22.2805 7.09145 22.2812 7.34793C22.2828 7.92386 22.2808 8.49981 22.2771 9.09648C21.8401 9.11713 21.4062 9.11703 20.9511 9.11469L20.9511 9.11469Z" id="Shape" fill="#EE6262" stroke="none" />
    <path d="M20.9322 17.2031C21.3653 17.2019 21.7989 17.2057 22.2531 17.2107C22.1244 17.5321 21.9801 17.8547 21.8246 18.1719C21.6137 18.602 21.4018 19.0321 21.1727 19.4526C21.1211 19.5474 20.9993 19.657 20.9058 19.6607C20.8146 19.6644 20.6833 19.5615 20.6307 19.4702C20.4755 19.2009 20.3506 18.9141 20.2257 18.6103C20.4704 18.13 20.7032 17.6736 20.9361 17.2172C20.9361 17.2172 20.9328 17.208 20.9322 17.2031L20.9322 17.2031Z" id="Shape" fill="#F9B1B1" stroke="none" />
    <path d="M20.9151 17.2139C20.7032 17.6736 20.4704 18.13 20.2236 18.5937C19.9874 18.1489 19.7652 17.6967 19.5458 17.2278C19.9971 17.2108 20.4456 17.2107 20.9151 17.2139L20.9151 17.2139Z" id="Shape" fill="#F9C6C6" stroke="none" />
    <path d="M6.51476 7.27018C7.38382 7.56712 7.65509 8.10392 7.54146 9.32395C6.65962 9.32395 5.77575 9.32395 4.89104 9.32395C4.75743 8.38688 4.89692 7.58611 5.93014 7.27274C6.14793 7.26924 6.33135 7.26971 6.51476 7.27018L6.51476 7.27018Z" id="Shape" fill="#E94545" stroke="none" />
    <path d="M6.51814 7.25532C6.33135 7.26971 6.14793 7.26924 5.94631 7.26796C5.76189 7.16468 5.58963 7.07074 5.43064 6.95808C5.01561 6.66402 4.86963 6.01133 5.07234 5.52482C5.32552 4.91721 5.98148 4.68388 6.40894 4.77935C7.0168 4.91512 7.39636 5.32213 7.45181 5.9331C7.49231 6.37928 7.22317 6.9227 6.65101 7.16377C6.60521 7.18307 6.56457 7.21461 6.51814 7.25532L6.51814 7.25532Z" id="Shape" fill="#FFCEBF" stroke="none" />
  </g>
</svg>