<?xml version="1.0" encoding="utf-8"?>
<svg width="23px" height="23px" viewBox="0 0 23 23" version="1.1" xmlns:xlink="http://www.w3.org/1999/xlink" xmlns="http://www.w3.org/2000/svg">
  <defs>
    <path d="M23 0L23 0L23 23L0 23L0 0L23 0Z" id="path_1" />
    <clipPath id="clip_1">
      <use xlink:href="#path_1" clip-rule="evenodd" fill-rule="evenodd" />
    </clipPath>
  </defs>
  <g id="report (1)" clip-path="url(#clip_1)">
    <path d="M23 0L23 0L23 23L0 23L0 0L23 0Z" id="report-(1)" fill="none" stroke="none" />
    <path d="M20.4419 21.6C20.3673 21.6025 20.2926 21.6071 20.2179 21.6071C16.5426 21.6075 12.8673 21.6075 9.19198 21.6074C8.76754 21.6074 8.67001 21.5078 8.66993 21.075C8.6698 20.4167 8.66989 19.7584 8.66989 19.0994C9.08389 19.0361 9.4911 18.9902 9.89154 18.9102C12.9199 18.3057 15.3676 15.6875 15.7725 12.6227C15.8136 12.3117 15.8389 11.9977 15.8526 11.6844C15.8694 11.303 15.7477 11.1858 15.3692 11.1857C13.2284 11.1854 11.0875 11.1856 8.94673 11.1856C8.86478 11.1856 8.78283 11.1856 8.68118 11.1856C8.67724 11.1168 8.67037 11.0529 8.67035 10.9889C8.66983 7.97977 8.66976 4.97065 8.67008 1.96153C8.67011 1.6218 8.78679 1.48349 9.08762 1.48333C11.932 1.48181 14.7764 1.48242 17.6543 1.48242C17.6543 1.55638 17.6543 1.62718 17.6543 1.69797C17.6543 2.55879 17.6533 3.41961 17.6547 4.28042C17.6558 4.97901 18.1075 5.4328 18.8034 5.43517C19.3647 5.43708 19.9261 5.43596 20.5084 5.46016C20.5292 5.94463 20.5292 6.40513 20.5083 6.86902C19.6669 6.87242 18.8463 6.87242 18.0268 6.87242C18.0268 7.1258 18.0268 7.35347 18.0268 7.59921C18.8696 7.59921 19.6994 7.59921 20.5292 7.61979C20.5292 8.10088 20.5292 8.56138 20.5083 9.02527C19.6669 9.02867 18.8463 9.02867 18.0268 9.02867C18.0268 9.28205 18.0268 9.50972 18.0268 9.75546C18.8696 9.75546 19.6994 9.75546 20.5292 9.77605C20.5292 10.2571 20.5292 10.7176 20.5083 11.1815C19.6669 11.1849 18.8463 11.1849 18.0268 11.1849C18.0268 11.4383 18.0268 11.666 18.0268 11.9117C18.8696 11.9117 19.6994 11.9117 20.5292 11.9323C20.527 13.3465 20.5248 14.7401 20.5098 16.1251C19.8008 14.8927 18.5628 14.2721 17.1875 14.4575C15.376 14.7017 14.1056 16.4963 14.4795 18.2829C14.8672 20.1359 16.7124 21.2739 18.5062 20.772C19.4042 20.5208 20.0545 19.9643 20.524 19.1956C20.5268 19.8668 20.5333 20.5165 20.5253 21.1661C20.5235 21.3111 20.4711 21.4554 20.4419 21.6M16.4632 10.4669C16.5904 10.4669 16.7177 10.4678 16.8449 10.4667C17.1674 10.464 17.3102 10.3357 17.29 10.0195C17.2628 9.59489 17.2337 9.16777 17.1623 8.7491C16.5677 5.26367 13.4487 2.61173 9.89911 2.56234C9.50105 2.5568 9.38875 2.66538 9.3887 3.05904C9.38847 5.35695 9.38851 7.65486 9.38866 9.95277C9.38868 10.3643 9.49202 10.4668 9.9065 10.4668C12.0772 10.4669 14.2478 10.4669 16.4632 10.4669L16.4632 10.4669Z" id="Shape" fill="#FDE8AB" fill-rule="evenodd" stroke="none" />
    <path d="M8.72492 11.9043C10.8635 11.9043 12.981 11.9043 15.0984 11.9043C15.1072 13.704 13.9994 16.3255 11.3975 17.6395C8.76563 18.9686 5.70137 18.4038 3.77004 16.6117C3.81675 16.5594 3.86159 16.504 3.91169 16.4539C5.3724 14.9924 6.83518 13.533 8.29199 12.0676C8.41374 11.9452 8.53486 11.8794 8.72492 11.9043L8.72492 11.9043Z" id="Shape" fill="#5EAC24" stroke="none" />
    <path d="M5.23151 5.45528C6.09116 5.02433 6.98457 4.78453 7.95118 4.72958C7.95118 4.8129 7.95118 4.88617 7.95118 4.95943C7.95118 7.03939 7.95258 9.11934 7.94687 11.1993C7.94659 11.2992 7.91217 11.4274 7.84546 11.4946C6.33225 13.018 4.81232 14.5348 3.29344 16.0526C3.28304 16.063 3.26966 16.0704 3.2576 16.0791C0.440327 13.1908 0.897857 7.71574 5.23151 5.45528L5.23151 5.45528Z" id="Shape" fill="#FFCD00" stroke="none" />
    <path d="M20.5225 16.1337C20.5248 14.7401 20.527 13.3465 20.5494 11.929C20.6715 11.9051 20.7736 11.9051 20.8758 11.9051C20.8758 11.6516 20.8758 11.4235 20.8758 11.1781C20.7517 11.1781 20.6404 11.1781 20.5291 11.1781C20.5292 10.7176 20.5292 10.2571 20.5494 9.77276C20.6715 9.74887 20.7736 9.74887 20.8758 9.74887C20.8758 9.49535 20.8758 9.26722 20.8758 9.02188C20.7517 9.02188 20.6404 9.02188 20.5291 9.02188C20.5292 8.56138 20.5292 8.10089 20.5494 7.61651C20.6715 7.59262 20.7736 7.59262 20.8758 7.59262C20.8758 7.3391 20.8758 7.11097 20.8758 6.86563C20.7517 6.86563 20.6404 6.86563 20.5291 6.86563C20.5292 6.40513 20.5292 5.94463 20.5292 5.46356C20.8797 5.44298 21.2303 5.44298 21.6074 5.44298C21.6074 5.52673 21.6074 5.6061 21.6074 5.68547C21.6074 10.8136 21.6074 15.9418 21.6074 21.07C21.6074 21.512 21.5114 21.6073 21.067 21.6074C20.8724 21.6074 20.6777 21.6069 20.4625 21.6033C20.4711 21.4554 20.5235 21.3111 20.5253 21.1661C20.5333 20.5165 20.5268 19.8668 20.5261 19.1795C20.7936 18.6122 20.916 18.0515 20.8844 17.4587C20.8595 16.9912 20.713 16.5563 20.5225 16.1337L20.5225 16.1337Z" id="Shape" fill="#FFD422" stroke="none" />
    <path d="M20.3653 3.9824C20.6063 4.21817 20.8361 4.44271 21.0962 4.69692C21.0007 4.70625 20.9466 4.71605 20.8925 4.71613C20.2048 4.71717 19.517 4.71774 18.8292 4.71641C18.5021 4.71578 18.3745 4.59324 18.3736 4.27591C18.3717 3.57317 18.373 2.87043 18.373 2.16769C18.373 2.12638 18.373 2.08508 18.373 1.98956C19.059 2.67575 19.7065 3.32346 20.3653 3.9824L20.3653 3.9824Z" id="Shape" fill="#FE7956" stroke="none" />
    <path d="M16.4408 10.4669C14.2478 10.4669 12.0772 10.4669 9.90651 10.4668C9.49203 10.4668 9.38869 10.3643 9.38867 9.95278C9.38852 7.65487 9.38848 5.35696 9.38872 3.05905C9.38876 2.66539 9.50106 2.55681 9.89912 2.56235C13.4487 2.61174 16.5677 5.26368 17.1623 8.74911C17.2337 9.16778 17.2628 9.5949 17.29 10.0195C17.3102 10.3357 17.1674 10.464 16.8449 10.4667C16.7177 10.4678 16.5904 10.4669 16.4408 10.4669M10.966 3.40372C10.6881 3.36198 10.4103 3.32024 10.1214 3.27684C10.1214 5.45009 10.1214 7.59177 10.1214 9.74788C10.1863 9.74788 10.2374 9.74795 10.2885 9.74787C12.0233 9.74525 13.7581 9.74262 15.5355 9.74621C15.8759 9.74621 16.2163 9.74621 16.579 9.74621C16.329 7.17532 15.1246 5.26945 12.8797 4.04714C12.2938 3.72816 11.669 3.49828 10.966 3.40372L10.966 3.40372Z" id="Shape" fill="#020101" fill-rule="evenodd" stroke="none" />
    <path d="M20.5098 16.1251C20.713 16.5563 20.8595 16.9912 20.8844 17.4587C20.916 18.0515 20.7936 18.6122 20.5246 19.158C20.0545 19.9643 19.4042 20.5208 18.5062 20.772C16.7124 21.2739 14.8672 20.1359 14.4795 18.2829C14.1056 16.4963 15.376 14.7017 17.1875 14.4575C18.5628 14.2721 19.8008 14.8927 20.5098 16.1251M17.613 15.1408C17.4067 15.1699 17.1954 15.1794 16.995 15.2315C15.7996 15.5421 14.9763 16.7667 15.1559 17.9525C15.3533 19.2555 16.4191 20.1992 17.6909 20.1682C17.9046 20.1374 18.1238 20.1271 18.3312 20.0724C19.5086 19.7621 20.3281 18.5311 20.1516 17.354C19.9561 16.051 18.8849 15.105 17.613 15.1408L17.613 15.1408Z" id="Shape" fill="#030403" fill-rule="evenodd" stroke="none" />
    <path d="M20.5083 6.86903C20.6404 6.86563 20.7517 6.86563 20.8758 6.86563C20.8758 7.11097 20.8758 7.3391 20.8758 7.59262C20.7736 7.59262 20.6715 7.59262 20.5493 7.59592C19.6994 7.59921 18.8696 7.59921 18.0268 7.59921C18.0268 7.35348 18.0268 7.1258 18.0268 6.87242C18.8463 6.87242 19.6669 6.87242 20.5083 6.86903L20.5083 6.86903Z" id="Shape" fill="#000000" stroke="none" />
    <path d="M20.5083 9.02528C20.6404 9.02188 20.7517 9.02188 20.8758 9.02188C20.8758 9.26723 20.8758 9.49535 20.8758 9.74887C20.7736 9.74887 20.6715 9.74887 20.5493 9.75217C19.6994 9.75546 18.8696 9.75546 18.0268 9.75546C18.0268 9.50973 18.0268 9.28205 18.0268 9.02868C18.8463 9.02868 19.6669 9.02868 20.5083 9.02528L20.5083 9.02528Z" id="Shape" fill="#000000" stroke="none" />
    <path d="M20.5083 11.1815C20.6404 11.1781 20.7517 11.1781 20.8758 11.1781C20.8758 11.4235 20.8758 11.6516 20.8758 11.9051C20.7736 11.9051 20.6715 11.9051 20.5493 11.9084C19.6994 11.9117 18.8696 11.9117 18.0268 11.9117C18.0268 11.666 18.0268 11.4383 18.0268 11.1849C18.8463 11.1849 19.6669 11.1849 20.5083 11.1815L20.5083 11.1815Z" id="Shape" fill="#000000" stroke="none" />
    <path d="M15.4929 9.73999C13.7581 9.74262 12.0233 9.74525 10.2885 9.74787C10.2374 9.74794 10.1862 9.74788 10.1214 9.74788C10.1214 7.59177 10.1214 5.45008 10.1214 3.27684C10.4103 3.32024 10.6881 3.36198 10.9934 3.42168C11.0741 3.46645 11.1263 3.49589 11.181 3.51965C12.1477 3.93972 12.9766 4.54436 13.678 5.33409C14.7969 6.594 15.377 8.06992 15.4929 9.73999L15.4929 9.73999Z" id="Shape" fill="#FF3051" stroke="none" />
    <path d="M15.5142 9.74309C15.377 8.06992 14.7969 6.594 13.678 5.33409C12.9766 4.54436 12.1477 3.93972 11.181 3.51965C11.1263 3.49589 11.0741 3.46645 11.01 3.42767C11.669 3.49828 12.2938 3.72815 12.8797 4.04713C15.1246 5.26944 16.329 7.17532 16.579 9.7462C16.2163 9.7462 15.8759 9.7462 15.5142 9.74309L15.5142 9.74309Z" id="Shape" fill="#CC2A01" stroke="none" />
    <path d="M17.6513 20.162C16.4191 20.1992 15.3533 19.2555 15.1559 17.9525C14.9763 16.7667 15.7996 15.5421 16.995 15.2315C17.1954 15.1794 17.4067 15.1699 17.6424 15.1546C18.1531 15.4615 18.5264 15.8557 18.7776 16.3722C18.1613 16.9967 17.5508 17.6072 16.9156 18.2425C16.6356 17.9521 16.377 17.6839 16.1143 17.4114C15.947 17.581 15.7862 17.7439 15.6121 17.9203C15.9277 18.2353 16.2446 18.5512 16.5612 18.8674C16.8676 19.1733 17.0025 19.1735 17.3067 18.8719C17.8845 18.2988 18.4632 17.7266 19.0444 17.1731C19.0393 17.5544 19.0814 17.9263 19.0133 18.2768C18.8526 19.104 18.3563 19.7147 17.6513 20.162L17.6513 20.162Z" id="Shape" fill="#BCFCFE" stroke="none" />
    <path d="M18.7834 16.3583C18.5264 15.8557 18.1531 15.4615 17.6617 15.1574C18.8849 15.1051 19.9561 16.051 20.1516 17.354C20.3281 18.5311 19.5086 19.7621 18.3312 20.0724C18.1238 20.1271 17.9046 20.1374 17.6711 20.1651C18.3563 19.7147 18.8526 19.104 19.0133 18.2768C19.0814 17.9263 19.0393 17.5544 19.0501 17.159C19.1623 17.0416 19.2717 16.9575 19.3946 16.863C19.23 16.7043 19.1335 16.6011 19.0259 16.5112C18.9532 16.4505 18.8648 16.4086 18.7834 16.3583L18.7834 16.3583Z" id="Shape" fill="#46F6FC" stroke="none" />
    <path d="M18.7776 16.3722C18.8648 16.4086 18.9532 16.4505 19.0259 16.5112C19.1335 16.6011 19.23 16.7043 19.3946 16.863C19.2717 16.9575 19.1623 17.0416 19.0472 17.1399C18.4632 17.7266 17.8845 18.2988 17.3067 18.8719C17.0025 19.1735 16.8676 19.1733 16.5612 18.8674C16.2446 18.5512 15.9277 18.2353 15.6121 17.9203C15.7862 17.7439 15.947 17.581 16.1143 17.4114C16.377 17.6839 16.6356 17.9521 16.9156 18.2424C17.5508 17.6072 18.1613 16.9967 18.7776 16.3722L18.7776 16.3722Z" id="Shape" fill="#050707" stroke="none" />
  </g>
</svg>