<svg version="1.1" id="Layer_1" xmlns="http://www.w3.org/2000/svg" xmlns:xlink="http://www.w3.org/1999/xlink" x="0px" y="0px"
	 width="100%" viewBox="0 0 512 512" enable-background="new 0 0 512 512" xml:space="preserve">
<path fill="#000000" opacity="1.000000" stroke="none" 
	d="
M513.000000,200.000000 
	C513.000000,304.641235 513.000000,408.782471 513.000000,512.961853 
	C342.400421,512.961853 171.800827,512.961853 1.100622,512.961853 
	C1.100622,342.442139 1.100622,171.884171 1.100622,1.163107 
	C171.666534,1.163107 342.333252,1.163107 513.000000,1.163107 
	C513.000000,67.199127 513.000000,133.349564 513.000000,200.000000 
M455.970947,480.983490 
	C460.303894,480.988983 464.636810,480.999512 468.969757,480.998901 
	C478.863342,480.997528 480.999115,478.876282 480.999207,469.036102 
	C481.000397,354.878540 480.999939,240.720978 480.999939,126.563423 
	C480.999939,124.796616 480.999939,123.029808 480.999939,121.165550 
	C472.603973,121.165550 464.800049,121.165550 456.070190,121.014397 
	C443.573273,121.009361 431.076294,121.034195 418.579498,120.991707 
	C403.087952,120.939034 393.033600,110.837135 393.008179,95.286026 
	C392.976837,76.123543 393.000549,56.960968 393.000488,37.798431 
	C393.000488,36.222462 393.000488,34.646496 393.000488,33.000137 
	C328.935760,33.000137 265.617096,32.986450 202.298431,33.020256 
	C195.601715,33.023830 193.004303,36.102898 193.003525,43.665508 
	C192.996582,110.651070 192.997971,177.636627 193.009735,244.622192 
	C193.009995,246.046432 193.162994,247.470642 193.250809,249.000519 
	C195.513443,249.000519 197.337753,249.000519 199.162064,249.000519 
	C246.818466,249.000534 294.474854,248.996933 342.131256,249.003906 
	C350.558594,249.005142 353.265717,251.614380 352.893585,260.104004 
	C352.587738,267.080414 352.025177,274.069550 351.110626,280.991547 
	C342.096252,349.216888 287.608551,407.501465 220.194305,420.958313 
	C211.280228,422.737671 202.215302,423.761230 192.999481,425.168518 
	C192.999481,439.838684 192.997360,454.493500 193.000229,469.148315 
	C193.002106,478.781342 195.173096,480.999176 204.621490,480.999390 
	C286.437195,481.001312 368.252869,481.001434 450.068573,480.993561 
	C451.730835,480.993408 453.393097,480.890167 455.970947,480.983490 
M193.754333,265.000031 
	C189.993500,264.445923 187.297165,265.910095 184.586838,268.636322 
	C152.157104,301.256409 119.594315,333.744232 87.077553,366.277893 
	C85.962372,367.393646 84.964264,368.626434 83.924370,369.790375 
	C126.917435,409.684967 195.130508,422.257080 253.717773,392.670288 
	C311.638977,363.419861 336.299774,305.063751 336.102570,265.000000 
	C288.968506,265.000000 241.831421,265.000000 193.754333,265.000031 
M116.140282,121.635063 
	C19.987083,171.758972 9.802052,293.637878 72.518730,357.937866 
	C72.785561,357.741699 73.083229,357.576385 73.314819,357.344940 
	C107.126457,323.557343 140.961441,289.792908 174.646667,255.879684 
	C176.131851,254.384445 176.898026,251.530029 176.904160,249.305710 
	C177.031403,203.004501 177.000122,156.702866 177.000122,110.401306 
	C177.000122,108.770325 177.000122,107.139343 177.000122,105.284569 
	C155.482529,106.507782 135.594574,111.845993 116.140282,121.635063 
M453.098450,88.401596 
	C438.684357,73.983055 424.270264,59.564518 408.999847,44.289406 
	C408.999847,46.415771 408.999847,47.335178 408.999847,48.254585 
	C408.999817,63.898209 408.970825,79.541908 409.012787,95.185417 
	C409.031769,102.249519 411.873383,104.977348 419.153992,104.991379 
	C434.464722,105.020889 449.775513,105.008247 465.086273,104.985092 
	C466.290619,104.983269 467.494659,104.765129 469.619812,104.557571 
	C463.828613,98.898499 458.713531,93.900078 453.098450,88.401596 
z"/>
<path fill="#FDE8AB" opacity="1.000000" stroke="none" 
	d="
M455.055359,480.834991 
	C453.393097,480.890167 451.730835,480.993408 450.068573,480.993561 
	C368.252869,481.001434 286.437195,481.001312 204.621490,480.999390 
	C195.173096,480.999176 193.002106,478.781342 193.000229,469.148315 
	C192.997360,454.493500 192.999481,439.838684 192.999481,425.168518 
	C202.215302,423.761230 211.280228,422.737671 220.194305,420.958313 
	C287.608551,407.501465 342.096252,349.216888 351.110626,280.991547 
	C352.025177,274.069550 352.587738,267.080414 352.893585,260.104004 
	C353.265717,251.614380 350.558594,249.005142 342.131256,249.003906 
	C294.474854,248.996933 246.818466,249.000534 199.162064,249.000519 
	C197.337753,249.000519 195.513443,249.000519 193.250809,249.000519 
	C193.162994,247.470642 193.009995,246.046432 193.009735,244.622192 
	C192.997971,177.636627 192.996582,110.651070 193.003525,43.665508 
	C193.004303,36.102898 195.601715,33.023830 202.298431,33.020256 
	C265.617096,32.986450 328.935760,33.000137 393.000488,33.000137 
	C393.000488,34.646496 393.000488,36.222462 393.000488,37.798431 
	C393.000549,56.960968 392.976837,76.123543 393.008179,95.286026 
	C393.033600,110.837135 403.087952,120.939034 418.579498,120.991707 
	C431.076294,121.034195 443.573273,121.009361 456.534454,121.547974 
	C456.997925,132.332672 456.997131,142.583801 456.532715,152.910538 
	C437.801880,152.986145 419.534637,152.986145 401.292664,152.986145 
	C401.292664,158.626556 401.292664,163.694855 401.292664,169.165070 
	C420.053986,169.165070 438.525116,169.165070 456.998108,169.623383 
	C456.998749,180.332779 456.997559,190.583847 456.532715,200.910538 
	C437.801880,200.986145 419.534637,200.986145 401.292664,200.986145 
	C401.292664,206.626556 401.292664,211.694855 401.292664,217.165070 
	C420.053986,217.165070 438.525116,217.165070 456.998108,217.623383 
	C456.998749,228.332779 456.997559,238.583847 456.532715,248.910538 
	C437.801880,248.986145 419.534637,248.986145 401.292664,248.986145 
	C401.292664,254.626556 401.292664,259.694855 401.292664,265.165070 
	C420.054108,265.165070 438.525177,265.165070 456.998108,265.623352 
	C456.949524,297.104492 456.899078,328.127289 456.565918,358.959015 
	C440.783112,331.524048 413.223389,317.709198 382.608246,321.836884 
	C342.283844,327.273560 314.003571,367.222809 322.325653,406.993134 
	C330.957367,448.243134 372.032928,473.575104 411.965057,462.403076 
	C431.955383,456.810272 446.431152,444.422852 456.881775,427.310425 
	C456.944275,442.251648 457.088501,456.716187 456.911499,471.176727 
	C456.872009,474.403229 455.703888,477.615936 455.055359,480.834991 
M366.484833,233.001770 
	C369.317352,233.001755 372.150024,233.021790 374.982330,232.997772 
	C382.161438,232.936920 385.340332,230.080780 384.889893,223.042252 
	C384.285034,213.590698 383.637512,204.082611 382.047546,194.762695 
	C368.811127,117.173965 299.380157,58.139420 220.362915,57.039993 
	C211.501709,56.916702 209.001724,59.333855 209.000824,68.097038 
	C208.995575,119.250488 208.996552,170.403931 208.999771,221.557388 
	C209.000336,230.717972 211.300644,232.999939 220.527405,233.000473 
	C268.848267,233.003265 317.169098,233.001770 366.484833,233.001770 
z"/>
<path fill="#5EAC24" opacity="1.000000" stroke="none" 
	d="
M194.224335,265.000000 
	C241.831421,265.000000 288.968506,265.000000 336.102570,265.000000 
	C336.299774,305.063751 311.638977,363.419861 253.717773,392.670288 
	C195.130508,422.257080 126.917435,409.684967 83.924370,369.790375 
	C84.964264,368.626434 85.962372,367.393646 87.077553,366.277893 
	C119.594315,333.744232 152.157104,301.256409 184.586838,268.636322 
	C187.297165,265.910095 189.993500,264.445923 194.224335,265.000000 
z"/>
<path fill="#FFCD00" opacity="1.000000" stroke="none" 
	d="
M116.457916,121.439194 
	C135.594574,111.845993 155.482529,106.507782 177.000122,105.284569 
	C177.000122,107.139343 177.000122,108.770325 177.000122,110.401306 
	C177.000122,156.702866 177.031403,203.004501 176.904160,249.305710 
	C176.898026,251.530029 176.131851,254.384445 174.646667,255.879684 
	C140.961441,289.792908 107.126457,323.557343 73.314819,357.344940 
	C73.083229,357.576385 72.785561,357.741699 72.517090,357.935638 
	C9.802052,293.637878 19.987083,171.758972 116.457916,121.439194 
z"/>
<path fill="#FFD422" opacity="1.000000" stroke="none" 
	d="
M456.848663,359.150116 
	C456.899078,328.127289 456.949524,297.104492 457.446472,265.550049 
	C460.166229,265.018402 462.439453,265.018402 464.713135,265.018402 
	C464.713135,259.374847 464.713135,254.296478 464.713135,248.834930 
	C461.951233,248.834930 459.473785,248.834930 456.996338,248.834930 
	C456.997559,238.583847 456.998749,228.332779 457.446472,217.550049 
	C460.166199,217.018387 462.439453,217.018387 464.713135,217.018387 
	C464.713135,211.374832 464.713135,206.296478 464.713135,200.834930 
	C461.951233,200.834930 459.473785,200.834930 456.996338,200.834930 
	C456.997559,190.583847 456.998749,180.332779 457.446472,169.550049 
	C460.166199,169.018387 462.439453,169.018387 464.713135,169.018387 
	C464.713135,163.374832 464.713135,158.296478 464.713135,152.834930 
	C461.951233,152.834930 459.473785,152.834930 456.996338,152.834930 
	C456.997131,142.583801 456.997925,132.332672 456.997437,121.623550 
	C464.800049,121.165550 472.603973,121.165550 480.999939,121.165550 
	C480.999939,123.029808 480.999939,124.796616 480.999939,126.563423 
	C480.999939,240.720978 481.000397,354.878540 480.999207,469.036102 
	C480.999115,478.876282 478.863342,480.997528 468.969757,480.998901 
	C464.636810,480.999512 460.303894,480.988983 455.513184,480.909241 
	C455.703888,477.615936 456.872009,474.403229 456.911499,471.176727 
	C457.088501,456.716187 456.944275,442.251648 456.929108,426.951324 
	C462.884064,414.323608 465.608246,401.842468 464.905121,388.646667 
	C464.350616,378.239502 461.088348,368.557953 456.848663,359.150116 
z"/>
<path fill="#FE7956" opacity="1.000000" stroke="none" 
	d="
M453.348450,88.651627 
	C458.713531,93.900078 463.828613,98.898499 469.619812,104.557571 
	C467.494659,104.765129 466.290619,104.983269 465.086273,104.985092 
	C449.775513,105.008247 434.464722,105.020889 419.153992,104.991379 
	C411.873383,104.977348 409.031769,102.249519 409.012787,95.185417 
	C408.970825,79.541908 408.999817,63.898209 408.999847,48.254585 
	C408.999847,47.335178 408.999847,46.415771 408.999847,44.289406 
	C424.270264,59.564518 438.684357,73.983055 453.348450,88.651627 
z"/>
<path fill="#020101" opacity="1.000000" stroke="none" 
	d="
M365.987396,233.001770 
	C317.169098,233.001770 268.848267,233.003265 220.527405,233.000473 
	C211.300644,232.999939 209.000336,230.717972 208.999771,221.557388 
	C208.996552,170.403931 208.995575,119.250488 209.000824,68.097038 
	C209.001724,59.333855 211.501709,56.916702 220.362915,57.039993 
	C299.380157,58.139420 368.811127,117.173965 382.047546,194.762695 
	C383.637512,204.082611 384.285034,213.590698 384.889893,223.042252 
	C385.340332,230.080780 382.161438,232.936920 374.982330,232.997772 
	C372.150024,233.021790 369.317352,233.001755 365.987396,233.001770 
M244.111725,75.769760 
	C237.926788,74.840569 231.741837,73.911369 225.310974,72.945229 
	C225.310974,121.323601 225.310974,168.999329 225.310974,216.996185 
	C226.754669,216.996185 227.892609,216.997696 229.030533,216.995972 
	C267.649048,216.937683 306.267548,216.879089 345.832947,216.958939 
	C353.410706,216.958939 360.988464,216.958939 369.062164,216.958939 
	C363.497131,159.728851 336.686035,117.302406 286.712677,90.092674 
	C273.671417,82.991898 259.761749,77.874718 244.111725,75.769760 
z"/>
<path fill="#030403" opacity="1.000000" stroke="none" 
	d="
M456.565918,358.959015 
	C461.088348,368.557953 464.350616,378.239502 464.905121,388.646667 
	C465.608246,401.842468 462.884064,414.323608 456.894897,426.473206 
	C446.431152,444.422852 431.955383,456.810272 411.965057,462.403076 
	C372.032928,473.575104 330.957367,448.243134 322.325653,406.993134 
	C314.003571,367.222809 342.283844,327.273560 382.608246,321.836884 
	C413.223389,317.709198 440.783112,331.524048 456.565918,358.959015 
M392.081543,337.047028 
	C387.489410,337.695923 382.783508,337.906799 378.323853,339.065582 
	C351.712494,345.980469 333.386536,373.241791 337.384521,399.639313 
	C341.777405,428.644104 365.503784,449.651276 393.814117,448.960968 
	C398.572479,448.275452 403.451019,448.046112 408.069305,446.829010 
	C434.278687,439.922089 452.521759,412.519226 448.591309,386.315155 
	C444.240662,357.309631 420.394409,336.251587 392.081543,337.047028 
z"/>
<path fill="#000000" opacity="1.000000" stroke="none" 
	d="
M456.532715,152.910538 
	C459.473785,152.834930 461.951233,152.834930 464.713135,152.834930 
	C464.713135,158.296478 464.713135,163.374832 464.713135,169.018387 
	C462.439453,169.018387 460.166199,169.018387 457.444611,169.091736 
	C438.525116,169.165070 420.053986,169.165070 401.292664,169.165070 
	C401.292664,163.694855 401.292664,158.626556 401.292664,152.986145 
	C419.534637,152.986145 437.801880,152.986145 456.532715,152.910538 
z"/>
<path fill="#000000" opacity="1.000000" stroke="none" 
	d="
M456.532715,200.910538 
	C459.473785,200.834930 461.951233,200.834930 464.713135,200.834930 
	C464.713135,206.296478 464.713135,211.374832 464.713135,217.018387 
	C462.439453,217.018387 460.166199,217.018387 457.444611,217.091736 
	C438.525116,217.165070 420.053986,217.165070 401.292664,217.165070 
	C401.292664,211.694855 401.292664,206.626556 401.292664,200.986145 
	C419.534637,200.986145 437.801880,200.986145 456.532715,200.910538 
z"/>
<path fill="#000000" opacity="1.000000" stroke="none" 
	d="
M456.532715,248.910538 
	C459.473785,248.834930 461.951233,248.834930 464.713135,248.834930 
	C464.713135,254.296478 464.713135,259.374847 464.713135,265.018402 
	C462.439453,265.018402 460.166229,265.018402 457.444611,265.091736 
	C438.525177,265.165070 420.054108,265.165070 401.292664,265.165070 
	C401.292664,259.694855 401.292664,254.626556 401.292664,248.986145 
	C419.534637,248.986145 437.801880,248.986145 456.532715,248.910538 
z"/>
<path fill="#FF3051" opacity="1.000000" stroke="none" 
	d="
M344.886047,216.820526 
	C306.267548,216.879089 267.649048,216.937683 229.030533,216.995972 
	C227.892609,216.997696 226.754669,216.996185 225.310974,216.996185 
	C225.310974,168.999329 225.310974,121.323601 225.310974,72.945229 
	C231.741837,73.911369 237.926788,74.840569 244.721649,76.169640 
	C246.519516,77.166092 247.681900,77.821510 248.899216,78.350502 
	C270.417938,87.701546 288.871246,101.161491 304.484283,118.741547 
	C329.392792,146.788177 342.305023,179.643463 344.886047,216.820526 
z"/>
<path fill="#CC2A01" opacity="1.000000" stroke="none" 
	d="
M345.359497,216.889740 
	C342.305023,179.643463 329.392792,146.788177 304.484283,118.741547 
	C288.871246,101.161491 270.417938,87.701546 248.899216,78.350502 
	C247.681900,77.821510 246.519516,77.166092 245.092499,76.302887 
	C259.761749,77.874718 273.671417,82.991898 286.712677,90.092674 
	C336.686035,117.302406 363.497131,159.728851 369.062164,216.958939 
	C360.988464,216.958939 353.410706,216.958939 345.359497,216.889740 
z"/>
<path fill="#BCFCFE" opacity="1.000000" stroke="none" 
	d="
M392.934296,448.822601 
	C365.503784,449.651276 341.777405,428.644104 337.384521,399.639313 
	C333.386536,373.241791 351.712494,345.980469 378.323853,339.065582 
	C382.783508,337.906799 387.489410,337.695923 392.734863,337.355164 
	C404.104218,344.187469 412.412994,352.960876 418.006042,364.460022 
	C404.285797,378.361115 390.695404,391.952545 376.556244,406.092804 
	C370.323425,399.628723 364.567322,393.659027 358.719177,387.593872 
	C354.993927,391.368103 351.414093,394.994995 347.538116,398.921936 
	C354.565491,405.933319 361.618866,412.965973 368.666901,420.003967 
	C375.487213,426.814636 378.491119,426.819366 385.261505,420.104309 
	C398.124237,407.346863 411.006439,394.609039 423.944275,382.289001 
	C423.830902,390.776917 424.769318,399.055725 423.253479,406.857635 
	C419.675903,425.270569 408.628143,438.865326 392.934296,448.822601 
z"/>
<path fill="#46F6FC" opacity="1.000000" stroke="none" 
	d="
M418.135864,364.150391 
	C412.412994,352.960876 404.104218,344.187469 393.164795,337.417633 
	C420.394409,336.251587 444.240662,357.309631 448.591309,386.315155 
	C452.521759,412.519226 434.278687,439.922089 408.069305,446.829010 
	C403.451019,448.046112 398.572479,448.275452 393.374207,448.891785 
	C408.628143,438.865326 419.675903,425.270569 423.253479,406.857635 
	C424.769318,399.055725 423.830902,390.776917 424.071350,381.974609 
	C426.569458,379.361755 429.004211,377.489227 431.740875,375.384521 
	C428.076233,371.852844 425.928925,369.554962 423.533417,367.554321 
	C421.915314,366.202881 419.947357,365.270325 418.135864,364.150391 
z"/>
<path fill="#050707" opacity="1.000000" stroke="none" 
	d="
M418.006042,364.460022 
	C419.947357,365.270325 421.915314,366.202881 423.533417,367.554321 
	C425.928925,369.554962 428.076233,371.852844 431.740875,375.384521 
	C429.004211,377.489227 426.569458,379.361755 424.007660,381.548706 
	C411.006439,394.609039 398.124237,407.346863 385.261505,420.104309 
	C378.491119,426.819366 375.487213,426.814636 368.666901,420.003967 
	C361.618866,412.965973 354.565491,405.933319 347.538116,398.921936 
	C351.414093,394.994995 354.993927,391.368103 358.719177,387.593872 
	C364.567322,393.659027 370.323425,399.628723 376.556244,406.092804 
	C390.695404,391.952545 404.285797,378.361115 418.006042,364.460022 
z"/>
</svg>