<?xml version="1.0" encoding="utf-8"?>
<svg width="23px" height="23px" viewBox="0 0 23 23" version="1.1" xmlns:xlink="http://www.w3.org/1999/xlink" xmlns="http://www.w3.org/2000/svg">
  <defs>
    <path d="M23 0L23 0L23 23L0 23L0 0L23 0Z" id="path_1" />
    <clipPath id="clip_1">
      <use xlink:href="#path_1" clip-rule="evenodd" fill-rule="evenodd" />
    </clipPath>
  </defs>
  <g id="settings" clip-path="url(#clip_1)">
    <path d="M23 0L23 0L23 23L0 23L0 0L23 0Z" id="settings" fill="none" stroke="none" />
    <path d="M10.4426 -0.0224609C11.131 -0.0224609 11.8195 -0.0224609 12.508 -0.0224609C13.7492 0.1083 14.9465 0.4226 16.1 0.920439C13.0095 0.965303 9.91135 0.980268 6.80566 0.965339C7.96314 0.432768 9.17544 0.103501 10.4426 -0.0224609L10.4426 -0.0224609Z" id="Group" fill="#65C087" fill-opacity="0.979" fill-rule="evenodd" stroke="none" />
    <path d="M16.099 0.920898C16.7774 1.22255 17.421 1.58175 18.0297 1.9985C13.652 2.04337 9.26682 2.05834 4.87402 2.0434C5.46841 1.60382 6.11201 1.24462 6.80472 0.965798C9.91041 0.980728 13.0085 0.965763 16.099 0.920898L16.099 0.920898Z" id="Group" fill="#60BE8C" fill-opacity="0.995" fill-rule="evenodd" stroke="none" />
    <path d="M18.0295 1.99902C18.1782 2.08802 18.3129 2.19278 18.4336 2.31332C13.7803 2.31351 9.1406 2.31351 4.51465 2.31332C4.62061 2.20766 4.74036 2.11786 4.87385 2.04392C9.26664 2.05887 13.6518 2.0439 18.0295 1.99902L18.0295 1.99902Z" id="Group" fill="#5EBD90" fill-opacity="0.999" fill-rule="evenodd" stroke="none" />
    <path d="M4.51417 2.31348C9.14012 2.31366 13.7798 2.31366 18.4332 2.31348C18.6494 2.45929 18.8589 2.61644 19.0618 2.78493C19.2056 2.92124 19.3403 3.06342 19.4659 3.21148C14.1452 3.22642 8.83197 3.21145 3.52637 3.16658C3.828 2.84996 4.15727 2.56559 4.51417 2.31348L4.51417 2.31348Z" id="Group" fill="#5BBC93" fill-opacity="0.997" fill-rule="evenodd" stroke="none" />
    <path d="M3.52617 3.16699C8.83178 3.21187 14.145 3.22684 19.4657 3.21189C19.6004 3.31666 19.7201 3.43639 19.8249 3.57109C14.2573 3.57109 8.68967 3.57109 3.12207 3.57109C3.24181 3.42143 3.37651 3.28673 3.52617 3.16699L3.52617 3.16699Z" id="Group" fill="#58BC96" fill-opacity="0.998" fill-rule="evenodd" stroke="none" />
    <path d="M3.12168 3.57129C8.68928 3.57129 14.2569 3.57129 19.8245 3.57129C20.1262 3.85802 20.3956 4.17232 20.6327 4.51419C18.545 4.55904 16.4496 4.574 14.3467 4.55909C14.3216 4.33319 14.2841 4.10869 14.2344 3.88559C14.197 3.84817 14.1596 3.81075 14.1222 3.77334C13.7779 3.7434 13.4337 3.7434 13.0895 3.77334C13.0483 3.79014 13.0109 3.81259 12.9772 3.84069C12.8931 4.09375 12.8407 4.34819 12.8201 4.60399C9.31788 4.57404 5.81568 4.54414 2.31348 4.51419C2.55057 4.17232 2.81997 3.85802 3.12168 3.57129L3.12168 3.57129Z" id="Group" fill="#55BA9A" fill-opacity="0.997" fill-rule="evenodd" stroke="none" />
    <path d="M20.6385 4.51465C20.778 4.63925 20.8827 4.7889 20.9528 4.96365C19.3813 4.96365 17.8098 4.96365 16.2383 4.96365C16.1792 4.94924 16.1193 4.93428 16.0587 4.91875C15.874 4.98866 15.6944 5.07096 15.5199 5.1657C15.4152 5.19565 15.3104 5.19565 15.2056 5.1657C14.9734 4.98206 14.7189 4.83241 14.4423 4.7167C14.3829 4.68006 14.353 4.62766 14.3525 4.55955C16.4555 4.57446 18.5508 4.5595 20.6385 4.51465L20.6385 4.51465Z" id="Group" fill="#52B99D" fill-opacity="0.992" fill-rule="evenodd" stroke="none" />
    <path d="M2.31332 4.51465C5.81552 4.5446 9.31772 4.5745 12.8199 4.60445C12.7845 4.66255 12.7396 4.71495 12.6852 4.7616C12.4327 4.87291 12.1932 5.00761 11.9668 5.1657C11.8621 5.19565 11.7573 5.19565 11.6525 5.1657C11.4818 5.07653 11.3096 4.99423 11.1362 4.91875C11.065 4.94317 10.9977 4.97312 10.9341 5.00855C7.96332 4.96369 4.98496 4.94874 1.99902 4.96365C2.06916 4.7889 2.17393 4.63925 2.31332 4.51465L2.31332 4.51465Z" id="Group" fill="#52B99D" fill-opacity="0.996" fill-rule="evenodd" stroke="none" />
    <path d="M1.99878 4.96386C4.98472 4.94896 7.96308 4.96391 10.9339 5.00876C10.7836 5.24983 10.6339 5.48933 10.4849 5.72716C7.49153 5.72716 4.49823 5.72716 1.50488 5.72716C1.63609 5.44941 1.80073 5.19501 1.99878 4.96386L1.99878 4.96386Z" id="Group" fill="#4FB8A0" fill-opacity="0.996" fill-rule="evenodd" stroke="none" />
    <path d="M16.2393 4.96387C17.8108 4.96387 19.3823 4.96387 20.9538 4.96387C21.1518 5.19501 21.3165 5.44942 21.4477 5.72717C19.8685 5.71226 18.297 5.72726 16.7332 5.77207C16.5692 5.50428 16.4045 5.23488 16.2393 4.96387L16.2393 4.96387Z" id="Group" fill="#4FB8A0" fill-opacity="0.993" fill-rule="evenodd" stroke="none" />
    <path d="M1.50469 5.72754C4.49803 5.72754 7.49134 5.72754 10.4847 5.72754C10.4447 5.83 10.4373 5.93475 10.4622 6.04184C10.6298 6.18754 10.8019 6.32224 10.9786 6.44594C7.69348 6.49079 4.40082 6.50579 1.10059 6.49084C1.20114 6.2147 1.33584 5.9603 1.50469 5.72754L1.50469 5.72754Z" id="Group" fill="#4CB7A4" fill-opacity="0.997" fill-rule="evenodd" stroke="none" />
    <path d="M21.4476 5.72754C21.6886 6.08988 21.8832 6.47903 22.0313 6.89494C20.0525 6.90966 18.0769 6.89467 16.1045 6.85004C16.0972 6.74421 16.1046 6.63946 16.1269 6.53574C16.3087 6.36889 16.5033 6.21919 16.7106 6.08674C16.7245 6.02989 16.747 5.9775 16.778 5.92959C16.7404 5.88419 16.7255 5.83179 16.7331 5.77244C18.2969 5.72763 19.8684 5.71263 21.4476 5.72754L21.4476 5.72754Z" id="Group" fill="#4BB7A5" fill-opacity="0.994" fill-rule="evenodd" stroke="none" />
    <path d="M10.9785 6.44629C11.0497 6.51728 11.0946 6.60708 11.1132 6.71569C11.0797 6.77118 11.0648 6.83108 11.0683 6.89529C7.68585 6.89529 4.30336 6.89529 0.920898 6.89529C0.946711 6.74209 1.00658 6.60739 1.1005 6.49119C4.40073 6.50614 7.69339 6.49114 10.9785 6.44629L10.9785 6.44629Z" id="Group" fill="#49B7A7" fill-opacity="0.998" fill-rule="evenodd" stroke="none" />
    <path d="M14.8006 6.98483C14.018 6.8966 13.2248 6.86665 12.4209 6.89503C12.5503 6.24968 12.9469 5.92043 13.6107 5.90723C14.2847 5.96003 14.6813 6.31923 14.8006 6.98483L14.8006 6.98483Z" id="Group" fill="#4AB7A6" fill-opacity="0.984" fill-rule="evenodd" stroke="none" />
    <path d="M16.1045 6.85059C18.0769 6.89522 20.0525 6.91021 22.0313 6.89549C22.1441 7.09152 22.2339 7.30107 22.3007 7.52409C20.2255 7.49472 18.1601 7.52467 16.1045 7.61389C16.1261 7.35625 16.1261 7.10185 16.1045 6.85059L16.1045 6.85059Z" id="Group" fill="#47B6AA" fill-opacity="0.994" fill-rule="evenodd" stroke="none" />
    <path d="M0.920789 6.89551C4.30325 6.89551 7.68574 6.89551 11.0682 6.89551C11.0682 7.09006 11.0682 7.28466 11.0682 7.47921C9.34708 7.50916 7.61843 7.52411 5.88224 7.52411C4.13836 7.52411 2.40971 7.49416 0.696289 7.43431C0.748131 7.24137 0.822965 7.06177 0.920789 6.89551L0.920789 6.89551Z" id="Group" fill="#47B5AA" fill-opacity="0.998" fill-rule="evenodd" stroke="none" />
    <path d="M12.4209 6.8955C13.2248 6.86713 14.018 6.89707 14.8006 6.9853C14.8095 7.79211 14.4129 8.24111 13.6107 8.3323C12.9585 8.27869 12.5544 7.93444 12.3984 7.2996C12.3623 7.1561 12.3698 7.0214 12.4209 6.8955L12.4209 6.8955Z" id="Group" fill="#46B5AB" fill-opacity="0.989" fill-rule="evenodd" stroke="none" />
    <path d="M0.69618 7.43457C2.4096 7.49442 4.13825 7.52437 5.88213 7.52437C7.61832 7.52437 9.34697 7.50942 11.0681 7.47947C11.0925 7.48216 11.1074 7.49712 11.113 7.52437C11.0048 7.79584 10.8102 7.97544 10.5293 8.06317C7.17673 8.06317 3.82421 8.06317 0.47168 8.06317C0.529861 7.84347 0.604692 7.63393 0.69618 7.43457L0.69618 7.43457Z" id="Group" fill="#44B4AC" fill-opacity="0.998" fill-rule="evenodd" stroke="none" />
    <path d="M22.3007 7.52441C22.3693 7.70046 22.4292 7.88006 22.4803 8.06321C20.5178 8.07771 18.5571 8.06271 16.5984 8.01831C16.3871 7.93583 16.2225 7.80113 16.1045 7.61421C18.1601 7.52499 20.2255 7.49504 22.3007 7.52441L22.3007 7.52441Z" id="Group" fill="#44B4AC" fill-opacity="0.996" fill-rule="evenodd" stroke="none" />
    <path d="M0.471548 8.06348C3.82408 8.06348 7.1766 8.06348 10.5291 8.06348C10.452 8.1724 10.4296 8.29215 10.4618 8.42268C10.602 8.69576 10.7592 8.95766 10.9332 9.20843C11.0468 9.27227 11.1666 9.28723 11.2924 9.25333C11.4495 9.14112 11.6217 9.05882 11.8088 9.00638C12.0586 9.11485 12.2906 9.24955 12.5047 9.41048C11.0829 9.41048 9.6611 9.41048 8.23925 9.41048C8.19174 9.2804 8.10194 9.1831 7.96985 9.11863C7.5508 9.08868 7.1317 9.08868 6.71265 9.11863C6.68822 9.15082 6.65827 9.17327 6.62285 9.18598C4.49023 9.14112 2.35 9.12617 0.202148 9.14108C0.264013 8.77388 0.353813 8.41468 0.471548 8.06348L0.471548 8.06348Z" id="Group" fill="#40B3B1" fill-opacity="0.994" fill-rule="evenodd" stroke="none" />
    <path d="M16.5985 8.01855C18.5572 8.06296 20.5179 8.07796 22.4804 8.06345C22.6053 8.42831 22.6951 8.80246 22.7498 9.18596C20.6128 9.14128 18.4726 9.12633 16.3291 9.14106C16.4461 8.91157 16.5733 8.68707 16.7108 8.46756C16.7619 8.2915 16.7244 8.14185 16.5985 8.01855L16.5985 8.01855Z" id="Group" fill="#41B3B1" fill-opacity="0.995" fill-rule="evenodd" stroke="none" />
    <path d="M16.3283 9.14154C18.4718 9.12681 20.612 9.14176 22.749 9.18644C22.7917 9.25015 22.8067 9.32495 22.7939 9.41094C20.1073 9.42584 17.4283 9.41089 14.7568 9.36604C14.9456 9.23021 15.1477 9.11047 15.363 9.00684C15.5934 9.10342 15.8254 9.19322 16.0589 9.27624C16.1692 9.27049 16.259 9.22559 16.3283 9.14154L16.3283 9.14154Z" id="Group" fill="#3DB2B4" fill-opacity="0.99" fill-rule="evenodd" stroke="none" />
    <path d="M0.202125 9.1416C2.34998 9.12669 4.49021 9.14164 6.62283 9.1865C6.5302 9.27401 6.47034 9.37876 6.44322 9.5008C4.36339 9.41122 2.26806 9.38127 0.157225 9.411C0.14938 9.31576 0.164346 9.22596 0.202125 9.1416L0.202125 9.1416Z" id="Group" fill="#3DB3B4" fill-opacity="0.997" fill-rule="evenodd" stroke="none" />
    <path d="M14.7565 9.36621C17.428 9.41107 20.107 9.42602 22.7936 9.41111C22.8645 9.75365 22.9244 10.0979 22.9732 10.4438C22.9732 10.4588 22.9732 10.4738 22.9732 10.4887C20.0098 10.4887 17.0464 10.4887 14.083 10.4887C14.1717 10.4373 14.239 10.3624 14.2851 10.2642C14.29 10.0346 14.3199 9.81009 14.3749 9.59071C14.4787 9.47523 14.6059 9.40038 14.7565 9.36621L14.7565 9.36621Z" id="Group" fill="#3AB1B8" fill-opacity="0.996" fill-rule="evenodd" stroke="none" />
    <path d="M0.157161 9.41113C2.268 9.38141 4.36333 9.41135 6.44316 9.50093C6.46099 9.74604 6.43854 9.98549 6.37581 10.2193C6.01311 10.4172 5.66141 10.6342 5.32066 10.8704C5.18596 10.9003 5.05126 10.9003 4.91656 10.8704C4.68946 10.6968 4.43502 10.5995 4.15326 10.5785C2.77633 10.5785 1.3994 10.5785 0.0224609 10.5785C0.0224609 10.5336 0.0224609 10.4887 0.0224609 10.4438C0.0220913 10.0877 0.0669914 9.74348 0.157161 9.41113L0.157161 9.41113Z" id="Group" fill="#3AB1B8" fill-opacity="0.995" fill-rule="evenodd" stroke="none" />
    <path d="M8.24316 9.41113C9.66501 9.41113 11.0868 9.41113 12.5087 9.41113C12.6137 9.43744 12.711 9.48234 12.8005 9.54583C12.8508 9.79795 12.8957 10.0524 12.9352 10.3091C12.9979 10.3796 13.0653 10.4395 13.1373 10.4887C11.7005 10.4887 10.2637 10.4887 8.82686 10.4887C8.56909 10.4474 8.38199 10.3127 8.26561 10.0846C8.2432 9.86063 8.23571 9.63613 8.24316 9.41113L8.24316 9.41113Z" id="Group" fill="#3AB1B8" fill-opacity="0.993" fill-rule="evenodd" stroke="none" />
    <path d="M8.82715 10.4893C10.2639 10.4893 11.7007 10.4893 13.1375 10.4893C13.4518 10.4893 13.7661 10.4893 14.0804 10.4893C17.0438 10.4893 20.0072 10.4893 22.9706 10.4893C22.9706 10.5641 22.9706 10.6389 22.9706 10.7138C22.9301 10.6819 22.9151 10.637 22.9258 10.5791C18.8173 10.5641 14.7165 10.5791 10.6231 10.624C10.5058 10.582 10.3861 10.5745 10.2639 10.6015C10.0544 10.755 9.82236 10.8523 9.568 10.8934C9.29321 10.812 9.04626 10.6773 8.82715 10.4893L8.82715 10.4893Z" id="Group" fill="#37B1BB" fill-opacity="0.993" fill-rule="evenodd" stroke="none" />
    <path d="M-0.0224609 10.4443C-0.00749428 10.4443 0.00747241 10.4443 0.0224391 10.4443C0.0224391 10.4892 0.0224391 10.5341 0.0224391 10.579C1.39937 10.579 2.7763 10.579 4.15324 10.579C3.86702 10.8954 3.63504 11.2546 3.45729 11.6566C3.43513 11.73 3.42765 11.8049 3.43484 11.8811C2.29261 11.7924 1.14018 11.7625 -0.0224609 11.7913C-0.0224609 11.3423 -0.0224609 10.8933 -0.0224609 10.4443L-0.0224609 10.4443Z" id="Group" fill="#35AFBE" fill-opacity="0.994" fill-rule="evenodd" stroke="none" />
    <path d="M22.9715 10.7138C22.9715 11.073 22.9715 11.4322 22.9715 11.7914C20.7116 11.7914 18.4516 11.7914 16.1916 11.7914C16.1402 11.7027 16.0653 11.6354 15.9671 11.5894C15.6528 11.5594 15.3385 11.5594 15.0242 11.5894C14.9272 11.6341 14.8524 11.7014 14.7997 11.7914C13.6323 11.7914 12.4649 11.7914 11.2975 11.7914C11.1103 11.38 10.8858 10.9908 10.624 10.624C14.7173 10.5791 18.8182 10.5641 22.9266 10.5791C22.916 10.6371 22.9309 10.682 22.9715 10.7138L22.9715 10.7138Z" id="Group" fill="#35AFBE" fill-opacity="0.996" fill-rule="evenodd" stroke="none" />
    <path d="M8.4667 12.1511C7.72545 12.166 6.9921 12.151 6.2666 12.1062C6.78785 11.6847 7.37155 11.5874 8.0177 11.8144C8.19456 11.8948 8.34421 12.0071 8.4667 12.1511L8.4667 12.1511Z" id="Group" fill="#32AFC2" fill-opacity="0.974" fill-rule="evenodd" stroke="none" />
    <path d="M16.1943 11.792C18.4543 11.792 20.7143 11.792 22.9742 11.792C22.9742 11.9117 22.9742 12.0314 22.9742 12.1512C20.7111 12.1365 18.4511 12.1514 16.1943 12.1961C16.1943 12.0614 16.1943 11.9267 16.1943 11.792L16.1943 11.792Z" id="Group" fill="#31AFC2" fill-opacity="0.996" fill-rule="evenodd" stroke="none" />
    <path d="M11.2975 11.792C12.4649 11.792 13.6323 11.792 14.7997 11.792C14.777 12.0344 14.7396 12.2739 14.6874 12.5104C14.3568 12.6922 14.0275 12.8718 13.6996 13.0492C13.4778 12.9642 13.2607 12.8744 13.0486 12.7798C12.9081 12.7825 12.8034 12.8424 12.7343 12.9594C11.9824 12.9737 11.2341 12.9587 10.4893 12.9145C10.4763 12.7731 10.4987 12.6384 10.5566 12.5104C10.7172 12.3814 10.8894 12.2691 11.073 12.1736C11.2105 12.0825 11.2853 11.9552 11.2975 11.792L11.2975 11.792Z" id="Group" fill="#2FAEC4" fill-opacity="0.987" fill-rule="evenodd" stroke="none" />
    <path d="M-0.0224609 11.792C1.14018 11.7631 2.29261 11.7931 3.43484 11.8818C3.4501 11.9796 3.495 12.0619 3.56954 12.1287C3.79647 12.236 3.99852 12.3782 4.17569 12.5553C4.25181 12.703 4.2593 12.8526 4.19814 13.0043C2.8212 12.9444 1.44427 12.9444 0.0673391 13.0043C0.0437023 12.8331 0.0137689 12.6685 -0.0224609 12.5104C-0.0224609 12.2709 -0.0224609 12.0314 -0.0224609 11.792L-0.0224609 11.792Z" id="Group" fill="#2FAEC4" fill-opacity="0.994" fill-rule="evenodd" stroke="none" />
    <path d="M6.26634 12.1064C6.99183 12.1512 7.72518 12.1662 8.46644 12.1513C8.81432 12.4757 8.97897 12.8798 8.96034 13.3636C7.88274 13.3636 6.80514 13.3636 5.72754 13.3636C5.72525 12.8603 5.90485 12.4412 6.26634 12.1064L6.26634 12.1064Z" id="Group" fill="#2EADC6" fill-opacity="0.989" fill-rule="evenodd" stroke="none" />
    <path d="M22.9742 12.1514C22.9742 12.2711 22.9742 12.3908 22.9742 12.5106C22.9411 12.6554 22.9112 12.8051 22.8844 12.9596C21.3429 12.9596 19.8013 12.9596 18.2597 12.9596C18.1764 12.8611 18.0716 12.8012 17.9454 12.78C17.6963 12.8902 17.4418 12.9725 17.1821 13.0269C16.9272 12.8544 16.6578 12.7048 16.3739 12.5779C16.2473 12.4818 16.1874 12.3545 16.1943 12.1963C18.4511 12.1516 20.711 12.1366 22.9742 12.1514L22.9742 12.1514Z" id="Group" fill="#2FADC5" fill-opacity="0.994" fill-rule="evenodd" stroke="none" />
    <path d="M4.19818 13.0049C4.19818 13.0797 4.19818 13.1545 4.19818 13.2294C4.15759 13.2612 4.14263 13.3061 4.15328 13.364C2.80298 13.3495 1.45598 13.3644 0.112283 13.4089C0.0827063 13.2763 0.0677398 13.1416 0.0673828 13.0049C1.44432 12.945 2.82125 12.945 4.19818 13.0049L4.19818 13.0049Z" id="Group" fill="#2CACC8" fill-opacity="0.993" fill-rule="evenodd" stroke="none" />
    <path d="M18.2607 12.96C19.8023 12.96 21.3439 12.96 22.8854 12.96C22.8914 13.0978 22.8764 13.2325 22.8405 13.3641C21.3888 13.3641 19.937 13.3641 18.4852 13.3641C18.3764 13.2515 18.3016 13.1168 18.2607 12.96L18.2607 12.96Z" id="Group" fill="#2CADC8" fill-opacity="0.995" fill-rule="evenodd" stroke="none" />
    <path d="M4.1982 13.2295C4.1909 13.4184 4.20587 13.6055 4.2431 13.7907C4.19722 14.0536 4.04755 14.2257 3.79411 14.3071C2.6267 14.3071 1.4593 14.3071 0.291905 14.3071C0.226295 14.009 0.166429 13.7097 0.112305 13.4091C1.456 13.3646 2.803 13.3496 4.15331 13.3642C4.14265 13.3062 4.15762 13.2613 4.1982 13.2295L4.1982 13.2295Z" id="Group" fill="#29ABCC" fill-opacity="0.991" fill-rule="evenodd" stroke="none" />
    <path d="M5.72754 13.3643C6.80514 13.3643 7.88274 13.3643 8.96034 13.3643C8.94575 13.7229 8.826 14.0372 8.60114 14.3072C7.76299 14.3072 6.92489 14.3072 6.08674 14.3072C5.8793 14.0295 5.75955 13.7152 5.72754 13.3643L5.72754 13.3643Z" id="Group" fill="#29ABCB" fill-opacity="0.99" fill-rule="evenodd" stroke="none" />
    <path d="M10.4893 12.915C11.2341 12.9593 11.9825 12.9742 12.7343 12.9599C12.5816 13.2128 12.4469 13.4747 12.3302 13.7457C12.3358 13.8187 12.3582 13.8861 12.3975 13.9477C12.5618 14.063 12.7189 14.1827 12.869 14.3069C12.2175 14.2922 11.5739 14.3071 10.9383 14.3518C10.7565 14.2796 10.6143 14.1598 10.5117 13.9926C10.4893 13.6338 10.4818 13.2746 10.4893 12.915L10.4893 12.915Z" id="Group" fill="#2AACCB" fill-opacity="0.983" fill-rule="evenodd" stroke="none" />
    <path d="M18.4852 13.3643C19.9369 13.3643 21.3887 13.3643 22.8405 13.3643C22.8033 13.6547 22.7435 13.9391 22.6609 14.2174C21.9074 14.2766 21.1441 14.3065 20.371 14.3072C19.615 14.3072 18.8667 14.2922 18.126 14.2623C18.2922 14.1598 18.4493 14.04 18.5974 13.9031C18.6274 13.7983 18.6274 13.6935 18.5974 13.5888C18.5358 13.5254 18.4984 13.4506 18.4852 13.3643L18.4852 13.3643Z" id="Group" fill="#29ABCC" fill-opacity="0.993" fill-rule="evenodd" stroke="none" />
    <path d="M22.6608 14.2178C22.6429 14.3801 22.598 14.5298 22.5261 14.6668C21.0145 14.6668 19.5028 14.6668 17.9912 14.6668C17.9654 14.5027 18.0103 14.368 18.1259 14.2627C18.8666 14.2926 19.6149 14.3076 20.3709 14.3076C21.144 14.3069 21.9073 14.277 22.6608 14.2178L22.6608 14.2178Z" id="Group" fill="#26AACF" fill-opacity="0.992" fill-rule="evenodd" stroke="none" />
    <path d="M6.08691 14.3076C6.92506 14.3076 7.76317 14.3076 8.60131 14.3076C8.11913 14.855 7.52044 15.0271 6.80531 14.824C6.52011 14.7102 6.28061 14.538 6.08691 14.3076L6.08691 14.3076Z" id="Group" fill="#26AACF" fill-opacity="0.982" fill-rule="evenodd" stroke="none" />
    <path d="M16.6424 14.6216C15.8642 14.6516 15.0859 14.6815 14.3076 14.7114C14.3978 14.2694 14.6523 13.9626 15.0709 13.791C15.6786 13.6274 16.165 13.7995 16.5302 14.3073C16.5935 14.4039 16.631 14.5087 16.6424 14.6216L16.6424 14.6216Z" id="Group" fill="#27ABCF" fill-opacity="0.988" fill-rule="evenodd" stroke="none" />
    <path d="M16.6424 14.6221C16.7832 15.5216 16.4015 16.0305 15.4975 16.1487C14.6146 16.067 14.218 15.588 14.3076 14.7119C15.0859 14.6819 15.8642 14.652 16.6424 14.6221L16.6424 14.6221Z" id="Group" fill="#23A9D3" fill-opacity="0.988" fill-rule="evenodd" stroke="none" />
    <path d="M0.291992 14.3076C1.45939 14.3076 2.62679 14.3076 3.79419 14.3076C3.70404 14.387 3.60676 14.4618 3.50234 14.5321C3.45932 14.6084 3.43687 14.6907 3.43499 14.7791C3.49438 15.0099 3.58418 15.2269 3.70439 15.4301C2.69442 15.4749 1.67669 15.4899 0.651192 15.475C0.522132 15.0879 0.402399 14.6988 0.291992 14.3076L0.291992 14.3076Z" id="Group" fill="#24AAD1" fill-opacity="0.991" fill-rule="evenodd" stroke="none" />
    <path d="M10.9385 14.3525C11.5741 14.3078 12.2177 14.2929 12.8692 14.3076C12.8969 14.3126 12.9193 14.3276 12.9365 14.3525C12.959 14.7114 12.9664 15.0706 12.959 15.4301C12.289 15.4743 11.6155 15.4892 10.9385 15.475C11.0758 15.2527 11.1956 15.0207 11.2977 14.7791C11.2507 14.575 11.1309 14.4328 10.9385 14.3525L10.9385 14.3525Z" id="Group" fill="#24AAD1" fill-opacity="0.985" fill-rule="evenodd" stroke="none" />
    <path d="M17.9912 14.667C19.5029 14.667 21.0145 14.667 22.5261 14.667C22.4696 14.9413 22.3948 15.2107 22.3016 15.4752C20.8548 15.5043 19.418 15.4743 17.9912 15.3854C17.9912 15.1459 17.9912 14.9064 17.9912 14.667L17.9912 14.667Z" id="Group" fill="#23AAD2" fill-opacity="0.996" fill-rule="evenodd" stroke="none" />
    <path d="M3.70457 15.4307C3.81776 15.6037 3.9375 15.7759 4.06377 15.947C4.14662 15.9977 4.23642 16.0201 4.33317 16.0144C3.20343 16.0592 2.06596 16.0741 0.920767 16.0593C0.820241 15.873 0.730441 15.6784 0.651367 15.4756C1.67686 15.4904 2.69459 15.4754 3.70457 15.4307L3.70457 15.4307Z" id="Group" fill="#20A9D6" fill-opacity="0.993" fill-rule="evenodd" stroke="none" />
    <path d="M17.9912 15.3857C19.418 15.4747 20.8548 15.5046 22.3016 15.4755C22.2225 15.6784 22.1327 15.873 22.0322 16.0592C20.8914 16.0737 19.7539 16.0588 18.6198 16.0143C18.4911 15.8787 18.3414 15.7664 18.1708 15.6776C18.062 15.6071 18.0022 15.5098 17.9912 15.3857L17.9912 15.3857Z" id="Group" fill="#20A9D5" fill-opacity="0.994" fill-rule="evenodd" stroke="none" />
    <path d="M6.4436 16.8227C6.40166 16.7748 6.38667 16.7149 6.3987 16.6431C4.66192 16.6134 2.94075 16.6434 1.2352 16.7329C1.09527 16.5277 0.990502 16.3032 0.920898 16.0594C2.0661 16.0743 3.20356 16.0593 4.3333 16.0145C4.53939 15.9414 4.73394 15.8441 4.917 15.7227C5.0517 15.6927 5.1864 15.6927 5.3211 15.7227C5.61492 15.937 5.92922 16.1166 6.264 16.2615C6.4229 16.4135 6.48275 16.6006 6.4436 16.8227L6.4436 16.8227Z" id="Group" fill="#1EA8D8" fill-opacity="0.995" fill-rule="evenodd" stroke="none" />
    <path d="M12.9577 15.4307C12.9464 15.5056 12.9164 15.573 12.8679 15.6327C12.682 15.744 12.5099 15.8713 12.3515 16.0144C12.3216 16.0892 12.3216 16.164 12.3515 16.2389C12.4201 16.3759 12.4874 16.5106 12.5536 16.643C11.1317 16.643 9.70991 16.643 8.28807 16.643C8.3001 16.7148 8.2851 16.7746 8.24317 16.8226C8.22009 16.6316 8.26499 16.4595 8.37787 16.3062C8.73527 16.1575 9.06457 15.963 9.36567 15.7225C9.50037 15.6926 9.63507 15.6926 9.76977 15.7225C9.9627 15.8564 10.1722 15.9537 10.3984 16.0144C10.4791 16.0109 10.554 15.9885 10.6229 15.947C10.7552 15.8074 10.86 15.6502 10.9372 15.4756C11.6142 15.4898 12.2877 15.4748 12.9577 15.4307L12.9577 15.4307Z" id="Group" fill="#1EA8D8" fill-opacity="0.991" fill-rule="evenodd" stroke="none" />
    <path d="M18.62 16.0146C19.7541 16.0591 20.8916 16.0741 22.0324 16.0595C21.9628 16.3034 21.858 16.5279 21.7181 16.733C20.6265 16.6437 19.519 16.6137 18.3955 16.6432C18.5462 16.4614 18.6211 16.2519 18.62 16.0146L18.62 16.0146Z" id="Group" fill="#1EA8D9" fill-opacity="0.993" fill-rule="evenodd" stroke="none" />
    <path d="M6.44375 16.8232C6.41569 17.0959 6.50549 17.313 6.71315 17.4742C6.77121 17.4962 6.8311 17.5037 6.89275 17.4967C5.1716 17.5266 3.45042 17.5565 1.72925 17.5865C1.53075 17.3245 1.36612 17.0401 1.23535 16.7334C2.9409 16.6438 4.66208 16.6139 6.39885 16.6436C6.38682 16.7154 6.40182 16.7752 6.44375 16.8232L6.44375 16.8232Z" id="Group" fill="#1AA7DC" fill-opacity="0.994" fill-rule="evenodd" stroke="none" />
    <path d="M12.5534 16.6436C12.6509 16.8303 12.7856 16.9875 12.9575 17.115C13.0496 17.1296 13.1394 17.1146 13.2269 17.0701C13.4074 16.9048 13.6169 16.845 13.8555 16.8905C14.0982 17.0581 14.3526 17.2077 14.6188 17.3395C14.6731 17.3862 14.718 17.4386 14.7535 17.4967C12.4442 17.5564 10.1394 17.5564 7.83887 17.4967C7.97882 17.4903 8.09107 17.4304 8.17562 17.3171C8.23116 17.1572 8.25361 16.9926 8.24297 16.8232C8.2849 16.7752 8.2999 16.7153 8.28787 16.6436C9.70971 16.6436 11.1315 16.6436 12.5534 16.6436L12.5534 16.6436Z" id="Group" fill="#1AA6DD" fill-opacity="0.989" fill-rule="evenodd" stroke="none" />
    <path d="M18.3944 16.6435C19.518 16.614 20.6255 16.644 21.717 16.7333C21.5457 17.1431 21.3212 17.5172 21.0435 17.8558C19.4348 17.811 17.8184 17.796 16.1943 17.8109C16.1814 17.6696 16.2038 17.5349 16.2617 17.4068C16.5498 17.2516 16.8267 17.0795 17.0923 16.8905C17.1971 16.8605 17.3019 16.8605 17.4066 16.8905C17.576 16.979 17.7481 17.0613 17.923 17.1374C18.027 17.118 18.1168 17.0731 18.1924 17.0027C18.252 16.8765 18.3194 16.7568 18.3944 16.6435L18.3944 16.6435Z" id="Group" fill="#1AA6DD" fill-opacity="0.987" fill-rule="evenodd" stroke="none" />
    <path d="M6.89299 17.4971C7.20729 17.4971 7.52159 17.4971 7.83589 17.4971C10.1364 17.5568 12.4412 17.5568 14.7505 17.4971C14.7505 17.6018 14.7505 17.7066 14.7505 17.8114C10.455 17.8114 6.15964 17.8114 1.86419 17.8114C1.80179 17.7486 1.75689 17.6737 1.72949 17.5869C3.45066 17.5569 5.17184 17.527 6.89299 17.4971L6.89299 17.4971Z" id="Group" fill="#17A5DF" fill-opacity="0.99" fill-rule="evenodd" stroke="none" />
    <path d="M1.86426 17.8115C6.15971 17.8115 10.4551 17.8115 14.7506 17.8115C14.7508 17.9701 14.7957 18.1123 14.8853 18.2381C15.0823 18.2878 15.2843 18.3102 15.4914 18.3054C15.949 18.4376 16.1809 18.2729 16.1874 17.8115C17.8114 17.7966 19.4278 17.8116 21.0366 17.8564C20.8187 18.254 20.5493 18.6132 20.2284 18.934C14.3958 18.8742 8.55876 18.8742 2.71736 18.934C2.3827 18.5992 2.09833 18.225 1.86426 17.8115L1.86426 17.8115Z" id="Group" fill="#15A5E3" fill-opacity="0.995" fill-rule="evenodd" stroke="none" />
    <path d="M20.2288 18.9345C20.1864 19.0517 20.1116 19.1415 20.0043 19.2039C14.3169 19.1441 8.62962 19.1441 2.94227 19.2039C2.83495 19.1415 2.76012 19.0517 2.71777 18.9345C8.55917 18.8747 14.3962 18.8747 20.2288 18.9345L20.2288 18.9345Z" id="Group" fill="#11A4E6" fill-opacity="0.998" fill-rule="evenodd" stroke="none" />
    <path d="M20.0044 19.2041C19.7499 19.4884 19.4805 19.7578 19.1962 20.0123C14.0476 20.0123 8.89913 20.0123 3.75058 20.0123C3.46622 19.7578 3.19682 19.4884 2.94238 19.2041C8.62973 19.1442 14.317 19.1442 20.0044 19.2041L20.0044 19.2041Z" id="Group" fill="#0FA3E9" fill-opacity="0.998" fill-rule="evenodd" stroke="none" />
    <path d="M3.75098 20.0127C8.89953 20.0127 14.048 20.0127 19.1966 20.0127C19.0955 20.1382 18.9758 20.2429 18.8374 20.327C13.9357 20.312 9.04163 20.327 4.15508 20.3719C4.01009 20.2623 3.87539 20.1425 3.75098 20.0127L3.75098 20.0127Z" id="Group" fill="#0CA2EC" fill-opacity="0.998" fill-rule="evenodd" stroke="none" />
    <path d="M18.8376 20.3271C18.316 20.7827 17.7472 21.1718 17.1314 21.4945C13.3598 21.4945 9.58817 21.4945 5.81657 21.4945C5.22362 21.1758 4.66987 20.8016 4.15527 20.372C9.04183 20.3272 13.9359 20.3122 18.8376 20.3271L18.8376 20.3271Z" id="Group" fill="#09A1F0" fill-opacity="0.996" fill-rule="evenodd" stroke="none" />
    <path d="M5.81738 21.4951C9.58898 21.4951 13.3606 21.4951 17.1322 21.4951C16.1571 22.0748 15.1094 22.4789 13.9892 22.7074C12.3129 22.6476 10.6366 22.6476 8.96038 22.7074C7.84017 22.4789 6.79248 22.0748 5.81738 21.4951L5.81738 21.4951Z" id="Group" fill="#049FF6" fill-opacity="0.991" fill-rule="evenodd" stroke="none" />
    <path d="M13.9907 22.708C13.5023 22.8307 13.0084 22.9205 12.509 22.9774C11.8206 22.9774 11.1321 22.9774 10.4436 22.9774C9.94419 22.9205 9.45029 22.8307 8.96191 22.708C10.6382 22.6481 12.3145 22.6481 13.9907 22.708L13.9907 22.708Z" id="Group" fill="#019EFA" fill-opacity="0.946" fill-rule="evenodd" stroke="none" />
  </g>
</svg>