<?xml version="1.0" encoding="utf-8"?>
<svg width="23px" height="23px" viewBox="0 0 23 23" version="1.1" xmlns:xlink="http://www.w3.org/1999/xlink" xmlns="http://www.w3.org/2000/svg">
  <defs>
    <path d="M23 0L23 0L23 23L0 23L0 0L23 0Z" id="path_1" />
    <clipPath id="clip_1">
      <use xlink:href="#path_1" clip-rule="evenodd" fill-rule="evenodd" />
    </clipPath>
  </defs>
  <g id="signoutout" clip-path="url(#clip_1)">
    <path d="M23 0L23 0L23 23L0 23L0 0L23 0Z" id="signoutout" fill="none" stroke="none" />
    <path d="M10.4392 -0.0224609C11.1277 -0.0224609 11.8162 -0.0224609 12.5046 -0.0224609C16.5297 0.466406 19.5604 2.45698 21.5969 5.94924C22.3465 7.36229 22.8029 8.85894 22.9663 10.4392C22.9663 10.7236 22.9663 11.008 22.9663 11.2923C20.7513 9.09224 18.5362 6.89214 16.3211 4.69204C16.1853 4.47449 15.9908 4.3323 15.7374 4.26549C12.4448 4.23555 9.15209 4.23555 5.85944 4.26549C5.58254 4.36277 5.39549 4.54984 5.29819 4.82674C5.26824 9.24189 5.26824 13.6571 5.29819 18.0722C5.37133 18.2945 5.49853 18.4741 5.67984 18.611C7.08669 20.0329 8.49359 21.4547 9.90044 22.8765C6.35006 22.3184 3.60369 20.5374 1.66129 17.5334C0.726399 15.9785 0.165149 14.3022 -0.0224609 12.5046C-0.0224609 11.8162 -0.0224609 11.1277 -0.0224609 10.4392C0.466388 6.41427 2.45695 3.38353 5.94924 1.34699C7.36229 0.597397 8.85894 0.140912 10.4392 -0.0224609L10.4392 -0.0224609Z" id="Group" fill="#FE405C" fill-opacity="0.995" fill-rule="evenodd" stroke="none" />
    <path d="M16.3237 4.69412C16.3524 5.28393 16.3674 5.87512 16.3686 6.46767C16.3749 7.06183 16.3524 7.65303 16.3013 8.24122C16.0767 8.63378 15.74 8.77598 15.291 8.66777C14.983 8.53222 14.8034 8.30022 14.7522 7.97182C14.7522 7.26837 14.7522 6.56497 14.7522 5.86152C12.1404 5.84661 9.53623 5.86156 6.93962 5.90642C6.93962 9.61817 6.93962 13.3299 6.93962 17.0416C9.53623 17.0865 12.1404 17.1014 14.7522 17.0865C14.7522 16.3681 14.7522 15.6497 14.7522 14.9313C14.9043 14.3834 15.2635 14.1664 15.8298 14.2803C16.0768 14.3776 16.2489 14.5497 16.3462 14.7966C16.3761 15.8892 16.3761 16.9818 16.3462 18.0743C16.2879 18.3423 16.1307 18.5294 15.8747 18.6356C14.1861 18.6876 12.4949 18.71 10.801 18.7029C9.15468 18.6954 7.50837 18.688 5.86202 18.6805C5.80612 18.645 5.74627 18.6225 5.68242 18.6131C5.50112 18.4762 5.37392 18.2966 5.30077 18.0743C5.27083 13.6592 5.27083 9.24397 5.30077 4.82882C5.39807 4.55192 5.58513 4.36485 5.86202 4.26757C9.15468 4.23763 12.4474 4.23763 15.74 4.26757C15.9933 4.33438 16.1879 4.47657 16.3237 4.69412L16.3237 4.69412Z" id="Group" fill="#FEFEFE" fill-rule="evenodd" stroke="none" />
    <path d="M16.3239 4.69434C18.539 6.89444 20.7541 9.09454 22.9691 11.2946C22.9691 11.6987 22.9691 12.1028 22.9691 12.5069C22.4802 16.532 20.4897 19.5627 16.9974 21.5992C15.5844 22.3488 14.0877 22.8052 12.5074 22.9686C11.819 22.9686 11.1305 22.9686 10.442 22.9686C10.2698 22.9292 10.0902 22.8993 9.90322 22.8788C8.49637 21.457 7.08947 20.0352 5.68262 18.6133C5.74646 18.6227 5.80632 18.6452 5.86222 18.6807C7.50857 18.6882 9.15487 18.6956 10.8012 18.7031C12.4951 18.7102 14.1863 18.6878 15.8749 18.6358C16.1309 18.5296 16.2881 18.3425 16.3464 18.0745C16.3763 16.982 16.3763 15.8894 16.3464 14.7968C16.2491 14.5499 16.077 14.3778 15.83 14.2805C15.2636 14.1667 14.9044 14.3837 14.7524 14.9315C14.7077 15.6271 14.6927 16.3305 14.7075 17.0418C12.1183 17.0418 9.52907 17.0418 6.93982 17.0418C6.93982 13.3301 6.93982 9.61838 6.93982 5.90664C9.52907 5.90664 12.1183 5.90664 14.7075 5.90664C14.6927 6.60299 14.7077 7.29144 14.7524 7.97204C14.8036 8.30043 14.9832 8.53243 15.2912 8.66799C15.7402 8.77619 16.0769 8.634 16.3015 8.24144C16.3526 7.65325 16.3751 7.06205 16.3688 6.46789C16.3676 5.87534 16.3526 5.28414 16.3239 4.69434L16.3239 4.69434Z" id="Group" fill="#D01373" fill-rule="evenodd" stroke="none" />
    <path d="M6.94043 5.9072C9.53704 5.86235 12.1412 5.84739 14.753 5.8623C14.753 6.56575 14.753 7.26915 14.753 7.9726C14.7083 7.29201 14.6933 6.60356 14.7081 5.9072C12.1189 5.9072 9.52968 5.9072 6.94043 5.9072L6.94043 5.9072Z" id="Group" fill="#E16BA7" fill-rule="evenodd" stroke="none" />
    <path d="M16.8651 12.3743C16.9005 12.3615 16.9304 12.3391 16.9549 12.3069C15.0392 12.2845 13.1235 12.277 11.2077 12.2845C10.7539 12.1972 10.5144 11.9203 10.4893 11.4538C10.5334 11.0131 10.7728 10.7512 11.2077 10.6681C13.1235 10.6756 15.0392 10.6681 16.9549 10.6456C16.9304 10.6134 16.9005 10.591 16.8651 10.5783C16.6685 10.3892 16.4964 10.1796 16.3487 9.94965C16.1789 9.44363 16.336 9.07693 16.8202 8.8496C17.07 8.80425 17.3095 8.8342 17.5386 8.9394C18.2345 9.63535 18.9305 10.3313 19.6264 11.0273C19.7735 11.3253 19.7735 11.6247 19.6264 11.9253C18.9305 12.6212 18.2345 13.3172 17.5386 14.0131C16.8228 14.284 16.4037 14.0445 16.2814 13.2947C16.2843 13.1784 16.3067 13.0661 16.3487 12.958C16.5135 12.7558 16.6856 12.5613 16.8651 12.3743L16.8651 12.3743Z" id="Group" fill="#FEFEFE" fill-rule="evenodd" stroke="none" />
    <path d="M16.8654 10.5791C16.9008 10.5918 16.9308 10.6143 16.9552 10.6465C15.0395 10.6689 13.1238 10.6764 11.208 10.6689C13.0938 10.639 14.9796 10.609 16.8654 10.5791L16.8654 10.5791Z" id="Group" fill="#DD5198" fill-rule="evenodd" stroke="none" />
    <path d="M11.208 12.2861C13.1238 12.2786 15.0395 12.2861 16.9552 12.3086C16.9308 12.3408 16.9008 12.3632 16.8654 12.3759C14.9796 12.346 13.0938 12.3161 11.208 12.2861L11.208 12.2861Z" id="Group" fill="#DD5198" fill-rule="evenodd" stroke="none" />
    <path d="M14.753 14.9365C14.753 15.6549 14.753 16.3733 14.753 17.0917C12.1412 17.1066 9.53704 17.0917 6.94043 17.0468C9.52968 17.0468 12.1189 17.0468 14.7081 17.0468C14.6933 16.3355 14.7083 15.6321 14.753 14.9365L14.753 14.9365Z" id="Group" fill="#E16BA7" fill-rule="evenodd" stroke="none" />
  </g>
</svg>