<?xml version="1.0" encoding="utf-8"?>
<svg width="23px" height="23px" viewBox="0 0 23 23" version="1.1" xmlns:xlink="http://www.w3.org/1999/xlink" xmlns="http://www.w3.org/2000/svg">
  <defs>
    <path d="M23 0L23 0L23 23L0 23L0 0L23 0Z" id="path_1" />
    <clipPath id="clip_1">
      <use xlink:href="#path_1" clip-rule="evenodd" fill-rule="evenodd" />
    </clipPath>
  </defs>
  <g id="sms" clip-path="url(#clip_1)">
    <path d="M23 0L23 0L23 23L0 23L0 0L23 0Z" id="sms" fill="none" stroke="none" />
    <path d="M13.3158 12.2804C13.1066 12.2504 12.8971 12.243 12.6872 12.2579C12.6044 12.3041 12.5295 12.3565 12.4627 12.4151C12.4182 12.4073 12.3883 12.4223 12.3729 12.46C10.7727 13.4697 9.17134 14.48 7.56864 15.4907C7.20176 15.6616 7.02961 15.5493 7.05229 15.154C7.67698 13.7474 8.28313 12.3331 8.87074 10.9109C8.85911 10.8543 8.82916 10.8094 8.78094 10.7762C7.15843 9.76941 6.27538 8.31016 6.13184 6.39845C6.17898 5.26872 6.55313 4.26596 7.25434 3.39015C7.46263 3.16682 7.67213 2.94232 7.88294 2.71665C8.00381 2.61058 8.12356 2.50582 8.24214 2.40235C8.61992 2.11397 9.00907 1.84457 9.40954 1.59415C11.738 0.436896 14.1776 0.130079 16.7282 0.673701C18.5348 1.06059 20.0689 1.92117 21.3305 3.25545C22.7113 4.9775 22.8909 6.8184 21.8693 8.77815C20.9218 10.1845 19.6421 11.1648 18.0303 11.7191C16.4985 12.2417 14.927 12.4288 13.3158 12.2804L13.3158 12.2804Z" id="Group" fill="#EC7161" fill-opacity="0.998" fill-rule="evenodd" stroke="none" />
    <path d="M9.40676 1.59473C9.00629 1.84515 8.61715 2.11455 8.23936 2.40293C7.33404 2.35072 6.42109 2.34324 5.50046 2.38048C5.38071 2.48524 5.38071 2.59001 5.50046 2.69478C6.29357 2.71722 7.08678 2.72471 7.88016 2.71723C7.66935 2.9429 7.45985 3.1674 7.25156 3.39073C5.29091 3.39073 3.33029 3.39073 1.36966 3.39073C1.36966 8.79368 1.36966 14.1967 1.36966 19.5996C5.05146 19.5996 8.73326 19.5996 12.4151 19.5996C12.4599 17.2126 12.4749 14.8179 12.46 12.4156C12.5267 12.3571 12.6016 12.3047 12.6845 12.2585C12.8943 12.2435 13.1038 12.251 13.3131 12.2809C13.3206 15.4389 13.3131 18.5969 13.2906 21.7548C13.1784 22.1365 12.9314 22.3834 12.5498 22.4957C8.76321 22.5256 4.97661 22.5256 1.19006 22.4957C0.874895 22.3901 0.642911 22.1881 0.494107 21.8895C0.441928 18.6293 0.419478 15.3666 0.426757 12.1013C0.434241 8.88348 0.441724 5.66567 0.449207 2.44783C0.585448 1.98233 0.892263 1.70545 1.36966 1.61718C4.04865 1.59473 6.72766 1.58724 9.40676 1.59473L9.40676 1.59473Z" id="Group" fill="#676767" fill-opacity="0.989" fill-rule="evenodd" stroke="none" />
    <path d="M8.24179 2.4033C8.12321 2.50677 8.00346 2.61153 7.88259 2.7176C7.08921 2.72508 6.296 2.71759 5.50289 2.69515C5.38314 2.59038 5.38314 2.48561 5.50289 2.38085C6.42352 2.34362 7.33647 2.3511 8.24179 2.4033L8.24179 2.4033Z" id="Group" fill="#535252" fill-rule="evenodd" stroke="none" />
    <path d="M7.25202 3.3916C6.55081 4.26741 6.17666 5.27017 6.12952 6.3999C6.27306 8.31161 7.15611 9.77086 8.77862 10.7777C8.82684 10.8108 8.85679 10.8557 8.86842 10.9124C8.28081 12.3345 7.67466 13.7489 7.04997 15.1554C7.02729 15.5508 7.19944 15.663 7.56632 15.4922C9.16902 14.4814 10.7704 13.4712 12.3706 12.4614C12.4155 14.8335 12.4304 17.2132 12.4155 19.6005C8.73372 19.6005 5.05192 19.6005 1.37012 19.6005C1.37012 14.1975 1.37012 8.79455 1.37012 3.3916C3.33075 3.3916 5.29137 3.3916 7.25202 3.3916L7.25202 3.3916Z" id="Group" fill="#98CFF0" fill-rule="evenodd" stroke="none" />
    <path d="M9.50043 4.4248C9.95567 4.40087 10.3897 4.48319 10.8025 4.67175C10.9474 4.72141 11.0671 4.80371 11.1617 4.9187C11.0717 5.09889 10.9594 5.26354 10.825 5.4126C10.462 5.07015 10.0355 4.9429 9.54533 5.03095C9.15605 5.20939 9.0812 5.47879 9.32083 5.83915C9.4311 5.91598 9.55085 5.97583 9.68003 6.01875C10.0659 6.10393 10.44 6.22368 10.8025 6.37795C11.382 6.80747 11.4943 7.33877 11.1393 7.9719C10.954 8.2255 10.707 8.38265 10.3984 8.44335C9.61735 8.57944 8.94385 8.3774 8.37793 7.8372C8.497 7.65841 8.6317 7.49376 8.78203 7.3433C9.26084 7.80999 9.81464 7.9372 10.4433 7.72495C10.6801 7.46727 10.6801 7.21287 10.4433 6.96165C9.99918 6.79822 9.55018 6.64857 9.09633 6.51265C8.56108 6.2098 8.37398 5.7533 8.53508 5.1432C8.73861 4.74575 9.06041 4.5063 9.50043 4.4248L9.50043 4.4248Z" id="Group" fill="#FEFCFB" fill-rule="evenodd" stroke="none" />
    <path d="M18.4848 4.4248C19.0995 4.4024 19.6532 4.56705 20.1461 4.9187C20.0338 5.08335 19.9216 5.24795 19.8093 5.4126C19.412 5.07936 18.9555 4.95215 18.4399 5.03095C18.1458 5.15573 18.0485 5.37273 18.148 5.682C18.1833 5.76219 18.2356 5.82954 18.3052 5.88405C18.6702 6.03191 19.0444 6.15166 19.4277 6.24325C20.202 6.5611 20.434 7.10735 20.1236 7.8821C19.9371 8.17377 19.6752 8.36083 19.3379 8.44335C18.5437 8.58914 17.8552 8.38709 17.2725 7.8372C17.4147 7.67255 17.5568 7.50795 17.699 7.3433C18.1084 7.73878 18.5948 7.89593 19.1583 7.81475C19.4938 7.72163 19.621 7.50458 19.5399 7.1637C19.4895 7.06834 19.4222 6.98603 19.3379 6.91675C18.8832 6.786 18.4342 6.63635 17.9909 6.46775C17.5449 6.19638 17.3728 5.79978 17.4745 5.2779C17.5466 4.95152 17.7337 4.71957 18.0358 4.58195C18.192 4.53243 18.3417 4.48007 18.4848 4.4248L18.4848 4.4248Z" id="Group" fill="#FEFBFB" fill-rule="evenodd" stroke="none" />
    <path d="M13.1841 4.51462C12.8548 4.51462 12.5255 4.51462 12.1963 4.51462C12.1963 5.78677 12.1963 7.05897 12.1963 8.33112C12.4058 8.33112 12.6153 8.33112 12.8249 8.33112C12.8174 7.32824 12.8249 6.32548 12.8473 5.32282C12.8795 5.34725 12.902 5.3772 12.9147 5.41262C12.8699 6.39265 12.8549 7.38045 12.8698 8.37602C12.6303 8.37602 12.3908 8.37602 12.1514 8.37602C12.1514 7.07392 12.1514 5.77182 12.1514 4.46972C12.5039 4.45511 12.8481 4.47008 13.1841 4.51462L13.1841 4.51462Z" id="Group" fill="#F9CBC5" fill-rule="evenodd" stroke="none" />
    <path d="M13.1841 4.51465C13.5636 5.30377 13.9453 6.09701 14.329 6.89435C14.7128 6.09701 15.0944 5.30377 15.474 4.51465C15.8182 4.51465 16.1624 4.51465 16.5067 4.51465C16.5067 5.7868 16.5067 7.059 16.5067 8.33115C16.3121 8.33115 16.1175 8.33115 15.923 8.33115C15.9305 7.32826 15.923 6.32551 15.9005 5.32285C15.8683 5.34727 15.8459 5.37722 15.8332 5.41265C15.4147 6.24958 14.9957 7.08773 14.576 7.92705C14.4413 7.9869 14.3066 7.9869 14.1719 7.92705C13.7522 7.08773 13.3332 6.24958 12.9147 5.41265C12.902 5.37722 12.8795 5.34727 12.8473 5.32285C12.8249 6.32551 12.8174 7.32826 12.8249 8.33115C12.6153 8.33115 12.4058 8.33115 12.1963 8.33115C12.1963 7.059 12.1963 5.7868 12.1963 4.51465C12.5255 4.51465 12.8548 4.51465 13.1841 4.51465L13.1841 4.51465Z" id="Group" fill="#FEFEFE" fill-rule="evenodd" stroke="none" />
    <path d="M15.4756 4.51462C15.8265 4.47006 16.1857 4.4551 16.5532 4.46972C16.5532 5.77182 16.5532 7.07392 16.5532 8.37602C16.3287 8.37602 16.1042 8.37602 15.8797 8.37602C15.8945 7.38045 15.8796 6.39265 15.8348 5.41262C15.8475 5.3772 15.8699 5.34725 15.9021 5.32282C15.9246 6.32548 15.9321 7.32824 15.9246 8.33112C16.1191 8.33112 16.3137 8.33112 16.5083 8.33112C16.5083 7.05897 16.5083 5.78677 16.5083 4.51462C16.164 4.51462 15.8198 4.51462 15.4756 4.51462L15.4756 4.51462Z" id="Group" fill="#F8CBC5" fill-rule="evenodd" stroke="none" />
    <path d="M12.376 12.4658C12.3913 12.4282 12.4212 12.4132 12.4658 12.4209C12.4807 14.8232 12.4657 17.2178 12.4209 19.6049C12.4358 17.2176 12.4208 14.8379 12.376 12.4658L12.376 12.4658Z" id="Group" fill="#809BAC" fill-rule="evenodd" stroke="none" />
    <path d="M6.58075 20.1475C7.4924 20.0935 7.87405 20.5126 7.7257 21.4047C7.41769 21.9512 6.97619 22.0933 6.40115 21.8312C5.95467 21.5136 5.84242 21.102 6.0644 20.5965C6.18985 20.3884 6.36195 20.2388 6.58075 20.1475L6.58075 20.1475Z" id="Group" fill="#525252" fill-rule="evenodd" stroke="none" />
  </g>
</svg>