<?xml version="1.0" encoding="utf-8"?>
<svg width="23px" height="23px" viewBox="0 0 23 23" version="1.1" xmlns:xlink="http://www.w3.org/1999/xlink" xmlns="http://www.w3.org/2000/svg">
  <defs>
    <path d="M23 0L23 0L23 23L0 23L0 0L23 0Z" id="path_1" />
    <clipPath id="clip_1">
      <use xlink:href="#path_1" clip-rule="evenodd" fill-rule="evenodd" />
    </clipPath>
  </defs>
  <g id="token" clip-path="url(#clip_1)">
    <path d="M23 0L23 0L23 23L0 23L0 0L23 0Z" id="token" fill="none" stroke="none" />
    <path d="M10.4392 -0.0224609C11.1277 -0.0224609 11.8162 -0.0224609 12.5046 -0.0224609C16.5297 0.466406 19.5604 2.45698 21.5969 5.94924C22.3465 7.36229 22.8029 8.85894 22.9663 10.4392C22.9663 11.1277 22.9663 11.8162 22.9663 12.5046C22.4775 16.5297 20.4869 19.5604 16.9946 21.5969C15.5816 22.3465 14.0849 22.8029 12.5046 22.9663C11.8162 22.9663 11.1277 22.9663 10.4392 22.9663C6.41422 22.4775 3.38348 20.4869 1.34699 16.9946C0.597397 15.5816 0.140912 14.0849 -0.0224609 12.5046C-0.0224609 11.8162 -0.0224609 11.1277 -0.0224609 10.4392C0.466388 6.41427 2.45695 3.38353 5.94924 1.34699C7.36229 0.597397 8.85894 0.140912 10.4392 -0.0224609L10.4392 -0.0224609Z" id="Group" fill="#FFAC00" fill-opacity="0.979" fill-rule="evenodd" stroke="none" />
    <path d="M10.5744 0.965814C14.251 0.803178 17.2818 2.10528 19.6667 4.87211C22.1655 8.20473 22.6444 11.8117 21.1035 15.693C19.5511 19.0261 16.9694 21.069 13.3582 21.8219C9.39589 22.4021 6.08078 21.2123 3.41287 18.2523C1.06313 15.274 0.404599 11.9515 1.43727 8.28451C2.6374 4.82443 4.9797 2.52705 8.46412 1.39236C9.1651 1.20578 9.86855 1.0636 10.5744 0.965814L10.5744 0.965814Z" id="Group" fill="#FCEA68" fill-rule="evenodd" stroke="none" />
    <path d="M10.5751 2.26855C14.3925 2.08554 17.3334 3.58221 19.3979 6.75855C20.9347 9.54208 21.0844 12.4007 19.8469 15.3344C18.3662 18.3099 15.979 20.0685 12.6854 20.6102C8.53978 20.951 5.41923 19.3421 3.32371 15.7834C2.00098 13.0934 1.92615 10.3695 3.09921 7.61165C4.66105 4.53645 7.153 2.75541 10.5751 2.26855L10.5751 2.26855Z" id="Group" fill="#FEAC00" fill-rule="evenodd" stroke="none" />
    <path d="M11.5651 4.02051C11.5651 5.84646 11.5651 7.67236 11.5651 9.49831C10.0546 10.1936 8.54303 10.8896 7.03021 11.5862C6.97382 11.6049 6.94387 11.6423 6.94041 11.6984C6.89224 11.6647 6.88474 11.6198 6.91796 11.5637C8.45691 9.03894 10.006 6.52454 11.5651 4.02051L11.5651 4.02051Z" id="Group" fill="#FED21A" fill-rule="evenodd" stroke="none" />
    <path d="M11.5674 4.02051C13.0716 6.51978 14.5533 9.03418 16.0125 11.5637C14.5254 10.8875 13.0437 10.1991 11.5674 9.49831C11.5674 7.67236 11.5674 5.84646 11.5674 4.02051L11.5674 4.02051Z" id="Group" fill="#FCEA68" fill-rule="evenodd" stroke="none" />
    <path d="M11.5651 9.50098C11.5643 11.1026 11.5493 12.704 11.5202 14.3053C9.99484 13.4378 8.46824 12.5697 6.94043 11.7011C6.94389 11.645 6.97384 11.6075 7.03023 11.5888C8.54305 10.8922 10.0546 10.1963 11.5651 9.50098L11.5651 9.50098Z" id="Group" fill="#FCEA68" fill-rule="evenodd" stroke="none" />
    <path d="M11.5674 9.50098C13.0437 10.2017 14.5254 10.8902 16.0125 11.5664C16.0368 11.5691 16.0518 11.584 16.0574 11.6113C14.5655 12.5442 13.0539 13.4422 11.5225 14.3053C11.5516 12.704 11.5665 11.1026 11.5674 9.50098L11.5674 9.50098Z" id="Group" fill="#FED21A" fill-rule="evenodd" stroke="none" />
    <path d="M11.4753 15.2497C11.4753 16.4769 11.4753 17.7042 11.4753 18.9315C9.9292 16.8057 8.3876 14.673 6.85059 12.5332C8.39991 13.4131 9.9415 14.3186 11.4753 15.2497L11.4753 15.2497Z" id="Group" fill="#FCEA68" fill-rule="evenodd" stroke="none" />
    <path d="M11.4775 18.9315C11.4775 17.7042 11.4775 16.4769 11.4775 15.2497C13.0113 14.3186 14.5529 13.4131 16.1022 12.5332C14.5652 14.673 13.0236 16.8057 11.4775 18.9315L11.4775 18.9315Z" id="Group" fill="#FFD119" fill-rule="evenodd" stroke="none" />
  </g>
</svg>