<?xml version="1.0" encoding="utf-8"?>
<svg width="23px" height="23px" viewBox="0 0 23 23" version="1.1" xmlns:xlink="http://www.w3.org/1999/xlink" xmlns="http://www.w3.org/2000/svg">
  <defs>
    <path d="M23 0L23 0L23 23L0 23L0 0L23 0Z" id="path_1" />
    <clipPath id="clip_1">
      <use xlink:href="#path_1" clip-rule="evenodd" fill-rule="evenodd" />
    </clipPath>
  </defs>
  <g id="user" clip-path="url(#clip_1)">
    <path d="M23 0L23 0L23 23L0 23L0 0L23 0Z" id="user" fill="none" stroke="none" />
    <path d="M10.4426 -0.0224609C11.131 -0.0224609 11.8195 -0.0224609 12.508 -0.0224609C13.7751 0.103501 14.9874 0.432768 16.1449 0.965339C13.0318 0.965339 9.91872 0.965339 6.80566 0.965339C7.96314 0.432768 9.17544 0.103501 10.4426 -0.0224609L10.4426 -0.0224609Z" id="Group" fill="#02BDFF" fill-opacity="0.974" fill-rule="evenodd" stroke="none" />
    <path d="M6.80496 0.96582C9.91802 0.96582 13.0311 0.96582 16.1442 0.96582C16.6642 1.15093 17.1432 1.40536 17.581 1.72912C13.51 1.72912 9.43911 1.72912 5.36816 1.72912C5.80594 1.40536 6.28489 1.15093 6.80496 0.96582L6.80496 0.96582Z" id="Group" fill="#05B9FF" fill-opacity="0.995" fill-rule="evenodd" stroke="none" />
    <path d="M5.36775 1.72949C9.4387 1.72949 13.5096 1.72949 17.5805 1.72949C17.8887 1.8909 18.173 2.08547 18.4336 2.31319C13.794 2.31319 9.1543 2.31319 4.51465 2.31319C4.77525 2.08547 5.05964 1.8909 5.36775 1.72949L5.36775 1.72949Z" id="Group" fill="#07B6FF" fill-opacity="0.996" fill-rule="evenodd" stroke="none" />
    <path d="M4.51408 2.31348C9.15373 2.31348 13.7934 2.31348 18.4331 2.31348C18.8746 2.59481 19.2638 2.93904 19.6005 3.34618C14.1825 3.34618 8.76463 3.34618 3.34668 3.34618C3.68338 2.93904 4.07252 2.59481 4.51408 2.31348L4.51408 2.31348Z" id="Group" fill="#0AB3FF" fill-opacity="0.997" fill-rule="evenodd" stroke="none" />
    <path d="M3.34646 3.34668C8.76441 3.34668 14.1823 3.34668 19.6003 3.34668C19.7799 3.49634 19.9445 3.66098 20.0942 3.84058C14.3544 3.85553 8.62217 3.84056 2.89746 3.79568C3.03216 3.63104 3.18183 3.48138 3.34646 3.34668L3.34646 3.34668Z" id="Group" fill="#0DAFFF" fill-opacity="0.997" fill-rule="evenodd" stroke="none" />
    <path d="M2.89694 3.7959C8.62164 3.84078 14.3539 3.85575 20.0936 3.8408C20.456 4.24826 20.7852 4.68231 21.0814 5.1429C18.7317 5.17285 16.3819 5.20275 14.0321 5.2327C13.1397 4.28913 12.0471 3.92244 10.7544 4.13265C10.0284 4.31588 9.41475 4.68254 8.91354 5.2327C6.55642 5.18784 4.19167 5.17289 1.81934 5.1878C2.14558 4.69709 2.50478 4.23313 2.89694 3.7959L2.89694 3.7959Z" id="Group" fill="#12ABFF" fill-opacity="0.998" fill-rule="evenodd" stroke="none" />
    <path d="M14.0346 5.23284C14.3523 5.6249 14.5917 6.05895 14.753 6.53494C14.8477 7.0115 14.8627 7.49045 14.7979 7.97174C14.753 8.15129 14.7081 8.33089 14.6632 8.51054C14.5486 8.80468 14.4139 9.08903 14.2591 9.36364C14.0346 9.60309 13.8101 9.84258 13.5856 10.082C13.1907 10.3768 12.7567 10.5863 12.2835 10.7106C12.1656 10.7372 12.0458 10.7522 11.9243 10.7555C11.885 10.7497 11.855 10.7646 11.8345 10.8004C11.9197 10.8438 12.0095 10.8588 12.1039 10.8453C13.2531 10.9639 14.2858 11.368 15.202 12.0576C15.4852 12.3109 15.7546 12.5803 16.0102 12.8658C12.987 12.9257 9.96368 12.9257 6.94043 12.8658C7.19609 12.5803 7.46549 12.3109 7.74863 12.0576C8.71151 11.3547 9.78911 10.9282 10.9814 10.778C10.8477 10.7467 10.713 10.7243 10.5773 10.7106C10.1437 10.5612 9.73963 10.3516 9.36503 10.082C9.13927 9.84137 8.91477 9.60192 8.69153 9.36364C8.5214 9.09814 8.3867 8.81379 8.28743 8.51054C8.24253 8.33089 8.19763 8.15129 8.15273 7.97174C8.08798 7.49045 8.10298 7.0115 8.19763 6.53494C8.35896 6.05895 8.59841 5.6249 8.91603 5.23284C9.41725 4.68268 10.0309 4.31601 10.7569 4.13279C12.0496 3.92258 13.1422 4.28927 14.0346 5.23284L14.0346 5.23284Z" id="Group" fill="#E9F5FF" fill-rule="evenodd" stroke="none" />
    <path d="M21.0874 5.14355C21.3871 5.56306 21.6415 6.01206 21.8507 6.49055C19.4783 6.47565 17.1136 6.4906 14.7565 6.53545C14.5952 6.05947 14.3557 5.62542 14.0381 5.23335C16.3878 5.20341 18.7376 5.1735 21.0874 5.14355L21.0874 5.14355Z" id="Group" fill="#16A5FF" fill-opacity="0.997" fill-rule="evenodd" stroke="none" />
    <path d="M1.81899 5.18847C4.19132 5.17357 6.55607 5.18852 8.91319 5.23337C8.59556 5.62544 8.35611 6.05949 8.19479 6.53547C5.83444 6.50534 3.4697 6.4754 1.10059 6.44567C1.31734 6.01198 1.55681 5.59293 1.81899 5.18847L1.81899 5.18847Z" id="Group" fill="#16A5FF" fill-opacity="0.998" fill-rule="evenodd" stroke="none" />
    <path d="M1.10032 6.44629C3.46944 6.47601 5.83418 6.50596 8.19452 6.53609C8.09987 7.01266 8.08488 7.49161 8.14962 7.97289C8.10903 7.94105 8.09408 7.89615 8.10472 7.83819C5.59032 7.83819 3.07592 7.83819 0.561523 7.83819C0.703583 7.35951 0.883183 6.89556 1.10032 6.44629L1.10032 6.44629Z" id="Group" fill="#1A9FFF" fill-opacity="0.998" fill-rule="evenodd" stroke="none" />
    <path d="M21.851 6.49121C22.0788 6.9174 22.2584 7.3664 22.3898 7.83821C19.8754 7.83821 17.361 7.83821 14.8466 7.83821C14.8573 7.89617 14.8423 7.94107 14.8017 7.97291C14.8665 7.49162 14.8515 7.01268 14.7568 6.53611C17.114 6.49125 19.4787 6.4763 21.851 6.49121L21.851 6.49121Z" id="Group" fill="#1A9FFF" fill-opacity="0.998" fill-rule="evenodd" stroke="none" />
    <path d="M0.561414 7.83887C3.07581 7.83887 5.59021 7.83887 8.10461 7.83887C8.09397 7.89683 8.10892 7.94173 8.14951 7.97357C8.19441 8.15312 8.23931 8.33272 8.28421 8.51237C5.63193 8.52714 2.98281 8.51219 0.336914 8.46747C0.398514 8.24966 0.473347 8.04011 0.561414 7.83887L0.561414 7.83887Z" id="Group" fill="#1E9BFF" fill-opacity="0.999" fill-rule="evenodd" stroke="none" />
    <path d="M22.3898 7.83887C22.4836 8.01851 22.5434 8.21311 22.5694 8.42257C19.9506 8.51219 17.3165 8.54214 14.667 8.51237C14.7119 8.33272 14.7568 8.15312 14.8017 7.97357C14.8423 7.94173 14.8572 7.89683 14.8466 7.83887C17.361 7.83887 19.8754 7.83887 22.3898 7.83887L22.3898 7.83887Z" id="Group" fill="#1E9BFF" fill-opacity="0.998" fill-rule="evenodd" stroke="none" />
    <path d="M22.5692 8.42285C22.6781 8.724 22.7529 9.0383 22.7937 9.36575C19.95 9.36575 17.1063 9.36575 14.2627 9.36575C14.4174 9.09114 14.5521 8.80679 14.6668 8.51265C17.3163 8.54242 19.9504 8.51247 22.5692 8.42285L22.5692 8.42285Z" id="Group" fill="#2197FF" fill-opacity="0.998" fill-rule="evenodd" stroke="none" />
    <path d="M0.336827 8.46777C2.98272 8.51249 5.63184 8.52744 8.28413 8.51267C8.3834 8.81593 8.5181 9.10028 8.68823 9.36577C5.84134 9.38055 2.99769 9.36559 0.157227 9.32087C0.209998 9.03495 0.269864 8.7506 0.336827 8.46777L0.336827 8.46777Z" id="Group" fill="#2197FF" fill-opacity="0.998" fill-rule="evenodd" stroke="none" />
    <path d="M0.157161 9.32129C2.99763 9.36601 5.84128 9.38096 8.68816 9.36619C8.9114 9.60447 9.1359 9.84393 9.36166 10.0846C6.25615 10.1294 3.1431 10.1444 0.0224609 10.1295C0.0590464 9.85838 0.103946 9.58898 0.157161 9.32129L0.157161 9.32129Z" id="Group" fill="#2493FF" fill-opacity="0.998" fill-rule="evenodd" stroke="none" />
    <path d="M14.2624 9.36621C17.106 9.36621 19.9497 9.36621 22.7934 9.36621C22.8456 9.60445 22.8905 9.84395 22.9281 10.0846C19.8106 10.1444 16.6976 10.1444 13.5889 10.0846C13.8134 9.84516 14.0379 9.60566 14.2624 9.36621L14.2624 9.36621Z" id="Group" fill="#2493FF" fill-opacity="0.999" fill-rule="evenodd" stroke="none" />
    <path d="M9.36164 10.085C9.73624 10.3545 10.1403 10.5641 10.5739 10.7136C7.04179 10.7136 3.50967 10.7136 -0.0224609 10.7136C-0.0224609 10.6238 -0.0224609 10.534 -0.0224609 10.4442C0.021012 10.3496 0.0359787 10.2448 0.0224391 10.1299C3.14308 10.1448 6.25613 10.1298 9.36164 10.085L9.36164 10.085Z" id="Group" fill="#2690FF" fill-opacity="0.999" fill-rule="evenodd" stroke="none" />
    <path d="M13.5882 10.085C16.6969 10.1447 19.81 10.1447 22.9274 10.085C22.9137 10.2145 22.9286 10.3342 22.9723 10.4442C22.9723 10.519 22.9723 10.5938 22.9723 10.6687C19.4134 10.7134 15.8514 10.7284 12.2861 10.7136C12.7593 10.5892 13.1933 10.3797 13.5882 10.085L13.5882 10.085Z" id="Group" fill="#2790FF" fill-opacity="0.999" fill-rule="evenodd" stroke="none" />
    <path d="M22.9722 10.6689C22.9722 11.1179 22.9722 11.5669 22.9722 12.0159C20.3753 12.001 17.7861 12.016 15.2045 12.0608C14.2883 11.3712 13.2556 10.9671 12.1064 10.8485C12.0465 10.8186 11.9866 10.7887 11.9268 10.7587C12.0483 10.7554 12.168 10.7404 12.286 10.7138C15.8512 10.7287 19.4132 10.7137 22.9722 10.6689L22.9722 10.6689Z" id="Group" fill="#2A8CFF" fill-opacity="0.999" fill-rule="evenodd" stroke="none" />
    <path d="M-0.0224609 10.7139C3.50967 10.7139 7.04179 10.7139 10.5739 10.7139C10.7096 10.7275 10.8443 10.75 10.978 10.7812C9.78572 10.9314 8.70812 11.358 7.74524 12.0609C5.16039 12.0011 2.57116 12.0011 -0.0224609 12.0609C-0.0224609 11.6119 -0.0224609 11.1629 -0.0224609 10.7139L-0.0224609 10.7139Z" id="Group" fill="#2A8CFF" fill-opacity="0.999" fill-rule="evenodd" stroke="none" />
    <path d="M11.9267 10.7588C11.9866 10.7887 12.0465 10.8186 12.1063 10.8486C12.0118 10.862 11.922 10.8471 11.8369 10.8037C11.8574 10.7679 11.8874 10.7529 11.9267 10.7588L11.9267 10.7588Z" id="Group" fill="#8EC4FF" fill-rule="evenodd" stroke="none" />
    <path d="M7.74524 12.0615C7.4621 12.3147 7.1927 12.5841 6.93704 12.8697C6.77046 13.0362 6.62081 13.2158 6.48804 13.4085C4.36716 13.3488 2.24189 13.3488 0.112239 13.4085C0.0741024 13.1022 0.0292022 12.8029 -0.0224609 12.5105C-0.0224609 12.3608 -0.0224609 12.2112 -0.0224609 12.0615C2.57116 12.0017 5.16039 12.0017 7.74524 12.0615L7.74524 12.0615Z" id="Group" fill="#2F86FF" fill-opacity="0.998" fill-rule="evenodd" stroke="none" />
    <path d="M22.9738 12.0166C22.9738 12.1812 22.9738 12.3458 22.9738 12.5105C22.9257 12.7889 22.8808 13.0732 22.8391 13.3636C20.7062 13.3487 18.5809 13.3636 16.4633 13.4085C16.3305 13.2158 16.1808 13.0362 16.0143 12.8697C15.7586 12.5841 15.4892 12.3147 15.2061 12.0615C17.7877 12.0166 20.3769 12.0017 22.9738 12.0166L22.9738 12.0166Z" id="Group" fill="#2F86FF" fill-opacity="0.998" fill-rule="evenodd" stroke="none" />
    <path d="M6.4881 13.4092C6.3301 13.6353 6.1954 13.8748 6.084 14.1276C5.94513 14.3487 5.84038 14.5882 5.7697 14.846C5.73976 14.846 5.72481 14.8609 5.72481 14.8909C3.97306 14.8612 2.23692 14.8911 0.516405 14.9807C0.333635 14.4742 0.198935 13.9504 0.112305 13.4092C2.24196 13.3495 4.36722 13.3495 6.4881 13.4092L6.4881 13.4092Z" id="Group" fill="#3480FF" fill-opacity="0.997" fill-rule="evenodd" stroke="none" />
    <path d="M22.8397 13.3643C22.7553 13.8965 22.6355 14.4203 22.4805 14.9358C20.7326 14.8911 18.9815 14.8762 17.2272 14.8909C17.2272 14.8609 17.2122 14.846 17.1823 14.846C17.1116 14.5881 17.0068 14.3487 16.868 14.1276C16.7566 13.8748 16.6219 13.6353 16.4639 13.4092C18.5815 13.3643 20.7068 13.3493 22.8397 13.3643L22.8397 13.3643Z" id="Group" fill="#3480FF" fill-opacity="0.997" fill-rule="evenodd" stroke="none" />
    <path d="M6.94001 12.8701C9.96327 12.93 12.9866 12.93 16.0098 12.8701C16.1764 13.0366 16.326 13.2162 16.4588 13.4089C16.6168 13.6351 16.7515 13.8745 16.8629 14.1273C15.0821 14.1872 13.2861 14.2171 11.4749 14.2171C9.66369 14.2171 7.86769 14.1872 6.08691 14.1273C6.19831 13.8745 6.33301 13.6351 6.49101 13.4089C6.62378 13.2162 6.77343 13.0366 6.94001 12.8701L6.94001 12.8701Z" id="Group" fill="#DEF1FF" fill-rule="evenodd" stroke="none" />
    <path d="M6.08676 14.1279C7.86754 14.1878 9.66354 14.2177 11.4748 14.2177C13.286 14.2177 15.082 14.1878 16.8628 14.1279C17.0016 14.3491 17.1064 14.5885 17.1771 14.8463C17.1771 14.8912 17.1771 14.9361 17.1771 14.981C13.3755 14.981 9.57401 14.981 5.77246 14.981C5.77246 14.9361 5.77246 14.8912 5.77246 14.8463C5.84313 14.5885 5.94789 14.3491 6.08676 14.1279L6.08676 14.1279Z" id="Group" fill="#D7EEFF" fill-rule="evenodd" stroke="none" />
    <path d="M5.77235 14.8467C5.77235 14.8916 5.77235 14.9365 5.77235 14.9814C9.5739 14.9814 13.3754 14.9814 17.177 14.9814C17.177 14.9365 17.177 14.8916 17.177 14.8467C17.2069 14.8467 17.2219 14.8616 17.2219 14.8916C17.3028 15.1407 17.3627 15.3952 17.4015 15.6549C17.4015 15.6998 17.4015 15.7447 17.4015 15.7896C13.4503 15.7896 9.49905 15.7896 5.54785 15.7896C5.54785 15.7447 5.54785 15.6998 5.54785 15.6549C5.5866 15.3952 5.64645 15.1407 5.72745 14.8916C5.72745 14.8616 5.7424 14.8467 5.77235 14.8467L5.77235 14.8467Z" id="Group" fill="#D1EBFF" fill-rule="evenodd" stroke="none" />
    <path d="M5.725 14.8916C5.644 15.1408 5.58415 15.3952 5.5454 15.6549C5.47855 15.8226 5.4486 16.0023 5.4556 16.1937C5.42565 16.1937 5.4107 16.2087 5.4107 16.2386C3.94068 16.224 2.47395 16.239 1.0105 16.2835C0.802601 15.8698 0.637971 15.4358 0.516602 14.9814C2.23712 14.8919 3.97325 14.8619 5.725 14.8916L5.725 14.8916Z" id="Group" fill="#3979FF" fill-opacity="0.996" fill-rule="evenodd" stroke="none" />
    <path d="M17.2275 14.8916C18.9819 14.8769 20.733 14.8919 22.4808 14.9365C22.3267 15.3994 22.1471 15.8484 21.942 16.2835C20.483 16.2387 19.0163 16.2237 17.5418 16.2386C17.5418 16.2086 17.5269 16.1937 17.4969 16.1937C17.5039 16.0022 17.474 15.8226 17.4071 15.6549C17.3684 15.3952 17.3085 15.1407 17.2275 14.8916L17.2275 14.8916Z" id="Group" fill="#3979FF" fill-opacity="0.997" fill-rule="evenodd" stroke="none" />
    <path d="M5.5478 15.6553C5.5478 15.7002 5.5478 15.7451 5.5478 15.79C9.499 15.79 13.4502 15.79 17.4014 15.79C17.4014 15.7451 17.4014 15.7002 17.4014 15.6553C17.4683 15.823 17.4982 16.0026 17.4912 16.1941C17.4912 16.3587 17.4912 16.5233 17.4912 16.688C13.4802 16.688 9.46906 16.688 5.458 16.688C5.458 16.5233 5.458 16.3587 5.458 16.1941C5.451 16.0026 5.48095 15.823 5.5478 15.6553L5.5478 15.6553Z" id="Group" fill="#CBE8FF" fill-rule="evenodd" stroke="none" />
    <path d="M5.45799 16.1943C5.45799 16.359 5.45799 16.5236 5.45799 16.6882C9.46904 16.6882 13.4801 16.6882 17.4912 16.6882C17.4912 16.5236 17.4912 16.359 17.4912 16.1943C17.5211 16.1943 17.5361 16.2093 17.5361 16.2392C17.5361 16.6733 17.5361 17.1073 17.5361 17.5413C13.4951 17.5413 9.45409 17.5413 5.41309 17.5413C5.41309 17.1073 5.41309 16.6733 5.41309 16.2392C5.41309 16.2093 5.42804 16.1943 5.45799 16.1943L5.45799 16.1943Z" id="Group" fill="#C4E5FF" fill-rule="evenodd" stroke="none" />
    <path d="M5.41094 16.2392C5.41094 16.6733 5.41094 17.1073 5.41094 17.5413C4.17596 17.5265 2.9487 17.5414 1.72914 17.5862C1.43287 17.1887 1.1934 16.7547 1.01074 16.2841C2.47419 16.2396 3.94092 16.2246 5.41094 16.2392L5.41094 16.2392Z" id="Group" fill="#3E73FF" fill-opacity="0.995" fill-rule="evenodd" stroke="none" />
    <path d="M17.542 16.2392C19.0164 16.2243 20.4831 16.2393 21.9422 16.2841C21.7595 16.7547 21.5201 17.1887 21.2238 17.5862C20.0042 17.5414 18.777 17.5265 17.542 17.5413C17.542 17.1073 17.542 16.6733 17.542 16.2392L17.542 16.2392Z" id="Group" fill="#3E73FF" fill-opacity="0.996" fill-rule="evenodd" stroke="none" />
    <path d="M5.41129 17.542C5.5032 17.9186 5.7277 18.188 6.08479 18.3502C6.30108 18.5406 6.52558 18.7202 6.75829 18.889C5.39634 18.889 4.03436 18.889 2.67239 18.889C2.30627 18.4929 1.99197 18.0588 1.72949 17.5869C2.94905 17.5421 4.17631 17.5271 5.41129 17.542L5.41129 17.542Z" id="Group" fill="#436DFF" fill-opacity="0.996" fill-rule="evenodd" stroke="none" />
    <path d="M5.41309 17.542C9.45409 17.542 13.4951 17.542 17.5361 17.542C17.5233 17.6925 17.471 17.8272 17.3789 17.9461C17.2124 18.0904 17.0403 18.2251 16.8626 18.3502C13.2706 18.3502 9.67859 18.3502 6.08659 18.3502C5.7295 18.188 5.505 17.9186 5.41309 17.542L5.41309 17.542Z" id="Group" fill="#BEE3FF" fill-rule="evenodd" stroke="none" />
    <path d="M17.5413 17.542C18.7763 17.5271 20.0036 17.5421 21.2231 17.5869C20.9456 18.074 20.6163 18.523 20.2353 18.9339C18.896 18.8891 17.549 18.8741 16.1943 18.889C16.4271 18.7202 16.6516 18.5406 16.8678 18.3502C17.0456 18.2251 17.2177 18.0904 17.3842 17.9461C17.4762 17.8272 17.5286 17.6925 17.5413 17.542L17.5413 17.542Z" id="Group" fill="#436DFF" fill-opacity="0.996" fill-rule="evenodd" stroke="none" />
    <path d="M6.08691 18.3506C9.67891 18.3506 13.2709 18.3506 16.8629 18.3506C16.6466 18.541 16.4221 18.7206 16.1894 18.8894C16.0098 18.9792 15.8302 19.069 15.6506 19.1588C12.8668 19.1588 10.083 19.1588 7.29921 19.1588C7.11961 19.069 6.94001 18.9792 6.76041 18.8894C6.5277 18.7206 6.3032 18.541 6.08691 18.3506L6.08691 18.3506Z" id="Group" fill="#B8E0FF" fill-rule="evenodd" stroke="none" />
    <path d="M2.67285 18.8896C4.03482 18.8896 5.3968 18.8896 6.75875 18.8896C6.93835 18.9794 7.11795 19.0692 7.29755 19.159C8.04702 19.6136 8.85522 19.9279 9.72215 20.1019C7.78413 20.1468 5.83844 20.1618 3.88515 20.1468C3.44961 19.7563 3.04551 19.3372 2.67285 18.8896L2.67285 18.8896Z" id="Group" fill="#4867FF" fill-opacity="0.995" fill-rule="evenodd" stroke="none" />
    <path d="M16.1929 18.8896C17.5476 18.8748 18.8946 18.8897 20.2339 18.9345C19.8762 19.3671 19.4871 19.7712 19.0665 20.1468C17.1132 20.1618 15.1675 20.1468 13.2295 20.1019C14.0906 19.91 14.8988 19.5957 15.6541 19.159C15.8337 19.0693 16.0133 18.9794 16.1929 18.8896L16.1929 18.8896Z" id="Group" fill="#4867FF" fill-opacity="0.996" fill-rule="evenodd" stroke="none" />
    <path d="M7.2998 19.1592C10.0836 19.1592 12.8674 19.1592 15.6512 19.1592C14.8959 19.5958 14.0877 19.9101 13.2266 20.1021C12.0575 20.3331 10.8901 20.3331 9.72441 20.1021C8.85748 19.928 8.04928 19.6137 7.2998 19.1592L7.2998 19.1592Z" id="Group" fill="#B1DDFF" fill-rule="evenodd" stroke="none" />
    <path d="M9.72274 20.1025C10.8884 20.3336 12.0558 20.3336 13.2249 20.1025C15.163 20.1474 17.1087 20.1623 19.0619 20.1474C18.9552 20.2542 18.8354 20.344 18.7027 20.4168C13.8909 20.4019 9.0866 20.4169 4.28984 20.4617C4.14121 20.3727 4.00651 20.268 3.88574 20.1474C5.83903 20.1623 7.78472 20.1474 9.72274 20.1025L9.72274 20.1025Z" id="Group" fill="#4B64FF" fill-opacity="0.998" fill-rule="evenodd" stroke="none" />
    <path d="M18.7029 20.417C18.0572 20.9868 17.3388 21.4507 16.5477 21.8089C13.1503 21.749 9.75289 21.749 6.35544 21.8089C5.60534 21.4467 4.91689 20.9977 4.29004 20.4619C9.0868 20.417 13.8911 20.402 18.7029 20.417L18.7029 20.417Z" id="Group" fill="#4D60FF" fill-opacity="0.995" fill-rule="evenodd" stroke="none" />
    <path d="M6.35645 21.8095C9.75389 21.7497 13.1513 21.7497 16.5487 21.8095C15.2723 22.4446 13.9253 22.8337 12.5077 22.9769C11.8193 22.9769 11.1308 22.9769 10.4423 22.9769C9.01641 22.8261 7.65441 22.4369 6.35645 21.8095L6.35645 21.8095Z" id="Group" fill="#525BFF" fill-opacity="0.978" fill-rule="evenodd" stroke="none" />
  </g>
</svg>