<svg version="1.1" id="Layer_1" xmlns="http://www.w3.org/2000/svg" xmlns:xlink="http://www.w3.org/1999/xlink" x="0px" y="0px"
	 width="100%" viewBox="0 0 512 512" enable-background="new 0 0 512 512" xml:space="preserve">
<path fill="#010101" opacity="1.000000" stroke="none" 
	d="
M384.295654,512.776611 
	C264.312439,513.000000 144.624878,513.000000 24.468658,513.000000 
	C9.397945,510.808380 1.274574,497.273926 1.303308,484.120972 
	C1.635204,332.194641 1.549192,180.267258 1.439952,28.340265 
	C1.432526,18.012915 5.717043,10.501204 13.841374,4.700393 
	C16.646660,2.697405 19.782841,1.769317 23.576893,1.225965 
	C116.687561,1.000000 209.375122,1.000000 302.531342,1.000000 
	C306.205109,2.152653 308.684052,4.278391 311.063629,6.662720 
	C340.827515,36.486122 370.577728,66.323761 400.479706,96.008362 
	C405.292175,100.785851 407.498993,105.883865 407.440369,112.802368 
	C407.156708,146.274506 407.356720,179.750534 407.256531,213.224777 
	C407.243927,217.441620 408.257996,220.835007 411.095947,224.110062 
	C428.209900,243.860245 439.054230,266.608185 442.375946,292.618164 
	C445.719330,318.797913 442.479675,344.101074 430.903717,368.064941 
	C427.174713,375.784485 427.126404,375.763184 433.350647,381.988159 
	C457.137177,405.777313 480.932373,429.557800 504.708038,453.357819 
	C508.627472,457.281311 512.330444,461.353760 512.771851,467.681885 
	C513.000000,475.354248 513.000000,482.708496 513.000000,490.531372 
	C508.952393,503.476196 499.564148,511.765320 488.293762,512.777161 
	C482.977905,513.000000 477.955811,513.000000 472.466858,513.000000 
	C463.916107,512.146301 458.065674,507.538574 452.580750,501.957367 
	C439.049652,488.188690 425.320251,474.614868 411.663300,460.969971 
	C410.499939,459.807648 409.423492,458.538391 407.380066,457.131836 
	C407.152924,466.250793 407.046997,474.825806 407.346954,483.372528 
	C407.634766,491.573029 404.685547,498.399750 399.470886,504.307861 
	C395.564850,508.733337 390.855652,512.164246 384.295654,512.776611 
z"/>
<path fill="#FFFFFF" opacity="1.000000" stroke="none" 
	d="
M513.000000,467.531342 
	C510.153900,461.163544 505.434845,455.788757 500.217957,450.619080 
	C476.319824,426.937134 452.632446,403.042511 428.742554,379.352142 
	C426.230011,376.860626 425.755096,375.060699 427.501923,371.859009 
	C440.235138,348.521179 444.305237,323.190735 441.758453,297.176636 
	C439.213196,271.178284 429.593506,247.531891 412.071411,227.662369 
	C407.639008,222.636246 405.721283,217.485077 405.809418,210.536987 
	C406.236145,176.896942 405.929596,143.248169 406.095001,109.603516 
	C406.115234,105.481956 404.888000,102.392197 402.094818,99.600975 
	C370.520172,68.048393 338.971741,36.469536 307.384613,4.929456 
	C306.137329,3.684044 304.573181,2.755995 303.078339,1.340036 
	C371.455719,1.000000 439.911621,1.054074 508.366852,0.871279 
	C512.664734,0.859803 513.097839,2.046540 513.095032,5.861103 
	C512.983643,159.594894 513.000000,313.328796 513.000000,467.531342 
z"/>
<path fill="#FFFFFF" opacity="1.000000" stroke="none" 
	d="
M384.468658,513.000000 
	C394.046906,508.688049 402.208435,502.621246 405.325317,491.354126 
	C405.780243,489.709564 405.959503,488.175629 405.968872,486.596954 
	C406.032104,475.951996 406.001862,465.306519 406.001862,454.597626 
	C407.735443,454.170166 408.211548,455.769043 409.005554,456.558868 
	C424.690155,472.160004 440.346954,487.789459 455.937317,503.484711 
	C460.397156,507.974518 465.624542,510.903259 471.884766,512.633301 
	C442.979095,513.000000 413.958221,513.000000 384.468658,513.000000 
z"/>
<path fill="#FFFFFF" opacity="1.000000" stroke="none" 
	d="
M23.531263,1.000000 
	C13.896936,5.280988 5.846929,11.468305 2.641194,22.681814 
	C2.065776,24.694597 2.037988,26.555969 2.037451,28.462446 
	C1.994639,180.403076 2.076658,332.343842 1.844786,484.284119 
	C1.826783,496.081116 11.632273,509.466736 23.891457,512.639282 
	C17.172031,513.000000 10.341476,512.894836 3.517629,513.062561 
	C1.406491,513.114441 0.545066,512.697693 0.980322,510.516083 
	C1.108144,509.875458 1.000000,509.187714 1.000000,508.521576 
	C1.000000,340.820007 1.017212,173.118393 0.894211,5.416909 
	C0.891330,1.489479 1.956052,0.708272 5.581038,0.912350 
	C11.391430,1.239461 17.233719,1.000000 23.531263,1.000000 
z"/>
<path fill="#FFFFFF" opacity="1.000000" stroke="none" 
	d="
M488.468689,513.000000 
	C495.355164,510.292328 502.135925,506.812683 507.171051,500.444122 
	C509.426544,497.591339 510.680084,494.325226 512.648926,491.097839 
	C513.000000,497.438873 512.842102,503.883575 513.080261,510.313629 
	C513.171448,512.777222 512.464294,513.113220 510.233704,513.061218 
	C503.138306,512.895691 496.036621,513.000000 488.468689,513.000000 
z"/>
<path fill="#FEFEFE" opacity="1.000000" stroke="none" 
	d="
M245.462082,422.586639 
	C287.898590,446.257629 330.503326,447.352417 373.510315,425.318420 
	C376.049927,424.017303 377.298340,424.411713 379.432220,426.176819 
	C384.589752,430.443054 386.481110,435.354462 386.154541,442.150696 
	C385.555328,454.621185 385.994659,467.141113 385.980286,479.640411 
	C385.968903,489.542694 382.594147,492.994141 372.852173,492.994812 
	C260.191711,493.002502 147.531235,493.003326 34.870758,492.993011 
	C25.635883,492.992157 22.010279,489.455872 22.009495,480.389038 
	C21.996588,331.397217 21.995785,182.405426 22.011835,33.413612 
	C22.012779,24.643774 25.704216,21.011753 34.568127,21.010008 
	C117.563568,20.993668 200.559052,21.032063 283.554291,20.899786 
	C287.412964,20.893637 288.121704,21.955914 288.088898,25.568541 
	C287.904175,45.899075 287.968475,66.232224 288.008636,86.564362 
	C288.047852,106.433586 300.591431,118.952354 320.499451,118.991440 
	C340.831573,119.031357 361.165039,119.113289 381.494995,118.899132 
	C385.283020,118.859222 386.103607,119.847069 386.077576,123.537941 
	C385.899048,148.868622 385.983887,174.201157 385.983887,199.533096 
	C385.983887,200.806656 385.983856,202.080231 385.983856,204.079346 
	C375.820740,197.451797 365.739929,192.187500 354.953674,188.305771 
	C298.729156,168.071945 233.004501,191.204102 201.950424,242.163147 
	C182.007767,274.888611 176.997559,309.746796 187.182739,346.665100 
	C188.348022,350.888947 187.231827,351.150146 183.572571,351.138916 
	C146.241638,351.024292 108.910217,351.068848 71.578934,351.068878 
	C70.578987,351.068878 69.578896,351.057953 68.579117,351.070984 
	C60.972706,351.170135 56.154232,355.097351 56.182919,361.168640 
	C56.211479,367.213348 60.993336,371.059326 68.669281,371.062744 
	C110.000328,371.081085 151.331573,371.120148 192.662109,370.971313 
	C195.785187,370.960083 197.339371,371.858795 198.802429,374.502563 
	C209.934097,394.617950 225.531464,410.463531 245.462082,422.586639 
z"/>
<path fill="#FCFCFC" opacity="1.000000" stroke="none" 
	d="
M305.266571,201.250336 
	C361.099060,198.842270 409.966736,236.542938 419.865295,289.270660 
	C430.908478,348.095886 395.737091,403.157410 337.710663,417.885559 
	C279.703003,432.608948 220.293625,396.278961 205.139542,336.815735 
	C190.317841,278.656616 226.822067,219.135696 286.570740,204.071426 
	C292.551117,202.563614 298.654724,201.781158 305.266571,201.250336 
z"/>
<path fill="#FE5D5D" opacity="1.000000" stroke="none" 
	d="
M460.323364,439.676636 
	C470.237030,449.588226 480.024597,459.129913 489.526276,468.948273 
	C497.548004,477.237305 494.105469,489.822357 483.249847,492.560272 
	C478.113434,493.855713 473.655731,492.266541 470.007416,488.626312 
	C445.234375,463.907898 420.532349,439.118225 395.719177,414.440247 
	C393.630737,412.363159 394.252319,411.356323 396.118439,409.815033 
	C401.395752,405.456451 406.317474,400.692535 410.579651,395.339111 
	C412.574921,392.833008 413.741516,392.978119 415.928711,395.194031 
	C430.561523,410.019257 445.341309,424.699402 460.323364,439.676636 
z"/>
<path fill="#FFB954" opacity="1.000000" stroke="none" 
	d="
M308.001923,79.962845 
	C308.001923,65.169868 308.001923,50.870857 308.001923,37.684658 
	C328.246216,57.931591 348.987488,78.675560 369.217010,98.907707 
	C352.867310,98.907707 335.135956,99.080429 317.411530,98.805534 
	C311.884033,98.719803 308.484039,94.633850 308.066956,88.938759 
	C307.860931,86.124947 308.012299,83.284958 308.001923,79.962845 
z"/>
<path fill="#030303" opacity="1.000000" stroke="none" 
	d="
M195.000076,73.853828 
	C215.826645,73.854225 236.153442,73.794701 256.479614,73.884254 
	C264.706818,73.920502 269.567291,79.777718 267.371521,86.661491 
	C266.280792,90.080933 264.072693,92.286041 260.532257,93.243073 
	C258.397583,93.820099 256.267883,93.871475 254.102432,93.871323 
	C192.789566,93.867149 131.476700,93.867882 70.163841,93.868080 
	C68.001694,93.868088 65.863220,93.887352 63.732952,93.258545 
	C59.143204,91.903748 55.940987,87.799828 56.194138,83.364716 
	C56.454643,78.800697 59.946930,74.821861 64.559937,74.108376 
	C66.520027,73.805206 68.545662,73.863655 70.541527,73.863068 
	C111.861038,73.850868 153.180557,73.853851 195.000076,73.853828 
z"/>
<path fill="#020202" opacity="1.000000" stroke="none" 
	d="
M136.000031,143.066406 
	C175.617020,143.066406 214.734024,143.064545 253.851013,143.072784 
	C255.512848,143.073135 257.201172,142.995804 258.831635,143.248459 
	C264.275452,144.092056 268.118835,148.456787 267.947662,153.421646 
	C267.765747,158.697006 263.562531,162.924194 257.752869,162.999832 
	C244.605148,163.171051 231.453827,163.072296 218.303970,163.073425 
	C182.516083,163.076492 146.728195,163.084930 110.940323,163.065414 
	C103.909348,163.061584 99.853737,160.291397 98.952484,155.044022 
	C97.768890,148.152771 102.201447,143.236206 110.032951,143.100555 
	C118.519623,142.953552 127.010803,143.066711 136.000031,143.066406 
z"/>
<path fill="#060606" opacity="1.000000" stroke="none" 
	d="
M101.999695,232.466187 
	C90.185364,232.464279 78.868423,232.610443 67.557579,232.411194 
	C59.287304,232.265503 54.632195,226.472321 56.808540,219.553085 
	C57.947697,215.931305 60.294128,213.567474 64.098061,212.940582 
	C66.054550,212.618149 68.058167,212.440842 70.040749,212.438736 
	C99.324867,212.407776 128.609024,212.412415 157.893173,212.420013 
	C167.330093,212.422455 172.170151,215.970413 171.985153,222.703140 
	C171.805161,229.253952 167.198929,232.459717 157.906754,232.463821 
	C139.437744,232.471985 120.968727,232.466217 101.999695,232.466187 
z"/>
<path fill="#030303" opacity="1.000000" stroke="none" 
	d="
M72.068253,281.853302 
	C99.021141,281.853302 125.485161,281.848145 151.949188,281.863708 
	C153.942490,281.864899 155.971146,281.804932 157.921890,282.135803 
	C162.536255,282.918488 165.926910,286.972168 166.043442,291.542206 
	C166.157028,295.996399 163.300629,299.939484 158.870010,301.129608 
	C157.129166,301.597198 155.273163,301.835785 153.469086,301.838501 
	C125.174286,301.881195 96.879372,301.879089 68.584557,301.840118 
	C66.945526,301.837891 65.264801,301.595367 63.676285,301.183716 
	C59.064678,299.988678 55.915825,295.733643 56.202770,291.305389 
	C56.499599,286.724701 59.975197,282.776123 64.605530,282.108765 
	C66.894875,281.778839 69.252602,281.923431 72.068253,281.853302 
z"/>
<path fill="#060606" opacity="1.000000" stroke="none" 
	d="
M131.999207,440.466431 
	C111.846581,440.466400 92.193810,440.466431 72.541046,440.466461 
	C71.541756,440.466461 70.542427,440.471527 69.543175,440.465179 
	C60.973431,440.410828 56.122120,436.779205 56.143158,430.436737 
	C56.164291,424.064911 60.978371,420.433258 69.588158,420.425690 
	C95.569756,420.402802 121.551399,420.417297 147.533020,420.418335 
	C148.365616,420.418365 149.201935,420.381744 150.030197,420.444916 
	C156.615921,420.947449 160.944336,424.943298 160.928711,430.481232 
	C160.912949,436.068939 156.584091,440.163940 149.984848,440.407135 
	C144.163437,440.621613 138.328201,440.461273 131.999207,440.466431 
z"/>
<path fill="#070707" opacity="1.000000" stroke="none" 
	d="
M75.917511,154.596497 
	C73.192596,161.805359 68.011330,164.623688 62.438072,162.297272 
	C57.441574,160.211609 55.010082,154.540222 56.954197,149.506317 
	C58.510944,145.475418 63.156693,142.670303 67.279060,143.272125 
	C72.680878,144.060730 75.630333,147.767349 75.917511,154.596497 
z"/>
<path fill="#050505" opacity="1.000000" stroke="none" 
	d="
M183.455170,435.297729 
	C181.292145,428.963318 182.550797,424.642792 187.003601,421.994263 
	C190.857849,419.701813 196.300232,420.488983 199.295288,423.772064 
	C203.071655,427.911560 202.595062,434.399841 198.370728,438.014069 
	C194.335403,441.466583 186.575653,441.091858 183.455170,435.297729 
z"/>
<path fill="#020303" opacity="1.000000" stroke="none" 
	d="
M278.008911,392.093933 
	C249.383774,379.029602 231.573639,357.512909 225.601166,326.939301 
	C216.579010,280.754059 246.932816,235.294571 293.158844,225.048920 
	C338.995758,214.889496 385.478973,243.438965 397.039825,288.851471 
	C411.816864,346.897461 366.699371,401.959076 306.902039,398.796753 
	C297.030670,398.274689 287.500122,396.066528 278.008911,392.093933 
z"/>
<path fill="#71D7FE" opacity="1.000000" stroke="none" 
	d="
M311.057861,378.972137 
	C275.535675,377.724030 247.677979,351.739746 244.224380,317.060242 
	C240.868958,283.366455 264.025787,252.133286 298.066498,244.439819 
	C335.232208,236.040070 373.948334,262.851715 379.064331,300.532318 
	C384.817719,342.907654 354.557373,378.060822 311.057861,378.972137 
z"/>
<path fill="#020303" opacity="1.000000" stroke="none" 
	d="
M337.635254,313.961182 
	C337.318481,312.266724 337.058380,310.962524 336.926453,309.645477 
	C335.597687,296.377411 326.684967,287.373444 313.415253,286.121307 
	C309.426270,285.744873 305.894958,284.788940 303.640930,281.156921 
	C301.617126,277.895935 301.533844,274.516418 303.406097,271.229340 
	C305.482635,267.583557 308.822510,266.013184 312.970734,266.053894 
	C336.475586,266.284515 356.936188,286.806610 356.953461,310.172424 
	C356.957306,315.381592 354.085083,319.297028 349.337708,320.554443 
	C344.550171,321.822479 340.843536,319.836151 337.635254,313.961182 
z"/>
</svg>