<?xml version="1.0" encoding="UTF-8"?>
<!DOCTYPE svg PUBLIC "-//W3C//DTD SVG 1.1//EN" "http://www.w3.org/Graphics/SVG/1.1/DTD/svg11.dtd">
<svg xmlns="http://www.w3.org/2000/svg" version="1.1" width="229px" height="86px" style="shape-rendering:geometricPrecision; text-rendering:geometricPrecision; image-rendering:optimizeQuality; fill-rule:evenodd; clip-rule:evenodd" xmlns:xlink="http://www.w3.org/1999/xlink">
<g><path style="opacity:1" fill="#f3fef8" d="M -0.5,-0.5 C 10.5,-0.5 21.5,-0.5 32.5,-0.5C 30.7056,0.232879 29.0389,1.23288 27.5,2.5C 24.0125,3.40763 21.0125,5.0743 18.5,7.5C 15.7555,8.08437 13.4221,9.41771 11.5,11.5C 7.76998,10.1811 6.43665,11.3478 7.5,15C 6.69194,15.3076 6.02527,15.8076 5.5,16.5C 5.84569,17.6956 6.34569,17.6956 7,16.5C 7.49001,17.7932 7.65668,19.1266 7.5,20.5C 5.17894,20.7711 3.17894,20.1045 1.5,18.5C 0.816537,18.8627 0.14987,19.1961 -0.5,19.5C -0.5,12.8333 -0.5,6.16667 -0.5,-0.5 Z"/></g>
<g><path style="opacity:1" fill="#f4fef9" d="M 52.5,-0.5 C 109.5,-0.5 166.5,-0.5 223.5,-0.5C 223.5,0.166667 223.5,0.833333 223.5,1.5C 221.887,2.69234 220.22,3.69234 218.5,4.5C 214.764,5.90467 212.431,8.57133 211.5,12.5C 209.833,13.8333 208.167,15.1667 206.5,16.5C 164.833,16.5 123.167,16.5 81.5,16.5C 81.1667,16.5 80.8333,16.5 80.5,16.5C 79.9423,15.2101 78.9423,14.3768 77.5,14C 78.3366,12.9887 78.67,11.8221 78.5,10.5C 76.3888,9.62011 74.3888,9.62011 72.5,10.5C 69.8672,13.2457 68.5338,12.579 68.5,8.5C 66.4458,8.63466 64.7791,7.96799 63.5,6.5C 63.6309,5.62356 63.2975,4.95689 62.5,4.5C 58.9279,2.84192 55.5946,1.17525 52.5,-0.5 Z"/></g>
<g><path style="opacity:1" fill="#f0c1c0" d="M 223.5,-0.5 C 225.167,-0.5 226.833,-0.5 228.5,-0.5C 228.5,1.83333 228.5,4.16667 228.5,6.5C 226.089,5.48302 224.422,3.81635 223.5,1.5C 223.5,0.833333 223.5,0.166667 223.5,-0.5 Z"/></g>
<g><path style="opacity:1" fill="#c5eeb9" d="M 32.5,-0.5 C 37.8333,-0.5 43.1667,-0.5 48.5,-0.5C 47.0582,0.819534 46.3915,2.4862 46.5,4.5C 45.5,4.5 44.5,4.5 43.5,4.5C 43.5,5.83333 43.5,7.16667 43.5,8.5C 42.1779,8.33003 41.0113,8.66337 40,9.5C 39.4712,7.41533 39.9712,5.582 41.5,4C 41.1667,3.5 40.8333,3 40.5,2.5C 38.7648,3.05696 37.0982,3.39029 35.5,3.5C 37.8559,4.65393 38.0226,5.98726 36,7.5C 34.3829,6.14867 33.2162,4.482 32.5,2.5C 32.598,3.61609 32.098,4.61609 31,5.5C 24.4175,8.85955 23.2509,7.85955 27.5,2.5C 29.0389,1.23288 30.7056,0.232879 32.5,-0.5 Z"/></g>
<g><path style="opacity:1" fill="#c1edb3" d="M 63.5,6.5 C 64.7791,7.96799 66.4458,8.63466 68.5,8.5C 68.5338,12.579 69.8672,13.2457 72.5,10.5C 72.2287,12.3117 71.562,13.9783 70.5,15.5C 69.4728,16.7914 68.4728,16.7914 67.5,15.5C 64.9292,14.2379 64.9292,12.9045 67.5,11.5C 65.187,10.7267 62.8537,10.0601 60.5,9.5C 59.8076,10.0253 59.3076,10.6919 59,11.5C 57.7635,9.89565 56.5968,8.22898 55.5,6.5C 54.7492,7.37598 54.2492,8.37598 54,9.5C 52.3141,6.97799 50.9808,7.31133 50,10.5C 49.2571,8.55942 49.4238,6.72609 50.5,5C 52.8333,4.33333 55.1667,4.33333 57.5,5C 57.8055,6.82731 59.3055,7.99398 62,8.5C 62.2784,7.5842 62.7784,6.91753 63.5,6.5 Z"/></g>
<g><path style="opacity:1" fill="#e2f6e1" d="M 48.5,-0.5 C 49.8333,-0.5 51.1667,-0.5 52.5,-0.5C 55.5946,1.17525 58.9279,2.84192 62.5,4.5C 63.2975,4.95689 63.6309,5.62356 63.5,6.5C 62.7784,6.91753 62.2784,7.5842 62,8.5C 59.3055,7.99398 57.8055,6.82731 57.5,5C 55.1667,4.33333 52.8333,4.33333 50.5,5C 49.4238,6.72609 49.2571,8.55942 50,10.5C 50.9808,7.31133 52.3141,6.97799 54,9.5C 54.2492,8.37598 54.7492,7.37598 55.5,6.5C 56.5968,8.22898 57.7635,9.89565 59,11.5C 59.3076,10.6919 59.8076,10.0253 60.5,9.5C 62.8537,10.0601 65.187,10.7267 67.5,11.5C 64.9292,12.9045 64.9292,14.2379 67.5,15.5C 64.4046,16.1187 64.0712,17.1187 66.5,18.5C 67.086,18.2907 67.586,17.9574 68,17.5C 68.881,21.0364 70.2143,24.3697 72,27.5C 72.9138,26.3463 73.7471,26.513 74.5,28C 73.7236,29.7698 73.8903,31.6031 75,33.5C 75.9147,32.6721 76.5814,31.6721 77,30.5C 78.2022,32.6775 78.7022,35.0108 78.5,37.5C 78.7828,38.2891 79.2828,38.9558 80,39.5C 82.2311,36.1449 83.3977,32.8115 83.5,29.5C 84.4621,36.4122 84.7955,43.4122 84.5,50.5C 84.5,50.8333 84.5,51.1667 84.5,51.5C 84.5,52.1667 84.5,52.8333 84.5,53.5C 84.1667,53.5 83.8333,53.5 83.5,53.5C 82.6708,50.5705 82.6708,47.7372 83.5,45C 82.8095,43.9326 82.3095,42.7659 82,41.5C 80.7188,41.3808 79.5521,41.8808 78.5,43C 78.7358,44.4509 78.7358,45.9509 78.5,47.5C 77.516,50.0704 76.3493,50.0704 75,47.5C 74.3828,48.4491 74.5494,49.2825 75.5,50C 73.5188,50.6054 73.1854,51.6054 74.5,53C 73.7471,54.487 72.9138,54.6537 72,53.5C 71.5983,54.8721 71.0983,56.2054 70.5,57.5C 71.325,58.3857 72.325,58.719 73.5,58.5C 73.67,59.8221 73.3366,60.9887 72.5,62C 73.448,62.4828 74.448,62.6495 75.5,62.5C 75.4139,64.677 74.7472,66.677 73.5,68.5C 74.1272,69.4168 74.4606,70.4168 74.5,71.5C 70.1029,76.3635 64.7696,79.6968 58.5,81.5C 57.9907,80.6587 58.6573,80.1587 60.5,80C 60.0183,78.9916 59.8516,77.825 60,76.5C 58.2467,77.627 56.4134,78.627 54.5,79.5C 53.6143,80.325 53.281,81.325 53.5,82.5C 52.5,82.5 51.5,82.5 50.5,82.5C 50.2471,80.1727 50.9137,78.1727 52.5,76.5C 52.3764,75.8933 52.0431,75.56 51.5,75.5C 50.4863,74.3263 49.153,73.6596 47.5,73.5C 48.209,72.596 49.209,72.2627 50.5,72.5C 50.9175,73.2216 51.5842,73.7216 52.5,74C 55.146,74.4974 57.8127,74.6641 60.5,74.5C 63.0878,74.4567 65.2544,73.4567 67,71.5C 67.3333,71.8333 67.6667,72.1667 68,72.5C 68.2549,69.2069 69.7549,68.0403 72.5,69C 71.1667,68 71.1667,67 72.5,66C 70.0288,65.2937 67.6954,65.627 65.5,67C 67.4054,67.8261 67.7388,68.9928 66.5,70.5C 64.6568,69.0613 62.9901,69.228 61.5,71C 64.1304,73.3547 63.797,73.8547 60.5,72.5C 59.8423,71.6016 59.1757,70.6016 58.5,69.5C 56.0878,70.8177 53.7544,70.651 51.5,69C 53.8516,68.7599 55.8516,67.9265 57.5,66.5C 60.5019,64.708 62.3352,62.0414 63,58.5C 63.6667,53.8333 63.6667,49.1667 63,44.5C 61.3026,38.7364 57.4692,36.0698 51.5,36.5C 48.3695,35.9078 46.0361,36.9078 44.5,39.5C 42.1782,40.8021 40.8449,42.8021 40.5,45.5C 38.5,45.5 36.5,45.5 34.5,45.5C 34.5,40.8333 34.5,36.1667 34.5,31.5C 35.5,31.5 36.5,31.5 37.5,31.5C 39.7354,31.7947 41.7354,31.4614 43.5,30.5C 51.3809,27.6381 53.5476,22.3047 50,14.5C 48.005,12.253 45.505,11.253 42.5,11.5C 41.0813,10.5489 39.4147,10.2155 37.5,10.5C 35.1667,10.5 32.8333,10.5 30.5,10.5C 27.5,10.5 24.5,10.5 21.5,10.5C 21.4142,9.5041 21.7476,8.67076 22.5,8C 21.5632,7.30831 20.8966,7.47498 20.5,8.5C 19.8333,8.16667 19.1667,7.83333 18.5,7.5C 21.0125,5.0743 24.0125,3.40763 27.5,2.5C 23.2509,7.85955 24.4175,8.85955 31,5.5C 32.098,4.61609 32.598,3.61609 32.5,2.5C 33.2162,4.482 34.3829,6.14867 36,7.5C 38.0226,5.98726 37.8559,4.65393 35.5,3.5C 37.0982,3.39029 38.7648,3.05696 40.5,2.5C 40.8333,3 41.1667,3.5 41.5,4C 39.9712,5.582 39.4712,7.41533 40,9.5C 41.0113,8.66337 42.1779,8.33003 43.5,8.5C 43.5,7.16667 43.5,5.83333 43.5,4.5C 44.5,4.5 45.5,4.5 46.5,4.5C 46.3915,2.4862 47.0582,0.819534 48.5,-0.5 Z"/></g>
<g><path style="opacity:1" fill="#bdebae" d="M 21.5,10.5 C 21.5,10.8333 21.5,11.1667 21.5,11.5C 20.2382,11.9066 18.9049,12.24 17.5,12.5C 18.1667,13.1667 18.8333,13.8333 19.5,14.5C 18.2299,15.2876 17.2299,16.2876 16.5,17.5C 11.6489,16.7515 11.4823,15.0848 16,12.5C 16.4828,11.552 16.6495,10.552 16.5,9.5C 17.8221,9.33003 18.9887,9.66337 20,10.5C 20.4643,9.90558 20.631,9.23891 20.5,8.5C 20.8966,7.47498 21.5632,7.30831 22.5,8C 21.7476,8.67076 21.4142,9.5041 21.5,10.5 Z"/></g>
<g><path style="opacity:1" fill="#e4f7e3" d="M 21.5,11.5 C 22.5,11.5 23.5,11.5 24.5,11.5C 24.5,22.8333 24.5,34.1667 24.5,45.5C 23.209,45.2627 22.209,45.596 21.5,46.5C 27.31,47.4896 33.31,47.8229 39.5,47.5C 39.1832,51.7016 39.5166,55.7016 40.5,59.5C 40.461,62.089 41.461,64.089 43.5,65.5C 44.7082,66.782 46.0416,66.782 47.5,65.5C 45.5495,58.6291 45.0495,51.6291 46,44.5C 47.9419,39.7168 51.4419,37.7168 56.5,38.5C 57.4912,45.3134 57.8245,52.3134 57.5,59.5C 55.9098,62.7608 53.5765,65.4274 50.5,67.5C 48.5648,68.1495 46.5648,68.4828 44.5,68.5C 44.2591,71.0336 45.2591,72.7002 47.5,73.5C 49.153,73.6596 50.4863,74.3263 51.5,75.5C 50.3778,76.9473 48.8778,77.9473 47,78.5C 48.0116,81.341 46.8449,82.6744 43.5,82.5C 44.3596,80.1845 44.8596,77.8511 45,75.5C 42.4438,76.2191 41.2771,77.8858 41.5,80.5C 40.1266,80.3433 38.7932,80.51 37.5,81C 38.3366,82.0113 38.67,83.1779 38.5,84.5C 34.9286,84.5923 33.7619,82.9257 35,79.5C 35.7504,78.8742 36.5838,78.3742 37.5,78C 35.8946,76.6397 34.3946,75.1397 33,73.5C 30.5451,74.7426 29.3784,76.7426 29.5,79.5C 27.9069,78.6521 26.7403,77.3187 26,75.5C 25.3021,76.6906 24.4687,77.6906 23.5,78.5C 23.9175,79.2216 24.5842,79.7216 25.5,80C 24.944,80.3826 24.6107,80.8826 24.5,81.5C 20.0026,79.4136 16.0026,76.5803 12.5,73C 10.6133,73.4229 8.61334,73.2563 6.5,72.5C 6.43255,71.0413 6.76589,69.7079 7.5,68.5C 8.92041,69.2795 9.75374,70.2795 10,71.5C 11.3102,70.8699 12.1435,69.8699 12.5,68.5C 9.07675,67.5507 8.74341,65.884 11.5,63.5C 10.584,61.2155 11.584,60.0488 14.5,60C 13.7734,58.6012 13.2734,57.1012 13,55.5C 11.2942,56.3079 10.4609,57.6412 10.5,59.5C 9.5,59.5 8.5,59.5 7.5,59.5C 7.97625,57.0069 9.30958,55.0069 11.5,53.5C 10.5108,48.306 9.34414,48.306 8,53.5C 7.02278,52.2264 6.18944,52.2264 5.5,53.5C 4.31434,52.2946 4.31434,50.9613 5.5,49.5C 6.61295,48.0536 6.77961,46.3869 6,44.5C 5,44.1667 4,43.8333 3,43.5C 2.69055,44.7659 2.19055,45.9326 1.5,47C 2.07952,48.3349 2.41285,49.5015 2.5,50.5C 2.5,52.1667 2.5,53.8333 2.5,55.5C 1.95691,55.56 1.62358,55.8933 1.5,56.5C 2.37598,57.2508 3.37598,57.7508 4.5,58C 2.65003,61.4659 3.65003,63.2993 7.5,63.5C 7.65668,64.8734 7.49001,66.2068 7,67.5C 6.31001,66.2617 5.81001,66.2617 5.5,67.5C 3.85834,65.9192 1.85834,65.2525 -0.5,65.5C -0.5,50.8333 -0.5,36.1667 -0.5,21.5C 1.1316,21.8247 2.1316,22.8247 2.5,24.5C 1.62816,26.0542 1.62816,27.3876 2.5,28.5C 1.85016,31.7798 1.85016,34.4465 2.5,36.5C 2.06178,36.4346 1.72845,36.6012 1.5,37C 2.19055,38.0674 2.69055,39.2341 3,40.5C 3.66667,39.1667 4.33333,39.1667 5,40.5C 6.1045,37.583 7.1045,34.583 8,31.5C 9.71842,35.4162 10.8851,35.0829 11.5,30.5C 10.1451,29.3247 10.3117,28.3247 12,27.5C 12.3333,27.8333 12.6667,28.1667 13,28.5C 14.7857,25.3697 16.119,22.0364 17,18.5C 18.1827,19.731 19.3493,19.731 20.5,18.5C 19.3112,17.5713 17.9778,17.238 16.5,17.5C 17.2299,16.2876 18.2299,15.2876 19.5,14.5C 18.8333,13.8333 18.1667,13.1667 17.5,12.5C 18.9049,12.24 20.2382,11.9066 21.5,11.5 Z"/></g>
<g><path style="opacity:1" fill="#25a7a2" d="M 21.5,11.5 C 21.5,11.1667 21.5,10.8333 21.5,10.5C 24.5,10.5 27.5,10.5 30.5,10.5C 30.5,22.5 30.5,34.5 30.5,46.5C 27.5,46.5 24.5,46.5 21.5,46.5C 22.209,45.596 23.209,45.2627 24.5,45.5C 24.5,34.1667 24.5,22.8333 24.5,11.5C 23.5,11.5 22.5,11.5 21.5,11.5 Z"/></g>
<g><path style="opacity:1" fill="#34b092" d="M 30.5,10.5 C 32.8333,10.5 35.1667,10.5 37.5,10.5C 37.5,10.8333 37.5,11.1667 37.5,11.5C 36.5,11.5 35.5,11.5 34.5,11.5C 34.5,17.8333 34.5,24.1667 34.5,30.5C 35.5,30.5 36.5,30.5 37.5,30.5C 37.5,30.8333 37.5,31.1667 37.5,31.5C 36.5,31.5 35.5,31.5 34.5,31.5C 34.5,36.1667 34.5,40.8333 34.5,45.5C 36.5,45.5 38.5,45.5 40.5,45.5C 40.5,45.8333 40.5,46.1667 40.5,46.5C 37.1667,46.5 33.8333,46.5 30.5,46.5C 30.5,34.5 30.5,22.5 30.5,10.5 Z"/></g>
<g><path style="opacity:1" fill="#e2f6e3" d="M 37.5,11.5 C 38.4584,11.9528 39.2917,12.6195 40,13.5C 40.6667,18.5 40.6667,23.5 40,28.5C 39.2917,29.3805 38.4584,30.0472 37.5,30.5C 36.5,30.5 35.5,30.5 34.5,30.5C 34.5,24.1667 34.5,17.8333 34.5,11.5C 35.5,11.5 36.5,11.5 37.5,11.5 Z"/></g>
<g><path style="opacity:1" fill="#6ecf67" d="M 42.5,11.5 C 45.505,11.253 48.005,12.253 50,14.5C 53.5476,22.3047 51.3809,27.6381 43.5,30.5C 43.0908,27.6382 43.0908,24.4716 43.5,21C 43.4423,17.724 42.7757,14.724 41.5,12C 41.7284,11.6012 42.0618,11.4346 42.5,11.5 Z"/></g>
<g><path style="opacity:1" fill="#efbebd" d="M 218.5,4.5 C 218.938,4.43456 219.272,4.60123 219.5,5C 218.429,5.85175 217.429,6.68509 216.5,7.5C 213.544,10.0922 212.211,13.4255 212.5,17.5C 212.783,21.196 213.283,24.8626 214,28.5C 214.48,30.133 215.313,31.4664 216.5,32.5C 215.5,32.5 214.5,32.5 213.5,32.5C 211.794,25.9674 211.128,19.3007 211.5,12.5C 212.431,8.57133 214.764,5.90467 218.5,4.5 Z"/></g>
<g><path style="opacity:1" fill="#61c77c" d="M 37.5,11.5 C 37.5,11.1667 37.5,10.8333 37.5,10.5C 39.4147,10.2155 41.0813,10.5489 42.5,11.5C 42.0618,11.4346 41.7284,11.6012 41.5,12C 42.7757,14.724 43.4423,17.724 43.5,21C 43.0908,24.4716 43.0908,27.6382 43.5,30.5C 41.7354,31.4614 39.7354,31.7947 37.5,31.5C 37.5,31.1667 37.5,30.8333 37.5,30.5C 38.4584,30.0472 39.2917,29.3805 40,28.5C 40.6667,23.5 40.6667,18.5 40,13.5C 39.2917,12.6195 38.4584,11.9528 37.5,11.5 Z"/></g>
<g><path style="opacity:1" fill="#c8bc9d" d="M 81.5,16.5 C 123.167,16.5 164.833,16.5 206.5,16.5C 204.471,18.8585 202.471,21.1918 200.5,23.5C 196.833,23.5 193.167,23.5 189.5,23.5C 188.946,33.8724 188.946,44.2057 189.5,54.5C 187.167,54.5 184.833,54.5 182.5,54.5C 182.108,52.8211 181.608,51.1545 181,49.5C 180.329,50.2524 179.496,50.5858 178.5,50.5C 178.5,48.1667 178.5,45.8333 178.5,43.5C 180.124,43.3601 181.29,44.0267 182,45.5C 182.692,44.9747 183.192,44.3081 183.5,43.5C 181.451,42.1182 179.785,40.4516 178.5,38.5C 180.182,34.1615 178.849,32.4948 174.5,33.5C 173.754,34.7362 173.421,36.0695 173.5,37.5C 171.821,40.0121 172.155,42.0121 174.5,43.5C 173.913,47.2064 173.246,50.873 172.5,54.5C 170.5,54.5 168.5,54.5 166.5,54.5C 166.5,53.8333 166.5,53.1667 166.5,52.5C 167.5,52.5 168.5,52.5 169.5,52.5C 169.5,51.5 169.5,50.5 169.5,49.5C 168.5,49.5 167.5,49.5 166.5,49.5C 165.624,49.6309 164.957,49.2975 164.5,48.5C 168.371,47.8592 169.038,46.3592 166.5,44C 161.721,42.6065 159.387,44.4398 159.5,49.5C 159.728,51.2073 160.062,52.874 160.5,54.5C 158.833,54.5 157.167,54.5 155.5,54.5C 155.5,52.1667 155.5,49.8333 155.5,47.5C 156.117,47.3893 156.617,47.056 157,46.5C 157.497,43.854 157.664,41.1873 157.5,38.5C 159.46,37.8617 161.293,37.8617 163,38.5C 163.499,34.8484 163.665,31.1817 163.5,27.5C 157.5,27.5 151.5,27.5 145.5,27.5C 145.5,31.1667 145.5,34.8333 145.5,38.5C 146.833,38.5 148.167,38.5 149.5,38.5C 149.277,40.3417 148.943,42.175 148.5,44C 148.862,45.4343 149.528,46.6009 150.5,47.5C 150.53,48.4972 150.03,49.1639 149,49.5C 147.85,48.5761 146.85,48.5761 146,49.5C 145.51,50.7932 145.343,52.1266 145.5,53.5C 147.415,53.2155 149.081,53.5489 150.5,54.5C 148.167,54.5 145.833,54.5 143.5,54.5C 143.666,50.1539 143.499,45.8206 143,41.5C 142.617,40.944 142.117,40.6107 141.5,40.5C 142.234,39.2921 142.567,37.9587 142.5,36.5C 142.682,34.4086 142.348,32.4086 141.5,30.5C 140.675,29.6143 139.675,29.281 138.5,29.5C 137.908,32.1272 137.575,34.7938 137.5,37.5C 137.782,38.7777 138.449,39.7777 139.5,40.5C 138.883,40.6107 138.383,40.944 138,41.5C 137.501,45.8206 137.334,50.1539 137.5,54.5C 135.833,54.5 134.167,54.5 132.5,54.5C 132.167,53.1667 131.833,53.1667 131.5,54.5C 129.833,54.5 128.167,54.5 126.5,54.5C 125.375,53.3478 125.375,52.3478 126.5,51.5C 128.292,51.366 129.958,51.6993 131.5,52.5C 132.479,49.3752 132.813,46.0419 132.5,42.5C 132.5,41.5 132.5,40.5 132.5,39.5C 129.945,40.4133 127.279,41.08 124.5,41.5C 122.631,41.4932 120.964,41.1599 119.5,40.5C 119.5,38.5 119.5,36.5 119.5,34.5C 116.833,34.5 114.167,34.5 111.5,34.5C 111.025,37.0821 111.692,39.0821 113.5,40.5C 111.771,41.2362 110.771,42.5695 110.5,44.5C 109.698,43.0484 109.198,41.3817 109,39.5C 108.329,38.7476 107.496,38.4142 106.5,38.5C 105.833,37.1667 105.167,37.1667 104.5,38.5C 103.15,39.4831 102.15,40.8164 101.5,42.5C 100.735,41.3881 99.7348,40.7214 98.5,40.5C 97.1667,40.5 95.8333,40.5 94.5,40.5C 94.5,40.1667 94.5,39.8333 94.5,39.5C 94.7822,38.2223 95.4489,37.2223 96.5,36.5C 97.4682,34.3926 97.8016,32.0593 97.5,29.5C 92.8333,29.5 88.1667,29.5 83.5,29.5C 83.3404,27.847 82.6737,26.5137 81.5,25.5C 81.5569,24.391 81.8902,23.391 82.5,22.5C 84.2785,21.3303 85.2785,19.6636 85.5,17.5C 83.901,17.7678 82.5676,17.4345 81.5,16.5 Z"/></g>
<g><path style="opacity:1" fill="#dbd8d1" d="M 223.5,1.5 C 224.422,3.81635 226.089,5.48302 228.5,6.5C 228.5,14.5 228.5,22.5 228.5,30.5C 226.197,28.022 224.031,25.3553 222,22.5C 221.689,21.2575 222.189,20.2575 223.5,19.5C 221.126,15.4048 218.793,11.4048 216.5,7.5C 217.429,6.68509 218.429,5.85175 219.5,5C 219.272,4.60123 218.938,4.43456 218.5,4.5C 220.22,3.69234 221.887,2.69234 223.5,1.5 Z"/></g>
<g><path style="opacity:1" fill="#b4bd8a" d="M 80.5,16.5 C 80.8333,16.5 81.1667,16.5 81.5,16.5C 82.5676,17.4345 83.901,17.7678 85.5,17.5C 85.2785,19.6636 84.2785,21.3303 82.5,22.5C 80.1911,21.6123 78.5244,19.9456 77.5,17.5C 78.325,16.6143 79.325,16.281 80.5,16.5 Z"/></g>
<g><path style="opacity:1" fill="#f0ece5" d="M 216.5,7.5 C 218.793,11.4048 221.126,15.4048 223.5,19.5C 222.189,20.2575 221.689,21.2575 222,22.5C 224.031,25.3553 226.197,28.022 228.5,30.5C 228.5,33.5 228.5,36.5 228.5,39.5C 225.909,34.8709 221.909,32.8709 216.5,33.5C 216.5,33.1667 216.5,32.8333 216.5,32.5C 215.313,31.4664 214.48,30.133 214,28.5C 213.283,24.8626 212.783,21.196 212.5,17.5C 212.211,13.4255 213.544,10.0922 216.5,7.5 Z"/></g>
<g><path style="opacity:1" fill="#d7f3d2" d="M 80.5,16.5 C 79.325,16.281 78.325,16.6143 77.5,17.5C 78.5244,19.9456 80.1911,21.6123 82.5,22.5C 81.8902,23.391 81.5569,24.391 81.5,25.5C 78.9599,24.1127 77.2933,21.946 76.5,19C 75.552,18.5172 74.552,18.3505 73.5,18.5C 73.7135,20.1439 73.3802,21.6439 72.5,23C 73.8333,23 75.1667,23 76.5,23C 80.4531,27.6131 81.1197,32.4465 78.5,37.5C 78.7022,35.0108 78.2022,32.6775 77,30.5C 76.5814,31.6721 75.9147,32.6721 75,33.5C 73.8903,31.6031 73.7236,29.7698 74.5,28C 73.7471,26.513 72.9138,26.3463 72,27.5C 70.2143,24.3697 68.881,21.0364 68,17.5C 67.586,17.9574 67.086,18.2907 66.5,18.5C 64.0712,17.1187 64.4046,16.1187 67.5,15.5C 68.4728,16.7914 69.4728,16.7914 70.5,15.5C 71.562,13.9783 72.2287,12.3117 72.5,10.5C 74.3888,9.62011 76.3888,9.62011 78.5,10.5C 78.67,11.8221 78.3366,12.9887 77.5,14C 78.9423,14.3768 79.9423,15.2101 80.5,16.5 Z"/></g>
<g><path style="opacity:1" fill="#918667" d="M 101.5,21.5 C 109.676,20.1791 118.009,20.1791 126.5,21.5C 118.347,21.5737 110.014,21.5737 101.5,21.5 Z"/></g>
<g><path style="opacity:1" fill="#918567" d="M 142.5,20.5 C 150.86,20.1688 159.193,20.5021 167.5,21.5C 159.527,21.2078 151.36,21.5412 143,22.5C 142.536,21.9056 142.369,21.2389 142.5,20.5 Z"/></g>
<g><path style="opacity:1" fill="#baeaaa" d="M 81.5,25.5 C 82.6737,26.5137 83.3404,27.847 83.5,29.5C 83.3977,32.8115 82.2311,36.1449 80,39.5C 79.2828,38.9558 78.7828,38.2891 78.5,37.5C 81.1197,32.4465 80.4531,27.6131 76.5,23C 75.1667,23 73.8333,23 72.5,23C 73.3802,21.6439 73.7135,20.1439 73.5,18.5C 74.552,18.3505 75.552,18.5172 76.5,19C 77.2933,21.946 78.9599,24.1127 81.5,25.5 Z"/></g>
<g><path style="opacity:1" fill="#d6f3d1" d="M 18.5,7.5 C 19.1667,7.83333 19.8333,8.16667 20.5,8.5C 20.631,9.23891 20.4643,9.90558 20,10.5C 18.9887,9.66337 17.8221,9.33003 16.5,9.5C 16.6495,10.552 16.4828,11.552 16,12.5C 11.4823,15.0848 11.6489,16.7515 16.5,17.5C 17.9778,17.238 19.3112,17.5713 20.5,18.5C 19.3493,19.731 18.1827,19.731 17,18.5C 16.119,22.0364 14.7857,25.3697 13,28.5C 12.6667,28.1667 12.3333,27.8333 12,27.5C 10.3117,28.3247 10.1451,29.3247 11.5,30.5C 10.8851,35.0829 9.71842,35.4162 8,31.5C 7.1045,34.583 6.1045,37.583 5,40.5C 4.33333,39.1667 3.66667,39.1667 3,40.5C 2.69055,39.2341 2.19055,38.0674 1.5,37C 1.72845,36.6012 2.06178,36.4346 2.5,36.5C 3.5,36.5 4.5,36.5 5.5,36.5C 5.48091,34.9397 5.14758,33.4397 4.5,32C 5.70728,30.6998 6.37394,29.1998 6.5,27.5C 4.90097,27.2322 3.56764,27.5655 2.5,28.5C 1.62816,27.3876 1.62816,26.0542 2.5,24.5C 2.1316,22.8247 1.1316,21.8247 -0.5,21.5C -0.5,20.8333 -0.5,20.1667 -0.5,19.5C 0.14987,19.1961 0.816537,18.8627 1.5,18.5C 3.17894,20.1045 5.17894,20.7711 7.5,20.5C 7.65668,19.1266 7.49001,17.7932 7,16.5C 6.34569,17.6956 5.84569,17.6956 5.5,16.5C 6.02527,15.8076 6.69194,15.3076 7.5,15C 6.43665,11.3478 7.76998,10.1811 11.5,11.5C 13.4221,9.41771 15.7555,8.08437 18.5,7.5 Z"/></g>
<g><path style="opacity:1" fill="#b6eaa5" d="M 7.5,20.5 C 9.06831,19.5269 10.735,19.3603 12.5,20C 11.1667,21.3333 11.1667,22.6667 12.5,24C 10.8925,23.9813 9.22586,23.8146 7.5,23.5C 7.5,22.5 7.5,21.5 7.5,20.5 Z"/></g>
<g><path style="opacity:1" fill="#b77f48" d="M 122.5,29.5 C 124.922,30.0852 126.589,31.5852 127.5,34C 125.862,33.758 124.362,32.9247 123,31.5C 123.077,32.7376 122.911,33.7376 122.5,34.5C 121.334,32.8327 121.334,31.166 122.5,29.5 Z"/></g>
<g><path style="opacity:1" fill="#b9eaa8" d="M 2.5,36.5 C 1.85016,34.4465 1.85016,31.7798 2.5,28.5C 3.56764,27.5655 4.90097,27.2322 6.5,27.5C 6.37394,29.1998 5.70728,30.6998 4.5,32C 5.14758,33.4397 5.48091,34.9397 5.5,36.5C 4.5,36.5 3.5,36.5 2.5,36.5 Z"/></g>
<g><path style="opacity:1" fill="#96a2cf" d="M 142.5,36.5 C 140.708,36.366 139.042,36.6993 137.5,37.5C 137.575,34.7938 137.908,32.1272 138.5,29.5C 139.675,29.281 140.675,29.6143 141.5,30.5C 142.348,32.4086 142.682,34.4086 142.5,36.5 Z"/></g>
<g><path style="opacity:1" fill="#ee8269" d="M 213.5,32.5 C 214.5,32.5 215.5,32.5 216.5,32.5C 216.5,32.8333 216.5,33.1667 216.5,33.5C 215.833,33.5 215.5,33.8333 215.5,34.5C 215.167,34.5 214.833,34.5 214.5,34.5C 213.662,34.1583 213.328,33.4916 213.5,32.5 Z"/></g>
<g><path style="opacity:1" fill="#d2c9af" d="M 83.5,29.5 C 88.1667,29.5 92.8333,29.5 97.5,29.5C 97.8016,32.0593 97.4682,34.3926 96.5,36.5C 95.4583,35.2089 94.2917,35.2089 93,36.5C 92.4153,37.9976 92.9153,38.9976 94.5,39.5C 94.5,39.8333 94.5,40.1667 94.5,40.5C 92.5,40.5 91.5,41.5 91.5,43.5C 91.8515,46.0728 91.3515,48.4062 90,50.5C 89.8019,48.6183 89.3019,46.9516 88.5,45.5C 87.791,44.596 86.791,44.2627 85.5,44.5C 85.7947,46.7354 85.4614,48.7354 84.5,50.5C 84.7955,43.4122 84.4621,36.4122 83.5,29.5 Z"/></g>
<g><path style="opacity:1" fill="#7a614b" d="M 104.5,34.5 C 105.386,33.2241 106.386,33.2241 107.5,34.5C 106.767,35.087 105.767,35.087 104.5,34.5 Z"/></g>
<g><path style="opacity:1" fill="#be9278" d="M 155.5,36.5 C 154.686,38.631 154.186,40.9644 154,43.5C 153.71,41.0796 153.21,38.7463 152.5,36.5C 150.67,33.1625 151.67,31.4958 155.5,31.5C 155.5,33.1667 155.5,34.8333 155.5,36.5 Z"/></g>
<g><path style="opacity:1" fill="#d5ccb2" d="M 157.5,38.5 C 156.5,38.1667 155.833,37.5 155.5,36.5C 155.5,34.8333 155.5,33.1667 155.5,31.5C 151.67,31.4958 150.67,33.1625 152.5,36.5C 150.973,36.427 149.973,37.0937 149.5,38.5C 148.167,38.5 146.833,38.5 145.5,38.5C 145.5,34.8333 145.5,31.1667 145.5,27.5C 151.5,27.5 157.5,27.5 163.5,27.5C 163.665,31.1817 163.499,34.8484 163,38.5C 161.293,37.8617 159.46,37.8617 157.5,38.5 Z"/></g>
<g><path style="opacity:1" fill="#645951" d="M 178.5,38.5 C 177.842,37.6016 177.176,36.6016 176.5,35.5C 175.735,36.6119 174.735,37.2786 173.5,37.5C 173.421,36.0695 173.754,34.7362 174.5,33.5C 178.849,32.4948 180.182,34.1615 178.5,38.5 Z"/></g>
<g><path style="opacity:1" fill="#efc4c2" d="M 215.5,34.5 C 215.5,33.8333 215.833,33.5 216.5,33.5C 221.909,32.8709 225.909,34.8709 228.5,39.5C 228.5,42.1667 228.5,44.8333 228.5,47.5C 226.932,45.1891 226.098,42.5224 226,39.5C 223.45,35.8083 219.95,34.1416 215.5,34.5 Z"/></g>
<g><path style="opacity:1" fill="#c06760" d="M 119.5,40.5 C 118.167,40.5 116.833,40.5 115.5,40.5C 115.362,36.7139 114.695,36.7139 113.5,40.5C 111.692,39.0821 111.025,37.0821 111.5,34.5C 114.167,34.5 116.833,34.5 119.5,34.5C 119.5,36.5 119.5,38.5 119.5,40.5 Z"/></g>
<g><path style="opacity:1" fill="#a0a4bc" d="M 129.5,34.5 C 131.09,34.6282 132.423,35.2949 133.5,36.5C 132.167,36.8333 130.833,37.1667 129.5,37.5C 128.438,36.5754 128.438,35.5754 129.5,34.5 Z"/></g>
<g><path style="opacity:1" fill="#82544c" d="M 96.5,36.5 C 95.4489,37.2223 94.7822,38.2223 94.5,39.5C 92.9153,38.9976 92.4153,37.9976 93,36.5C 94.2917,35.2089 95.4583,35.2089 96.5,36.5 Z"/></g>
<g><path style="opacity:1" fill="#e8e6e2" d="M 121.5,35.5 C 123.389,36.3799 125.389,36.3799 127.5,35.5C 127.5,36.5 127.5,37.5 127.5,38.5C 125.61,38.2965 124.11,38.9632 123,40.5C 121.991,38.9751 121.491,37.3084 121.5,35.5 Z"/></g>
<g><path style="opacity:1" fill="#676f9b" d="M 142.5,36.5 C 142.567,37.9587 142.234,39.2921 141.5,40.5C 140.833,40.5 140.167,40.5 139.5,40.5C 138.449,39.7777 137.782,38.7777 137.5,37.5C 139.042,36.6993 140.708,36.366 142.5,36.5 Z"/></g>
<g><path style="opacity:1" fill="#bf7771" d="M 178.5,38.5 C 179.785,40.4516 181.451,42.1182 183.5,43.5C 183.192,44.3081 182.692,44.9747 182,45.5C 181.29,44.0267 180.124,43.3601 178.5,43.5C 177.167,43.5 175.833,43.5 174.5,43.5C 172.155,42.0121 171.821,40.0121 173.5,37.5C 174.735,37.2786 175.735,36.6119 176.5,35.5C 177.176,36.6016 177.842,37.6016 178.5,38.5 Z"/></g>
<g><path style="opacity:1" fill="#8d98ca" d="M 94.5,40.5 C 95.8333,40.5 97.1667,40.5 98.5,40.5C 98.5,41.5 98.5,42.5 98.5,43.5C 97.5489,44.9187 97.2155,46.5853 97.5,48.5C 96.1667,48.5 94.8333,48.5 93.5,48.5C 93.9227,46.2188 93.256,44.5521 91.5,43.5C 91.5,41.5 92.5,40.5 94.5,40.5 Z"/></g>
<g><path style="opacity:1" fill="#bd9b7a" d="M 132.5,42.5 C 131.167,42.5 129.833,42.5 128.5,42.5C 130.386,45.4554 131.386,48.7887 131.5,52.5C 129.958,51.6993 128.292,51.366 126.5,51.5C 126.296,48.4824 125.963,45.4824 125.5,42.5C 121.671,43.069 118.337,42.4023 115.5,40.5C 116.833,40.5 118.167,40.5 119.5,40.5C 120.964,41.1599 122.631,41.4932 124.5,41.5C 127.279,41.08 129.945,40.4133 132.5,39.5C 132.5,40.5 132.5,41.5 132.5,42.5 Z"/></g>
<g><path style="opacity:1" fill="#e6e4e1" d="M 104.5,38.5 C 104.672,44.9409 104.006,51.2742 102.5,57.5C 101.5,57.5 100.5,57.5 99.5,57.5C 101.181,53.676 101.681,49.676 101,45.5C 100.292,44.6195 99.4584,43.9528 98.5,43.5C 98.5,42.5 98.5,41.5 98.5,40.5C 99.7348,40.7214 100.735,41.3881 101.5,42.5C 102.15,40.8164 103.15,39.4831 104.5,38.5 Z"/></g>
<g><path style="opacity:1" fill="#c1edb3" d="M 83.5,53.5 C 83.5,53.8333 83.5,54.1667 83.5,54.5C 78.7649,54.9696 77.7649,53.4696 80.5,50C 80.3613,48.699 79.6946,47.8656 78.5,47.5C 78.7358,45.9509 78.7358,44.4509 78.5,43C 79.5521,41.8808 80.7188,41.3808 82,41.5C 82.3095,42.7659 82.8095,43.9326 83.5,45C 82.6708,47.7372 82.6708,50.5705 83.5,53.5 Z"/></g>
<g><path style="opacity:1" fill="#e1e1dd" d="M 106.5,38.5 C 107.496,38.4142 108.329,38.7476 109,39.5C 109.198,41.3817 109.698,43.0484 110.5,44.5C 110.261,46.4672 110.594,48.3005 111.5,50C 110.047,51.6487 109.047,53.4821 108.5,55.5C 106.621,50.1299 105.955,44.4632 106.5,38.5 Z"/></g>
<g><path style="opacity:1" fill="#807558" d="M 115.5,40.5 C 118.337,42.4023 121.671,43.069 125.5,42.5C 125.963,45.4824 126.296,48.4824 126.5,51.5C 125.375,52.3478 125.375,53.3478 126.5,54.5C 124.72,55.9899 124.054,57.9899 124.5,60.5C 119.167,60.5 113.833,60.5 108.5,60.5C 108.5,58.8333 108.5,57.1667 108.5,55.5C 109.047,53.4821 110.047,51.6487 111.5,50C 110.594,48.3005 110.261,46.4672 110.5,44.5C 110.771,42.5695 111.771,41.2362 113.5,40.5C 114.695,36.7139 115.362,36.7139 115.5,40.5 Z"/></g>
<g><path style="opacity:1" fill="#84785b" d="M 132.5,42.5 C 132.813,46.0419 132.479,49.3752 131.5,52.5C 131.386,48.7887 130.386,45.4554 128.5,42.5C 129.833,42.5 131.167,42.5 132.5,42.5 Z"/></g>
<g><path style="opacity:1" fill="#939cc8" d="M 152.5,36.5 C 153.21,38.7463 153.71,41.0796 154,43.5C 154.186,40.9644 154.686,38.631 155.5,36.5C 155.833,37.5 156.5,38.1667 157.5,38.5C 157.664,41.1873 157.497,43.854 157,46.5C 156.617,47.056 156.117,47.3893 155.5,47.5C 154.849,46.9094 154.182,46.2427 153.5,45.5C 152.818,46.2427 152.151,46.9094 151.5,47.5C 151.167,47.5 150.833,47.5 150.5,47.5C 149.528,46.6009 148.862,45.4343 148.5,44C 148.943,42.175 149.277,40.3417 149.5,38.5C 149.973,37.0937 150.973,36.427 152.5,36.5 Z"/></g>
<g><path style="opacity:1" fill="#ccf0c2" d="M 5.5,49.5 C 5.63088,48.6236 5.29755,47.9569 4.5,47.5C 3.82434,48.6016 3.15767,49.6016 2.5,50.5C 2.41285,49.5015 2.07952,48.3349 1.5,47C 2.19055,45.9326 2.69055,44.7659 3,43.5C 4,43.8333 5,44.1667 6,44.5C 6.77961,46.3869 6.61295,48.0536 5.5,49.5 Z"/></g>
<g><path style="opacity:1" fill="#a3dcce" d="M 21.5,46.5 C 24.5,46.5 27.5,46.5 30.5,46.5C 33.8333,46.5 37.1667,46.5 40.5,46.5C 40.5,50.8333 40.5,55.1667 40.5,59.5C 39.5166,55.7016 39.1832,51.7016 39.5,47.5C 33.31,47.8229 27.31,47.4896 21.5,46.5 Z"/></g>
<g><path style="opacity:1" fill="#858bb9" d="M 174.5,43.5 C 175.833,43.5 177.167,43.5 178.5,43.5C 178.5,45.8333 178.5,48.1667 178.5,50.5C 178.5,51.1667 178.5,51.8333 178.5,52.5C 177.463,53.9303 176.796,55.597 176.5,57.5C 175.036,58.4054 173.702,58.4054 172.5,57.5C 172.5,56.5 172.5,55.5 172.5,54.5C 173.246,50.873 173.913,47.2064 174.5,43.5 Z"/></g>
<g><path style="opacity:1" fill="#199ea9" d="M 44.5,39.5 C 44.8264,48.3494 44.493,57.0161 43.5,65.5C 41.461,64.089 40.461,62.089 40.5,59.5C 40.5,55.1667 40.5,50.8333 40.5,46.5C 40.5,46.1667 40.5,45.8333 40.5,45.5C 40.8449,42.8021 42.1782,40.8021 44.5,39.5 Z"/></g>
<g><path style="opacity:1" fill="#929bc8" d="M 166.5,49.5 C 166.5,50.5 166.5,51.5 166.5,52.5C 166.5,53.1667 166.5,53.8333 166.5,54.5C 164.5,54.5 162.5,54.5 160.5,54.5C 160.062,52.874 159.728,51.2073 159.5,49.5C 159.387,44.4398 161.721,42.6065 166.5,44C 169.038,46.3592 168.371,47.8592 164.5,48.5C 164.957,49.2975 165.624,49.6309 166.5,49.5 Z"/></g>
<g><path style="opacity:1" fill="#9b4d4f" d="M 88.5,45.5 C 88.5,47.5 88.5,49.5 88.5,51.5C 87.1667,51.5 85.8333,51.5 84.5,51.5C 84.5,51.1667 84.5,50.8333 84.5,50.5C 85.4614,48.7354 85.7947,46.7354 85.5,44.5C 86.791,44.2627 87.791,44.596 88.5,45.5 Z"/></g>
<g><path style="opacity:1" fill="#61688c" d="M 93.5,48.5 C 94.8333,48.5 96.1667,48.5 97.5,48.5C 97.821,49.8175 98.1543,51.1508 98.5,52.5C 98.2528,53.7133 97.5862,54.38 96.5,54.5C 95.5,54.5 94.5,54.5 93.5,54.5C 93.5,52.5 93.5,50.5 93.5,48.5 Z"/></g>
<g><path style="opacity:1" fill="#5a6591" d="M 155.5,47.5 C 155.5,49.8333 155.5,52.1667 155.5,54.5C 155.5,54.8333 155.5,55.1667 155.5,55.5C 154.596,56.209 154.263,57.209 154.5,58.5C 153.5,58.5 152.5,58.5 151.5,58.5C 151.5,54.8333 151.5,51.1667 151.5,47.5C 152.151,46.9094 152.818,46.2427 153.5,45.5C 154.182,46.2427 154.849,46.9094 155.5,47.5 Z"/></g>
<g><path style="opacity:1" fill="#a95b58" d="M 166.5,49.5 C 167.5,49.5 168.5,49.5 169.5,49.5C 169.5,50.5 169.5,51.5 169.5,52.5C 168.5,52.5 167.5,52.5 166.5,52.5C 166.5,51.5 166.5,50.5 166.5,49.5 Z"/></g>
<g><path style="opacity:1" fill="#34ac9d" d="M 51.5,36.5 C 53.1667,37.1667 54.8333,37.8333 56.5,38.5C 51.4419,37.7168 47.9419,39.7168 46,44.5C 45.0495,51.6291 45.5495,58.6291 47.5,65.5C 46.0416,66.782 44.7082,66.782 43.5,65.5C 44.493,57.0161 44.8264,48.3494 44.5,39.5C 46.0361,36.9078 48.3695,35.9078 51.5,36.5 Z"/></g>
<g><path style="opacity:1" fill="#c7b195" d="M 98.5,43.5 C 99.4584,43.9528 100.292,44.6195 101,45.5C 101.681,49.676 101.181,53.676 99.5,57.5C 99.838,60.0115 99.838,62.3448 99.5,64.5C 97.8901,61.3161 96.8901,57.9828 96.5,54.5C 97.5862,54.38 98.2528,53.7133 98.5,52.5C 98.1543,51.1508 97.821,49.8175 97.5,48.5C 97.2155,46.5853 97.5489,44.9187 98.5,43.5 Z"/></g>
<g><path style="opacity:1" fill="#ae7137" d="M 182.5,54.5 C 182.167,54.5 181.833,54.5 181.5,54.5C 179.821,54.7148 178.821,54.0481 178.5,52.5C 178.5,51.8333 178.5,51.1667 178.5,50.5C 179.496,50.5858 180.329,50.2524 181,49.5C 181.608,51.1545 182.108,52.8211 182.5,54.5 Z"/></g>
<g><path style="opacity:1" fill="#bc9684" d="M 91.5,43.5 C 93.256,44.5521 93.9227,46.2188 93.5,48.5C 93.5,50.5 93.5,52.5 93.5,54.5C 90.2869,54.81 87.2869,54.4767 84.5,53.5C 84.5,52.8333 84.5,52.1667 84.5,51.5C 85.8333,51.5 87.1667,51.5 88.5,51.5C 88.5,49.5 88.5,47.5 88.5,45.5C 89.3019,46.9516 89.8019,48.6183 90,50.5C 91.3515,48.4062 91.8515,46.0728 91.5,43.5 Z"/></g>
<g><path style="opacity:1" fill="#b8615d" d="M 139.5,40.5 C 140.167,40.5 140.833,40.5 141.5,40.5C 142.117,40.6107 142.617,40.944 143,41.5C 143.499,45.8206 143.666,50.1539 143.5,54.5C 143.5,55.5 143.5,56.5 143.5,57.5C 141.5,57.5 139.5,57.5 137.5,57.5C 137.5,56.5 137.5,55.5 137.5,54.5C 137.334,50.1539 137.501,45.8206 138,41.5C 138.383,40.944 138.883,40.6107 139.5,40.5 Z"/></g>
<g><path style="opacity:1" fill="#71d168" d="M 51.5,36.5 C 57.4692,36.0698 61.3026,38.7364 63,44.5C 63.6667,49.1667 63.6667,53.8333 63,58.5C 62.3352,62.0414 60.5019,64.708 57.5,66.5C 56.8968,64.3743 56.8968,62.0409 57.5,59.5C 57.8245,52.3134 57.4912,45.3134 56.5,38.5C 54.8333,37.8333 53.1667,37.1667 51.5,36.5 Z"/></g>
<g><path style="opacity:1" fill="#afe79b" d="M 5.5,49.5 C 4.31434,50.9613 4.31434,52.2946 5.5,53.5C 6.77359,54.1894 6.77359,55.0228 5.5,56C 4.25057,56.7401 3.25057,56.5735 2.5,55.5C 2.5,53.8333 2.5,52.1667 2.5,50.5C 3.15767,49.6016 3.82434,48.6016 4.5,47.5C 5.29755,47.9569 5.63088,48.6236 5.5,49.5 Z"/></g>
<g><path style="opacity:1" fill="#d0f1c8" d="M 78.5,47.5 C 79.6946,47.8656 80.3613,48.699 80.5,50C 77.7649,53.4696 78.7649,54.9696 83.5,54.5C 81.5144,59.1859 79.8477,63.5192 78.5,67.5C 78.5,67.8333 78.5,68.1667 78.5,68.5C 77.2092,69.5345 75.8758,70.5345 74.5,71.5C 74.4606,70.4168 74.1272,69.4168 73.5,68.5C 74.7472,66.677 75.4139,64.677 75.5,62.5C 74.448,62.6495 73.448,62.4828 72.5,62C 73.3366,60.9887 73.67,59.8221 73.5,58.5C 72.325,58.719 71.325,58.3857 70.5,57.5C 71.0983,56.2054 71.5983,54.8721 72,53.5C 72.9138,54.6537 73.7471,54.487 74.5,53C 73.1854,51.6054 73.5188,50.6054 75.5,50C 74.5494,49.2825 74.3828,48.4491 75,47.5C 76.3493,50.0704 77.516,50.0704 78.5,47.5 Z"/></g>
<g><path style="opacity:1" fill="#8991b2" d="M 106.5,38.5 C 105.955,44.4632 106.621,50.1299 108.5,55.5C 107.167,55.5 106.5,56.1667 106.5,57.5C 105.325,58.9738 104.325,60.6404 103.5,62.5C 102.548,60.9547 102.215,59.288 102.5,57.5C 104.006,51.2742 104.672,44.9409 104.5,38.5C 105.167,37.1667 105.833,37.1667 106.5,38.5 Z"/></g>
<g><path style="opacity:1" fill="#7d7e99" d="M 150.5,47.5 C 150.833,47.5 151.167,47.5 151.5,47.5C 151.5,51.1667 151.5,54.8333 151.5,58.5C 150.566,57.4324 150.232,56.099 150.5,54.5C 149.081,53.5489 147.415,53.2155 145.5,53.5C 145.343,52.1266 145.51,50.7932 146,49.5C 146.85,48.5761 147.85,48.5761 149,49.5C 150.03,49.1639 150.53,48.4972 150.5,47.5 Z"/></g>
<g><path style="opacity:1" fill="#bd6b62" d="M 193.5,45.5 C 193.044,49.6017 193.711,53.435 195.5,57C 195.167,57.5 194.833,58 194.5,58.5C 193.28,57.2889 192.113,57.2889 191,58.5C 190.51,57.2068 190.343,55.8734 190.5,54.5C 190.89,51.2033 191.89,48.2033 193.5,45.5 Z"/></g>
<g><path style="opacity:1" fill="#e8c1c1" d="M 213.5,32.5 C 213.328,33.4916 213.662,34.1583 214.5,34.5C 213.426,35.8846 212.093,37.0513 210.5,38C 212.421,41.0184 212.754,44.1851 211.5,47.5C 210.686,45.2338 210.186,42.9005 210,40.5C 209.723,47.3112 210.723,53.9779 213,60.5C 213.816,61.8228 214.983,62.4894 216.5,62.5C 216.5,63.1667 216.5,63.8333 216.5,64.5C 212.814,63.645 210.647,61.3116 210,57.5C 207.479,50.1104 207.313,42.7771 209.5,35.5C 211.43,35.2294 212.764,34.2294 213.5,32.5 Z"/></g>
<g><path style="opacity:1" fill="#c9efbe" d="M 12.5,68.5 C 12.1435,69.8699 11.3102,70.8699 10,71.5C 9.75374,70.2795 8.92041,69.2795 7.5,68.5C 6.50838,68.6716 5.84171,68.3382 5.5,67.5C 5.81001,66.2617 6.31001,66.2617 7,67.5C 7.49001,66.2068 7.65668,64.8734 7.5,63.5C 3.65003,63.2993 2.65003,61.4659 4.5,58C 3.37598,57.7508 2.37598,57.2508 1.5,56.5C 1.62358,55.8933 1.95691,55.56 2.5,55.5C 3.25057,56.5735 4.25057,56.7401 5.5,56C 6.77359,55.0228 6.77359,54.1894 5.5,53.5C 6.18944,52.2264 7.02278,52.2264 8,53.5C 9.34414,48.306 10.5108,48.306 11.5,53.5C 9.30958,55.0069 7.97625,57.0069 7.5,59.5C 8.5,59.5 9.5,59.5 10.5,59.5C 10.4609,57.6412 11.2942,56.3079 13,55.5C 13.2734,57.1012 13.7734,58.6012 14.5,60C 11.584,60.0488 10.584,61.2155 11.5,63.5C 8.74341,65.884 9.07675,67.5507 12.5,68.5 Z"/></g>
<g><path style="opacity:1" fill="#dbd2bd" d="M 195.5,26.5 C 196.326,40.0051 196.993,53.6718 197.5,67.5C 157.833,67.5 118.167,67.5 78.5,67.5C 79.8477,63.5192 81.5144,59.1859 83.5,54.5C 83.5,54.1667 83.5,53.8333 83.5,53.5C 83.8333,53.5 84.1667,53.5 84.5,53.5C 87.2869,54.4767 90.2869,54.81 93.5,54.5C 94.5,54.5 95.5,54.5 96.5,54.5C 96.8901,57.9828 97.8901,61.3161 99.5,64.5C 99.838,62.3448 99.838,60.0115 99.5,57.5C 100.5,57.5 101.5,57.5 102.5,57.5C 102.215,59.288 102.548,60.9547 103.5,62.5C 104.325,60.6404 105.325,58.9738 106.5,57.5C 106.215,59.288 106.548,60.9547 107.5,62.5C 108.298,62.0431 108.631,61.3764 108.5,60.5C 113.833,60.5 119.167,60.5 124.5,60.5C 124.783,61.2891 125.283,61.9558 126,62.5C 126.202,60.7444 126.702,59.0777 127.5,57.5C 128.41,59.6549 129.577,61.6549 131,63.5C 131.49,62.2068 131.657,60.8734 131.5,59.5C 132.451,58.0813 132.784,56.4147 132.5,54.5C 134.167,54.5 135.833,54.5 137.5,54.5C 137.5,55.5 137.5,56.5 137.5,57.5C 139.5,57.5 141.5,57.5 143.5,57.5C 143.5,56.5 143.5,55.5 143.5,54.5C 145.833,54.5 148.167,54.5 150.5,54.5C 150.232,56.099 150.566,57.4324 151.5,58.5C 152.5,58.5 153.5,58.5 154.5,58.5C 154.263,57.209 154.596,56.209 155.5,55.5C 156.334,56.7479 157.667,57.4146 159.5,57.5C 163.432,56.766 167.432,56.766 171.5,57.5C 171.97,58.6935 172.97,59.3601 174.5,59.5C 176.976,59.7674 177.643,59.1007 176.5,57.5C 176.796,55.597 177.463,53.9303 178.5,52.5C 178.821,54.0481 179.821,54.7148 181.5,54.5C 181.5,55.5 181.5,56.5 181.5,57.5C 184.167,57.5 186.833,57.5 189.5,57.5C 189.5,56.5 189.5,55.5 189.5,54.5C 189.833,54.5 190.167,54.5 190.5,54.5C 190.343,55.8734 190.51,57.2068 191,58.5C 192.113,57.2889 193.28,57.2889 194.5,58.5C 194.833,58 195.167,57.5 195.5,57C 193.711,53.435 193.044,49.6017 193.5,45.5C 193.5,44.8333 193.5,44.1667 193.5,43.5C 193.5,41.8333 193.5,40.1667 193.5,38.5C 193.833,38.5 194.167,38.5 194.5,38.5C 195.483,34.7016 195.817,30.7016 195.5,26.5 Z"/></g>
<g><path style="opacity:1" fill="#60658d" d="M 126.5,54.5 C 128.167,54.5 129.833,54.5 131.5,54.5C 130.438,56.2341 130.438,57.9008 131.5,59.5C 131.657,60.8734 131.49,62.2068 131,63.5C 129.577,61.6549 128.41,59.6549 127.5,57.5C 126.702,59.0777 126.202,60.7444 126,62.5C 125.283,61.9558 124.783,61.2891 124.5,60.5C 124.054,57.9899 124.72,55.9899 126.5,54.5 Z"/></g>
<g><path style="opacity:1" fill="#b97474" d="M 171.5,57.5 C 171.833,57.5 172.167,57.5 172.5,57.5C 173.702,58.4054 175.036,58.4054 176.5,57.5C 177.643,59.1007 176.976,59.7674 174.5,59.5C 172.97,59.3601 171.97,58.6935 171.5,57.5 Z"/></g>
<g><path style="opacity:1" fill="#eeece5" d="M 181.5,54.5 C 181.833,54.5 182.167,54.5 182.5,54.5C 184.833,54.5 187.167,54.5 189.5,54.5C 189.5,55.5 189.5,56.5 189.5,57.5C 186.833,57.5 184.167,57.5 181.5,57.5C 181.5,56.5 181.5,55.5 181.5,54.5 Z"/></g>
<g><path style="opacity:1" fill="#7d7561" d="M 132.5,54.5 C 132.784,56.4147 132.451,58.0813 131.5,59.5C 130.438,57.9008 130.438,56.2341 131.5,54.5C 131.833,53.1667 132.167,53.1667 132.5,54.5 Z"/></g>
<g><path style="opacity:1" fill="#57628e" d="M 108.5,55.5 C 108.5,57.1667 108.5,58.8333 108.5,60.5C 108.631,61.3764 108.298,62.0431 107.5,62.5C 106.548,60.9547 106.215,59.288 106.5,57.5C 106.5,56.1667 107.167,55.5 108.5,55.5 Z"/></g>
<g><path style="opacity:1" fill="#f1ece4" d="M 155.5,54.5 C 157.167,54.5 158.833,54.5 160.5,54.5C 162.5,54.5 164.5,54.5 166.5,54.5C 168.5,54.5 170.5,54.5 172.5,54.5C 172.5,55.5 172.5,56.5 172.5,57.5C 172.167,57.5 171.833,57.5 171.5,57.5C 167.432,56.766 163.432,56.766 159.5,57.5C 157.667,57.4146 156.334,56.7479 155.5,55.5C 155.5,55.1667 155.5,54.8333 155.5,54.5 Z"/></g>
<g><path style="opacity:1" fill="#f0ece5" d="M 211.5,12.5 C 211.128,19.3007 211.794,25.9674 213.5,32.5C 212.764,34.2294 211.43,35.2294 209.5,35.5C 207.313,42.7771 207.479,50.1104 210,57.5C 210.647,61.3116 212.814,63.645 216.5,64.5C 220.5,63.8333 220.5,63.1667 216.5,62.5C 214.983,62.4894 213.816,61.8228 213,60.5C 210.723,53.9779 209.723,47.3112 210,40.5C 210.186,42.9005 210.686,45.2338 211.5,47.5C 212.754,44.1851 212.421,41.0184 210.5,38C 212.093,37.0513 213.426,35.8846 214.5,34.5C 214.833,34.5 215.167,34.5 215.5,34.5C 219.95,34.1416 223.45,35.8083 226,39.5C 226.098,42.5224 226.932,45.1891 228.5,47.5C 228.5,60.1667 228.5,72.8333 228.5,85.5C 222.833,85.5 217.167,85.5 211.5,85.5C 211.496,58.8733 210.829,58.8733 209.5,85.5C 205.5,85.5 201.5,85.5 197.5,85.5C 197.5,79.8333 197.5,74.1667 197.5,68.5C 198.026,53.6044 199.026,38.6044 200.5,23.5C 202.471,21.1918 204.471,18.8585 206.5,16.5C 208.167,15.1667 209.833,13.8333 211.5,12.5 Z"/></g>
<g><path style="opacity:1" fill="#eb7354" d="M 216.5,62.5 C 220.5,63.1667 220.5,63.8333 216.5,64.5C 216.5,63.8333 216.5,63.1667 216.5,62.5 Z"/></g>
<g><path style="opacity:1" fill="#eb7756" d="M 224.5,61.5 C 227.797,61.3287 228.131,61.9954 225.5,63.5C 224.702,63.0431 224.369,62.3764 224.5,61.5 Z"/></g>
<g><path style="opacity:1" fill="#ea6f4d" d="M 217.5,42.5 C 219.604,42.2011 221.604,42.5344 223.5,43.5C 220.874,47.5305 218.874,47.1972 217.5,42.5 Z"/></g>
<g><path style="opacity:1" fill="#8e8ca7" d="M 209.5,35.5 C 207.401,32.1441 205.401,28.6441 203.5,25C 204.332,24.3123 204.998,24.479 205.5,25.5C 207.406,28.64 208.74,31.9734 209.5,35.5 Z"/></g>
<g><path style="opacity:1" fill="#f4fef9" d="M -0.5,65.5 C 1.85834,65.2525 3.85834,65.9192 5.5,67.5C 5.84171,68.3382 6.50838,68.6716 7.5,68.5C 6.76589,69.7079 6.43255,71.0413 6.5,72.5C 8.61334,73.2563 10.6133,73.4229 12.5,73C 16.0026,76.5803 20.0026,79.4136 24.5,81.5C 26.6805,83.0906 29.0139,84.4239 31.5,85.5C 20.8333,85.5 10.1667,85.5 -0.5,85.5C -0.5,78.8333 -0.5,72.1667 -0.5,65.5 Z"/></g>
<g><path style="opacity:1" fill="#beecaf" d="M 60.5,74.5 C 60.5,73.8333 60.5,73.1667 60.5,72.5C 63.797,73.8547 64.1304,73.3547 61.5,71C 62.9901,69.228 64.6568,69.0613 66.5,70.5C 67.7388,68.9928 67.4054,67.8261 65.5,67C 67.6954,65.627 70.0288,65.2937 72.5,66C 71.1667,67 71.1667,68 72.5,69C 69.7549,68.0403 68.2549,69.2069 68,72.5C 67.6667,72.1667 67.3333,71.8333 67,71.5C 65.2544,73.4567 63.0878,74.4567 60.5,74.5 Z"/></g>
<g><path style="opacity:1" fill="#e6e2d2" d="M 200.5,23.5 C 199.026,38.6044 198.026,53.6044 197.5,68.5C 157.833,68.5 118.167,68.5 78.5,68.5C 78.5,68.1667 78.5,67.8333 78.5,67.5C 118.167,67.5 157.833,67.5 197.5,67.5C 196.993,53.6718 196.326,40.0051 195.5,26.5C 194.167,25.1667 192.833,25.1667 191.5,26.5C 191.736,29.6085 191.403,32.6085 190.5,35.5C 191.219,37.7638 191.552,40.0971 191.5,42.5C 190.761,42.369 190.094,42.5357 189.5,43C 190.46,46.73 190.793,50.5633 190.5,54.5C 190.167,54.5 189.833,54.5 189.5,54.5C 188.946,44.2057 188.946,33.8724 189.5,23.5C 193.167,23.5 196.833,23.5 200.5,23.5 Z"/></g>
<g><path style="opacity:1" fill="#caabb2" d="M 191.5,42.5 C 192.167,42.8333 192.833,43.1667 193.5,43.5C 193.5,44.1667 193.5,44.8333 193.5,45.5C 191.89,48.2033 190.89,51.2033 190.5,54.5C 190.793,50.5633 190.46,46.73 189.5,43C 190.094,42.5357 190.761,42.369 191.5,42.5 Z"/></g>
<g><path style="opacity:1" fill="#d99f85" d="M 190.5,35.5 C 191.5,35.5 192.5,35.5 193.5,35.5C 193.5,36.5 193.5,37.5 193.5,38.5C 193.5,40.1667 193.5,41.8333 193.5,43.5C 192.833,43.1667 192.167,42.8333 191.5,42.5C 191.552,40.0971 191.219,37.7638 190.5,35.5 Z"/></g>
<g><path style="opacity:1" fill="#9c9276" d="M 191.5,26.5 C 192.833,25.1667 194.167,25.1667 195.5,26.5C 195.817,30.7016 195.483,34.7016 194.5,38.5C 194.5,34.5 194.5,30.5 194.5,26.5C 193.5,26.5 192.5,26.5 191.5,26.5 Z"/></g>
<g><path style="opacity:1" fill="#736950" d="M 191.5,26.5 C 192.5,26.5 193.5,26.5 194.5,26.5C 194.5,30.5 194.5,34.5 194.5,38.5C 194.167,38.5 193.833,38.5 193.5,38.5C 193.5,37.5 193.5,36.5 193.5,35.5C 192.5,35.5 191.5,35.5 190.5,35.5C 191.403,32.6085 191.736,29.6085 191.5,26.5 Z"/></g>
<g><path style="opacity:1" fill="#bcebad" d="M 12.5,68.5 C 13.531,67.7515 14.6976,67.0848 16,66.5C 17.0736,67.6184 18.2402,68.6184 19.5,69.5C 17.0762,71.7136 17.7429,72.7136 21.5,72.5C 22.7244,77.4604 21.5577,77.7938 18,73.5C 17.6667,73.8333 17.3333,74.1667 17,74.5C 16.0207,72.0324 14.5207,70.0324 12.5,68.5 Z"/></g>
<g><path style="opacity:1" fill="#39b195" d="M 50.5,67.5 C 50.5,69.1667 50.5,70.8333 50.5,72.5C 49.209,72.2627 48.209,72.596 47.5,73.5C 45.2591,72.7002 44.2591,71.0336 44.5,68.5C 46.5648,68.4828 48.5648,68.1495 50.5,67.5 Z"/></g>
<g><path style="opacity:1" fill="#f4fef9" d="M 78.5,68.5 C 118.167,68.5 157.833,68.5 197.5,68.5C 197.5,74.1667 197.5,79.8333 197.5,85.5C 148.5,85.5 99.5,85.5 50.5,85.5C 53.2542,84.3586 55.9209,83.0252 58.5,81.5C 64.7696,79.6968 70.1029,76.3635 74.5,71.5C 75.8758,70.5345 77.2092,69.5345 78.5,68.5 Z"/></g>
<g><path style="opacity:1" fill="#57c180" d="M 57.5,59.5 C 56.8968,62.0409 56.8968,64.3743 57.5,66.5C 55.8516,67.9265 53.8516,68.7599 51.5,69C 53.7544,70.651 56.0878,70.8177 58.5,69.5C 59.1757,70.6016 59.8423,71.6016 60.5,72.5C 60.5,73.1667 60.5,73.8333 60.5,74.5C 57.8127,74.6641 55.146,74.4974 52.5,74C 51.5842,73.7216 50.9175,73.2216 50.5,72.5C 50.5,70.8333 50.5,69.1667 50.5,67.5C 53.5765,65.4274 55.9098,62.7608 57.5,59.5 Z"/></g>
<g><path style="opacity:1" fill="#b5e9a3" d="M 29.5,79.5 C 33.7231,78.6061 34.3898,79.9394 31.5,83.5C 31.2635,82.7528 30.9302,81.9195 30.5,81C 28.1316,80.1436 25.7983,79.3103 23.5,78.5C 24.4687,77.6906 25.3021,76.6906 26,75.5C 26.7403,77.3187 27.9069,78.6521 29.5,79.5 Z"/></g>
<g><path style="opacity:1" fill="#918fa8" d="M 198.5,80.5 C 201.304,79.3622 204.304,79.1955 207.5,80C 204.546,81.7186 201.546,81.8853 198.5,80.5 Z"/></g>
<g><path style="opacity:1" fill="#908ea8" d="M 211.5,85.5 C 210.833,85.5 210.167,85.5 209.5,85.5C 210.829,58.8733 211.496,58.8733 211.5,85.5 Z"/></g>
<g><path style="opacity:1" fill="#d6f3d1" d="M 38.5,84.5 C 42.1459,82.9069 45.4793,83.2402 48.5,85.5C 42.8333,85.5 37.1667,85.5 31.5,85.5C 29.0139,84.4239 26.6805,83.0906 24.5,81.5C 24.6107,80.8826 24.944,80.3826 25.5,80C 24.5842,79.7216 23.9175,79.2216 23.5,78.5C 25.7983,79.3103 28.1316,80.1436 30.5,81C 30.9302,81.9195 31.2635,82.7528 31.5,83.5C 34.3898,79.9394 33.7231,78.6061 29.5,79.5C 29.3784,76.7426 30.5451,74.7426 33,73.5C 34.3946,75.1397 35.8946,76.6397 37.5,78C 36.5838,78.3742 35.7504,78.8742 35,79.5C 33.7619,82.9257 34.9286,84.5923 38.5,84.5 Z"/></g>
<g><path style="opacity:1" fill="#bfecb1" d="M 51.5,75.5 C 52.0431,75.56 52.3764,75.8933 52.5,76.5C 50.9137,78.1727 50.2471,80.1727 50.5,82.5C 51.5,82.5 52.5,82.5 53.5,82.5C 53.281,81.325 53.6143,80.325 54.5,79.5C 56.4134,78.627 58.2467,77.627 60,76.5C 59.8516,77.825 60.0183,78.9916 60.5,80C 58.6573,80.1587 57.9907,80.6587 58.5,81.5C 55.9209,83.0252 53.2542,84.3586 50.5,85.5C 49.8333,85.5 49.1667,85.5 48.5,85.5C 45.4793,83.2402 42.1459,82.9069 38.5,84.5C 38.67,83.1779 38.3366,82.0113 37.5,81C 38.7932,80.51 40.1266,80.3433 41.5,80.5C 41.2771,77.8858 42.4438,76.2191 45,75.5C 44.8596,77.8511 44.3596,80.1845 43.5,82.5C 46.8449,82.6744 48.0116,81.341 47,78.5C 48.8778,77.9473 50.3778,76.9473 51.5,75.5 Z"/></g>
</svg>
