<?xml version="1.0" encoding="UTF-8"?>
<!DOCTYPE svg PUBLIC "-//W3C//DTD SVG 1.1//EN" "http://www.w3.org/Graphics/SVG/1.1/DTD/svg11.dtd">
<svg xmlns="http://www.w3.org/2000/svg" version="1.1" width="229px" height="86px" style="shape-rendering:geometricPrecision; text-rendering:geometricPrecision; image-rendering:optimizeQuality; fill-rule:evenodd; clip-rule:evenodd" xmlns:xlink="http://www.w3.org/1999/xlink">
<g><path style="opacity:1" fill="#fdfefd" d="M -0.5,-0.5 C 10.5,-0.5 21.5,-0.5 32.5,-0.5C 29.8773,0.811369 27.2106,2.1447 24.5,3.5C 22.1184,4.3507 20.1184,5.68403 18.5,7.5C 15.7555,8.08437 13.4221,9.41771 11.5,11.5C 7.76998,10.1811 6.43665,11.3478 7.5,15C 6.69194,15.3076 6.02527,15.8076 5.5,16.5C 5.84569,17.6956 6.34569,17.6956 7,16.5C 7.49001,17.7932 7.65668,19.1266 7.5,20.5C 5.17894,20.7711 3.17894,20.1045 1.5,18.5C 0.816537,18.8627 0.14987,19.1961 -0.5,19.5C -0.5,12.8333 -0.5,6.16667 -0.5,-0.5 Z"/></g>
<g><path style="opacity:1" fill="#fefefe" d="M 52.5,-0.5 C 109.5,-0.5 166.5,-0.5 223.5,-0.5C 223.5,0.166667 223.5,0.833333 223.5,1.5C 221.887,2.69234 220.22,3.69234 218.5,4.5C 214.764,5.90467 212.431,8.57133 211.5,12.5C 209.833,13.8333 208.167,15.1667 206.5,16.5C 164.833,16.5 123.167,16.5 81.5,16.5C 81.1667,16.5 80.8333,16.5 80.5,16.5C 79.9423,15.2101 78.9423,14.3768 77.5,14C 78.8333,12.6667 78.8333,11.3333 77.5,10C 75.8034,9.61553 74.1368,9.78219 72.5,10.5C 69.8672,13.2457 68.5338,12.579 68.5,8.5C 66.4458,8.63466 64.7791,7.96799 63.5,6.5C 61.3375,3.57953 58.3375,1.91286 54.5,1.5C 53.8333,1.5 53.1667,1.5 52.5,1.5C 52.5,0.833333 52.5,0.166667 52.5,-0.5 Z"/></g>
<g><path style="opacity:1" fill="#f0c1c0" d="M 223.5,-0.5 C 225.167,-0.5 226.833,-0.5 228.5,-0.5C 228.5,1.83333 228.5,4.16667 228.5,6.5C 226.089,5.48302 224.422,3.81635 223.5,1.5C 223.5,0.833333 223.5,0.166667 223.5,-0.5 Z"/></g>
<g><path style="opacity:1" fill="#cef3c3" d="M 32.5,-0.5 C 33.8333,-0.5 35.1667,-0.5 36.5,-0.5C 35.3778,2.28705 35.3778,4.78705 36.5,7C 35.1233,8.24098 33.79,8.40765 32.5,7.5C 34.4776,6.19723 34.4776,4.53056 32.5,2.5C 32.598,3.61609 32.098,4.61609 31,5.5C 28.9534,6.60943 26.7867,7.2761 24.5,7.5C 24.5,6.16667 24.5,4.83333 24.5,3.5C 27.2106,2.1447 29.8773,0.811369 32.5,-0.5 Z"/></g>
<g><path style="opacity:1" fill="#ebfce9" d="M 54.5,1.5 C 58.3375,1.91286 61.3375,3.57953 63.5,6.5C 62.7784,6.91753 62.2784,7.5842 62,8.5C 60.9326,7.80945 59.7659,7.30945 58.5,7C 58.8333,6.66667 59.1667,6.33333 59.5,6C 57.5,5.16667 55.5,4.33333 53.5,3.5C 53.8627,2.81654 54.1961,2.14987 54.5,1.5 Z"/></g>
<g><path style="opacity:1" fill="#c6f0b8" d="M 52.5,1.5 C 53.1667,1.5 53.8333,1.5 54.5,1.5C 54.1961,2.14987 53.8627,2.81654 53.5,3.5C 55.5,4.33333 57.5,5.16667 59.5,6C 59.1667,6.33333 58.8333,6.66667 58.5,7C 59.7659,7.30945 60.9326,7.80945 62,8.5C 62.2784,7.5842 62.7784,6.91753 63.5,6.5C 64.7791,7.96799 66.4458,8.63466 68.5,8.5C 68.5338,12.579 69.8672,13.2457 72.5,10.5C 71.3473,16.6362 69.6806,17.3028 67.5,12.5C 65.232,10.9981 62.732,9.66481 60,8.5C 59.6667,9.5 59.3333,10.5 59,11.5C 58.1004,9.60247 56.9337,7.9358 55.5,6.5C 54.7492,7.37598 54.2492,8.37598 54,9.5C 52.7955,8.14138 51.2955,7.14138 49.5,6.5C 50.6405,5.57451 50.6405,4.74117 49.5,4C 51.1193,3.76445 52.1193,2.93112 52.5,1.5 Z"/></g>
<g><path style="opacity:1" fill="#ecfdec" d="M 36.5,-0.5 C 39.8333,-0.5 43.1667,-0.5 46.5,-0.5C 44.337,0.46906 42.0037,1.30239 39.5,2C 41.0289,3.94996 42.1956,6.11662 43,8.5C 43.49,7.20677 43.6567,5.87344 43.5,4.5C 44.5,4.5 45.5,4.5 46.5,4.5C 46.3915,2.4862 47.0582,0.819534 48.5,-0.5C 49.8333,-0.5 51.1667,-0.5 52.5,-0.5C 52.5,0.166667 52.5,0.833333 52.5,1.5C 52.1193,2.93112 51.1193,3.76445 49.5,4C 50.6405,4.74117 50.6405,5.57451 49.5,6.5C 51.2955,7.14138 52.7955,8.14138 54,9.5C 54.2492,8.37598 54.7492,7.37598 55.5,6.5C 56.9337,7.9358 58.1004,9.60247 59,11.5C 59.3333,10.5 59.6667,9.5 60,8.5C 62.732,9.66481 65.232,10.9981 67.5,12.5C 64.8875,13.0955 64.8875,13.9288 67.5,15C 66.6721,15.9147 65.6721,16.5814 64.5,17C 65.5358,18.6169 66.7025,18.7836 68,17.5C 68.881,21.0364 70.2143,24.3697 72,27.5C 72.9138,26.3463 73.7471,26.513 74.5,28C 73.7236,29.7698 73.8903,31.6031 75,33.5C 76.0319,31.9733 77.1986,30.64 78.5,29.5C 79.3764,29.3691 80.0431,29.7025 80.5,30.5C 78.0206,33.4063 77.8539,36.4063 80,39.5C 80.6667,38.1667 81.3333,38.1667 82,39.5C 82.3095,38.2341 82.8095,37.0674 83.5,36C 83.161,33.8305 83.161,31.6638 83.5,29.5C 84.9193,33.0148 85.586,36.6814 85.5,40.5C 85.5,41.8333 85.5,43.1667 85.5,44.5C 85.702,46.9496 85.3686,49.283 84.5,51.5C 84.5,52.1667 84.5,52.8333 84.5,53.5C 84.1667,53.5 83.8333,53.5 83.5,53.5C 82.6708,50.5705 82.6708,47.7372 83.5,45C 82.8095,43.9326 82.3095,42.7659 82,41.5C 80.7188,41.3808 79.5521,41.8808 78.5,43C 78.2289,45.6369 78.7289,48.4702 80,51.5C 78.0041,50.6589 76.1708,50.9923 74.5,52.5C 73.9924,54.2327 73.159,54.566 72,53.5C 70.2776,56.2791 69.1109,59.2791 68.5,62.5C 67.1266,62.3433 65.7932,62.51 64.5,63C 66.0664,63.6082 67.3998,64.4415 68.5,65.5C 67.5266,65.9867 66.5266,66.4867 65.5,67C 66.9733,67.7096 67.6399,68.8762 67.5,70.5C 65.3196,69.1448 63.3196,69.3115 61.5,71C 64.1304,73.3547 63.797,73.8547 60.5,72.5C 58.8863,70.9254 56.8863,70.2587 54.5,70.5C 53.5266,70.0133 52.5266,69.5133 51.5,69C 53.0581,68.79 54.3915,68.29 55.5,67.5C 57.4044,67.2624 58.7377,66.2624 59.5,64.5C 62.7797,60.8989 64.113,56.5656 63.5,51.5C 63.9108,47.0624 62.9108,43.0624 60.5,39.5C 58.9699,37.6535 56.9699,36.6535 54.5,36.5C 50.4362,34.7415 47.1029,35.7415 44.5,39.5C 42.1782,40.8021 40.8449,42.8021 40.5,45.5C 38.5,45.5 36.5,45.5 34.5,45.5C 34.5,40.8333 34.5,36.1667 34.5,31.5C 35.5,31.5 36.5,31.5 37.5,31.5C 39.7354,31.7947 41.7354,31.4614 43.5,30.5C 45.153,30.3404 46.4863,29.6737 47.5,28.5C 50.4025,26.6953 51.7359,24.0286 51.5,20.5C 51.8199,16.4527 50.1532,13.7861 46.5,12.5C 45.4324,11.5655 44.099,11.2322 42.5,11.5C 41.0813,10.5489 39.4147,10.2155 37.5,10.5C 35.1667,10.5 32.8333,10.5 30.5,10.5C 28.5,10.5 26.5,10.5 24.5,10.5C 23.0585,7.61803 21.3918,7.2847 19.5,9.5C 19.2129,8.79973 18.8795,8.13306 18.5,7.5C 20.1184,5.68403 22.1184,4.3507 24.5,3.5C 24.5,4.83333 24.5,6.16667 24.5,7.5C 26.7867,7.2761 28.9534,6.60943 31,5.5C 32.098,4.61609 32.598,3.61609 32.5,2.5C 34.4776,4.53056 34.4776,6.19723 32.5,7.5C 33.79,8.40765 35.1233,8.24098 36.5,7C 35.3778,4.78705 35.3778,2.28705 36.5,-0.5 Z"/></g>
<g><path style="opacity:1" fill="#c6f0b8" d="M 46.5,-0.5 C 47.1667,-0.5 47.8333,-0.5 48.5,-0.5C 47.0582,0.819534 46.3915,2.4862 46.5,4.5C 45.5,4.5 44.5,4.5 43.5,4.5C 43.6567,5.87344 43.49,7.20677 43,8.5C 42.1956,6.11662 41.0289,3.94996 39.5,2C 42.0037,1.30239 44.337,0.46906 46.5,-0.5 Z"/></g>
<g><path style="opacity:1" fill="#dbd8d2" d="M 223.5,1.5 C 224.422,3.81635 226.089,5.48302 228.5,6.5C 228.5,14.5 228.5,22.5 228.5,30.5C 226.197,28.022 224.031,25.3553 222,22.5C 221.689,21.2575 222.189,20.2575 223.5,19.5C 221.126,15.4048 218.793,11.4048 216.5,7.5C 217.429,6.68509 218.429,5.85175 219.5,5C 219.272,4.60123 218.938,4.43456 218.5,4.5C 220.22,3.69234 221.887,2.69234 223.5,1.5 Z"/></g>
<g><path style="opacity:1" fill="#edfdec" d="M 21.5,11.5 C 22.5,11.5 23.5,11.5 24.5,11.5C 24.5,22.8333 24.5,34.1667 24.5,45.5C 23.209,45.2627 22.209,45.596 21.5,46.5C 27.31,47.4896 33.31,47.8229 39.5,47.5C 39.1832,51.7016 39.5166,55.7016 40.5,59.5C 40.461,62.089 41.461,64.089 43.5,65.5C 44.7082,66.782 46.0416,66.782 47.5,65.5C 45.5495,58.6291 45.0495,51.6291 46,44.5C 47.9419,39.7168 51.4419,37.7168 56.5,38.5C 57.6546,45.3209 57.8213,52.3209 57,59.5C 56.6339,61.4517 55.8005,63.1184 54.5,64.5C 53.1283,65.5116 51.795,66.5116 50.5,67.5C 48.5648,68.1495 46.5648,68.4828 44.5,68.5C 44.4532,73.1361 46.4532,74.4694 50.5,72.5C 51.5137,73.6737 52.847,74.3404 54.5,74.5C 55.8333,74.5 57.1667,74.5 58.5,74.5C 58.1961,75.1499 57.8627,75.8165 57.5,76.5C 58.6034,76.9976 59.6034,77.3309 60.5,77.5C 59.3595,78.4255 59.3595,79.2588 60.5,80C 58.6573,80.1587 57.9907,80.6587 58.5,81.5C 57.4863,82.6737 56.153,83.3404 54.5,83.5C 54.7214,82.2652 55.3881,81.2652 56.5,80.5C 55.675,79.6143 54.675,79.281 53.5,79.5C 53.5,80.5 53.5,81.5 53.5,82.5C 51.8762,82.6399 50.7096,81.9733 50,80.5C 49.3333,81.1667 48.6667,81.8333 48,82.5C 46.7012,82.0338 45.2012,82.0338 43.5,82.5C 44.3596,80.1845 44.8596,77.8511 45,75.5C 42.4438,76.2191 41.2771,77.8858 41.5,80.5C 40.1266,80.3433 38.7932,80.51 37.5,81C 38.3366,82.0113 38.67,83.1779 38.5,84.5C 42.1459,82.9069 45.4793,83.2402 48.5,85.5C 42.8333,85.5 37.1667,85.5 31.5,85.5C 29.7809,84.9779 28.4475,83.9779 27.5,82.5C 28.6009,81.4017 29.9343,81.235 31.5,82C 30.3044,82.6543 30.3044,83.1543 31.5,83.5C 32.4255,82.3595 33.2588,82.3595 34,83.5C 33.9461,80.8094 35.1128,78.9761 37.5,78C 35.141,77.7922 32.9743,77.6256 31,77.5C 30.2904,78.9733 29.1238,79.6399 27.5,79.5C 27.1147,74.7641 25.7814,74.4307 23.5,78.5C 25.435,79.213 25.7683,80.213 24.5,81.5C 20.0026,79.4136 16.0026,76.5803 12.5,73C 10.6133,73.4229 8.61334,73.2563 6.5,72.5C 6.43255,71.0413 6.76589,69.7079 7.5,68.5C 8.92041,69.2795 9.75374,70.2795 10,71.5C 11.3102,70.8699 12.1435,69.8699 12.5,68.5C 9.07675,67.5507 8.74341,65.884 11.5,63.5C 10.584,61.2155 11.584,60.0488 14.5,60C 12.1902,59.5034 9.85684,59.3367 7.5,59.5C 7.38542,56.6583 6.38542,54.1583 4.5,52C 6.27834,49.775 6.77834,47.275 6,44.5C 5,44.1667 4,43.8333 3,43.5C 2.69055,44.7659 2.19055,45.9326 1.5,47C 0.956828,50.4198 0.956828,53.5865 1.5,56.5C 2.37598,57.2508 3.37598,57.7508 4.5,58C 3.11498,59.9645 3.28165,61.7979 5,63.5C 5.49224,62.451 5.32557,61.451 4.5,60.5C 5.2739,59.2888 6.10723,59.2888 7,60.5C 7.66667,62.8333 7.66667,65.1667 7,67.5C 6.31001,66.2617 5.81001,66.2617 5.5,67.5C 3.71053,66.1228 1.71053,65.1228 -0.5,64.5C -0.5,50.1667 -0.5,35.8333 -0.5,21.5C 1.1316,21.8247 2.1316,22.8247 2.5,24.5C 1.62816,26.0542 1.62816,27.3876 2.5,28.5C 2.73943,30.4672 2.40609,32.3005 1.5,34C 3.89118,34.6914 3.89118,35.6914 1.5,37C 2.19055,38.0674 2.69055,39.2341 3,40.5C 4,40.1667 5,39.8333 6,39.5C 6.66667,37.1667 6.66667,34.8333 6,32.5C 5.11066,33.8882 4.61066,33.7215 4.5,32C 4.56993,31.2352 4.90326,30.7352 5.5,30.5C 7.30359,31.3807 8.80359,32.714 10,34.5C 11.1097,32.6031 11.2764,30.7698 10.5,29C 11.2529,27.513 12.0862,27.3463 13,28.5C 13.2734,26.8988 13.7734,25.3988 14.5,24C 13.9056,23.5357 13.2389,23.369 12.5,23.5C 11.1667,22.5 11.1667,21.5 12.5,20.5C 14.0174,20.5106 15.1841,21.1772 16,22.5C 16.3333,21.1667 16.6667,19.8333 17,18.5C 18.1827,19.731 19.3493,19.731 20.5,18.5C 19.2713,17.7189 17.938,17.2189 16.5,17C 17.5,16.1667 18.5,15.3333 19.5,14.5C 17.0762,12.2864 17.7429,11.2864 21.5,11.5 Z"/></g>
<g><path style="opacity:1" fill="#26a7a2" d="M 21.5,11.5 C 22.209,10.596 23.209,10.2627 24.5,10.5C 26.5,10.5 28.5,10.5 30.5,10.5C 30.5,22.5 30.5,34.5 30.5,46.5C 27.5,46.5 24.5,46.5 21.5,46.5C 22.209,45.596 23.209,45.2627 24.5,45.5C 24.5,34.1667 24.5,22.8333 24.5,11.5C 23.5,11.5 22.5,11.5 21.5,11.5 Z"/></g>
<g><path style="opacity:1" fill="#34b092" d="M 30.5,10.5 C 32.8333,10.5 35.1667,10.5 37.5,10.5C 37.5,10.8333 37.5,11.1667 37.5,11.5C 36.5,11.5 35.5,11.5 34.5,11.5C 34.5,17.8333 34.5,24.1667 34.5,30.5C 35.5,30.5 36.5,30.5 37.5,30.5C 37.5,30.8333 37.5,31.1667 37.5,31.5C 36.5,31.5 35.5,31.5 34.5,31.5C 34.5,36.1667 34.5,40.8333 34.5,45.5C 36.5,45.5 38.5,45.5 40.5,45.5C 40.5,45.8333 40.5,46.1667 40.5,46.5C 37.1667,46.5 33.8333,46.5 30.5,46.5C 30.5,34.5 30.5,22.5 30.5,10.5 Z"/></g>
<g><path style="opacity:1" fill="#ebfced" d="M 37.5,11.5 C 38.4584,11.9528 39.2917,12.6195 40,13.5C 40.6667,18.5 40.6667,23.5 40,28.5C 39.2917,29.3805 38.4584,30.0472 37.5,30.5C 36.5,30.5 35.5,30.5 34.5,30.5C 34.5,24.1667 34.5,17.8333 34.5,11.5C 35.5,11.5 36.5,11.5 37.5,11.5 Z"/></g>
<g><path style="opacity:1" fill="#63ca69" d="M 42.5,11.5 C 44.099,11.2322 45.4324,11.5655 46.5,12.5C 46.0618,12.4346 45.7284,12.6012 45.5,13C 46.1451,18.2666 46.8118,23.4333 47.5,28.5C 46.4863,29.6737 45.153,30.3404 43.5,30.5C 42.7611,30.631 42.0944,30.4643 41.5,30C 42.7757,27.276 43.4423,24.276 43.5,21C 43.4423,17.724 42.7757,14.724 41.5,12C 41.7284,11.6012 42.0618,11.4346 42.5,11.5 Z"/></g>
<g><path style="opacity:1" fill="#f0bfbd" d="M 218.5,4.5 C 218.938,4.43456 219.272,4.60123 219.5,5C 218.429,5.85175 217.429,6.68509 216.5,7.5C 213.544,10.0922 212.211,13.4255 212.5,17.5C 212.783,21.196 213.283,24.8626 214,28.5C 214.48,30.133 215.313,31.4664 216.5,32.5C 215.5,32.5 214.5,32.5 213.5,32.5C 211.794,25.9674 211.128,19.3007 211.5,12.5C 212.431,8.57133 214.764,5.90467 218.5,4.5 Z"/></g>
<g><path style="opacity:1" fill="#77d466" d="M 46.5,12.5 C 50.1532,13.7861 51.8199,16.4527 51.5,20.5C 51.7359,24.0286 50.4025,26.6953 47.5,28.5C 46.8118,23.4333 46.1451,18.2666 45.5,13C 45.7284,12.6012 46.0618,12.4346 46.5,12.5 Z"/></g>
<g><path style="opacity:1" fill="#e0f8db" d="M 18.5,7.5 C 18.8795,8.13306 19.2129,8.79973 19.5,9.5C 21.3918,7.2847 23.0585,7.61803 24.5,10.5C 23.209,10.2627 22.209,10.596 21.5,11.5C 17.7429,11.2864 17.0762,12.2864 19.5,14.5C 18.5,15.3333 17.5,16.1667 16.5,17C 17.938,17.2189 19.2713,17.7189 20.5,18.5C 19.3493,19.731 18.1827,19.731 17,18.5C 16.6667,19.8333 16.3333,21.1667 16,22.5C 15.1841,21.1772 14.0174,20.5106 12.5,20.5C 10.9504,19.2801 9.28374,19.2801 7.5,20.5C 7.65668,19.1266 7.49001,17.7932 7,16.5C 6.34569,17.6956 5.84569,17.6956 5.5,16.5C 6.02527,15.8076 6.69194,15.3076 7.5,15C 6.43665,11.3478 7.76998,10.1811 11.5,11.5C 13.4221,9.41771 15.7555,8.08437 18.5,7.5 Z"/></g>
<g><path style="opacity:1" fill="#b8bc8d" d="M 80.5,16.5 C 80.8333,16.5 81.1667,16.5 81.5,16.5C 82.5676,17.4345 83.901,17.7678 85.5,17.5C 85.2785,19.6636 84.2785,21.3303 82.5,22.5C 80.1911,21.6123 78.5244,19.9456 77.5,17.5C 78.325,16.6143 79.325,16.281 80.5,16.5 Z"/></g>
<g><path style="opacity:1" fill="#cbbc9e" d="M 81.5,16.5 C 123.167,16.5 164.833,16.5 206.5,16.5C 204.138,19.192 201.804,21.8587 199.5,24.5C 198.5,24.5 197.5,24.5 196.5,24.5C 196.5,36.1667 196.5,47.8333 196.5,59.5C 195.833,59.5 195.5,59.1667 195.5,58.5C 195.567,57.0413 195.234,55.7079 194.5,54.5C 196.008,50.695 195.675,47.0284 193.5,43.5C 193.843,41.5168 193.176,40.1834 191.5,39.5C 191.167,38.1667 190.833,36.8333 190.5,35.5C 191.5,35.5 192.5,35.5 193.5,35.5C 193.263,36.791 193.596,37.791 194.5,38.5C 195.833,34.1667 195.833,29.8333 194.5,25.5C 193.081,24.5489 191.415,24.2155 189.5,24.5C 188.912,34.5383 188.912,44.5383 189.5,54.5C 187.167,54.5 184.833,54.5 182.5,54.5C 182.5,53.8333 182.5,53.1667 182.5,52.5C 182.401,49.3607 181.068,47.0274 178.5,45.5C 178.5,44.8333 178.5,44.1667 178.5,43.5C 179.167,43.5 179.833,43.5 180.5,43.5C 181.451,46.0452 182.451,46.0452 183.5,43.5C 182.643,42.5748 181.643,41.9081 180.5,41.5C 180.068,40.2905 179.401,39.2905 178.5,38.5C 180.182,34.1615 178.849,32.4948 174.5,33.5C 173.754,34.7362 173.421,36.0695 173.5,37.5C 171.821,40.0121 172.155,42.0121 174.5,43.5C 173.913,47.2064 173.246,50.873 172.5,54.5C 170.5,54.5 168.5,54.5 166.5,54.5C 166.5,53.8333 166.5,53.1667 166.5,52.5C 167.5,52.5 168.5,52.5 169.5,52.5C 169.5,51.5 169.5,50.5 169.5,49.5C 168.5,49.5 167.5,49.5 166.5,49.5C 165.624,49.6309 164.957,49.2975 164.5,48.5C 168.371,47.8592 169.038,46.3592 166.5,44C 161.721,42.6065 159.387,44.4398 159.5,49.5C 159.728,51.2073 160.062,52.874 160.5,54.5C 158.833,54.5 157.167,54.5 155.5,54.5C 155.5,52.1667 155.5,49.8333 155.5,47.5C 156.117,47.3893 156.617,47.056 157,46.5C 157.497,43.854 157.664,41.1873 157.5,38.5C 159.46,37.8617 161.293,37.8617 163,38.5C 163.499,34.8484 163.665,31.1817 163.5,27.5C 157.5,27.5 151.5,27.5 145.5,27.5C 145.5,31.1667 145.5,34.8333 145.5,38.5C 146.833,38.5 148.167,38.5 149.5,38.5C 149.277,40.3417 148.943,42.175 148.5,44C 148.862,45.4343 149.528,46.6009 150.5,47.5C 150.53,48.4972 150.03,49.1639 149,49.5C 147.85,48.5761 146.85,48.5761 146,49.5C 145.51,50.7932 145.343,52.1266 145.5,53.5C 147.415,53.2155 149.081,53.5489 150.5,54.5C 148.167,54.5 145.833,54.5 143.5,54.5C 143.666,50.1539 143.499,45.8206 143,41.5C 142.617,40.944 142.117,40.6107 141.5,40.5C 141.5,39.8333 141.833,39.5 142.5,39.5C 143.629,37.3718 143.796,35.0385 143,32.5C 142.092,30.5614 140.592,29.5614 138.5,29.5C 137.908,32.1272 137.575,34.7938 137.5,37.5C 137.782,38.7777 138.449,39.7777 139.5,40.5C 138.883,40.6107 138.383,40.944 138,41.5C 137.501,45.8206 137.334,50.1539 137.5,54.5C 135.833,54.5 134.167,54.5 132.5,54.5C 132.784,56.4147 132.451,58.0813 131.5,59.5C 131.5,57.8333 131.5,56.1667 131.5,54.5C 129.833,54.5 128.167,54.5 126.5,54.5C 125.375,53.3478 125.375,52.3478 126.5,51.5C 128.262,51.3573 129.929,51.6906 131.5,52.5C 132.492,48.2172 132.826,43.8839 132.5,39.5C 130.5,40.1667 128.5,40.8333 126.5,41.5C 126.833,39.5 127.167,37.5 127.5,35.5C 125.669,36.0522 124.003,36.0522 122.5,35.5C 121.999,37.6551 120.999,39.3218 119.5,40.5C 119.5,38.5 119.5,36.5 119.5,34.5C 116.833,34.5 114.167,34.5 111.5,34.5C 111.5,35.5 111.5,36.5 111.5,37.5C 111.36,39.1238 112.027,40.2904 113.5,41C 111.574,41.4224 110.574,42.5891 110.5,44.5C 109.698,43.0484 109.198,41.3817 109,39.5C 108.329,38.7476 107.496,38.4142 106.5,38.5C 105.833,37.1667 105.167,37.1667 104.5,38.5C 103.15,39.4831 102.15,40.8164 101.5,42.5C 100.735,41.3881 99.7348,40.7214 98.5,40.5C 97.1667,40.5 95.8333,40.5 94.5,40.5C 94.5,40.1667 94.5,39.8333 94.5,39.5C 94.7822,38.2223 95.4489,37.2223 96.5,36.5C 97.4682,34.3926 97.8016,32.0593 97.5,29.5C 92.8333,29.5 88.1667,29.5 83.5,29.5C 83.3404,27.847 82.6737,26.5137 81.5,25.5C 81.5569,24.391 81.8902,23.391 82.5,22.5C 84.2785,21.3303 85.2785,19.6636 85.5,17.5C 83.901,17.7678 82.5676,17.4345 81.5,16.5 Z"/></g>
<g><path style="opacity:1" fill="#e0f8da" d="M 80.5,16.5 C 79.325,16.281 78.325,16.6143 77.5,17.5C 78.5244,19.9456 80.1911,21.6123 82.5,22.5C 81.8902,23.391 81.5569,24.391 81.5,25.5C 78.9599,24.1127 77.2933,21.946 76.5,19C 75.552,18.5172 74.552,18.3505 73.5,18.5C 73.7135,20.1439 73.3802,21.6439 72.5,23C 76.9869,22.3254 78.9869,24.492 78.5,29.5C 77.1986,30.64 76.0319,31.9733 75,33.5C 73.8903,31.6031 73.7236,29.7698 74.5,28C 73.7471,26.513 72.9138,26.3463 72,27.5C 70.2143,24.3697 68.881,21.0364 68,17.5C 66.7025,18.7836 65.5358,18.6169 64.5,17C 65.6721,16.5814 66.6721,15.9147 67.5,15C 64.8875,13.9288 64.8875,13.0955 67.5,12.5C 69.6806,17.3028 71.3473,16.6362 72.5,10.5C 74.1368,9.78219 75.8034,9.61553 77.5,10C 78.8333,11.3333 78.8333,12.6667 77.5,14C 78.9423,14.3768 79.9423,15.2101 80.5,16.5 Z"/></g>
<g><path style="opacity:1" fill="#f0ece5" d="M 216.5,7.5 C 218.793,11.4048 221.126,15.4048 223.5,19.5C 222.189,20.2575 221.689,21.2575 222,22.5C 224.031,25.3553 226.197,28.022 228.5,30.5C 228.5,33.5 228.5,36.5 228.5,39.5C 225.909,34.8709 221.909,32.8709 216.5,33.5C 216.5,33.1667 216.5,32.8333 216.5,32.5C 215.313,31.4664 214.48,30.133 214,28.5C 213.283,24.8626 212.783,21.196 212.5,17.5C 212.211,13.4255 213.544,10.0922 216.5,7.5 Z"/></g>
<g><path style="opacity:1" fill="#bbeda9" d="M 12.5,20.5 C 11.1667,21.5 11.1667,22.5 12.5,23.5C 11.0646,24.0965 9.39796,24.0965 7.5,23.5C 7.5,22.5 7.5,21.5 7.5,20.5C 9.28374,19.2801 10.9504,19.2801 12.5,20.5 Z"/></g>
<g><path style="opacity:1" fill="#928667" d="M 101.5,21.5 C 109.676,20.1791 118.009,20.1791 126.5,21.5C 118.347,21.5737 110.014,21.5737 101.5,21.5 Z"/></g>
<g><path style="opacity:1" fill="#928567" d="M 142.5,20.5 C 150.86,20.1688 159.193,20.5021 167.5,21.5C 159.527,21.2078 151.36,21.5412 143,22.5C 142.536,21.9056 142.369,21.2389 142.5,20.5 Z"/></g>
<g><path style="opacity:1" fill="#dff8d9" d="M 7.5,20.5 C 7.5,21.5 7.5,22.5 7.5,23.5C 9.39796,24.0965 11.0646,24.0965 12.5,23.5C 13.2389,23.369 13.9056,23.5357 14.5,24C 13.7734,25.3988 13.2734,26.8988 13,28.5C 12.0862,27.3463 11.2529,27.513 10.5,29C 11.2764,30.7698 11.1097,32.6031 10,34.5C 8.80359,32.714 7.30359,31.3807 5.5,30.5C 6.40397,29.791 6.73731,28.791 6.5,27.5C 4.90097,27.2322 3.56764,27.5655 2.5,28.5C 1.62816,27.3876 1.62816,26.0542 2.5,24.5C 2.1316,22.8247 1.1316,21.8247 -0.5,21.5C -0.5,20.8333 -0.5,20.1667 -0.5,19.5C 0.14987,19.1961 0.816537,18.8627 1.5,18.5C 3.17894,20.1045 5.17894,20.7711 7.5,20.5 Z"/></g>
<g><path style="opacity:1" fill="#d6cbb2" d="M 157.5,38.5 C 156.5,38.1667 155.833,37.5 155.5,36.5C 155.5,34.8333 155.5,33.1667 155.5,31.5C 151.67,31.4958 150.67,33.1625 152.5,36.5C 150.973,36.427 149.973,37.0937 149.5,38.5C 148.167,38.5 146.833,38.5 145.5,38.5C 145.5,34.8333 145.5,31.1667 145.5,27.5C 151.5,27.5 157.5,27.5 163.5,27.5C 163.665,31.1817 163.499,34.8484 163,38.5C 161.293,37.8617 159.46,37.8617 157.5,38.5 Z"/></g>
<g><path style="opacity:1" fill="#62c77d" d="M 37.5,11.5 C 37.5,11.1667 37.5,10.8333 37.5,10.5C 39.4147,10.2155 41.0813,10.5489 42.5,11.5C 42.0618,11.4346 41.7284,11.6012 41.5,12C 42.7757,14.724 43.4423,17.724 43.5,21C 43.4423,24.276 42.7757,27.276 41.5,30C 42.0944,30.4643 42.7611,30.631 43.5,30.5C 41.7354,31.4614 39.7354,31.7947 37.5,31.5C 37.5,31.1667 37.5,30.8333 37.5,30.5C 38.4584,30.0472 39.2917,29.3805 40,28.5C 40.6667,23.5 40.6667,18.5 40,13.5C 39.2917,12.6195 38.4584,11.9528 37.5,11.5 Z"/></g>
<g><path style="opacity:1" fill="#746951" d="M 191.5,26.5 C 192.5,26.5 193.5,26.5 194.5,26.5C 194.5,30.5 194.5,34.5 194.5,38.5C 193.596,37.791 193.263,36.791 193.5,35.5C 192.5,35.5 191.5,35.5 190.5,35.5C 191.403,32.6085 191.736,29.6085 191.5,26.5 Z"/></g>
<g><path style="opacity:1" fill="#9e9277" d="M 191.5,26.5 C 192.209,25.596 193.209,25.2627 194.5,25.5C 195.833,29.8333 195.833,34.1667 194.5,38.5C 194.5,34.5 194.5,30.5 194.5,26.5C 193.5,26.5 192.5,26.5 191.5,26.5 Z"/></g>
<g><path style="opacity:1" fill="#c6f0b8" d="M 5.5,30.5 C 4.90326,30.7352 4.56993,31.2352 4.5,32C 4.61066,33.7215 5.11066,33.8882 6,32.5C 6.66667,34.8333 6.66667,37.1667 6,39.5C 5,39.8333 4,40.1667 3,40.5C 2.69055,39.2341 2.19055,38.0674 1.5,37C 3.89118,35.6914 3.89118,34.6914 1.5,34C 2.40609,32.3005 2.73943,30.4672 2.5,28.5C 3.56764,27.5655 4.90097,27.2322 6.5,27.5C 6.73731,28.791 6.40397,29.791 5.5,30.5 Z"/></g>
<g><path style="opacity:1" fill="#d6cab2" d="M 83.5,29.5 C 88.1667,29.5 92.8333,29.5 97.5,29.5C 97.8016,32.0593 97.4682,34.3926 96.5,36.5C 95.4583,35.2089 94.2917,35.2089 93,36.5C 92.4153,37.9976 92.9153,38.9976 94.5,39.5C 94.5,39.8333 94.5,40.1667 94.5,40.5C 93.8333,40.5 93.1667,40.5 92.5,40.5C 90.1667,40.5 87.8333,40.5 85.5,40.5C 85.586,36.6814 84.9193,33.0148 83.5,29.5 Z"/></g>
<g><path style="opacity:1" fill="#b97f49" d="M 122.5,29.5 C 124.922,30.0852 126.589,31.5852 127.5,34C 125.862,33.758 124.362,32.9247 123,31.5C 123.077,32.7376 122.911,33.7376 122.5,34.5C 121.334,32.8327 121.334,31.166 122.5,29.5 Z"/></g>
<g><path style="opacity:1" fill="#9ba4cc" d="M 142.5,39.5 C 142.5,38.5 142.5,37.5 142.5,36.5C 140.708,36.366 139.042,36.6993 137.5,37.5C 137.575,34.7938 137.908,32.1272 138.5,29.5C 140.592,29.5614 142.092,30.5614 143,32.5C 143.796,35.0385 143.629,37.3718 142.5,39.5 Z"/></g>
<g><path style="opacity:1" fill="#c7f0b9" d="M 81.5,25.5 C 82.6737,26.5137 83.3404,27.847 83.5,29.5C 83.161,31.6638 83.161,33.8305 83.5,36C 82.8095,37.0674 82.3095,38.2341 82,39.5C 81.3333,38.1667 80.6667,38.1667 80,39.5C 77.8539,36.4063 78.0206,33.4063 80.5,30.5C 80.0431,29.7025 79.3764,29.3691 78.5,29.5C 78.9869,24.492 76.9869,22.3254 72.5,23C 73.3802,21.6439 73.7135,20.1439 73.5,18.5C 74.552,18.3505 75.552,18.5172 76.5,19C 77.2933,21.946 78.9599,24.1127 81.5,25.5 Z"/></g>
<g><path style="opacity:1" fill="#ee8269" d="M 213.5,32.5 C 214.5,32.5 215.5,32.5 216.5,32.5C 216.5,32.8333 216.5,33.1667 216.5,33.5C 215.833,33.5 215.5,33.8333 215.5,34.5C 215.167,34.5 214.833,34.5 214.5,34.5C 213.662,34.1583 213.328,33.4916 213.5,32.5 Z"/></g>
<g><path style="opacity:1" fill="#c09278" d="M 155.5,36.5 C 154.686,38.631 154.186,40.9644 154,43.5C 153.71,41.0796 153.21,38.7463 152.5,36.5C 150.67,33.1625 151.67,31.4958 155.5,31.5C 155.5,33.1667 155.5,34.8333 155.5,36.5 Z"/></g>
<g><path style="opacity:1" fill="#524b46" d="M 178.5,38.5 C 177.842,37.6016 177.176,36.6016 176.5,35.5C 175.735,36.6119 174.735,37.2786 173.5,37.5C 173.421,36.0695 173.754,34.7362 174.5,33.5C 178.849,32.4948 180.182,34.1615 178.5,38.5 Z"/></g>
<g><path style="opacity:1" fill="#a2a4bc" d="M 129.5,34.5 C 131.09,34.6282 132.423,35.2949 133.5,36.5C 132.167,36.8333 130.833,37.1667 129.5,37.5C 128.438,36.5754 128.438,35.5754 129.5,34.5 Z"/></g>
<g><path style="opacity:1" fill="#84544d" d="M 96.5,36.5 C 95.4489,37.2223 94.7822,38.2223 94.5,39.5C 92.9153,38.9976 92.4153,37.9976 93,36.5C 94.2917,35.2089 95.4583,35.2089 96.5,36.5 Z"/></g>
<g><path style="opacity:1" fill="#c26661" d="M 119.5,40.5 C 118.167,40.5 116.833,40.5 115.5,40.5C 115.671,37.2027 115.005,36.8694 113.5,39.5C 112.818,38.7573 112.151,38.0906 111.5,37.5C 111.5,36.5 111.5,35.5 111.5,34.5C 114.167,34.5 116.833,34.5 119.5,34.5C 119.5,36.5 119.5,38.5 119.5,40.5 Z"/></g>
<g><path style="opacity:1" fill="#69709b" d="M 142.5,39.5 C 141.833,39.5 141.5,39.8333 141.5,40.5C 140.833,40.5 140.167,40.5 139.5,40.5C 138.449,39.7777 137.782,38.7777 137.5,37.5C 139.042,36.6993 140.708,36.366 142.5,36.5C 142.5,37.5 142.5,38.5 142.5,39.5 Z"/></g>
<g><path style="opacity:1" fill="#edd9ca" d="M 126.5,41.5 C 123.941,41.8016 121.607,41.4682 119.5,40.5C 120.999,39.3218 121.999,37.6551 122.5,35.5C 124.003,36.0522 125.669,36.0522 127.5,35.5C 127.167,37.5 126.833,39.5 126.5,41.5 Z"/></g>
<g><path style="opacity:1" fill="#cd7c7a" d="M 178.5,38.5 C 179.401,39.2905 180.068,40.2905 180.5,41.5C 180.5,42.1667 180.5,42.8333 180.5,43.5C 179.833,43.5 179.167,43.5 178.5,43.5C 177.167,43.5 175.833,43.5 174.5,43.5C 172.155,42.0121 171.821,40.0121 173.5,37.5C 174.735,37.2786 175.735,36.6119 176.5,35.5C 177.176,36.6016 177.842,37.6016 178.5,38.5 Z"/></g>
<g><path style="opacity:1" fill="#8f99cb" d="M 92.5,40.5 C 93.1667,40.5 93.8333,40.5 94.5,40.5C 95.8333,40.5 97.1667,40.5 98.5,40.5C 98.5,41.5 98.5,42.5 98.5,43.5C 97.5489,44.9187 97.2155,46.5853 97.5,48.5C 96.1667,48.5 94.8333,48.5 93.5,48.5C 93.9227,46.2188 93.256,44.5521 91.5,43.5C 91.5569,42.391 91.8902,41.391 92.5,40.5 Z"/></g>
<g><path style="opacity:1" fill="#ae9171" d="M 111.5,37.5 C 112.151,38.0906 112.818,38.7573 113.5,39.5C 115.005,36.8694 115.671,37.2027 115.5,40.5C 116.833,40.5 118.167,40.5 119.5,40.5C 121.607,41.4682 123.941,41.8016 126.5,41.5C 128.5,40.8333 130.5,40.1667 132.5,39.5C 132.826,43.8839 132.492,48.2172 131.5,52.5C 129.929,51.6906 128.262,51.3573 126.5,51.5C 126.296,48.4824 125.963,45.4824 125.5,42.5C 120.109,41.8665 115.109,42.8665 110.5,45.5C 110.5,45.1667 110.5,44.8333 110.5,44.5C 110.574,42.5891 111.574,41.4224 113.5,41C 112.027,40.2904 111.36,39.1238 111.5,37.5 Z"/></g>
<g><path style="opacity:1" fill="#e6877f" d="M 191.5,39.5 C 193.176,40.1834 193.843,41.5168 193.5,43.5C 191.896,42.713 191.229,41.3797 191.5,39.5 Z"/></g>
<g><path style="opacity:1" fill="#efc4c3" d="M 215.5,34.5 C 215.5,33.8333 215.833,33.5 216.5,33.5C 221.909,32.8709 225.909,34.8709 228.5,39.5C 228.5,42.1667 228.5,44.8333 228.5,47.5C 226.932,45.1891 226.098,42.5224 226,39.5C 223.45,35.8083 219.95,34.1416 215.5,34.5 Z"/></g>
<g><path style="opacity:1" fill="#c7b697" d="M 85.5,40.5 C 87.8333,40.5 90.1667,40.5 92.5,40.5C 91.8902,41.391 91.5569,42.391 91.5,43.5C 92.4227,47.0641 92.756,50.7307 92.5,54.5C 91.5,54.5 90.5,54.5 89.5,54.5C 89.81,51.2869 89.4767,48.2869 88.5,45.5C 87.791,44.596 86.791,44.2627 85.5,44.5C 85.5,43.1667 85.5,41.8333 85.5,40.5 Z"/></g>
<g><path style="opacity:1" fill="#929bc4" d="M 106.5,38.5 C 106.5,43.8333 106.5,49.1667 106.5,54.5C 104.744,53.4479 104.077,51.7812 104.5,49.5C 104.5,45.8333 104.5,42.1667 104.5,38.5C 105.167,37.1667 105.833,37.1667 106.5,38.5 Z"/></g>
<g><path style="opacity:1" fill="#b5615e" d="M 139.5,40.5 C 140.167,40.5 140.833,40.5 141.5,40.5C 142.117,40.6107 142.617,40.944 143,41.5C 143.499,45.8206 143.666,50.1539 143.5,54.5C 143.5,55.5 143.5,56.5 143.5,57.5C 141.5,57.5 139.5,57.5 137.5,57.5C 137.5,56.5 137.5,55.5 137.5,54.5C 137.334,50.1539 137.501,45.8206 138,41.5C 138.383,40.944 138.883,40.6107 139.5,40.5 Z"/></g>
<g><path style="opacity:1" fill="#70553e" d="M 180.5,41.5 C 181.643,41.9081 182.643,42.5748 183.5,43.5C 182.451,46.0452 181.451,46.0452 180.5,43.5C 180.5,42.8333 180.5,42.1667 180.5,41.5 Z"/></g>
<g><path style="opacity:1" fill="#eae8e7" d="M 106.5,38.5 C 107.496,38.4142 108.329,38.7476 109,39.5C 109.198,41.3817 109.698,43.0484 110.5,44.5C 110.5,44.8333 110.5,45.1667 110.5,45.5C 110.5,46.1667 110.5,46.8333 110.5,47.5C 109.34,50.0334 108.007,52.3668 106.5,54.5C 106.5,49.1667 106.5,43.8333 106.5,38.5 Z"/></g>
<g><path style="opacity:1" fill="#807358" d="M 126.5,51.5 C 125.375,52.3478 125.375,53.3478 126.5,54.5C 124.72,55.9899 124.054,57.9899 124.5,60.5C 119.167,60.5 113.833,60.5 108.5,60.5C 108.5,58.8333 108.5,57.1667 108.5,55.5C 109.238,53.3365 110.238,51.1699 111.5,49C 111.43,48.2352 111.097,47.7352 110.5,47.5C 110.5,46.8333 110.5,46.1667 110.5,45.5C 115.109,42.8665 120.109,41.8665 125.5,42.5C 125.963,45.4824 126.296,48.4824 126.5,51.5 Z"/></g>
<g><path style="opacity:1" fill="#68cb72" d="M 54.5,36.5 C 56.9699,36.6535 58.9699,37.6535 60.5,39.5C 59.5073,47.6499 59.1739,55.9832 59.5,64.5C 58.7377,66.2624 57.4044,67.2624 55.5,67.5C 54.596,66.791 54.2627,65.791 54.5,64.5C 55.8005,63.1184 56.6339,61.4517 57,59.5C 57.8213,52.3209 57.6546,45.3209 56.5,38.5C 55.3915,37.71 54.0581,37.21 52.5,37C 53.0944,36.5357 53.7611,36.369 54.5,36.5 Z"/></g>
<g><path style="opacity:1" fill="#9c8489" d="M 91.5,43.5 C 93.256,44.5521 93.9227,46.2188 93.5,48.5C 93.5,50.5 93.5,52.5 93.5,54.5C 93.1667,54.5 92.8333,54.5 92.5,54.5C 92.756,50.7307 92.4227,47.0641 91.5,43.5 Z"/></g>
<g><path style="opacity:1" fill="#949bc9" d="M 152.5,36.5 C 153.21,38.7463 153.71,41.0796 154,43.5C 154.186,40.9644 154.686,38.631 155.5,36.5C 155.833,37.5 156.5,38.1667 157.5,38.5C 157.664,41.1873 157.497,43.854 157,46.5C 156.617,47.056 156.117,47.3893 155.5,47.5C 154.849,46.9094 154.182,46.2427 153.5,45.5C 152.818,46.2427 152.151,46.9094 151.5,47.5C 151.167,47.5 150.833,47.5 150.5,47.5C 149.528,46.6009 148.862,45.4343 148.5,44C 148.943,42.175 149.277,40.3417 149.5,38.5C 149.973,37.0937 150.973,36.427 152.5,36.5 Z"/></g>
<g><path style="opacity:1" fill="#abe1d5" d="M 21.5,46.5 C 24.5,46.5 27.5,46.5 30.5,46.5C 33.8333,46.5 37.1667,46.5 40.5,46.5C 40.5,50.8333 40.5,55.1667 40.5,59.5C 39.5166,55.7016 39.1832,51.7016 39.5,47.5C 33.31,47.8229 27.31,47.4896 21.5,46.5 Z"/></g>
<g><path style="opacity:1" fill="#18a0a6" d="M 44.5,39.5 C 44.8264,48.3494 44.493,57.0161 43.5,65.5C 41.461,64.089 40.461,62.089 40.5,59.5C 40.5,55.1667 40.5,50.8333 40.5,46.5C 40.5,46.1667 40.5,45.8333 40.5,45.5C 40.8449,42.8021 42.1782,40.8021 44.5,39.5 Z"/></g>
<g><path style="opacity:1" fill="#c69575" d="M 98.5,43.5 C 99.1667,43.5 99.5,43.8333 99.5,44.5C 99.7947,46.7354 99.4614,48.7354 98.5,50.5C 97.6618,50.1583 97.3284,49.4916 97.5,48.5C 97.2155,46.5853 97.5489,44.9187 98.5,43.5 Z"/></g>
<g><path style="opacity:1" fill="#898bb7" d="M 174.5,43.5 C 175.833,43.5 177.167,43.5 178.5,43.5C 178.5,44.1667 178.5,44.8333 178.5,45.5C 178.5,47.1667 178.5,48.8333 178.5,50.5C 178.5,51.1667 178.5,51.8333 178.5,52.5C 177.463,53.9303 176.796,55.597 176.5,57.5C 175.036,58.4054 173.702,58.4054 172.5,57.5C 172.5,56.5 172.5,55.5 172.5,54.5C 173.246,50.873 173.913,47.2064 174.5,43.5 Z"/></g>
<g><path style="opacity:1" fill="#5c6591" d="M 155.5,47.5 C 155.5,49.8333 155.5,52.1667 155.5,54.5C 155.5,54.8333 155.5,55.1667 155.5,55.5C 154.596,56.209 154.263,57.209 154.5,58.5C 153.5,58.5 152.5,58.5 151.5,58.5C 151.5,54.8333 151.5,51.1667 151.5,47.5C 152.151,46.9094 152.818,46.2427 153.5,45.5C 154.182,46.2427 154.849,46.9094 155.5,47.5 Z"/></g>
<g><path style="opacity:1" fill="#9b494e" d="M 85.5,44.5 C 86.791,44.2627 87.791,44.596 88.5,45.5C 88.5,47.5 88.5,49.5 88.5,51.5C 87.1667,51.5 85.8333,51.5 84.5,51.5C 85.3686,49.283 85.702,46.9496 85.5,44.5 Z"/></g>
<g><path style="opacity:1" fill="#63688d" d="M 93.5,48.5 C 94.8333,48.5 96.1667,48.5 97.5,48.5C 97.3284,49.4916 97.6618,50.1583 98.5,50.5C 98.5,51.8333 98.5,53.1667 98.5,54.5C 96.8333,54.5 95.1667,54.5 93.5,54.5C 93.5,52.5 93.5,50.5 93.5,48.5 Z"/></g>
<g><path style="opacity:1" fill="#cc9e79" d="M 178.5,45.5 C 181.068,47.0274 182.401,49.3607 182.5,52.5C 181.732,51.7375 181.232,50.7375 181,49.5C 180.329,50.2524 179.496,50.5858 178.5,50.5C 178.5,48.8333 178.5,47.1667 178.5,45.5 Z"/></g>
<g><path style="opacity:1" fill="#ece9e7" d="M 104.5,38.5 C 104.5,42.1667 104.5,45.8333 104.5,49.5C 103.539,51.2646 103.205,53.2646 103.5,55.5C 102.662,55.8417 102.328,56.5084 102.5,57.5C 101.5,57.5 100.5,57.5 99.5,57.5C 101.181,53.676 101.681,49.676 101,45.5C 100.617,44.944 100.117,44.6107 99.5,44.5C 99.5,43.8333 99.1667,43.5 98.5,43.5C 98.5,42.5 98.5,41.5 98.5,40.5C 99.7348,40.7214 100.735,41.3881 101.5,42.5C 102.15,40.8164 103.15,39.4831 104.5,38.5 Z"/></g>
<g><path style="opacity:1" fill="#ab5b58" d="M 166.5,49.5 C 167.5,49.5 168.5,49.5 169.5,49.5C 169.5,50.5 169.5,51.5 169.5,52.5C 168.5,52.5 167.5,52.5 166.5,52.5C 166.5,51.5 166.5,50.5 166.5,49.5 Z"/></g>
<g><path style="opacity:1" fill="#c4f0b5" d="M 83.5,53.5 C 83.5,53.8333 83.5,54.1667 83.5,54.5C 80.9228,54.4551 78.9228,55.4551 77.5,57.5C 77.4208,56.0695 77.7542,54.7362 78.5,53.5C 77.1395,53.2124 75.8062,52.879 74.5,52.5C 76.1708,50.9923 78.0041,50.6589 80,51.5C 78.7289,48.4702 78.2289,45.6369 78.5,43C 79.5521,41.8808 80.7188,41.3808 82,41.5C 82.3095,42.7659 82.8095,43.9326 83.5,45C 82.6708,47.7372 82.6708,50.5705 83.5,53.5 Z"/></g>
<g><path style="opacity:1" fill="#c6877c" d="M 88.5,45.5 C 89.4767,48.2869 89.81,51.2869 89.5,54.5C 87.5853,54.7845 85.9187,54.4511 84.5,53.5C 84.5,52.8333 84.5,52.1667 84.5,51.5C 85.8333,51.5 87.1667,51.5 88.5,51.5C 88.5,49.5 88.5,47.5 88.5,45.5 Z"/></g>
<g><path style="opacity:1" fill="#9298c8" d="M 166.5,49.5 C 166.5,50.5 166.5,51.5 166.5,52.5C 166.5,53.1667 166.5,53.8333 166.5,54.5C 164.5,54.5 162.5,54.5 160.5,54.5C 160.062,52.874 159.728,51.2073 159.5,49.5C 159.387,44.4398 161.721,42.6065 166.5,44C 169.038,46.3592 168.371,47.8592 164.5,48.5C 164.957,49.2975 165.624,49.6309 166.5,49.5 Z"/></g>
<g><path style="opacity:1" fill="#b17238" d="M 182.5,52.5 C 182.5,53.1667 182.5,53.8333 182.5,54.5C 180.517,54.8432 179.183,54.1765 178.5,52.5C 178.5,51.8333 178.5,51.1667 178.5,50.5C 179.496,50.5858 180.329,50.2524 181,49.5C 181.232,50.7375 181.732,51.7375 182.5,52.5 Z"/></g>
<g><path style="opacity:1" fill="#77d466" d="M 60.5,39.5 C 62.9108,43.0624 63.9108,47.0624 63.5,51.5C 64.113,56.5656 62.7797,60.8989 59.5,64.5C 59.1739,55.9832 59.5073,47.6499 60.5,39.5 Z"/></g>
<g><path style="opacity:1" fill="#34ac9f" d="M 54.5,36.5 C 53.7611,36.369 53.0944,36.5357 52.5,37C 54.0581,37.21 55.3915,37.71 56.5,38.5C 51.4419,37.7168 47.9419,39.7168 46,44.5C 45.0495,51.6291 45.5495,58.6291 47.5,65.5C 46.0416,66.782 44.7082,66.782 43.5,65.5C 44.493,57.0161 44.8264,48.3494 44.5,39.5C 47.1029,35.7415 50.4362,34.7415 54.5,36.5 Z"/></g>
<g><path style="opacity:1" fill="#a6a5b1" d="M 110.5,47.5 C 111.097,47.7352 111.43,48.2352 111.5,49C 110.238,51.1699 109.238,53.3365 108.5,55.5C 107.167,55.5 106.5,56.1667 106.5,57.5C 105.833,58.1667 105.167,58.8333 104.5,59.5C 104.768,57.901 104.434,56.5676 103.5,55.5C 103.205,53.2646 103.539,51.2646 104.5,49.5C 104.077,51.7812 104.744,53.4479 106.5,54.5C 108.007,52.3668 109.34,50.0334 110.5,47.5 Z"/></g>
<g><path style="opacity:1" fill="#7f7e99" d="M 150.5,47.5 C 150.833,47.5 151.167,47.5 151.5,47.5C 151.5,51.1667 151.5,54.8333 151.5,58.5C 150.566,57.4324 150.232,56.099 150.5,54.5C 149.081,53.5489 147.415,53.2155 145.5,53.5C 145.343,52.1266 145.51,50.7932 146,49.5C 146.85,48.5761 147.85,48.5761 149,49.5C 150.03,49.1639 150.53,48.4972 150.5,47.5 Z"/></g>
<g><path style="opacity:1" fill="#bf6a63" d="M 194.5,54.5 C 195.234,55.7079 195.567,57.0413 195.5,58.5C 193.914,57.5868 192.414,57.5868 191,58.5C 190.874,54.1365 191.374,49.8031 192.5,45.5C 193.167,48.6417 193.834,51.6417 194.5,54.5 Z"/></g>
<g><path style="opacity:1" fill="#d3baa1" d="M 99.5,44.5 C 100.117,44.6107 100.617,44.944 101,45.5C 101.681,49.676 101.181,53.676 99.5,57.5C 99.3184,59.5914 99.6518,61.5914 100.5,63.5C 100.167,63.8333 99.8333,64.1667 99.5,64.5C 98.8333,62.8333 98.1667,61.1667 97.5,59.5C 97.1667,60.8333 96.8333,62.1667 96.5,63.5C 95.1302,60.5817 94.1302,57.5817 93.5,54.5C 95.1667,54.5 96.8333,54.5 98.5,54.5C 98.5,53.1667 98.5,51.8333 98.5,50.5C 99.4614,48.7354 99.7947,46.7354 99.5,44.5 Z"/></g>
<g><path style="opacity:1" fill="#eec4c2" d="M 213.5,32.5 C 213.328,33.4916 213.662,34.1583 214.5,34.5C 213.167,35.8333 211.833,37.1667 210.5,38.5C 210.5,39.1667 210.5,39.8333 210.5,40.5C 209.362,43.3035 209.195,46.3035 210,49.5C 211.251,53.082 212.251,56.7487 213,60.5C 213.816,61.8228 214.983,62.4894 216.5,62.5C 216.5,63.1667 216.5,63.8333 216.5,64.5C 212.814,63.645 210.647,61.3116 210,57.5C 207.479,50.1104 207.313,42.7771 209.5,35.5C 211.43,35.2294 212.764,34.2294 213.5,32.5 Z"/></g>
<g><path style="opacity:1" fill="#cdf3c1" d="M 12.5,68.5 C 12.1435,69.8699 11.3102,70.8699 10,71.5C 9.75374,70.2795 8.92041,69.2795 7.5,68.5C 6.50838,68.6716 5.84171,68.3382 5.5,67.5C 5.81001,66.2617 6.31001,66.2617 7,67.5C 7.66667,65.1667 7.66667,62.8333 7,60.5C 6.10723,59.2888 5.2739,59.2888 4.5,60.5C 5.32557,61.451 5.49224,62.451 5,63.5C 3.28165,61.7979 3.11498,59.9645 4.5,58C 3.37598,57.7508 2.37598,57.2508 1.5,56.5C 0.956828,53.5865 0.956828,50.4198 1.5,47C 2.19055,45.9326 2.69055,44.7659 3,43.5C 4,43.8333 5,44.1667 6,44.5C 6.77834,47.275 6.27834,49.775 4.5,52C 6.38542,54.1583 7.38542,56.6583 7.5,59.5C 9.85684,59.3367 12.1902,59.5034 14.5,60C 11.584,60.0488 10.584,61.2155 11.5,63.5C 8.74341,65.884 9.07675,67.5507 12.5,68.5 Z"/></g>
<g><path style="opacity:1" fill="#ddd3c0" d="M 194.5,25.5 C 193.209,25.2627 192.209,25.596 191.5,26.5C 191.736,29.6085 191.403,32.6085 190.5,35.5C 190.833,36.8333 191.167,38.1667 191.5,39.5C 191.229,41.3797 191.896,42.713 193.5,43.5C 195.675,47.0284 196.008,50.695 194.5,54.5C 193.834,51.6417 193.167,48.6417 192.5,45.5C 191.374,49.8031 190.874,54.1365 191,58.5C 192.414,57.5868 193.914,57.5868 195.5,58.5C 195.5,59.1667 195.833,59.5 196.5,59.5C 197.473,61.9479 197.806,64.6146 197.5,67.5C 157.833,67.5 118.167,67.5 78.5,67.5C 78.0618,67.5654 77.7284,67.3988 77.5,67C 79.9868,63.0246 81.9868,58.8579 83.5,54.5C 83.5,54.1667 83.5,53.8333 83.5,53.5C 83.8333,53.5 84.1667,53.5 84.5,53.5C 85.9187,54.4511 87.5853,54.7845 89.5,54.5C 90.5,54.5 91.5,54.5 92.5,54.5C 92.8333,54.5 93.1667,54.5 93.5,54.5C 94.1302,57.5817 95.1302,60.5817 96.5,63.5C 96.8333,62.1667 97.1667,60.8333 97.5,59.5C 98.1667,61.1667 98.8333,62.8333 99.5,64.5C 99.8333,64.1667 100.167,63.8333 100.5,63.5C 99.6518,61.5914 99.3184,59.5914 99.5,57.5C 100.5,57.5 101.5,57.5 102.5,57.5C 102.215,59.288 102.548,60.9547 103.5,62.5C 104.386,61.675 104.719,60.675 104.5,59.5C 105.167,58.8333 105.833,58.1667 106.5,57.5C 106.215,59.288 106.548,60.9547 107.5,62.5C 108.298,62.0431 108.631,61.3764 108.5,60.5C 113.833,60.5 119.167,60.5 124.5,60.5C 124.783,61.2891 125.283,61.9558 126,62.5C 126.202,60.7444 126.702,59.0777 127.5,57.5C 128.41,59.6549 129.577,61.6549 131,63.5C 131.49,62.2068 131.657,60.8734 131.5,59.5C 132.451,58.0813 132.784,56.4147 132.5,54.5C 134.167,54.5 135.833,54.5 137.5,54.5C 137.5,55.5 137.5,56.5 137.5,57.5C 139.5,57.5 141.5,57.5 143.5,57.5C 143.5,56.5 143.5,55.5 143.5,54.5C 145.833,54.5 148.167,54.5 150.5,54.5C 150.232,56.099 150.566,57.4324 151.5,58.5C 152.5,58.5 153.5,58.5 154.5,58.5C 154.263,57.209 154.596,56.209 155.5,55.5C 156.334,56.7479 157.667,57.4146 159.5,57.5C 163.432,56.766 167.432,56.766 171.5,57.5C 171.97,58.6935 172.97,59.3601 174.5,59.5C 176.976,59.7674 177.643,59.1007 176.5,57.5C 176.796,55.597 177.463,53.9303 178.5,52.5C 179.183,54.1765 180.517,54.8432 182.5,54.5C 184.833,54.5 187.167,54.5 189.5,54.5C 188.912,44.5383 188.912,34.5383 189.5,24.5C 191.415,24.2155 193.081,24.5489 194.5,25.5 Z"/></g>
<g><path style="opacity:1" fill="#bb7474" d="M 171.5,57.5 C 171.833,57.5 172.167,57.5 172.5,57.5C 173.702,58.4054 175.036,58.4054 176.5,57.5C 177.643,59.1007 176.976,59.7674 174.5,59.5C 172.97,59.3601 171.97,58.6935 171.5,57.5 Z"/></g>
<g><path style="opacity:1" fill="#60658e" d="M 126.5,54.5 C 128.167,54.5 129.833,54.5 131.5,54.5C 131.5,56.1667 131.5,57.8333 131.5,59.5C 131.657,60.8734 131.49,62.2068 131,63.5C 129.577,61.6549 128.41,59.6549 127.5,57.5C 126.702,59.0777 126.202,60.7444 126,62.5C 125.283,61.9558 124.783,61.2891 124.5,60.5C 124.054,57.9899 124.72,55.9899 126.5,54.5 Z"/></g>
<g><path style="opacity:1" fill="#59638f" d="M 108.5,55.5 C 108.5,57.1667 108.5,58.8333 108.5,60.5C 108.631,61.3764 108.298,62.0431 107.5,62.5C 106.548,60.9547 106.215,59.288 106.5,57.5C 106.5,56.1667 107.167,55.5 108.5,55.5 Z"/></g>
<g><path style="opacity:1" fill="#626a93" d="M 103.5,55.5 C 104.434,56.5676 104.768,57.901 104.5,59.5C 104.719,60.675 104.386,61.675 103.5,62.5C 102.548,60.9547 102.215,59.288 102.5,57.5C 102.328,56.5084 102.662,55.8417 103.5,55.5 Z"/></g>
<g><path style="opacity:1" fill="#f2ece6" d="M 155.5,54.5 C 157.167,54.5 158.833,54.5 160.5,54.5C 162.5,54.5 164.5,54.5 166.5,54.5C 168.5,54.5 170.5,54.5 172.5,54.5C 172.5,55.5 172.5,56.5 172.5,57.5C 172.167,57.5 171.833,57.5 171.5,57.5C 167.432,56.766 163.432,56.766 159.5,57.5C 157.667,57.4146 156.334,56.7479 155.5,55.5C 155.5,55.1667 155.5,54.8333 155.5,54.5 Z"/></g>
<g><path style="opacity:1" fill="#f0ede6" d="M 211.5,12.5 C 211.128,19.3007 211.794,25.9674 213.5,32.5C 212.764,34.2294 211.43,35.2294 209.5,35.5C 207.313,42.7771 207.479,50.1104 210,57.5C 210.647,61.3116 212.814,63.645 216.5,64.5C 220.5,63.8333 220.5,63.1667 216.5,62.5C 214.983,62.4894 213.816,61.8228 213,60.5C 212.251,56.7487 211.251,53.082 210,49.5C 209.195,46.3035 209.362,43.3035 210.5,40.5C 210.192,42.924 210.526,45.2573 211.5,47.5C 212.786,44.24 212.453,41.24 210.5,38.5C 211.833,37.1667 213.167,35.8333 214.5,34.5C 214.833,34.5 215.167,34.5 215.5,34.5C 219.95,34.1416 223.45,35.8083 226,39.5C 226.098,42.5224 226.932,45.1891 228.5,47.5C 228.5,60.1667 228.5,72.8333 228.5,85.5C 222.833,85.5 217.167,85.5 211.5,85.5C 211.496,58.8733 210.829,58.8733 209.5,85.5C 205.5,85.5 201.5,85.5 197.5,85.5C 197.5,79.8333 197.5,74.1667 197.5,68.5C 197.969,54.582 198.969,40.582 200.5,26.5C 200.137,25.8165 199.804,25.1499 199.5,24.5C 201.804,21.8587 204.138,19.192 206.5,16.5C 208.167,15.1667 209.833,13.8333 211.5,12.5 Z"/></g>
<g><path style="opacity:1" fill="#eb7354" d="M 216.5,62.5 C 220.5,63.1667 220.5,63.8333 216.5,64.5C 216.5,63.8333 216.5,63.1667 216.5,62.5 Z"/></g>
<g><path style="opacity:1" fill="#eb7756" d="M 224.5,61.5 C 227.797,61.3287 228.131,61.9954 225.5,63.5C 224.702,63.0431 224.369,62.3764 224.5,61.5 Z"/></g>
<g><path style="opacity:1" fill="#ea6f4d" d="M 217.5,42.5 C 219.604,42.2011 221.604,42.5344 223.5,43.5C 220.874,47.5305 218.874,47.1972 217.5,42.5 Z"/></g>
<g><path style="opacity:1" fill="#aeabbb" d="M 210.5,38.5 C 212.453,41.24 212.786,44.24 211.5,47.5C 210.526,45.2573 210.192,42.924 210.5,40.5C 210.5,39.8333 210.5,39.1667 210.5,38.5 Z"/></g>
<g><path style="opacity:1" fill="#8e8ca7" d="M 209.5,35.5 C 207.401,32.1441 205.401,28.6441 203.5,25C 204.332,24.3123 204.998,24.479 205.5,25.5C 207.406,28.64 208.74,31.9734 209.5,35.5 Z"/></g>
<g><path style="opacity:1" fill="#fefefe" d="M -0.5,64.5 C 1.71053,65.1228 3.71053,66.1228 5.5,67.5C 5.84171,68.3382 6.50838,68.6716 7.5,68.5C 6.76589,69.7079 6.43255,71.0413 6.5,72.5C 8.61334,73.2563 10.6133,73.4229 12.5,73C 16.0026,76.5803 20.0026,79.4136 24.5,81.5C 25.609,81.5569 26.609,81.8902 27.5,82.5C 28.4475,83.9779 29.7809,84.9779 31.5,85.5C 20.8333,85.5 10.1667,85.5 -0.5,85.5C -0.5,78.5 -0.5,71.5 -0.5,64.5 Z"/></g>
<g><path style="opacity:1" fill="#c3efb3" d="M 68.5,65.5 C 69.8734,65.3433 71.2068,65.51 72.5,66C 71.1667,67 71.1667,68 72.5,69C 71.5509,69.6172 70.7175,69.4506 70,68.5C 69.2917,69.3805 68.4584,70.0472 67.5,70.5C 67.6399,68.8762 66.9733,67.7096 65.5,67C 66.5266,66.4867 67.5266,65.9867 68.5,65.5 Z"/></g>
<g><path style="opacity:1" fill="#dff8d9" d="M 74.5,52.5 C 75.8062,52.879 77.1395,53.2124 78.5,53.5C 77.7542,54.7362 77.4208,56.0695 77.5,57.5C 78.9228,55.4551 80.9228,54.4551 83.5,54.5C 81.9868,58.8579 79.9868,63.0246 77.5,67C 77.7284,67.3988 78.0618,67.5654 78.5,67.5C 78.5,67.8333 78.5,68.1667 78.5,68.5C 77.2092,69.5345 75.8758,70.5345 74.5,71.5C 74.44,70.9569 74.1067,70.6236 73.5,70.5C 69.631,73.9655 65.2977,75.2988 60.5,74.5C 60.5,73.8333 60.5,73.1667 60.5,72.5C 63.797,73.8547 64.1304,73.3547 61.5,71C 63.3196,69.3115 65.3196,69.1448 67.5,70.5C 68.4584,70.0472 69.2917,69.3805 70,68.5C 70.7175,69.4506 71.5509,69.6172 72.5,69C 71.1667,68 71.1667,67 72.5,66C 71.2068,65.51 69.8734,65.3433 68.5,65.5C 67.3998,64.4415 66.0664,63.6082 64.5,63C 65.7932,62.51 67.1266,62.3433 68.5,62.5C 69.1109,59.2791 70.2776,56.2791 72,53.5C 73.159,54.566 73.9924,54.2327 74.5,52.5 Z"/></g>
<g><path style="opacity:1" fill="#bdedab" d="M 77.5,57.5 C 77.8331,61.3232 76.1664,62.8232 72.5,62C 73.8333,60.6667 73.8333,59.3333 72.5,58C 74.1341,57.5065 75.8008,57.3398 77.5,57.5 Z"/></g>
<g><path style="opacity:1" fill="#c5f0b7" d="M 12.5,68.5 C 13.531,67.7515 14.6976,67.0848 16,66.5C 17.0736,67.6184 18.2402,68.6184 19.5,69.5C 17.0762,71.7136 17.7429,72.7136 21.5,72.5C 21.33,73.8221 21.6634,74.9887 22.5,76C 21.2575,76.3114 20.2575,75.8114 19.5,74.5C 18.8076,75.0253 18.3076,75.6919 18,76.5C 16.883,75.0506 16.2163,73.3839 16,71.5C 14.6412,70.635 13.4745,69.635 12.5,68.5 Z"/></g>
<g><path style="opacity:1" fill="#ebe4d5" d="M 199.5,24.5 C 199.804,25.1499 200.137,25.8165 200.5,26.5C 198.969,40.582 197.969,54.582 197.5,68.5C 157.833,68.5 118.167,68.5 78.5,68.5C 78.5,68.1667 78.5,67.8333 78.5,67.5C 118.167,67.5 157.833,67.5 197.5,67.5C 197.806,64.6146 197.473,61.9479 196.5,59.5C 196.5,47.8333 196.5,36.1667 196.5,24.5C 197.5,24.5 198.5,24.5 199.5,24.5 Z"/></g>
<g><path style="opacity:1" fill="#fefefe" d="M 78.5,68.5 C 118.167,68.5 157.833,68.5 197.5,68.5C 197.5,74.1667 197.5,79.8333 197.5,85.5C 148.5,85.5 99.5,85.5 50.5,85.5C 51.6715,84.6554 53.0048,83.9887 54.5,83.5C 56.153,83.3404 57.4863,82.6737 58.5,81.5C 64.7696,79.6968 70.1029,76.3635 74.5,71.5C 75.8758,70.5345 77.2092,69.5345 78.5,68.5 Z"/></g>
<g><path style="opacity:1" fill="#3ab196" d="M 50.5,67.5 C 50.5,69.1667 50.5,70.8333 50.5,72.5C 46.4532,74.4694 44.4532,73.1361 44.5,68.5C 46.5648,68.4828 48.5648,68.1495 50.5,67.5 Z"/></g>
<g><path style="opacity:1" fill="#4ebd87" d="M 54.5,64.5 C 54.2627,65.791 54.596,66.791 55.5,67.5C 54.3915,68.29 53.0581,68.79 51.5,69C 52.5266,69.5133 53.5266,70.0133 54.5,70.5C 54.5,71.8333 54.5,73.1667 54.5,74.5C 52.847,74.3404 51.5137,73.6737 50.5,72.5C 50.5,70.8333 50.5,69.1667 50.5,67.5C 51.795,66.5116 53.1283,65.5116 54.5,64.5 Z"/></g>
<g><path style="opacity:1" fill="#63c974" d="M 54.5,70.5 C 56.8863,70.2587 58.8863,70.9254 60.5,72.5C 60.5,73.1667 60.5,73.8333 60.5,74.5C 59.8333,74.5 59.1667,74.5 58.5,74.5C 57.1667,74.5 55.8333,74.5 54.5,74.5C 54.5,73.1667 54.5,71.8333 54.5,70.5 Z"/></g>
<g><path style="opacity:1" fill="#effeef" d="M 74.5,71.5 C 70.1029,76.3635 64.7696,79.6968 58.5,81.5C 57.9907,80.6587 58.6573,80.1587 60.5,80C 59.3595,79.2588 59.3595,78.4255 60.5,77.5C 59.6034,77.3309 58.6034,76.9976 57.5,76.5C 57.8627,75.8165 58.1961,75.1499 58.5,74.5C 59.1667,74.5 59.8333,74.5 60.5,74.5C 65.2977,75.2988 69.631,73.9655 73.5,70.5C 74.1067,70.6236 74.44,70.9569 74.5,71.5 Z"/></g>
<g><path style="opacity:1" fill="#918fa8" d="M 198.5,80.5 C 201.304,79.3622 204.304,79.1955 207.5,80C 204.546,81.7186 201.546,81.8853 198.5,80.5 Z"/></g>
<g><path style="opacity:1" fill="#908ea8" d="M 211.5,85.5 C 210.833,85.5 210.167,85.5 209.5,85.5C 210.829,58.8733 211.496,58.8733 211.5,85.5 Z"/></g>
<g><path style="opacity:1" fill="#c8f1bb" d="M 27.5,82.5 C 26.609,81.8902 25.609,81.5569 24.5,81.5C 25.7683,80.213 25.435,79.213 23.5,78.5C 25.7814,74.4307 27.1147,74.7641 27.5,79.5C 29.1238,79.6399 30.2904,78.9733 31,77.5C 32.9743,77.6256 35.141,77.7922 37.5,78C 35.1128,78.9761 33.9461,80.8094 34,83.5C 33.2588,82.3595 32.4255,82.3595 31.5,83.5C 30.3044,83.1543 30.3044,82.6543 31.5,82C 29.9343,81.235 28.6009,81.4017 27.5,82.5 Z"/></g>
<g><path style="opacity:1" fill="#c7f0b9" d="M 54.5,83.5 C 53.0048,83.9887 51.6715,84.6554 50.5,85.5C 49.8333,85.5 49.1667,85.5 48.5,85.5C 45.4793,83.2402 42.1459,82.9069 38.5,84.5C 38.67,83.1779 38.3366,82.0113 37.5,81C 38.7932,80.51 40.1266,80.3433 41.5,80.5C 41.2771,77.8858 42.4438,76.2191 45,75.5C 44.8596,77.8511 44.3596,80.1845 43.5,82.5C 45.2012,82.0338 46.7012,82.0338 48,82.5C 48.6667,81.8333 49.3333,81.1667 50,80.5C 50.7096,81.9733 51.8762,82.6399 53.5,82.5C 53.5,81.5 53.5,80.5 53.5,79.5C 54.675,79.281 55.675,79.6143 56.5,80.5C 55.3881,81.2652 54.7214,82.2652 54.5,83.5 Z"/></g>
</svg>
